<svg xmlns="http://www.w3.org/2000/svg" xmlns:xlink="http://www.w3.org/1999/xlink" width="30" height="30" viewBox="0 0 30 30"><defs><clipPath id="a"><rect width="16" height="12" fill="#006eb8"/></clipPath></defs><g transform="translate(533 -2180)"><circle cx="15" cy="15" r="15" transform="translate(-533 2180)" fill="#fff"/><g transform="translate(-526.5 2189)"><g transform="translate(0 0)" clip-path="url(#a)"><path d="M14.106,7.257H.964a.976.976,0,0,1,0-1.952H14.106a.976.976,0,0,1,0,1.952" transform="translate(0 -0.128)" fill="#006eb8"/><path d="M10.639,12a.955.955,0,0,1-.666-.27.984.984,0,0,1-.031-1.379L14.049,6,9.942,1.651A.985.985,0,0,1,9.973.271.953.953,0,0,1,11.336.3l4.743,5.024a.984.984,0,0,1,0,1.348L11.336,11.7a.957.957,0,0,1-.7.3" transform="translate(-0.346 0)" fill="#006eb8"/></g></g></g></svg>