<svg xmlns="http://www.w3.org/2000/svg" xmlns:xlink="http://www.w3.org/1999/xlink" width="22" height="22" viewBox="0 0 22 22"><defs><clipPath id="a"><rect width="11.733" height="8.8" fill="#cecece"/></clipPath></defs><g transform="translate(-271 -2816)"><circle cx="11" cy="11" r="11" transform="translate(271 2816)" fill="#fff"/><g transform="translate(275.767 2822.6)"><g transform="translate(0 0)" clip-path="url(#a)"><path d="M10.345,6.736H.707a.716.716,0,0,1,0-1.431h9.638a.716.716,0,0,1,0,1.431" transform="translate(0 -1.509)" fill="#cecece"/><path d="M10.382,8.8a.7.7,0,0,1-.489-.2.722.722,0,0,1-.023-1.011L12.882,4.4,9.871,1.211A.722.722,0,0,1,9.894.2a.7.7,0,0,1,1,.024l3.478,3.684a.722.722,0,0,1,0,.988L10.893,8.578a.7.7,0,0,1-.511.222" transform="translate(-2.834 0)" fill="#cecece"/></g></g></g></svg>