<svg xmlns="http://www.w3.org/2000/svg" width="29.77" height="30.08" viewBox="0 0 29.77 30.08"><g transform="translate(-324.475 -23)"><path d="M5.945-1.48a.185.185,0,0,1,.14.065L6.47-1A3.065,3.065,0,0,1,5.4-.205,3.653,3.653,0,0,1,3.885.08a3.547,3.547,0,0,1-1.4-.268A3.079,3.079,0,0,1,1.41-.937,3.39,3.39,0,0,1,.72-2.1,4.324,4.324,0,0,1,.475-3.58,4.171,4.171,0,0,1,.73-5.065a3.4,3.4,0,0,1,.717-1.16,3.208,3.208,0,0,1,1.107-.753A3.685,3.685,0,0,1,3.98-7.245,3.471,3.471,0,0,1,5.33-7a3.4,3.4,0,0,1,1.03.665l-.32.445a.262.262,0,0,1-.077.082.222.222,0,0,1-.128.033.4.4,0,0,1-.22-.1,3.342,3.342,0,0,0-.34-.218,2.64,2.64,0,0,0-.525-.217,2.652,2.652,0,0,0-.775-.1,2.6,2.6,0,0,0-1.015.193,2.216,2.216,0,0,0-.793.557,2.572,2.572,0,0,0-.517.89A3.551,3.551,0,0,0,1.465-3.58a3.457,3.457,0,0,0,.192,1.2,2.639,2.639,0,0,0,.525.888,2.219,2.219,0,0,0,.785.552,2.5,2.5,0,0,0,.977.19,4.032,4.032,0,0,0,.578-.038A2.358,2.358,0,0,0,5-.91a2,2,0,0,0,.405-.2A2.885,2.885,0,0,0,5.775-1.4.259.259,0,0,1,5.945-1.48ZM8.56-.815h3.1V0H7.595V-7.165H8.56ZM19.015-3.58A4.136,4.136,0,0,1,18.76-2.1a3.384,3.384,0,0,1-.72,1.157,3.218,3.218,0,0,1-1.118.752A3.768,3.768,0,0,1,15.48.075a3.75,3.75,0,0,1-1.44-.267,3.223,3.223,0,0,1-1.115-.752A3.384,3.384,0,0,1,12.2-2.1,4.136,4.136,0,0,1,11.95-3.58,4.136,4.136,0,0,1,12.2-5.057a3.41,3.41,0,0,1,.72-1.16,3.236,3.236,0,0,1,1.115-.758,3.719,3.719,0,0,1,1.44-.27,3.738,3.738,0,0,1,1.443.27,3.23,3.23,0,0,1,1.118.758,3.411,3.411,0,0,1,.72,1.16A4.136,4.136,0,0,1,19.015-3.58Zm-.995,0a3.641,3.641,0,0,0-.18-1.185,2.506,2.506,0,0,0-.51-.887,2.213,2.213,0,0,0-.8-.558,2.716,2.716,0,0,0-1.05-.2,2.7,2.7,0,0,0-1.045.2,2.237,2.237,0,0,0-.8.558,2.486,2.486,0,0,0-.512.887,3.641,3.641,0,0,0-.18,1.185A3.619,3.619,0,0,0,13.12-2.4a2.489,2.489,0,0,0,.512.885,2.21,2.21,0,0,0,.8.555,2.733,2.733,0,0,0,1.045.192,2.747,2.747,0,0,0,1.05-.192,2.187,2.187,0,0,0,.8-.555,2.51,2.51,0,0,0,.51-.885A3.619,3.619,0,0,0,18.02-3.58Zm6.045-2.465a.368.368,0,0,1-.1.113.214.214,0,0,1-.128.037.357.357,0,0,1-.2-.085q-.115-.085-.287-.187a2.313,2.313,0,0,0-.415-.187,1.786,1.786,0,0,0-.587-.085,1.715,1.715,0,0,0-.573.088,1.226,1.226,0,0,0-.415.237.975.975,0,0,0-.253.352,1.119,1.119,0,0,0-.085.438.809.809,0,0,0,.147.5,1.271,1.271,0,0,0,.39.338,2.988,2.988,0,0,0,.55.242l.63.213q.323.11.63.247a2.216,2.216,0,0,1,.55.347,1.584,1.584,0,0,1,.39.515,1.714,1.714,0,0,1,.148.75,2.419,2.419,0,0,1-.16.882,2.035,2.035,0,0,1-.468.718,2.187,2.187,0,0,1-.755.48A2.777,2.777,0,0,1,22.06.08a3.1,3.1,0,0,1-1.27-.253,2.98,2.98,0,0,1-.975-.683l.28-.46a.368.368,0,0,1,.1-.092.228.228,0,0,1,.127-.038.283.283,0,0,1,.148.053q.083.052.188.132t.24.175A1.983,1.983,0,0,0,21.2-.91a2.081,2.081,0,0,0,.392.132,2.138,2.138,0,0,0,.495.053,1.847,1.847,0,0,0,.615-.1,1.306,1.306,0,0,0,.458-.267A1.159,1.159,0,0,0,23.45-1.5a1.378,1.378,0,0,0,.1-.535.9.9,0,0,0-.148-.532,1.223,1.223,0,0,0-.388-.348,2.692,2.692,0,0,0-.55-.238l-.63-.2a6.683,6.683,0,0,1-.63-.237,2.035,2.035,0,0,1-.55-.35,1.608,1.608,0,0,1-.388-.537,1.914,1.914,0,0,1-.147-.8,1.9,1.9,0,0,1,.147-.735,1.877,1.877,0,0,1,.43-.63,2.1,2.1,0,0,1,.695-.44,2.537,2.537,0,0,1,.948-.165,3.013,3.013,0,0,1,1.093.19,2.58,2.58,0,0,1,.868.55Zm6.175-1.12v.79H26.8V-4h2.79v.76H26.8V-.79h3.45l0,.79H25.825V-7.165Z" transform="translate(324 53)" fill="#fff"/><g transform="translate(2 3)"><rect width="32" height="1" transform="translate(351.213 20.866) rotate(150)" fill="#fff"/><rect width="32" height="1" transform="translate(323.5 20) rotate(30)" fill="#fff"/></g></g></svg>