<svg xmlns="http://www.w3.org/2000/svg" xmlns:xlink="http://www.w3.org/1999/xlink" width="95" height="95" viewBox="0 0 95 95"><defs><clipPath id="a"><rect width="95" height="95" fill="none"/></clipPath></defs><g clip-path="url(#a)"><path d="M69.477,94.093H16.111a2.913,2.913,0,0,1-2.9-2.9v-69.4a1,1,0,0,1,2,0v69.4a.907.907,0,0,0,.9.9H69.477a1,1,0,0,1,0,2Z" fill="#164b99"/><path d="M78.887,81.507a1,1,0,0,1-1-1V14.678a.9.9,0,0,0-.9-.9h-54.4a1,1,0,1,1,0-2h54.4a2.9,2.9,0,0,1,2.9,2.9V80.507A1,1,0,0,1,78.887,81.507Z" fill="#164b99"/><path d="M69.843,86.026H23.258a2.9,2.9,0,0,1-2.9-2.9V22.745a2.9,2.9,0,0,1,2.892-2.9H54.516a1,1,0,0,1,0,2H23.258a.9.9,0,0,0-.9.9V83.126a.9.9,0,0,0,.9.9H69.84a.907.907,0,0,0,.9-.9V49.681a1,1,0,1,1,2,0V83.126A2.913,2.913,0,0,1,69.843,86.026Z" fill="#164b99"/><path d="M71.736,23.745a1,1,0,0,1-1-1,.907.907,0,0,0-.9-.9,1,1,0,0,1,.006-2,2.91,2.91,0,0,1,2.9,2.9A1,1,0,0,1,71.736,23.745Z" fill="#164b99"/><path d="M30.965,1H0A1,1,0,0,1-1,0,1,1,0,0,1,0-1H30.965a1,1,0,0,1,1,1A1,1,0,0,1,30.965,1Z" transform="translate(31.065 49.681)" fill="#164b99"/><path d="M30.965,1H0A1,1,0,0,1-1,0,1,1,0,0,1,0-1H30.965a1,1,0,0,1,1,1A1,1,0,0,1,30.965,1Z" transform="translate(31.065 57.743)" fill="#164b99"/><path d="M23.822,1H0A1,1,0,0,1-1,0,1,1,0,0,1,0-1H23.822a1,1,0,0,1,1,1A1,1,0,0,1,23.822,1Z" transform="translate(31.065 65.805)" fill="#164b99"/><path d="M67.306,43.742H59.565l9.22-21.012h7.741Z" fill="#edeff2"/><path d="M67.306,44.742H59.565a1,1,0,0,1-.916-1.4l9.22-21.012a1,1,0,0,1,.916-.6h7.741a1,1,0,0,1,.916,1.4l-9.22,21.012A1,1,0,0,1,67.306,44.742Zm-6.21-2h5.557L75,23.73H69.438Z" fill="#164b99"/><path d="M78.7,43.742h7.741L77.218,22.73H69.477Z" fill="#edeff2"/><path d="M86.441,44.742H78.7a1,1,0,0,1-.916-.6L68.561,23.132a1,1,0,0,1,.916-1.4h7.741a1,1,0,0,1,.916.6L87.357,43.34a1,1,0,0,1-.916,1.4Zm-7.088-2H84.91L76.565,23.73H71.008Z" fill="#164b99"/><path d="M84.8,8.432a13.449,13.449,0,1,1-4.851-5.055" fill="#edeff2"/><path d="M73.026,29.351a14.5,14.5,0,0,1-4.07-.586A14.449,14.449,0,1,1,80.465,2.521a1,1,0,1,1-1.032,1.713,12.449,12.449,0,1,0,4.49,4.679,1,1,0,0,1,1.754-.961,14.46,14.46,0,0,1-12.651,21.4Z" fill="#164b99"/></g></svg>