<svg xmlns="http://www.w3.org/2000/svg" xmlns:xlink="http://www.w3.org/1999/xlink" width="95" height="95" viewBox="0 0 95 95"><defs><clipPath id="a"><rect width="95" height="95" fill="none"/></clipPath><clipPath id="b"><path d="M16.065,22.634A25.568,25.568,0,0,0,50.389,59.315l10.4-13q.285-.8.514-1.6A25.567,25.567,0,0,0,16.065,22.634" fill="none"/></clipPath></defs><g clip-path="url(#a)"><path d="M69,37.773A32.348,32.348,0,1,1,36.652,5.425,32.348,32.348,0,0,1,69,37.773" fill="#edeff2"/><path d="M63.182,37.773A26.526,26.526,0,1,1,36.656,11.247,26.526,26.526,0,0,1,63.182,37.773" fill="#edeff2"/><path d="M36.668,70.457A32.687,32.687,0,0,1,8.626,20.945l1.715,1.03A30.73,30.73,0,1,0,19.983,12L18.9,10.325a32.682,32.682,0,1,1,35.5,54.885,32.591,32.591,0,0,1-17.726,5.246Z" fill="#164b99"/><path d="M36.73,64.286a26.567,26.567,0,1,1,25.531-19.3c-.159.559-.339,1.119-.534,1.664a1,1,0,0,1-1.883-.675c.18-.5.347-1.02.494-1.537A24.592,24.592,0,1,0,49.854,58.47a1,1,0,0,1,1.07,1.69A26.487,26.487,0,0,1,36.73,64.286Z" fill="#164b99"/><path d="M60.764,58.476l6.317,6.316L63.675,68.2l-6.317-6.317Zm0-2.829L54.53,61.881l9.145,9.145,6.234-6.234Z" fill="#164b99"/><path d="M1.521,2.521a1,1,0,0,1-.707-.293L-.707.707a1,1,0,0,1,0-1.414,1,1,0,0,1,1.414,0L2.228.814a1,1,0,0,1-.707,1.707Z" transform="translate(70.875 80.994)" fill="#164b99"/><path d="M83.007,92.147a5.74,5.74,0,0,1-4.085-1.692l-.733-.733A1,1,0,0,1,79.6,88.308l.733.733a3.777,3.777,0,0,0,5.342,0l2.246-2.246a3.777,3.777,0,0,0,0-5.342L72.876,66.407a3.783,3.783,0,0,0-5.342,0l-2.246,2.244a3.783,3.783,0,0,0,0,5.342l6.294,6.294A1,1,0,0,1,70.168,81.7l-6.294-6.294a5.786,5.786,0,0,1,0-8.17l2.247-2.245a5.786,5.786,0,0,1,8.17,0L89.338,80.039a5.776,5.776,0,0,1,0,8.17l-2.246,2.246A5.737,5.737,0,0,1,83.007,92.147Z" fill="#164b99"/></g><g clip-path="url(#b)"><path d="M40.526,55.359l-2.87,2.68-2.87-2.68,2.08-13.44h1.59Z" fill="#164b99"/><path d="M37.656,21.651a6.191,6.191,0,0,1,4.289,1.942,7.579,7.579,0,0,1,2.091,5.45,9.383,9.383,0,0,1-1.66,5.686,5.884,5.884,0,0,1-9.439,0,9.384,9.384,0,0,1-1.66-5.688,7.579,7.579,0,0,1,2.09-5.453A6.192,6.192,0,0,1,37.656,21.651Zm0,13.449a3.777,3.777,0,0,0,3.12-1.572,7.53,7.53,0,0,0,1.26-4.485,5.619,5.619,0,0,0-1.524-4.055,4.163,4.163,0,0,0-2.856-1.337A4.163,4.163,0,0,0,34.8,24.986a5.619,5.619,0,0,0-1.523,4.057,7.531,7.531,0,0,0,1.26,4.487A3.777,3.777,0,0,0,37.656,35.1Z" fill="#164b99"/><path d="M0,19.829a1,1,0,0,1-1-1V0A1,1,0,0,1,0-1,1,1,0,0,1,1,0V18.829A1,1,0,0,1,0,19.829Z" transform="translate(37.656 71.069)" fill="#164b99"/><path d="M48.422,72.069a5.044,5.044,0,0,1-5.036-5.035,1,1,0,0,1,1-1h0a1,1,0,0,1,1,1,3.041,3.041,0,0,0,3.035,3.035.344.344,0,0,0,.343-.344V49.55a7.079,7.079,0,0,0-7.069-7.07h-8.07a7.078,7.078,0,0,0-7.07,7.07V69.724a.345.345,0,0,0,.345.345,3.039,3.039,0,0,0,3.031-3.035,1,1,0,0,1,2,0,5.041,5.041,0,0,1-5.03,5.035,2.348,2.348,0,0,1-2.346-2.345V49.55a9.08,9.08,0,0,1,9.07-9.07h8.07a9.081,9.081,0,0,1,9.069,9.07V69.724A2.346,2.346,0,0,1,48.422,72.069Z" fill="#164b99"/></g></svg>