<svg xmlns="http://www.w3.org/2000/svg" xmlns:xlink="http://www.w3.org/1999/xlink" width="95" height="94.999" viewBox="0 0 95 94.999"><defs><clipPath id="a"><rect width="95" height="94.999" fill="none"/></clipPath><clipPath id="b"><rect width="60.835" height="40.702" transform="translate(33.566 54.297)" fill="none"/></clipPath></defs><g clip-path="url(#a)"><path d="M23.41,8.51a6.612,6.612,0,0,1,4.58,2.075,8.117,8.117,0,0,1,2.238,5.838,10.066,10.066,0,0,1-1.78,6.1,6.279,6.279,0,0,1-10.076,0,10.066,10.066,0,0,1-1.78-6.1,8.117,8.117,0,0,1,2.238-5.838A6.612,6.612,0,0,1,23.41,8.51Zm0,14.545a4.163,4.163,0,0,0,3.439-1.733,8.223,8.223,0,0,0,1.379-4.9,6.157,6.157,0,0,0-1.671-4.443,4.584,4.584,0,0,0-3.147-1.47,4.584,4.584,0,0,0-3.147,1.47,6.157,6.157,0,0,0-1.671,4.443,8.223,8.223,0,0,0,1.379,4.9A4.163,4.163,0,0,0,23.41,23.055Z" fill="#164b99"/><path d="M0,21.363a1,1,0,0,1-1-1V0A1,1,0,0,1,0-1,1,1,0,0,1,1,0V20.363A1,1,0,0,1,0,21.363Z" transform="translate(23.41 61.872)" fill="#164b99"/><path d="M30.682,83.235a1,1,0,0,1-1-1V41.5A6.824,6.824,0,0,1,36.5,34.686h2.178a7.749,7.749,0,0,0,6.692-3.864l5.683-9.846a3.368,3.368,0,0,0-1.184-4.562l-.053-.028a.451.451,0,0,0-.616.167,1,1,0,0,1-.06.093L42.5,28.189a5.393,5.393,0,0,1-4.649,2.684h-21a7.766,7.766,0,0,0-5.474,2.266L5.892,38.624l-.006.006a6.117,6.117,0,0,0-1.839,4.328,6.329,6.329,0,0,0,1.847,4.348L13.52,54.92a.449.449,0,0,0,.635,0l.01-.01a3.339,3.339,0,0,0,.973-2.238v-.255a3.343,3.343,0,0,0-.982-2.248L8.293,44.307a1,1,0,0,1,.05-1.461l7.138-6.222a1,1,0,0,1,1.657.754V52.422c0,.081,0,.163,0,.244V82.235a1,1,0,0,1-2,0V56.68a2.451,2.451,0,0,1-3.032-.344L4.478,48.718a8.322,8.322,0,0,1-2.431-5.736q0-.013,0-.027A8.1,8.1,0,0,1,4.48,37.207l5.481-5.481a9.716,9.716,0,0,1,6.89-2.853h21a3.385,3.385,0,0,0,2.918-1.683l6.688-11.633a1,1,0,0,1,.078-.116,2.451,2.451,0,0,1,3.2-.828q.04.018.078.04a5.371,5.371,0,0,1,1.967,7.322L47.1,31.822a9.755,9.755,0,0,1-8.424,4.864H36.5A4.821,4.821,0,0,0,31.682,41.5V82.235A1,1,0,0,1,30.682,83.235ZM10.464,43.65l4.674,4.673V39.576Z" fill="#164b99"/></g><g clip-path="url(#b)"><path d="M49.879,59.7c2.354,0,5.38,2.241,5.38,6.392s-2.1,7.057-5.38,7.057-5.38-2.9-5.38-7.057,3.026-6.392,5.38-6.392" fill="#edeff2"/><path d="M49.879,58.7a6.191,6.191,0,0,1,4.289,1.942,7.579,7.579,0,0,1,2.091,5.45,9.383,9.383,0,0,1-1.66,5.686,5.884,5.884,0,0,1-9.439,0,9.384,9.384,0,0,1-1.66-5.688,7.578,7.578,0,0,1,2.091-5.453A6.192,6.192,0,0,1,49.879,58.7Zm0,13.449A3.777,3.777,0,0,0,53,70.577a7.53,7.53,0,0,0,1.26-4.485,5.619,5.619,0,0,0-1.524-4.055,3.722,3.722,0,0,0-5.713,0A5.619,5.619,0,0,0,45.5,66.092a7.531,7.531,0,0,0,1.26,4.487A3.777,3.777,0,0,0,49.879,72.149Z" fill="#164b99"/><path d="M43.155,104.082a4.037,4.037,0,0,1-4.035,4.035,1.345,1.345,0,0,1-1.345-1.345V86.6a8.07,8.07,0,0,1,8.07-8.07h8.07a8.07,8.07,0,0,1,8.069,8.07v20.174a1.344,1.344,0,0,1-1.343,1.345,4.037,4.037,0,0,1-4.035-4.035" fill="#edeff2"/><path d="M60.642,109.119a5.044,5.044,0,0,1-5.036-5.035,1,1,0,0,1,1-1h0a1,1,0,0,1,1,1,3.041,3.041,0,0,0,3.035,3.035.344.344,0,0,0,.343-.344V86.6a7.079,7.079,0,0,0-7.069-7.07h-8.07a7.078,7.078,0,0,0-7.07,7.07v20.172a.345.345,0,0,0,.345.345,3.041,3.041,0,0,0,3.035-3.035,1,1,0,0,1,1-1h0a1,1,0,0,1,1,1,5.043,5.043,0,0,1-5.035,5.035,2.348,2.348,0,0,1-2.345-2.345V86.6a9.08,9.08,0,0,1,9.07-9.07h8.07a9.081,9.081,0,0,1,9.069,9.07v20.174A2.346,2.346,0,0,1,60.642,109.119Z" fill="#164b99"/><path d="M80.681,59.7c2.354,0,5.38,2.241,5.38,6.392s-2.1,7.057-5.38,7.057-5.38-2.9-5.38-7.057,3.026-6.392,5.38-6.392" fill="#edeff2"/><path d="M80.681,58.7a6.191,6.191,0,0,1,4.289,1.942,7.579,7.579,0,0,1,2.091,5.45,9.383,9.383,0,0,1-1.66,5.686,5.884,5.884,0,0,1-9.439,0,9.384,9.384,0,0,1-1.66-5.688,7.578,7.578,0,0,1,2.091-5.453A6.192,6.192,0,0,1,80.681,58.7Zm0,13.449a3.777,3.777,0,0,0,3.12-1.572,7.53,7.53,0,0,0,1.26-4.485,5.619,5.619,0,0,0-1.524-4.055,3.722,3.722,0,0,0-5.713,0A5.619,5.619,0,0,0,76.3,66.092a7.531,7.531,0,0,0,1.26,4.487A3.777,3.777,0,0,0,80.681,72.149Z" fill="#164b99"/><path d="M73.957,104.082a4.037,4.037,0,0,1-4.035,4.035,1.345,1.345,0,0,1-1.345-1.345V86.6a8.07,8.07,0,0,1,8.07-8.07h8.07a8.07,8.07,0,0,1,8.069,8.07v20.174a1.344,1.344,0,0,1-1.343,1.345,4.037,4.037,0,0,1-4.035-4.035" fill="#edeff2"/><path d="M91.444,109.119a5.044,5.044,0,0,1-5.036-5.035,1,1,0,1,1,2,0,3.041,3.041,0,0,0,3.035,3.035.344.344,0,0,0,.343-.344V86.6a7.079,7.079,0,0,0-7.069-7.07h-8.07a7.078,7.078,0,0,0-7.07,7.07v20.172a.345.345,0,0,0,.345.345,3.041,3.041,0,0,0,3.035-3.035,1,1,0,0,1,1-1h0a1,1,0,0,1,1,1,5.043,5.043,0,0,1-5.035,5.035,2.348,2.348,0,0,1-2.345-2.345V86.6a9.08,9.08,0,0,1,9.07-9.07h8.07a9.081,9.081,0,0,1,9.069,9.07v20.174A2.346,2.346,0,0,1,91.444,109.119Z" fill="#164b99"/></g><g clip-path="url(#a)"><path d="M71.25,50H44.565a5.006,5.006,0,0,1-5-5V41.332a1,1,0,1,1,2,0V45a3,3,0,0,0,3,3H71.25a1,1,0,0,1,0,2Z" fill="#164b99"/><path d="M86.34,50a1,1,0,0,1,0-2,3,3,0,0,0,3-3V10.387a3,3,0,0,0-3-3H44.565a3,3,0,0,0-3,3v9.136a1,1,0,1,1-2,0V10.387a5.006,5.006,0,0,1,5-5H86.34a5.006,5.006,0,0,1,5,5V45A5.006,5.006,0,0,1,86.34,50Z" fill="#164b99"/></g></svg>