<svg xmlns="http://www.w3.org/2000/svg" xmlns:xlink="http://www.w3.org/1999/xlink" width="234" height="140" viewBox="0 0 234 140">
  <defs>
    <clipPath id="clip-path">
      <rect id="長方形_507" data-name="長方形 507" width="217.04" height="135.271" fill="none"/>
    </clipPath>
  </defs>
  <g id="グループ_648" data-name="グループ 648" transform="translate(-315 -5123)">
    <rect id="長方形_505" data-name="長方形 505" width="234" height="140" transform="translate(315 5123)" fill="none"/>
    <g id="グループ_647" data-name="グループ 647" transform="translate(322.48 5125)">
      <g id="グループ_646" data-name="グループ 646" clip-path="url(#clip-path)">
        <path id="パス_937" data-name="パス 937" d="M43.007,126.573c-1.267.447-3.131.974-5.173,1.86a19.416,19.416,0,0,0-6.017,3.727,10.613,10.613,0,0,0,9.2,1.695,11.506,11.506,0,0,0,4.128-2.185,16.691,16.691,0,0,0,3.406-3.769,29.392,29.392,0,0,0-1.418-4.817,17.423,17.423,0,0,0-2.045-3.766,8.714,8.714,0,0,0-6.452-3.674,13.107,13.107,0,0,0,1.375,6.524A20.754,20.754,0,0,0,43.007,126.573Z" fill="none" stroke="#164b99" stroke-linecap="round" stroke-linejoin="round" stroke-width="2"/>
        <path id="パス_938" data-name="パス 938" d="M27.722,119.659c-1.305-.128-3.292-.3-5.477-.331a20.1,20.1,0,0,0-7,1.06,13.1,13.1,0,0,0,1.586,2.082,12.121,12.121,0,0,0,1.89,1.542,10.046,10.046,0,0,0,4.314,1.569,14,14,0,0,0,9.277-2.54,22.2,22.2,0,0,0,.168-9.237,9.518,9.518,0,0,0-1.537-3.41,7.172,7.172,0,0,0-1.285-1.355,8.967,8.967,0,0,0-1.649-1.159,12.8,12.8,0,0,0-1.3,6.542A20.594,20.594,0,0,0,27.722,119.659Z" fill="none" stroke="#164b99" stroke-linecap="round" stroke-linejoin="round" stroke-width="2"/>
        <path id="パス_939" data-name="パス 939" d="M17.439,107.463c-1.217-.559-2.915-1.481-5.016-2.252a19.382,19.382,0,0,0-6.9-1.5,10.923,10.923,0,0,0,.764,2.5,10.115,10.115,0,0,0,4.674,5.124,11.984,11.984,0,0,0,4.488,1.294,17.281,17.281,0,0,0,5.076-.357,28.062,28.062,0,0,0,2.311-4.449,16.342,16.342,0,0,0,1.144-4.13,9.168,9.168,0,0,0-.232-3.728,8.713,8.713,0,0,0-.691-1.736A11.63,11.63,0,0,0,21.9,96.562a13.112,13.112,0,0,0-3.556,5.655A21.613,21.613,0,0,0,17.439,107.463Z" fill="none" stroke="#164b99" stroke-linecap="round" stroke-linejoin="round" stroke-width="2"/>
        <path id="パス_940" data-name="パス 940" d="M10.83,92.607c-.867-.991-2.181-2.485-3.743-4.012a27.614,27.614,0,0,0-2.655-2.227,15.14,15.14,0,0,0-3.14-1.81A12.781,12.781,0,0,0,1,87.153a12.122,12.122,0,0,0,.31,2.414,9.953,9.953,0,0,0,2.046,4.1A11.674,11.674,0,0,0,7,96.593a15.584,15.584,0,0,0,2.267.983,19.429,19.429,0,0,0,2.551.65q1.094-.774,2.046-1.576c.652-.537,1.258-1.082,1.808-1.632a17.167,17.167,0,0,0,2.644-3.368,9.634,9.634,0,0,0,1.233-3.538,7.248,7.248,0,0,0,0-1.873,9.226,9.226,0,0,0-.39-1.983,12.46,12.46,0,0,0-3.08,1.632A13.722,13.722,0,0,0,13.7,88.113,20.418,20.418,0,0,0,10.83,92.607Z" fill="none" stroke="#164b99" stroke-linecap="round" stroke-linejoin="round" stroke-width="2"/>
        <path id="パス_941" data-name="パス 941" d="M10.428,76.2c-.689-1.153-1.575-2.875-2.849-4.7a19.379,19.379,0,0,0-4.845-5.159A10.616,10.616,0,0,0,2.9,75.7a11.5,11.5,0,0,0,2.96,3.612A16.683,16.683,0,0,0,10.225,81.9a29.447,29.447,0,0,0,4.442-2.345,17.369,17.369,0,0,0,3.285-2.75,8.713,8.713,0,0,0,2.323-7.052,13.115,13.115,0,0,0-6.123,2.64A20.8,20.8,0,0,0,10.428,76.2Z" fill="none" stroke="#164b99" stroke-linecap="round" stroke-linejoin="round" stroke-width="2"/>
        <path id="パス_942" data-name="パス 942" d="M15.184,60.118c-.144-1.3-.389-3.283-.806-5.428A20.091,20.091,0,0,0,11.9,48.064a13.226,13.226,0,0,0-1.712,1.98,12.267,12.267,0,0,0-1.12,2.168,10.055,10.055,0,0,0-.645,4.545,14,14,0,0,0,4.4,8.554,22.215,22.215,0,0,0,9.073-1.738,9.517,9.517,0,0,0,3.02-2.208,7.189,7.189,0,0,0,1.062-1.535,9.049,9.049,0,0,0,.794-1.854,12.81,12.81,0,0,0-6.671.073A20.582,20.582,0,0,0,15.184,60.118Z" fill="none" stroke="#164b99" stroke-linecap="round" stroke-linejoin="round" stroke-width="2"/>
        <path id="パス_943" data-name="パス 943" d="M25.277,47.24c.3-1.306.848-3.157,1.17-5.373A19.364,19.364,0,0,0,26.5,34.8a10.951,10.951,0,0,0-2.287,1.262,10.117,10.117,0,0,0-4.05,5.629,11.977,11.977,0,0,0-.342,4.659,17.262,17.262,0,0,0,1.4,4.893,28.006,28.006,0,0,0,4.83,1.345,16.335,16.335,0,0,0,4.277.269,9.2,9.2,0,0,0,3.6-1,8.784,8.784,0,0,0,1.556-1.035,11.542,11.542,0,0,0,1.387-1.471A13.13,13.13,0,0,0,30.6,47.043,21.6,21.6,0,0,0,25.277,47.24Z" fill="none" stroke="#164b99" stroke-linecap="round" stroke-linejoin="round" stroke-width="2"/>
        <path id="パス_944" data-name="パス 944" d="M174.01,126.571c1.267.448,3.13.976,5.172,1.863a19.392,19.392,0,0,1,6.015,3.731,10.619,10.619,0,0,1-9.206,1.69,11.541,11.541,0,0,1-4.127-2.188,16.719,16.719,0,0,1-3.4-3.771,29.514,29.514,0,0,1,1.421-4.817,17.411,17.411,0,0,1,2.047-3.764,8.712,8.712,0,0,1,6.454-3.67A13.1,13.1,0,0,1,177,122.168,20.73,20.73,0,0,1,174.01,126.571Z" fill="none" stroke="#164b99" stroke-linecap="round" stroke-linejoin="round" stroke-width="2"/>
        <path id="パス_945" data-name="パス 945" d="M189.3,119.665c1.305-.128,3.292-.295,5.478-.328a20.107,20.107,0,0,1,6.994,1.064,13.152,13.152,0,0,1-1.587,2.081,12.281,12.281,0,0,1-1.891,1.542,10.067,10.067,0,0,1-4.316,1.566,14,14,0,0,1-9.275-2.545,22.211,22.211,0,0,1-.163-9.237,9.515,9.515,0,0,1,1.54-3.41,7.135,7.135,0,0,1,1.285-1.354,8.972,8.972,0,0,1,1.65-1.158,12.808,12.808,0,0,1,1.3,6.543A20.606,20.606,0,0,1,189.3,119.665Z" fill="none" stroke="#164b99" stroke-linecap="round" stroke-linejoin="round" stroke-width="2"/>
        <path id="パス_946" data-name="パス 946" d="M199.589,107.474c1.218-.559,2.915-1.479,5.017-2.249a19.365,19.365,0,0,1,6.9-1.5,10.966,10.966,0,0,1-.765,2.5,10.117,10.117,0,0,1-4.677,5.121,11.969,11.969,0,0,1-4.488,1.292,17.278,17.278,0,0,1-5.076-.36,27.968,27.968,0,0,1-2.309-4.45,16.334,16.334,0,0,1-1.142-4.13,9.155,9.155,0,0,1,.234-3.729,8.8,8.8,0,0,1,.692-1.736,11.687,11.687,0,0,1,1.155-1.66,13.114,13.114,0,0,1,3.553,5.658A21.581,21.581,0,0,1,199.589,107.474Z" fill="none" stroke="#164b99" stroke-linecap="round" stroke-linejoin="round" stroke-width="2"/>
        <path id="パス_947" data-name="パス 947" d="M206.206,92.622c.867-.991,2.182-2.483,3.746-4.01a27.6,27.6,0,0,1,2.655-2.225,15.177,15.177,0,0,1,3.142-1.809,12.863,12.863,0,0,1,.29,2.6,12.184,12.184,0,0,1-.311,2.413,9.949,9.949,0,0,1-2.049,4.1,11.658,11.658,0,0,1-3.646,2.922,15.439,15.439,0,0,1-2.268.982,19.245,19.245,0,0,1-2.552.648q-1.092-.774-2.044-1.576c-.652-.538-1.257-1.083-1.807-1.634a17.092,17.092,0,0,1-2.642-3.369,9.643,9.643,0,0,1-1.232-3.539,7.248,7.248,0,0,1,0-1.873,9.258,9.258,0,0,1,.392-1.983,12.452,12.452,0,0,1,3.078,1.634,13.65,13.65,0,0,1,2.376,2.227A20.4,20.4,0,0,1,206.206,92.622Z" fill="none" stroke="#164b99" stroke-linecap="round" stroke-linejoin="round" stroke-width="2"/>
        <path id="パス_948" data-name="パス 948" d="M206.618,76.214c.69-1.153,1.577-2.875,2.851-4.7a19.373,19.373,0,0,1,4.849-5.156,10.616,10.616,0,0,1-.168,9.358,11.518,11.518,0,0,1-2.963,3.611,16.672,16.672,0,0,1-4.37,2.589,29.43,29.43,0,0,1-4.44-2.347,17.437,17.437,0,0,1-3.284-2.752,8.713,8.713,0,0,1-2.318-7.053,13.107,13.107,0,0,1,6.121,2.643A20.747,20.747,0,0,1,206.618,76.214Z" fill="none" stroke="#164b99" stroke-linecap="round" stroke-linejoin="round" stroke-width="2"/>
        <path id="パス_949" data-name="パス 949" d="M201.871,60.131c.144-1.3.389-3.283.808-5.428a20.13,20.13,0,0,1,2.482-6.625,13.165,13.165,0,0,1,1.71,1.982,12.164,12.164,0,0,1,1.118,2.169,10.065,10.065,0,0,1,.644,4.545,14,14,0,0,1-4.4,8.552,22.223,22.223,0,0,1-9.073-1.744,9.515,9.515,0,0,1-3.019-2.209,7.159,7.159,0,0,1-1.06-1.537,8.961,8.961,0,0,1-.793-1.853,12.8,12.8,0,0,1,6.67.076A20.574,20.574,0,0,1,201.871,60.131Z" fill="none" stroke="#164b99" stroke-linecap="round" stroke-linejoin="round" stroke-width="2"/>
        <path id="パス_950" data-name="パス 950" d="M191.785,47.247c-.3-1.307-.847-3.158-1.167-5.373a19.351,19.351,0,0,1-.045-7.066,10.974,10.974,0,0,1,2.286,1.264,10.126,10.126,0,0,1,4.048,5.631,12,12,0,0,1,.339,4.659,17.266,17.266,0,0,1-1.4,4.892,27.99,27.99,0,0,1-4.83,1.343,16.372,16.372,0,0,1-4.277.266,9.175,9.175,0,0,1-3.6-1,8.754,8.754,0,0,1-1.556-1.036,11.537,11.537,0,0,1-1.386-1.471,13.118,13.118,0,0,1,6.268-2.312A21.628,21.628,0,0,1,191.785,47.247Z" fill="none" stroke="#164b99" stroke-linecap="round" stroke-linejoin="round" stroke-width="2"/>
        <path id="パス_951" data-name="パス 951" d="M99.326,113.267l23.211-1.1a6.995,6.995,0,0,0-.363-13.982l-13.861.057S95.64,90.213,84.59,91.159c-8.076.69-19.86,12.075-25.6,18.13" fill="none" stroke="#164b99" stroke-linecap="round" stroke-linejoin="round" stroke-width="2"/>
        <path id="パス_952" data-name="パス 952" d="M129.226,106.209l12.516-7.478,12.672-12.672a14.121,14.121,0,0,1,17.935-1.685l3.726,2.538-42.437,41.213a14.932,14.932,0,0,1-10.2,4.049l-39.968,1.6" fill="none" stroke="#164b99" stroke-linecap="round" stroke-linejoin="round" stroke-width="2"/>
        <path id="パス_953" data-name="パス 953" d="M127.285,55.327l-14.736-7.611L97.924,55.54a2.013,2.013,0,0,1-2.936-2.1l2.684-16.367L85.712,25.581A2.013,2.013,0,0,1,86.8,22.139l16.395-2.5L110.43,4.709a2.014,2.014,0,0,1,3.612-.027L121.49,19.5l16.43,2.265a2.014,2.014,0,0,1,1.141,3.427L127.268,36.857l2.923,16.326A2.013,2.013,0,0,1,127.285,55.327Z" fill="none" stroke="#164b99" stroke-linecap="round" stroke-linejoin="round" stroke-width="2"/>
        <path id="パス_954" data-name="パス 954" d="M104.066,56.523l2.377.329a1.457,1.457,0,0,1,.826,2.48l-8.536,8.441,2.116,11.817a1.457,1.457,0,0,1-2.1,1.551L88.079,75.632,77.494,81.3a1.458,1.458,0,0,1-2.126-1.521l1.943-11.847-8.657-8.317a1.458,1.458,0,0,1,.79-2.492l11.867-1.812,5.235-10.8a1.458,1.458,0,0,1,2.614-.019L91.6,49.34" fill="none" stroke="#164b99" stroke-linecap="round" stroke-linejoin="round" stroke-width="2"/>
        <path id="パス_955" data-name="パス 955" d="M133.085,49.258l2.3-4.754A1.458,1.458,0,0,1,138,44.485l5.391,10.726,11.893,1.64a1.457,1.457,0,0,1,.825,2.48l-8.535,8.442,2.115,11.817a1.457,1.457,0,0,1-2.1,1.552l-10.666-5.509L126.336,81.3a1.456,1.456,0,0,1-2.125-1.52l1.943-11.847L117.5,59.612a1.458,1.458,0,0,1,.789-2.492l3.3-.5" fill="none" stroke="#164b99" stroke-linecap="round" stroke-linejoin="round" stroke-width="2"/>
        <line id="線_95" data-name="線 95" x1="5.977" y1="0.369" transform="translate(149.55 27.139)" fill="none" stroke="#164b99" stroke-linecap="round" stroke-linejoin="round" stroke-width="2"/>
        <line id="線_96" data-name="線 96" x1="1.121" y2="5.976" transform="translate(131.876 1)" fill="none" stroke="#164b99" stroke-linecap="round" stroke-linejoin="round" stroke-width="2"/>
        <line id="線_97" data-name="線 97" x1="4.565" y2="4.068" transform="translate(144.661 10.156)" fill="none" stroke="#164b99" stroke-linecap="round" stroke-linejoin="round" stroke-width="2"/>
        <line id="線_98" data-name="線 98" y1="0.369" x2="5.977" transform="translate(69.224 27.139)" fill="none" stroke="#164b99" stroke-linecap="round" stroke-linejoin="round" stroke-width="2"/>
        <line id="線_99" data-name="線 99" x2="1.121" y2="5.976" transform="translate(91.754 1)" fill="none" stroke="#164b99" stroke-linecap="round" stroke-linejoin="round" stroke-width="2"/>
        <line id="線_100" data-name="線 100" x2="4.565" y2="4.068" transform="translate(75.525 10.156)" fill="none" stroke="#164b99" stroke-linecap="round" stroke-linejoin="round" stroke-width="2"/>
      </g>
    </g>
  </g>
</svg>
