<svg xmlns="http://www.w3.org/2000/svg" xmlns:xlink="http://www.w3.org/1999/xlink" width="318" height="460" viewBox="0 0 318 460"><defs><clipPath id="a"><rect width="318" height="460" transform="translate(29 2051)" fill="#efefef"/></clipPath><linearGradient id="b" x1="0.878" y1="0.697" x2="0.285" y2="0.06" gradientUnits="objectBoundingBox"><stop offset="0" stop-color="#f5f8ff"/><stop offset="1" stop-color="#cbd6f0"/></linearGradient><linearGradient id="c" x1="0.103" y1="0.206" x2="0.899" y2="0.673" gradientUnits="objectBoundingBox"><stop offset="0" stop-color="#b6e0e0"/><stop offset="1" stop-color="#f4fcfc"/></linearGradient><linearGradient id="d" x1="0.235" y1="0.098" x2="0.664" y2="0.946" gradientUnits="objectBoundingBox"><stop offset="0" stop-color="#82a7dd"/><stop offset="0.581" stop-color="#006eb8"/><stop offset="1" stop-color="#006eb8"/></linearGradient></defs><g transform="translate(-29 -2051)" clip-path="url(#a)"><g transform="translate(-8 -132.772)"><g transform="translate(38.682 2222.061)"><g transform="translate(0 0)" opacity="0.3"><path d="M156.5,1a156.655,156.655,0,0,0-31.34,3.159,154.643,154.643,0,0,0-55.6,23.4A155.957,155.957,0,0,0,13.22,95.973a154.714,154.714,0,0,0-9.06,29.188,157.026,157.026,0,0,0,0,62.679,154.643,154.643,0,0,0,23.4,55.6,155.957,155.957,0,0,0,68.416,56.34,154.714,154.714,0,0,0,29.188,9.06,157.026,157.026,0,0,0,62.679,0,154.643,154.643,0,0,0,55.6-23.4,155.957,155.957,0,0,0,56.34-68.416,154.713,154.713,0,0,0,9.06-29.188,157.026,157.026,0,0,0,0-62.679,154.643,154.643,0,0,0-23.4-55.6,155.957,155.957,0,0,0-68.416-56.34,154.713,154.713,0,0,0-29.188-9.06A156.655,156.655,0,0,0,156.5,1m0-1A156.5,156.5,0,1,1,0,156.5,156.5,156.5,0,0,1,156.5,0Z" transform="translate(0.318 -0.061)" fill="#123696" opacity="0.5"/><path d="M118.287,1A118.158,118.158,0,0,0,94.648,3.383,116.64,116.64,0,0,0,52.711,21.03a117.632,117.632,0,0,0-42.495,51.6A116.686,116.686,0,0,0,3.383,94.648a118.439,118.439,0,0,0,0,47.277A116.638,116.638,0,0,0,21.03,183.862a117.631,117.631,0,0,0,51.6,42.495,116.686,116.686,0,0,0,22.015,6.834,118.439,118.439,0,0,0,47.277,0,116.639,116.639,0,0,0,41.937-17.647,117.632,117.632,0,0,0,42.495-51.6,116.686,116.686,0,0,0,6.834-22.015,118.439,118.439,0,0,0,0-47.277,116.639,116.639,0,0,0-17.647-41.937,117.632,117.632,0,0,0-51.6-42.495,116.686,116.686,0,0,0-22.015-6.834A118.158,118.158,0,0,0,118.287,1m0-1A118.287,118.287,0,1,1,0,118.287,118.287,118.287,0,0,1,118.287,0Z" transform="translate(38.327 38.327)" fill="#123696" opacity="0.5"/></g></g><circle cx="81.67" cy="81.67" r="81.67" transform="translate(320.135 2392.126) rotate(-160)" fill="url(#b)"/><path d="M-18.015-12.51A16.985,16.985,0,0,1-22.095-6.4a4.944,4.944,0,0,1,.675,1.08,14.529,14.529,0,0,0,1.755-2.01v8.46h1.1V-8.97a23.831,23.831,0,0,0,1.62-3.21Zm9.93,5.775v-1.08h-4.29v-4.5H-13.5v4.5h-4.26v1.08h4.26v6.2h-3.9V.54h9.06V-.54h-4.035v-6.2ZM4.11-1.98H.51V-3.105h3.6ZM.51-5.04h3.6v1.05H.51ZM-3.825-7.7v-1.08H-.6V-7.7ZM3.87-8.775V-7.7H.51v-1.08ZM6.765-3.99H5.22V-5.865H.51v-1.05H4.98v-2.64H.51v-.87H6.48v-.915H.51v-1.2H-.6v1.2H-6.45v.915H-.6v.87H-4.89v2.64H-.6v1.05H-5.31v.825H-.6v1.05H-6.735v.885H-.6V-1.98H-5.445v.855H-.6V-.09c0,.255-.09.345-.375.36C-1.23.27-2.13.285-3.03.255a3.7,3.7,0,0,1,.39.945A8.956,8.956,0,0,0-.15,1.02C.3.855.51.6.51-.09V-1.125h3.6V-.45H5.22V-3.105H6.765ZM21.12-5.25a5.435,5.435,0,0,0-5.745-5.52,6.393,6.393,0,0,0-6.555,6.1c0,2.475,1.335,4,2.67,4,1.4,0,2.58-1.575,3.5-4.665a29.507,29.507,0,0,0,.9-4.32,4.177,4.177,0,0,1,4,4.35A4.53,4.53,0,0,1,16.08-.84a11.331,11.331,0,0,1-1.29.195l.7,1.11C19.05,0,21.12-2.1,21.12-5.25ZM9.99-4.77a5.232,5.232,0,0,1,4.65-4.86,24.508,24.508,0,0,1-.84,4.05c-.765,2.535-1.56,3.54-2.265,3.54C10.86-2.04,9.99-2.88,9.99-4.77ZM-41.565,14.245a19.406,19.406,0,0,1-2.31,4.08l1.275.54a22.284,22.284,0,0,0,2.22-4.125,31.728,31.728,0,0,0,1.35-4.695c.075-.315.18-.765.285-1.1l-1.335-.27A23.256,23.256,0,0,1-41.565,14.245Zm7.4-.57a47.007,47.007,0,0,1,1.695,5.16l1.335-.435c-.405-1.35-1.2-3.66-1.8-5.13-.645-1.59-1.6-3.66-2.19-4.755l-1.215.4A42.192,42.192,0,0,1-34.17,13.675Zm5.7-1.17v1.47c.465-.045,1.26-.075,2.085-.075h8.235c.675,0,1.3.06,1.6.075v-1.47c-.33.03-.87.075-1.62.075h-8.22C-27.225,12.58-28.02,12.535-28.47,12.505ZM-5.16,8.2l-.825.375a14.886,14.886,0,0,1,1.335,2.28l.855-.39A22.6,22.6,0,0,0-5.16,8.2Zm1.815-.75-.825.39a14.593,14.593,0,0,1,1.4,2.25l.84-.42A20.258,20.258,0,0,0-3.345,7.45Zm-7.08,10.425a16.425,16.425,0,0,1-.09,1.77h1.44c-.045-.48-.09-1.29-.09-1.77V12.94a38.441,38.441,0,0,1,5.88,2.4l.525-1.275a50.953,50.953,0,0,0-6.4-2.475V9.145a13.855,13.855,0,0,1,.105-1.56h-1.485a9.468,9.468,0,0,1,.12,1.56ZM12,8.965l-.765-.585a4.107,4.107,0,0,1-1.125.12H4.32c-.45,0-1.3-.06-1.515-.09V9.775C2.97,9.76,3.795,9.7,4.32,9.7h5.85a13.2,13.2,0,0,1-2.49,4.17A17.153,17.153,0,0,1,1.5,18.325l.96,1a19.016,19.016,0,0,0,5.85-4.38,34.633,34.633,0,0,1,4.125,4.455l1.05-.9A41.609,41.609,0,0,0,9.1,14.02a18.984,18.984,0,0,0,2.52-4.4A4.3,4.3,0,0,1,12,8.965Zm8.88-.57c.045.18.15.765.315,1.575-1.41.225-2.715.42-3.3.48-.48.06-.87.09-1.245.1l.255,1.35c.45-.105.8-.18,1.215-.255.57-.1,1.875-.315,3.3-.54.18.93.39,1.995.6,3.015-1.71.27-3.345.525-4.1.63-.39.06-.975.12-1.32.135l.27,1.3c.315-.09.735-.165,1.32-.27.735-.135,2.34-.4,4.035-.69.285,1.485.525,2.7.585,3.03.1.45.15.9.225,1.41L24.4,19.42c-.135-.42-.255-.93-.36-1.365-.075-.345-.315-1.545-.615-3.015,1.47-.225,2.865-.45,3.69-.585.555-.09,1.035-.165,1.35-.195L28.23,13c-.33.09-.75.18-1.335.285-.75.135-2.175.39-3.69.63-.2-1.005-.405-2.07-.6-3,1.44-.225,2.805-.45,3.5-.555.39-.06.855-.12,1.08-.15l-.255-1.26A9.408,9.408,0,0,1,25.86,9.2c-.63.12-2.01.345-3.465.585-.18-.84-.285-1.455-.315-1.62-.045-.33-.12-.75-.135-1.035l-1.35.24A7.027,7.027,0,0,1,20.88,8.395Zm16.98,10.29.795.66a3.21,3.21,0,0,1,.51-.345,14.912,14.912,0,0,0,5.115-4.155l-.7-1.02a11.525,11.525,0,0,1-4.38,3.69V8.86a9.281,9.281,0,0,1,.06-1.11h-1.38a7.119,7.119,0,0,1,.09,1.11v8.985A3.572,3.572,0,0,1,37.86,18.685Zm-6.87-.075,1.125.765a8.383,8.383,0,0,0,2.67-4.125,32.813,32.813,0,0,0,.465-6.375c0-.45.06-.9.075-1.08h-1.38a5.526,5.526,0,0,1,.1,1.095,26.777,26.777,0,0,1-.45,6.03A7.12,7.12,0,0,1,30.99,18.61ZM-37.17,31.475c1.14-.42,2.595-.96,3.975-1.485l-.165-.825c-1.56.555-3.135,1.11-4.215,1.455Zm2.94-2.85a8.273,8.273,0,0,0-2.01-1.365l-.585.675a7.16,7.16,0,0,1,1.98,1.425Zm-4.98,2.505c0,.165-.045.225-.225.225s-.78.015-1.44,0a4.133,4.133,0,0,1,.285.825,6.406,6.406,0,0,0,1.935-.135c.36-.15.48-.4.48-.9V26.21H-43.86v.915h4.65Zm-4.02-3.21a7.7,7.7,0,0,1,1.95,1.47l.6-.72a8.28,8.28,0,0,0-1.965-1.41Zm3.03,1.53c-1.485.585-3,1.14-4.02,1.455l.435.915c1.08-.42,2.43-.975,3.75-1.545Zm6.39,5.865h-7.275V33.86h7.275Zm-7.275,2.4V36.2h7.275v1.515Zm3-6.135a12.9,12.9,0,0,1-.585,1.41h-3.51v6.195h1.1V38.6h7.275v.585h1.125V32.99h-4.89c.21-.36.435-.78.645-1.185Zm6.585-5.37h-5.73v.915h4.68v4.02c0,.18-.06.225-.24.24-.21,0-.855,0-1.56-.03a3.291,3.291,0,0,1,.315.885,6.849,6.849,0,0,0,2.025-.15c.39-.165.51-.42.51-.945Zm13.665,1.755H-22.77v-1.2h4.935Zm0,2.025H-22.77V28.775h4.935Zm1.11-4.065H-23.85v4.92h7.125Zm-9.48-.42a11.5,11.5,0,0,1-3.18,3.06,4.862,4.862,0,0,1,.585.9,15,15,0,0,0,3.66-3.555Zm.27,3.27a14.078,14.078,0,0,1-3.69,4.05,6.986,6.986,0,0,1,.585,1.065,14.479,14.479,0,0,0,1.755-1.62v6.87h1.095V31.01a17.143,17.143,0,0,0,1.23-1.845Zm2.115,7.035a12.721,12.721,0,0,1,1.845,2.175l.855-.6A13.2,13.2,0,0,0-23.025,35.3Zm8.07-1.725h-2.235V32.81h1.965v-.96h-8.745v.96h5.67v1.275H-25.11v.96H-19.1V37.9c0,.195-.06.255-.3.27-.21.015-.96.015-1.8-.015a3.769,3.769,0,0,1,.36,1.02,7.682,7.682,0,0,0,2.28-.18c.435-.18.57-.465.57-1.065v-2.88h2.235Zm6.48-8.115h-4.32v.9h4.32Zm.555,1.965H-14.37v.915h5.655Zm-1.5,6.93v2.52H-12.72v-2.52Zm.975-.915h-4.455v5.025h.975v-.69h3.48Zm-4.425-1.11h4.44v-.9h-4.44Zm0-1.995h4.44V29.96h-4.44ZM-.615,32.72H-4.2v-5.4H-.915V26.285H-8.4V27.32h3.1v5.4h-3.69v1.05H-5.3v5.355h1.1V33.77H-.615ZM-8.04,28.385a18.082,18.082,0,0,1,.78,3.69l.96-.24a17.148,17.148,0,0,0-.84-3.69Zm5.61,3.675A38.772,38.772,0,0,0-1.23,28.3l-1.05-.27a27.238,27.238,0,0,1-1.005,3.78Zm6.27-6.57a16.573,16.573,0,0,1-3.5,5.835,8.641,8.641,0,0,1,.615,1.05,15.379,15.379,0,0,0,1.395-1.74v8.49H3.42V28.91a24.236,24.236,0,0,0,1.44-3.1Zm6.45,4.92H8.58V27.965h1.71Zm2.715,6.525h-1.74v-5.52h1.74ZM5.94,31.415H7.605v5.52H5.94Zm4.35,0v5.52H8.58v-5.52Zm3.915-3.45V26.96H4.725v1.005h2.8V30.41H4.92V38.9H5.94v-.975h7.065v.885h1.08v-8.4h-2.73V27.965Zm8.82,8.25H26.16V35.3H23.025V34.04h-1.11V35.3h-3.06v.915h3.06V37.79H16.89v.945H28.2V37.79H23.025ZM19.8,31.55h5.445v1.065H19.8Zm5.445-3.72v1H19.8v-1ZM19.8,29.675h5.445V30.71H19.8Zm9.465,3.885v-.945h-2.9V27.83h2.25V26.9H26.37V25.46H25.245V26.9H19.8V25.46H18.7V26.9h-2.28v.93H18.7v4.785h-2.97v.945h3.24a8.71,8.71,0,0,1-3.39,2.5,3.9,3.9,0,0,1,.72.855,10.262,10.262,0,0,0,3.915-3.36h4.7a9.172,9.172,0,0,0,3.81,3.165,4.36,4.36,0,0,1,.735-.855,8.293,8.293,0,0,1-3.375-2.31Zm9.825-4.47H36.66v-1.1h2.43Zm0,1.9H36.66V29.93h2.43Zm0,1.98H36.66v-1.14h2.43Zm-3.495.9H43.95v-.9H40.14v-1.14h3v-.84h-3V29.93h2.97v-.84H40.14v-1.1h3.4v-.9H40.23c.27-.435.57-.93.84-1.41l-1.185-.225A15.854,15.854,0,0,1,39.1,27.1H37.02a11.711,11.711,0,0,0,.78-1.4l-1.065-.315a10.6,10.6,0,0,1-3.03,3.825,7.365,7.365,0,0,1,.87.765,10.7,10.7,0,0,0,1.02-1Zm-3.735.51c.9-.975,1.9-2.13,2.76-3.18l-.6-.75a35.125,35.125,0,0,1-2.94,3.075Zm2.88-7.725a12.092,12.092,0,0,0-2.415-1.125l-.555.765a13.031,13.031,0,0,1,2.385,1.23ZM33.63,29a13.342,13.342,0,0,0-2.43-1.005l-.555.78a12.315,12.315,0,0,1,2.43,1.11Zm10.59,6.21H38.01V33.98H36.885v1.23H30.84v1.005h6.045v2.94H38.01v-2.94h6.21Z" transform="translate(272.125 2261.16)" fill="#164b99"/><circle cx="81.67" cy="81.67" r="81.67" transform="matrix(-0.819, -0.574, 0.574, -0.819, 140.146, 2588.438)" fill="url(#c)"/><path d="M-15.84-9.66A8.651,8.651,0,0,0-17.61-12.1l-.855.435A8.394,8.394,0,0,1-16.77-9.195Zm-6.24-.99h-2.94v-1.905h-1.11v1.905h-3.03v1.02h7.08Zm-5.985,6.9A8.076,8.076,0,0,1-29.46-.6,4.728,4.728,0,0,1-28.6.045a10.216,10.216,0,0,0,1.56-3.585Zm.75-3.765h3.48v2.01h-3.48Zm4.545,2.97V-8.46h-5.58v3.915h2.28v4.41c0,.165-.06.21-.24.225-.2.015-.765.015-1.44,0A4.023,4.023,0,0,1-27.39,1.1,5.53,5.53,0,0,0-25.5.915c.39-.18.48-.5.48-1.035V-4.545Zm.5,3.18a11.073,11.073,0,0,0-1.08-2.52l-.885.315A12.83,12.83,0,0,1-23.2-1.02ZM-17.745,0a.679.679,0,0,1-.4-.105.3.3,0,0,1-.135-.285V-6.81h-.75c.015-.255.045-.495.06-.735h3.27V-8.61h-3.24c.015-.285.015-.555.015-.825v-3.12h-1.08V-9.42c0,.255,0,.525-.015.81h-2.16v1.065h2.115A11.384,11.384,0,0,1-23.49.525a4.475,4.475,0,0,1,.96.645,11.121,11.121,0,0,0,3.225-6.12V-.435c0,.765.075,1,.33,1.23A1.789,1.789,0,0,0-18,1.05h.945A2.218,2.218,0,0,0-16.17.885,1.118,1.118,0,0,0-15.66.2a12.629,12.629,0,0,0,.135-2.025A2.634,2.634,0,0,1-16.38-2.3,13.323,13.323,0,0,1-16.44-.48a.512.512,0,0,1-.225.39A1.026,1.026,0,0,1-17.13,0Zm12.48-8.94A13.713,13.713,0,0,1-6.03-7.38l.15.045H-9.405l.48-.105a6.355,6.355,0,0,0-.75-1.5ZM-.96-2.415V-3.36H-6.975V-4.47H-2.28v-.855H-6.975v-1.1h5.43v-.915h-3.4c.3-.45.63-1.035.93-1.605h3V-9.9H-3.345a20.975,20.975,0,0,0,1.32-2.16l-1.14-.3a17.018,17.018,0,0,1-1.14,2.28l.555.18H-5.565v-2.655h-1.05V-9.9H-8.4v-2.655H-9.435V-9.9H-11.28l.765-.285a10.339,10.339,0,0,0-1.275-2.2l-.945.315A11.692,11.692,0,0,1-11.55-9.9h-2.385v.96h3.66l-.525.105a6.3,6.3,0,0,1,.735,1.5h-3.27v.915H-8.07v1.1h-4.515v.855H-8.07v1.11h-5.925v.945h4.9a14.457,14.457,0,0,1-5.3,2.37,4.777,4.777,0,0,1,.72.945,15.074,15.074,0,0,0,5.6-2.955V1.14h1.1V-2.13A14.161,14.161,0,0,0-1.335.945a4.011,4.011,0,0,1,.75-.99A13.724,13.724,0,0,1-5.94-2.415Zm8.055-5.34v-1.92h3.33a23.714,23.714,0,0,1-2.28,1.92Zm4.065,5H5.085V-4.245H11.16ZM5.085-.315v-1.56H11.16v1.56ZM14.13-6.75V-7.755H9.81a22.751,22.751,0,0,0,3.645-3.765l-.945-.51a17.568,17.568,0,0,1-1.71,1.98v-.615H7.095V-12.54H6v1.875H2.175v.99H6v1.92H.87V-6.75H6.7A29.6,29.6,0,0,1,.54-3.78a6.5,6.5,0,0,1,.705.915C2.16-3.21,3.09-3.615,3.99-4.05V1.14h1.1V.66H11.16v.42H12.3V-5.19h-6.2C6.93-5.67,7.74-6.195,8.52-6.75Zm14.49,1.5a5.435,5.435,0,0,0-5.745-5.52,6.393,6.393,0,0,0-6.555,6.1c0,2.475,1.335,4,2.67,4,1.4,0,2.58-1.575,3.5-4.665a29.507,29.507,0,0,0,.9-4.32,4.177,4.177,0,0,1,4,4.35A4.53,4.53,0,0,1,23.58-.84a11.331,11.331,0,0,1-1.29.195l.7,1.11C26.55,0,28.62-2.1,28.62-5.25Zm-11.13.48a5.232,5.232,0,0,1,4.65-4.86,24.508,24.508,0,0,1-.84,4.05c-.765,2.535-1.56,3.54-2.265,3.54C18.36-2.04,17.49-2.88,17.49-4.77ZM-21.735,11.04A10.343,10.343,0,0,0-22.92,8.49L-23.9,8.8a10.135,10.135,0,0,1,1.11,2.61Zm-3.57.075a10.775,10.775,0,0,0-1.62-2.37l-.945.45a10.348,10.348,0,0,1,1.56,2.445Zm2.745,4.26c.075-.675.135-1.41.165-2.19h-1.2c-.03.8-.075,1.515-.135,2.19h-4.2v1.05H-23.9c-.465,2.37-1.68,3.9-5.265,4.74a3.316,3.316,0,0,1,.645.99c3.99-1.005,5.31-2.9,5.805-5.73h4.2c-.15,3-.36,4.215-.69,4.545-.15.15-.33.165-.66.165s-1.365-.015-2.385-.1a2.521,2.521,0,0,1,.375,1.08,24.33,24.33,0,0,0,2.46.045,1.533,1.533,0,0,0,1.17-.48c.48-.51.69-1.98.885-5.79.015-.165.015-.51.015-.51Zm3.7-3.72A30.482,30.482,0,0,0-16.9,9l-1.185-.405a18.953,18.953,0,0,1-1.875,2.925l.33.135H-28.71V14.82h1.08V12.675h10.3V14.82h1.11V11.655ZM-4.1,13.32A14.73,14.73,0,0,1-5.37,20.175c-.735.075-1.47.15-2.175.21v-1.17H-5.2v-.87h-2.34v-.96h2.3V13.02H-7.53v-.945H-5.2V12.9H-4.1Zm-5.82,2.22H-8.43v1.1H-9.915Zm0-1.77H-8.43v1.065H-9.915Zm2.3,1.065V13.77h1.56v1.065Zm0,1.8v-1.1h1.56v1.1Zm4.5-4.725V8.52H-4.1v3.39h-1.05v-.7H-7.53V10.17A20.005,20.005,0,0,0-5.2,9.765l-.6-.81a38.794,38.794,0,0,1-5.175.72c.1-.285.195-.585.285-.87l-.99-.27a17.465,17.465,0,0,1-2.94,6.015,7.808,7.808,0,0,1,.555,1.125,15.863,15.863,0,0,0,1.32-1.995v8.475h1.005v-10.5q.427-.967.765-1.98a3.112,3.112,0,0,1,.27.795c.7-.045,1.455-.1,2.2-.18V11.2H-10.89v.87h2.385v.945h-2.19v4.365h2.19v.96H-10.74v.87h2.235v1.26l-2.61.24.18.945c1.395-.165,3.21-.36,5.025-.585-.135.195-.285.375-.435.555a3.51,3.51,0,0,1,.825.585c2.115-2.505,2.4-6.015,2.4-8.9V12.9h1.35c-.12,5.6-.255,7.545-.54,7.965a.434.434,0,0,1-.45.24c-.255,0-.765-.015-1.35-.06a2.385,2.385,0,0,1,.27.975,8.283,8.283,0,0,0,1.5,0,1.046,1.046,0,0,0,.885-.525c.42-.6.525-2.64.66-9.06,0-.135.015-.525.015-.525ZM12.7,11.22H11.25V9.765H12.7Zm-2.25,0H9.03V9.765h1.425Zm-2.22,0H6.855V9.765h1.38Zm5.43-2.28H5.925v3.09h7.74Zm-8.13,8.52-1.95.555V14.79h1.56v-.975H3.585V10.5H5.37V9.495H.72V10.5H2.58v3.315H.885v.975h1.7V18.3c-.75.21-1.455.405-2.025.54l.27,1.05c1.365-.39,3.15-.915,4.83-1.44Zm1.62-2.01h5.13v1.515H7.155ZM13.2,17.955a17.871,17.871,0,0,1-1.965,1.32,6.114,6.114,0,0,1-.96-1.455h3.06V14.61H6.165v3.21h2.7a14.49,14.49,0,0,1-4.7,2.64,4.765,4.765,0,0,1,.66.8A16.618,16.618,0,0,0,8.25,19.41v2.73H9.315V18.57c.09-.075.18-.165.27-.24a7.26,7.26,0,0,0,4.05,3.81,4.338,4.338,0,0,1,.72-.885,6.6,6.6,0,0,1-2.565-1.41A16.026,16.026,0,0,0,14,18.54Zm-7.965-5.1v.93h9.15v-.93ZM26.52,10.53a17.351,17.351,0,0,1-.72,1.6l.465.12h-3.18l.615-.165a6.049,6.049,0,0,0-.645-1.56Zm-6.165,6.03c-.585.27-1.17.54-1.74.8V13.14H20.16v.045h9.18v-.93H26.805c.255-.42.525-.99.81-1.53l-.825-.2H29V9.615H25.26V8.475H24.18v1.14H20.655v.915H22.8l-.7.18a7.539,7.539,0,0,1,.585,1.545H20.19V12.09H18.615V8.61H17.58v3.48H15.84v1.05h1.74v4.68c-.765.33-1.455.63-2.025.84l.4,1.11,4.635-2.2Zm1.92.015h5.13v1.11h-5.13Zm0-1.845h5.13v1.11h-5.13Zm4.59,6.36c-.36,0-.42-.06-.42-.39V18.465H28.5V13.95H21.225v4.515h1.5c-.33,1.4-1.14,2.265-3.57,2.76a3.63,3.63,0,0,1,.63.93c2.7-.66,3.66-1.845,4.035-3.69h1.56v2.25c0,1.035.255,1.32,1.35,1.32h1.455c.885,0,1.17-.39,1.275-2.055a2.927,2.927,0,0,1-.945-.39c-.03,1.32-.1,1.5-.45,1.5ZM-24.27,29.97h-4.32v.9h4.32Zm.555,1.965H-29.37v.915h5.655Zm-1.5,6.93v2.52h-2.5v-2.52Zm.975-.915h-4.455v5.025h.975v-.69h3.48Zm-4.425-1.11h4.44v-.9h-4.44Zm0-1.995h4.44V33.96h-4.44Zm13.05,1.875H-19.2v-5.4h3.285V30.285H-23.4V31.32h3.1v5.4h-3.69v1.05h3.69v5.355H-19.2V37.77h3.585Zm-7.425-4.335a18.082,18.082,0,0,1,.78,3.69l.96-.24a17.148,17.148,0,0,0-.84-3.69Zm5.61,3.675a38.772,38.772,0,0,0,1.2-3.765l-1.05-.27a27.238,27.238,0,0,1-1.005,3.78Zm6.27-6.57a16.573,16.573,0,0,1-3.495,5.835,8.641,8.641,0,0,1,.615,1.05,15.38,15.38,0,0,0,1.395-1.74v8.49h1.065V32.91a24.236,24.236,0,0,0,1.44-3.1Zm6.45,4.92H-6.42V31.965h1.71Zm2.715,6.525h-1.74v-5.52h1.74Zm-7.065-5.52h1.665v5.52H-9.06Zm4.35,0v5.52H-6.42v-5.52ZM-.8,31.965V30.96h-9.48v1.005h2.8V34.41h-2.61V42.9h1.02v-.975h7.065v.885h1.08v-8.4h-2.73V31.965Zm8.82,8.25H11.16V39.3H8.025V38.04H6.915V39.3H3.855v.915h3.06V41.79H1.89v.945H13.2V41.79H8.025ZM4.8,35.55h5.445v1.065H4.8Zm5.445-3.72v1H4.8v-1ZM4.8,33.675h5.445V34.71H4.8Zm9.465,3.885v-.945H11.37V31.83h2.25V30.9H11.37V29.46H10.245V30.9H4.8V29.46H3.7V30.9H1.425v.93H3.7v4.785H.735v.945h3.24a8.71,8.71,0,0,1-3.39,2.5,3.9,3.9,0,0,1,.72.855A10.262,10.262,0,0,0,5.22,37.56h4.7a9.172,9.172,0,0,0,3.81,3.165,4.36,4.36,0,0,1,.735-.855,8.293,8.293,0,0,1-3.375-2.31Zm9.825-4.47H21.66v-1.1h2.43Zm0,1.9H21.66V33.93h2.43Zm0,1.98H21.66v-1.14h2.43Zm-3.5.9H28.95v-.9H25.14v-1.14h3v-.84h-3V33.93h2.97v-.84H25.14v-1.1h3.405v-.9H25.23c.27-.435.57-.93.84-1.41l-1.185-.225A15.854,15.854,0,0,1,24.1,31.1H22.02a11.711,11.711,0,0,0,.78-1.4l-1.065-.315A10.6,10.6,0,0,1,18.7,33.21a7.364,7.364,0,0,1,.87.765,10.694,10.694,0,0,0,1.02-1Zm-3.735.51c.9-.975,1.9-2.13,2.76-3.18l-.6-.75a35.125,35.125,0,0,1-2.94,3.075Zm2.88-7.725a12.092,12.092,0,0,0-2.415-1.125l-.555.765a13.031,13.031,0,0,1,2.385,1.23ZM18.63,33a13.342,13.342,0,0,0-2.43-1.005l-.555.78a12.314,12.314,0,0,1,2.43,1.11Zm10.59,6.21H23.01V37.98H21.885v1.23H15.84v1.005h6.045v2.94H23.01v-2.94h6.21Z" transform="translate(119.343 2463.893)" fill="#164b99"/><g transform="translate(123.233 2305.653)"><circle cx="73" cy="73" r="73" transform="translate(-0.233 0.347)" fill="url(#d)"/><path d="M-33.451-7.007A7.186,7.186,0,0,0-34.617-8.8l-.561.3a7.614,7.614,0,0,1,1.133,1.815ZM-41-6.435h-1.21V-8H-41Zm-1.21,4.7V-3.5H-41v1.529ZM-41-4.18h-1.21V-5.753H-41ZM-39.776-8v.517h3.432v-.627h-1.4V-9.185h-.726v1.078h-1.3v-.627h-3.641V-8h.506v6.4l-.693.132.143.737c.7-.143,1.573-.33,2.453-.528V.836h.693V-8ZM-37.2-5.742c.143-.4.33-1.012.506-1.54l-.671-.143a13.682,13.682,0,0,1-.374,1.54Zm-.044,1.958v.946h-1.606v-.946Zm-1.606,2.519v-.979h1.606v.979Zm2.266.616V-4.4h-2.926V.044h.66V-.649Zm-2.86-6.633a5.778,5.778,0,0,1,.33,1.551l.6-.143A5.25,5.25,0,0,0-38.885-7.4ZM-34.463-4.5a9.593,9.593,0,0,1-.616,1.771c-.077-.682-.132-1.463-.176-2.332h1.793v-.671h-1.826c-.044-1.067-.066-2.244-.066-3.454h-.726c.011,1.221.033,2.387.077,3.454H-40.1v.671h4.125a30.829,30.829,0,0,0,.319,3.366A6.7,6.7,0,0,1-37.642.286a3.834,3.834,0,0,1,.506.55A7.7,7.7,0,0,0-35.464-.77C-35.211.22-34.837.8-34.32.814c.352.011.737-.44.935-2.156a2.235,2.235,0,0,1-.539-.418C-33.99-.737-34.133-.121-34.3-.121c-.253-.011-.462-.55-.616-1.463A10.617,10.617,0,0,0-33.77-4.345Zm8.6-2.057a10.056,10.056,0,0,1-.561,1.144l.11.033H-28.9l.352-.077a4.66,4.66,0,0,0-.55-1.1ZM-22.7-1.771v-.693h-4.411v-.814h3.443V-3.9h-3.443v-.8h3.982v-.671h-2.5c.22-.33.462-.759.682-1.177h2.2v-.7h-1.7a15.381,15.381,0,0,0,.968-1.584l-.836-.22a12.48,12.48,0,0,1-.836,1.672l.407.132h-1.331V-9.207h-.77V-7.26H-28.16V-9.207h-.759V-7.26h-1.353l.561-.209a7.582,7.582,0,0,0-.935-1.617l-.693.231a8.574,8.574,0,0,1,.869,1.6h-1.749v.7h2.684l-.385.077a4.619,4.619,0,0,1,.539,1.1h-2.4v.671h3.861v.8h-3.311v.627h3.311v.814h-4.345v.693h3.6A10.6,10.6,0,0,1-32.549-.033a3.5,3.5,0,0,1,.528.693,11.054,11.054,0,0,0,4.1-2.167V.836h.8v-2.4A10.384,10.384,0,0,0-22.979.693a2.941,2.941,0,0,1,.55-.726,10.064,10.064,0,0,1-3.927-1.738ZM-18-4.4c-.4.121-.814.242-1.21.352V-6.226H-18V-7h-1.21V-9.2h-.8V-7h-1.408v.77h1.408v2.4c-.583.165-1.111.3-1.551.4l.231.8,1.32-.385V-.143c0,.154-.066.209-.22.209-.132.011-.6.011-1.133,0a2.615,2.615,0,0,1,.253.748,3.817,3.817,0,0,0,1.5-.143c.286-.132.407-.352.407-.814V-3.256c.429-.132.88-.264,1.32-.4Zm4.906.077a6.708,6.708,0,0,1-1.771,2.53,7.5,7.5,0,0,1-1.617-2.53Zm.517-.792-.132.033h-1.749V-6.721h2.629V-7.48h-2.629V-9.207h-.8V-7.48h-2.574v.759h2.574v1.639h-2.354v.759h.363l-.033.011a8.771,8.771,0,0,0,1.8,3.014A9.032,9.032,0,0,1-18.458.1a3.115,3.115,0,0,1,.44.737A10.064,10.064,0,0,0-14.894-.737a7.9,7.9,0,0,0,2.937,1.6,3.367,3.367,0,0,1,.528-.7,7.494,7.494,0,0,1-2.838-1.419,8.049,8.049,0,0,0,2.233-3.619Zm10.835.7c.869,0,1.122-.352,1.221-1.683a2.3,2.3,0,0,1-.748-.319c-.044,1.089-.121,1.265-.539,1.265H-3.553c-.495,0-.583-.066-.583-.418V-6.677A23,23,0,0,0-1.045-7.788l-.55-.594A18.3,18.3,0,0,1-4.136-7.348V-9.185h-.8v3.63c0,.9.275,1.144,1.32,1.144ZM-9.1-2.035V-3.047h2.321v1.012Zm2.321-2.6v.946H-9.1v-.946Zm.8-.682H-9.856V.825H-9.1V-1.408h2.321v1.3c0,.143-.033.176-.176.176s-.616.022-1.133,0A3.115,3.115,0,0,1-7.821.8,4.577,4.577,0,0,0-6.347.671c.3-.132.374-.363.374-.77Zm-1.353-2.86A12.578,12.578,0,0,1-6.589-7.04l-2.255.1c.341-.627.693-1.4.99-2.068l-.825-.2a17.25,17.25,0,0,1-1.012,2.3c-.308.011-.583.022-.836.033l.077.77c1.122-.066,2.706-.143,4.246-.231a5.926,5.926,0,0,1,.286.649L-5.225-6a10.688,10.688,0,0,0-1.43-2.442ZM-3.52.022c-.517,0-.616-.066-.616-.429V-1.683A15.888,15.888,0,0,0-.924-2.9l-.539-.616A12.3,12.3,0,0,1-4.136-2.365V-4.1h-.8v3.7c0,.9.286,1.144,1.331,1.144H-1.65C-.737.737-.495.352-.385-1.122a2.185,2.185,0,0,1-.737-.308C-1.177-.2-1.254.022-1.716.022ZM2.277-1.2A8.827,8.827,0,0,1,3.982.352l.649-.5a8.984,8.984,0,0,0-1.749-1.5Zm.176-3.608H5.071v.891H2.453Zm0-1.474H5.071v.891H2.453Zm6.1,0v.891H5.863v-.891Zm0,2.365H5.863v-.891H8.558Zm1.848,1.452H7.92V-3.3H9.361V-6.875h-3.5v-.748h4.29v-.7H5.863v-.858H5.071v.858H.88v.7H5.071v.748H1.683V-3.3H7.128v.836H.605v.7H7.128V-.044c0,.154-.066.2-.253.209S6.017.176,5.291.154a3.185,3.185,0,0,1,.275.715A7.273,7.273,0,0,0,7.458.748c.363-.11.462-.319.462-.77V-1.76h2.486ZM15.18-8v.957H12.848V-8Zm-2.332,2.64V-6.413H15.18v1.056Zm3.1-3.333h-3.9V.836h.8V-4.675h3.1Zm1.8,3.344V-6.413H20.2v1.067ZM20.2-8v.957H17.754V-8Zm.825-.693H16.973v4.026H20.2V-.286c0,.22-.077.275-.275.286-.231.011-.979.022-1.727-.022a3.708,3.708,0,0,1,.3.847A7.4,7.4,0,0,0,20.515.671c.363-.132.506-.4.506-.957ZM29.073-6.4h1.914a12.166,12.166,0,0,1-.957,3.476,15.194,15.194,0,0,1-.957-3.465Zm-3.938.132V-7.359H26.51a9.369,9.369,0,0,1-.726,1.089ZM32.527-6.4v-.77H29.315c.176-.605.319-1.254.44-1.9l-.825-.132a11.666,11.666,0,0,1-1.7,4.719l-.4-.286-.143.044h-1.2c.242-.264.473-.528.7-.814h1.595V-6.27H26.73a13.452,13.452,0,0,0,1.309-2.464l-.77-.22A11.7,11.7,0,0,1,26.51-7.37v-.682H25.135V-9.207h-.748v1.155H22.935v.693h1.452V-6.27H22.5v.726H25.19a9.6,9.6,0,0,1-.825.814h-.979v.649h.176a9.618,9.618,0,0,1-1.287.792,6.073,6.073,0,0,1,.583.616,11.607,11.607,0,0,0,1.958-1.408h1.265a6.349,6.349,0,0,1-.9.814h-.363v.979c-.9.088-1.727.176-2.376.231l.1.737c.649-.066,1.43-.143,2.277-.242V-.033c0,.121-.044.154-.187.165s-.616,0-1.166-.011a2.257,2.257,0,0,1,.264.715A4.966,4.966,0,0,0,25.2.715c.3-.121.385-.33.385-.748V-1.639l2.244-.253v-.7c-.748.077-1.507.154-2.244.231v-.451a8.925,8.925,0,0,0,1.639-1.518,4.589,4.589,0,0,1,.583.506,7.194,7.194,0,0,0,.748-1.287,14.353,14.353,0,0,0,.99,3.047A6.157,6.157,0,0,1,26.939.143a3.34,3.34,0,0,1,.484.726,7.317,7.317,0,0,0,2.563-2.123,5.889,5.889,0,0,0,2.057,2.1,2.47,2.47,0,0,1,.572-.693,5.33,5.33,0,0,1-2.134-2.167A12.818,12.818,0,0,0,31.834-6.4ZM36.08-1.595v-.858h4.895v.858Zm4.895-2.3v.847H36.08v-.847Zm.825-.682H35.266V.836h.814V-.979h4.895v.946c0,.154-.055.2-.22.209-.187,0-.825,0-1.463-.011a3.149,3.149,0,0,1,.264.671A7.09,7.09,0,0,0,41.349.715c.341-.1.451-.308.451-.748ZM40.4-7.4,39.787-7c.385.253.8.561,1.2.869-1.54.033-3.091.066-4.444.088.363-.429.748-.913,1.078-1.364Zm2.9-.737H38.9V-9.207h-.825V-8.14H33.7V-7.4h2.871a13.655,13.655,0,0,1-.924,1.375l-1.518.022.033.759c1.925-.033,4.851-.11,7.612-.22a7.974,7.974,0,0,1,.748.737l.682-.484A16.133,16.133,0,0,0,40.436-7.4h2.871ZM-18.48,13.724h-1.485V10.479h1.485Zm-2.926-6.578h1.375A10.347,10.347,0,0,1-21.6,11.392a5.171,5.171,0,0,1,.374.869,6.378,6.378,0,0,0,.572-.88v3.96h.693v-.88h2.211V9.753h-2.189a20.521,20.521,0,0,0,.682-2.607h1.7V6.4h-3.85Zm6.127,3.179V7.168H-13.5v3.157Zm3.795,0h-1.232V7.168h1.023V6.4h-5.269v.77h.9v3.157h-1.21v.781h1.2a6.285,6.285,0,0,1-1.4,4.312,2.952,2.952,0,0,1,.616.473,6.889,6.889,0,0,0,1.562-4.785H-13.5v4.73h.781v-4.73h1.232ZM-4.7,7.553V9.489c0,.8.22,1.023,1.177,1.023h1.54c.715,0,.946-.253,1.034-1.254a2.261,2.261,0,0,1-.726-.308c-.022.726-.088.836-.385.836H-3.432c-.4,0-.462-.044-.462-.308V7.553h2.255V8.686h.847V6.805h-4.29V5.793h-.825V6.805h-4.2V8.774h.8V7.553h2.057c-.2,1.463-.77,2.277-3.025,2.706a2.049,2.049,0,0,1,.418.649c2.519-.528,3.212-1.551,3.465-3.355Zm2.156,7.425c-.308,0-.352-.044-.352-.341V11.546H-5.775V10.2h-.814v1.342H-9.735v.759h3.058c-.231,1.023-1.078,2.145-3.806,2.893a3.78,3.78,0,0,1,.55.671c3.047-.869,3.9-2.255,4.1-3.564h2.09v2.332c0,.9.242,1.133,1.078,1.133h1.144c.759,0,.99-.418,1.067-2.079a2.341,2.341,0,0,1-.77-.352c-.033,1.43-.088,1.639-.385,1.639ZM7.546,9.8l.121.616c.693-.066,1.474-.121,2.3-.209a2.229,2.229,0,0,1,.132.451l.528-.253a5.927,5.927,0,0,0-.682-1.584l-.506.209a6.66,6.66,0,0,1,.319.627l-1.166.077C9.119,9,9.7,8.059,10.164,7.278L9.57,6.992c-.176.385-.418.836-.682,1.287-.132-.154-.308-.319-.484-.495.275-.44.627-1.078.9-1.628L8.668,5.9A13.09,13.09,0,0,1,8,7.443c-.088-.077-.176-.132-.253-.2L7.4,7.7A6.978,6.978,0,0,1,8.558,8.807a11.28,11.28,0,0,1-.66.968Zm-3.8.11.121.649c.671-.066,1.43-.143,2.222-.209a3,3,0,0,1,.088.374l.539-.231a5.777,5.777,0,0,0-.616-1.584L5.6,9.093a5.535,5.535,0,0,1,.3.682l-1.078.066a28.248,28.248,0,0,0,1.65-2.563l-.594-.286c-.176.385-.418.836-.682,1.287A3.857,3.857,0,0,0,4.719,7.8c.275-.451.605-1.1.891-1.639L4.972,5.9a12.963,12.963,0,0,1-.66,1.54l-.264-.2L3.707,7.7A8.119,8.119,0,0,1,4.873,8.818c-.253.385-.506.759-.737,1.067Zm5.3,2.31a5.011,5.011,0,0,1-.869,1.342,10.044,10.044,0,0,1-.4-1.518h2.684v-.66h-.9l.231-.242a5.519,5.519,0,0,0-1.166-.792l-.385.4a6,6,0,0,1,.924.638h-1.5A35.828,35.828,0,0,1,7.348,5.8H6.611a39.881,39.881,0,0,0,.352,5.577H3.883l.044-.066c-.165-.308-.913-1.507-1.2-1.9V8.917H3.916V8.169H2.728V5.793H1.991V8.169H.605v.748H1.914a12.791,12.791,0,0,1-1.54,4.136,4.3,4.3,0,0,1,.407.682,12.124,12.124,0,0,0,1.21-2.992v5.082h.737V10.336c.3.55.638,1.221.781,1.573l.341-.484v.616h.781a4.094,4.094,0,0,1-1.408,3.234,2.292,2.292,0,0,1,.495.539,3.939,3.939,0,0,0,1.441-2.42,10.778,10.778,0,0,1,1.188.924l.462-.561a11.908,11.908,0,0,0-1.518-1.078c.022-.209.055-.418.066-.638H7.073A10.593,10.593,0,0,0,7.634,14.1a7.151,7.151,0,0,1-2.057,1.21,4.587,4.587,0,0,1,.44.517,7.969,7.969,0,0,0,1.914-1.1,1.869,1.869,0,0,0,1.595,1.133c.726,0,.968-.363,1.1-1.595a1.748,1.748,0,0,1-.561-.363c-.055.99-.176,1.254-.5,1.254-.418,0-.781-.319-1.089-.9a6.109,6.109,0,0,0,1.276-1.771Zm6.149-.605c-.187-.3-1-1.518-1.309-1.925V8.928h1.254V8.169H13.893V5.793h-.748V8.169H11.6v.759h1.452a11.94,11.94,0,0,1-1.672,4.125,4.563,4.563,0,0,1,.418.7,11.486,11.486,0,0,0,1.342-3.069v5.137h.748v-5.17c.319.539.7,1.21.858,1.562ZM18.623,13.4v-.8h1.551v.8Zm-2.2-.8h1.452v.8H16.423Zm1.452-1.342v.759H16.423V11.26Zm2.3,0v.759H18.623V11.26ZM17.391,8.631h1.771v.737H17.391Zm0-1.32h1.771v.715H17.391ZM21.637,13.4h-.7V10.644h-2.31V9.995h2.893V9.368H19.932V8.631h1.2V8.026h-1.2V7.311H21.3V6.695H19.932v-.9h-.77v.9H17.391v-.9h-.748v.9H15.378v.616h1.265v.715H15.6v.605h1.045v.737H15.125v.627h2.75v.649h-2.2V13.4h-.748v.638h.748V15.8h.748v-1.76h3.751v.924c0,.132-.044.176-.176.187-.154,0-.627.011-1.155-.011a3.148,3.148,0,0,1,.231.66,4.982,4.982,0,0,0,1.485-.11c.3-.121.374-.33.374-.715v-.935h.7Z" transform="translate(70.903 97.251)" fill="#fff"/><g transform="translate(22.099 46.119)"><path d="M80.34.177A15.258,15.258,0,1,0,95.6,15.435,15.258,15.258,0,0,0,80.34.177m6.834,19.871a8.249,8.249,0,1,1,1.411-4.612,8.252,8.252,0,0,1-1.411,4.612" transform="translate(5.501 0.015)" fill="#fff"/><path d="M79.435,10.891a3.64,3.64,0,1,1-3.64,3.64,3.64,3.64,0,0,1,3.64-3.64" transform="translate(6.407 0.921)" fill="#fff" fill-rule="evenodd"/><path d="M36.157,21.638a3.64,3.64,0,1,1-3.64,3.64,3.64,3.64,0,0,1,3.64-3.64" transform="translate(2.748 1.829)" fill="#fff" fill-rule="evenodd"/><path d="M53.217,19.773a10.513,10.513,0,0,0,4.742-3.43c2.794-3.6,2.378-9.948-.808-13.135q-3.1-3.1-8.917-3.1H32.7V22.093h6.864V6.181h8.106a6.171,6.171,0,0,1,3.889,1.092c1.923,1.5,1.837,4.944.066,6.513a5.591,5.591,0,0,1-3.824,1.18H42.475L52.824,30.7h7.867Z" transform="translate(2.764 0.009)" fill="#fff" fill-rule="evenodd"/><path d="M24.454,3.1Q21.352,0,15.537,0H0V30.708H6.864V6.076H14.97a6.171,6.171,0,0,1,3.889,1.092,3.976,3.976,0,0,1,1.408,3.011c0,.049,0,.1,0,.146s0,.1,0,.145a3.978,3.978,0,0,1-1.408,3.012,4.826,4.826,0,0,1-1.76.839,5.577,5.577,0,0,1-.2,6.282,11.361,11.361,0,0,0,7.553-3.057,10.24,10.24,0,0,0,2.66-7.221A10.244,10.244,0,0,0,24.454,3.1" transform="translate(0 0)" fill="#fff" fill-rule="evenodd"/><path d="M11.685,12.611a3.64,3.64,0,1,1-3.64,3.64,3.64,3.64,0,0,1,3.64-3.64" transform="translate(0.68 1.066)" fill="#fff" fill-rule="evenodd"/></g></g><path d="M6.5-6.318A1.37,1.37,0,0,0,5.122-4.94,1.37,1.37,0,0,0,6.5-3.562,1.37,1.37,0,0,0,7.878-4.94,1.37,1.37,0,0,0,6.5-6.318ZM20.163-8.632a8.964,8.964,0,0,0-1.027-2.21l-.845.273a8.783,8.783,0,0,1,.962,2.262Zm-3.094.065a9.338,9.338,0,0,0-1.4-2.054l-.819.39A8.968,8.968,0,0,1,16.2-8.112Zm2.379,3.692c.065-.585.117-1.222.143-1.9h-1.04c-.026.689-.065,1.313-.117,1.9h-3.64v.91h3.5c-.4,2.054-1.456,3.38-4.563,4.108A2.874,2.874,0,0,1,14.287,1c3.458-.871,4.6-2.509,5.031-4.966h3.64c-.13,2.6-.312,3.653-.6,3.939-.13.13-.286.143-.572.143S20.6.1,19.721.026a2.185,2.185,0,0,1,.325.936A21.085,21.085,0,0,0,22.178,1,1.328,1.328,0,0,0,23.192.585c.416-.442.6-1.716.767-5.018.013-.143.013-.442.013-.442ZM22.659-8.1a26.417,26.417,0,0,0,1.69-2.3l-1.027-.351A16.426,16.426,0,0,1,21.7-8.216l.286.117H14.118v2.743h.936V-7.215h8.931v1.859h.962V-8.1ZM35.451-6.656a12.766,12.766,0,0,1-1.1,5.941c-.637.065-1.274.13-1.885.182V-1.547h2.028V-2.3H32.461v-.832H34.45V-6.916H32.474v-.819h2.015v.715h.962ZM30.407-4.732h1.287v.949H30.407Zm0-1.534h1.287v.923H30.407Zm1.989.923v-.923h1.352v.923Zm0,1.56v-.949h1.352v.949Zm3.9-4.1v-2.938h-.845v2.938h-.91v-.611H32.474v-.9a17.338,17.338,0,0,0,2.015-.351l-.52-.7a33.622,33.622,0,0,1-4.485.624c.091-.247.169-.507.247-.754l-.858-.234A15.136,15.136,0,0,1,26.325-5.59a6.767,6.767,0,0,1,.481.975A13.748,13.748,0,0,0,27.95-6.344V1h.871V-8.1q.371-.839.663-1.716a2.7,2.7,0,0,1,.234.689c.611-.039,1.261-.091,1.911-.156v.793H29.562v.754h2.067v.819h-1.9v3.783h1.9V-2.3H29.692v.754h1.937V-.455l-2.262.208.156.819C30.732.429,32.305.26,33.878.065c-.117.169-.247.325-.377.481a3.042,3.042,0,0,1,.715.507C36.049-1.118,36.3-4.16,36.3-6.656V-7.02h1.17c-.1,4.849-.221,6.539-.468,6.9a.376.376,0,0,1-.39.208c-.221,0-.663-.013-1.17-.052a2.067,2.067,0,0,1,.234.845,7.179,7.179,0,0,0,1.3,0,.907.907,0,0,0,.767-.455c.364-.52.455-2.288.572-7.852,0-.117.013-.455.013-.455Zm6.513-1.274v2.886H40.924V-9.152ZM40.924-2.418v-3h1.885v3Zm2.8-7.605H40.04V-.494h.884V-1.547h2.8Zm1.066,7.28A10.027,10.027,0,0,1,46.436-.455l.819-.52a9.191,9.191,0,0,0-1.69-2.21Zm6.708-3.224v-.858H48.139V-8.476h2.795v-.858H48.139v-1.547H47.19v1.547h-2.7v.858h2.7v1.651H43.927v.858h4.979V-4.5H43.992v.858h4.914V-.169c0,.2-.065.247-.286.26S47.7.1,46.891.078a2.951,2.951,0,0,1,.312.9A7.438,7.438,0,0,0,49.309.819c.39-.143.533-.429.533-.975V-3.64H51.35V-4.5H49.842V-5.967Zm5.486-3.6v1.079H54.171V-9.568ZM54.171-6.63V-7.774h2.808V-6.63Zm3.731.741v-4.433H53.209V1h.962v-6.89ZM59.995-4.16v1.2H56.94v-1.2ZM56.94-.975V-2.236h3.055V-.975Zm3.952.767V-4.914H56.069V.442h.871v-.65Zm-.91-6.409V-7.774h2.912v1.157Zm2.912-2.951v1.079H59.982V-9.568Zm.975-.754h-4.81v4.446h3.835V-.3c0,.234-.078.312-.3.312S61.568.039,60.775,0a3.561,3.561,0,0,1,.338.988A7.4,7.4,0,0,0,63.3.819c.429-.169.572-.494.572-1.105ZM69-10.114l-1.027.429a43.569,43.569,0,0,0,1.885,4c-1.391.975-2.249,2.028-2.249,3.367,0,1.95,1.768,2.678,4.212,2.678A25.591,25.591,0,0,0,75.933.039V-1.118a19.343,19.343,0,0,1-4.16.442c-2.054,0-3.081-.676-3.081-1.755,0-.988.728-1.846,1.937-2.626a43.187,43.187,0,0,1,3.952-2.158c.377-.195.7-.364,1-.546l-.572-.923a7.1,7.1,0,0,1-.923.611c-.715.39-2.119,1.079-3.341,1.82A28,28,0,0,1,69-10.114ZM89.388-8.671,88.6-9.178a3.894,3.894,0,0,1-.819.078H81.107c-.559,0-1.04-.013-1.391-.039a6.4,6.4,0,0,1,.052.871V-5.5a6.626,6.626,0,0,1-.052.832H80.9c-.026-.312-.039-.637-.039-.832V-8.1h7.176A10.009,10.009,0,0,1,86.8-3.744a8.25,8.25,0,0,1-4.836,3.3l.884.9a9.152,9.152,0,0,0,4.927-3.666A12.465,12.465,0,0,0,89.219-8.06,5.35,5.35,0,0,1,89.388-8.671Zm2.938,3.042v1.274c.4-.039,1.092-.065,1.807-.065h7.137c.585,0,1.131.052,1.391.065V-5.629c-.286.026-.754.065-1.4.065H94.133C93.4-5.564,92.716-5.6,92.326-5.629ZM110.981-10.1l-1.209-.39a4.452,4.452,0,0,1-.4,1.027,10.717,10.717,0,0,1-4.082,4.394l.9.676a13.179,13.179,0,0,0,3.3-3.2h4.394a10.688,10.688,0,0,1-2.08,4.056,10.517,10.517,0,0,1-5.187,3.263l.936.845a11.4,11.4,0,0,0,5.174-3.536,12.609,12.609,0,0,0,2.314-4.472,4.085,4.085,0,0,1,.3-.689l-.871-.533a2.176,2.176,0,0,1-.845.13H110.1a5.842,5.842,0,0,0,.312-.546A9.831,9.831,0,0,1,110.981-10.1ZM16,9.315v1.079c.351-.026.767-.039,1.17-.039h5.1c.442,0,.884.013,1.2.039V9.315a8.1,8.1,0,0,1-1.183.065H17.173A8.129,8.129,0,0,1,16,9.315Zm8.411,3.432-.741-.468a1.727,1.727,0,0,1-.715.1H16.107a12.287,12.287,0,0,1-1.274-.078V13.4c.468-.026.962-.039,1.274-.039h6.9a6.646,6.646,0,0,1-1.547,2.873,8.663,8.663,0,0,1-4.576,2.379l.806.923a9.414,9.414,0,0,0,4.654-2.717,8.953,8.953,0,0,0,1.9-3.692A2.273,2.273,0,0,1,24.414,12.747Zm2.7,1.56.52,1.014A25.678,25.678,0,0,0,32.591,13.2v4.81a12.059,12.059,0,0,1-.078,1.391h1.274a9.81,9.81,0,0,1-.078-1.391V12.526a21.268,21.268,0,0,0,3.51-2.9l-.871-.806A15.489,15.489,0,0,1,32.8,11.876,21.49,21.49,0,0,1,27.118,14.307Zm23.075-3.952L49.4,9.848a2.669,2.669,0,0,1-.689.065H42.185c-.429,0-.936-.039-1.3-.078v1.144c.338-.013.78-.039,1.3-.039h6.643a9.891,9.891,0,0,1-1.7,4.238,8.675,8.675,0,0,1-5.07,3.133l.884.975A9.936,9.936,0,0,0,48.061,15.8,12.7,12.7,0,0,0,50,11.005,2.741,2.741,0,0,1,50.193,10.355ZM61.945,8.873l-.689.286a14.856,14.856,0,0,1,1.053,1.807l.7-.312A15,15,0,0,0,61.945,8.873Zm1.43-.52-.689.286a12.383,12.383,0,0,1,1.079,1.794l.7-.312A15.117,15.117,0,0,0,63.375,8.353Zm-8.541,6.734a17.075,17.075,0,0,1-2,3.536l1.1.468a18.853,18.853,0,0,0,1.911-3.575,28.505,28.505,0,0,0,1.183-4.069c.052-.273.156-.65.234-.936l-1.157-.247A19.816,19.816,0,0,1,54.834,15.087Zm6.4-.494A38.956,38.956,0,0,1,62.7,19.065l1.157-.377c-.338-1.17-1.027-3.159-1.56-4.446a42.027,42.027,0,0,0-1.9-4.108l-1.053.351A33.245,33.245,0,0,1,61.23,14.593ZM68,9.315v1.079c.351-.026.767-.039,1.17-.039h5.1c.442,0,.884.013,1.2.039V9.315a8.1,8.1,0,0,1-1.183.065H69.173A8.129,8.129,0,0,1,68,9.315Zm8.411,3.432-.741-.468a1.727,1.727,0,0,1-.715.1H68.107a12.287,12.287,0,0,1-1.274-.078V13.4c.468-.026.962-.039,1.274-.039h6.9a6.646,6.646,0,0,1-1.547,2.873,8.663,8.663,0,0,1-4.576,2.379l.806.923a9.414,9.414,0,0,0,4.654-2.717,8.953,8.953,0,0,0,1.9-3.692A2.272,2.272,0,0,1,76.414,12.747Zm4.537-3.276-.741.793a27,27,0,0,1,3.237,2.717l.819-.819A28.466,28.466,0,0,0,80.951,9.471Zm-1.118,8.71.689,1.066a14.249,14.249,0,0,0,5.109-2.015A12.989,12.989,0,0,0,90,12.6L89.375,11.5a12.246,12.246,0,0,1-4.342,4.784A13.423,13.423,0,0,1,79.833,18.181ZM101.14,10.3l-.663-.507a3.56,3.56,0,0,1-.975.1H94.484c-.39,0-1.131-.052-1.313-.078v1.183c.143-.013.858-.065,1.313-.065h5.07A11.44,11.44,0,0,1,97.4,14.554a14.866,14.866,0,0,1-5.356,3.861l.832.871a16.48,16.48,0,0,0,5.07-3.8,30.016,30.016,0,0,1,3.575,3.861l.91-.78a36.061,36.061,0,0,0-3.8-3.887,16.453,16.453,0,0,0,2.184-3.809A3.729,3.729,0,0,1,101.14,10.3ZM6.5,31.682A1.378,1.378,0,1,0,7.878,33.06,1.37,1.37,0,0,0,6.5,31.682Zm18.967-1.963A8.493,8.493,0,0,0,24.089,27.6l-.663.351A9,9,0,0,1,24.765,30.1Zm-8.918.676h-1.43V28.549h1.43Zm-1.43,5.551v-2.08h1.43v1.807Zm1.43-2.886h-1.43V31.2h1.43Zm1.443-4.511v.611h4.056v-.741H20.4V27.145h-.858v1.274H18.005v-.741H13.7v.871h.6v7.566l-.819.156.169.871c.832-.169,1.859-.39,2.9-.624v2.47h.819V28.549Zm3.042,2.665c.169-.468.39-1.2.6-1.82l-.793-.169a16.169,16.169,0,0,1-.442,1.82Zm-.052,2.314v1.118h-1.9V33.528Zm-1.9,2.977V35.348h1.9v1.157Zm2.678.728V32.8H18.3v5.252h.78v-.819Zm-3.38-7.839a6.828,6.828,0,0,1,.39,1.833l.715-.169a6.2,6.2,0,0,0-.442-1.807Zm5.889,3.289a11.337,11.337,0,0,1-.728,2.093c-.091-.806-.156-1.729-.208-2.756h2.119v-.793H23.3c-.052-1.261-.078-2.652-.078-4.082H22.36c.013,1.443.039,2.821.091,4.082H17.615v.793H22.49A36.434,36.434,0,0,0,22.867,36a7.915,7.915,0,0,1-2.353,2.34,4.532,4.532,0,0,1,.6.65,9.1,9.1,0,0,0,1.976-1.9c.3,1.17.741,1.859,1.352,1.872.416.013.871-.52,1.105-2.548a2.642,2.642,0,0,1-.637-.494c-.078,1.209-.247,1.937-.442,1.937-.3-.013-.546-.65-.728-1.729a12.548,12.548,0,0,0,1.352-3.263Zm12.35-3.419h-4.16V28.237h4.16Zm0,1.716h-4.16V29.94h4.16Zm.9-3.471H31.577v4.2h5.941Zm-7.046,6.383-1.326.6V30.837h1.4v-.91h-1.4v-2.7h-.9v2.7H26.728v.91h1.521v4.069c-.663.3-1.274.559-1.768.767l.377.949c1.092-.52,2.509-1.209,3.822-1.872Zm7.969-.637v-.819H30.3v.819h1.82a7.361,7.361,0,0,1-2.574,2.6,4.238,4.238,0,0,1,.663.6,8.918,8.918,0,0,0,1.69-1.482h1.313a8.579,8.579,0,0,1-2.925,2.912,2.557,2.557,0,0,1,.637.6,9.818,9.818,0,0,0,3.159-3.51h1.261a7.646,7.646,0,0,1-2.535,3.51,2.946,2.946,0,0,1,.689.559,9.044,9.044,0,0,0,2.652-4.069h1.014c-.169,2.041-.364,2.86-.585,3.094-.091.13-.208.143-.39.143s-.624-.013-1.105-.052a1.64,1.64,0,0,1,.221.78c.52.026,1,.026,1.287.013a1.054,1.054,0,0,0,.728-.325c.364-.377.572-1.391.767-4.069a3.709,3.709,0,0,0,.039-.39h-5.59a8.125,8.125,0,0,0,.559-.91ZM50.8,33.45a4.71,4.71,0,0,0-4.979-4.784,5.541,5.541,0,0,0-5.681,5.291c0,2.145,1.157,3.471,2.314,3.471,1.209,0,2.236-1.365,3.029-4.043a25.572,25.572,0,0,0,.78-3.744,3.62,3.62,0,0,1,3.471,3.77,3.926,3.926,0,0,1-3.3,3.861,9.82,9.82,0,0,1-1.118.169l.611.962C49.01,38,50.8,36.18,50.8,33.45Zm-9.646.416a4.535,4.535,0,0,1,4.03-4.212,21.241,21.241,0,0,1-.728,3.51c-.663,2.2-1.352,3.068-1.963,3.068C41.912,36.232,41.158,35.5,41.158,33.866Zm13.078-4.784v1.157c.3-.013.949-.039,1.43-.039h6.227v6.136H55.51a13.726,13.726,0,0,1-1.443-.078v1.183c.351-.026.936-.052,1.469-.052h6.357c-.013.312-.013.585-.026.728h1.17c-.013-.208-.052-.793-.052-1.261V30.148c0-.312.026-.715.039-1.014-.26.013-.65.026-.962.026H55.653A13.119,13.119,0,0,1,54.236,29.082Zm14.5-.923-.377.962a43.034,43.034,0,0,1,6.786,1.547l.416-1A44.484,44.484,0,0,0,68.731,28.159Zm-.585,3.432-.39.975a38.046,38.046,0,0,1,6.526,1.586l.416-1A46.3,46.3,0,0,0,68.146,31.591Zm-.715,3.783-.4.988a42.437,42.437,0,0,1,7.7,1.963l.442-1A45.756,45.756,0,0,0,67.431,35.374Zm20.15-3.562-.793-.377a2.232,2.232,0,0,1-.65.091H82.186a8.876,8.876,0,0,1-1.027-.078V32.54c.325-.013.663-.039,1.04-.039h4.134c-.039.741-.416,3.276-.611,4.368H81.016c-.39,0-.767-.026-1.079-.052V37.9c.377-.026.676-.039,1.079-.039H88.14c.273,0,.754.013.988.026V36.83c-.273.026-.741.039-1.027.039H86.827c.182-1.2.559-3.77.663-4.654A2.892,2.892,0,0,1,87.581,31.812Zm5.733-2.275v1.17c.4-.013.832-.039,1.287-.039h5.564c.429,0,.923.013,1.287.039v-1.17a12.774,12.774,0,0,1-1.287.052H94.6C94.172,29.589,93.73,29.563,93.314,29.537ZM92.2,35.972V37.22c.442-.026.9-.065,1.365-.065h7.787c.351,0,.793.026,1.183.065V35.972a11.806,11.806,0,0,1-1.183.065H93.561C93.093,36.037,92.638,36,92.2,35.972Zm17.16-8.021-1.248-.247a4.882,4.882,0,0,1-.195,1.04,8.786,8.786,0,0,1-.741,1.82,9.708,9.708,0,0,1-2.314,2.8l1.027.611a10.433,10.433,0,0,0,2.171-2.782h3.328a7.459,7.459,0,0,1-2.86,5.967,4.176,4.176,0,0,1-1.053.6l1.105.754c2.236-1.43,3.692-3.6,3.9-7.319h2.2c.3,0,.806.013,1.222.039V30.109a10.151,10.151,0,0,1-1.222.065h-6.136c.208-.468.364-.936.494-1.313C109.122,28.588,109.252,28.25,109.356,27.951Zm8.97,4.42v1.274c.4-.039,1.092-.065,1.807-.065h7.137c.585,0,1.131.052,1.391.065V32.371c-.286.026-.754.065-1.4.065h-7.124C119.4,32.436,118.716,32.4,118.326,32.371ZM16.913,47.016l-.585.871c.767.442,2.171,1.378,2.8,1.846l.611-.884C19.175,48.433,17.68,47.445,16.913,47.016Zm-1.95,9.3.6,1.053a16.183,16.183,0,0,0,4.316-1.612A15.148,15.148,0,0,0,24.869,51.1l-.624-1.066a13.259,13.259,0,0,1-4.927,4.758A13.81,13.81,0,0,1,14.963,56.311Zm-.013-6.37-.572.884a28.5,28.5,0,0,1,2.834,1.781l.6-.91C17.238,51.28,15.717,50.357,14.95,49.941ZM28.9,49.863v1.014c.234-.013.988-.039,1.326-.039h4.823V53H30.342c-.442,0-.91-.026-1.157-.039v1c.26-.013.715-.026,1.17-.026h4.693v2.314H29.809a9.9,9.9,0,0,1-1.066-.052v1.04c.208,0,.663-.026,1.079-.026h5.226c0,.208,0,.4-.013.52h1.027c-.013-.182-.026-.494-.026-.7V50.552c0-.247,0-.52.013-.663-.169.013-.507.026-.793.026H30.225C29.887,49.915,29.146,49.889,28.9,49.863Zm13.052-2.392-.741.793a27,27,0,0,1,3.237,2.717l.819-.819A28.466,28.466,0,0,0,41.951,47.471Zm-1.118,8.71.689,1.066a14.249,14.249,0,0,0,5.109-2.015A12.989,12.989,0,0,0,51,50.6l-.624-1.1a12.246,12.246,0,0,1-4.342,4.784A13.423,13.423,0,0,1,40.833,56.181ZM56,46.886l-1.027.429a43.569,43.569,0,0,0,1.885,4c-1.391.975-2.249,2.028-2.249,3.367,0,1.95,1.768,2.678,4.212,2.678a25.592,25.592,0,0,0,4.108-.325V55.882a19.343,19.343,0,0,1-4.16.442c-2.054,0-3.081-.676-3.081-1.755,0-.988.728-1.846,1.937-2.626a43.186,43.186,0,0,1,3.952-2.158c.377-.195.7-.364,1-.546l-.572-.923a7.1,7.1,0,0,1-.923.611c-.715.39-2.119,1.079-3.341,1.82A28,28,0,0,1,56,46.886Zm19.812,1.443c-.13,1.3-.247,1.846-.442,2.015a.473.473,0,0,1-.39.117c-.208,0-.715-.013-1.261-.065a2.143,2.143,0,0,1,.26.832c.546.026,1.066.026,1.352.013a1.046,1.046,0,0,0,.767-.325c.3-.3.468-1.092.637-3a3.576,3.576,0,0,0,.039-.377H73.554a11.441,11.441,0,0,0,.169-1.417h-.9a9.4,9.4,0,0,1-.169,1.417h-2.5v.793h2.275a4.024,4.024,0,0,1-2.782,2.5,2.439,2.439,0,0,1,.494.676,4.72,4.72,0,0,0,3.211-3.172Zm-6.2,2.106v-.884H68.081V46.132h-.91v3.419H65.559v.884h1.612v7.54h.91v-7.54Zm1.5,2.47c.026-.429.052-.884.065-1.339H70.33c-.013.455-.026.91-.052,1.339H68.965v.78H70.2a5.346,5.346,0,0,1-1.6,3.731,2.647,2.647,0,0,1,.546.6,6.381,6.381,0,0,0,1.885-4.329h1.04c-.078,2.34-.182,3.2-.338,3.419a.337.337,0,0,1-.312.13c-.156,0-.442,0-.806-.026a1.924,1.924,0,0,1,.208.767,7.454,7.454,0,0,0,.962-.013.813.813,0,0,0,.637-.325c.26-.351.364-1.391.468-4.342.013-.13.013-.39.013-.39Zm4.251,0c.026-.429.052-.884.065-1.352h-.858c-.013.468-.026.923-.052,1.352H73.255v.78h1.183a5.01,5.01,0,0,1-1.69,3.679,2.461,2.461,0,0,1,.559.611,6.007,6.007,0,0,0,1.976-4.29H76.44c-.078,2.34-.169,3.185-.325,3.406-.078.117-.169.117-.325.117s-.494,0-.884-.026a2.64,2.64,0,0,1,.208.793,9.106,9.106,0,0,0,1.066-.013.853.853,0,0,0,.637-.325c.273-.351.364-1.391.455-4.342.013-.117.013-.39.013-.39Zm8.983-3.952V46.145h-1v2.808H79.131v.962h4.16a8.759,8.759,0,0,1-4.55,7.371,3.458,3.458,0,0,1,.741.767,9.568,9.568,0,0,0,4.81-8.138h4.433c-.247,4.576-.533,6.409-1,6.851a.745.745,0,0,1-.6.195c-.325,0-1.157-.013-2.041-.091a2.115,2.115,0,0,1,.325.988,16.8,16.8,0,0,0,2.08.039,1.428,1.428,0,0,0,1.105-.52c.572-.65.845-2.587,1.131-7.917.013-.143.026-.507.026-.507ZM6.5,69.682A1.378,1.378,0,1,0,7.878,71.06,1.37,1.37,0,0,0,6.5,69.682Zm16.445-4.16-.689.3a14.3,14.3,0,0,1,1.04,1.768l-.221-.13a2.572,2.572,0,0,1-.858.117h-3.51c.091-.156.182-.312.26-.455.13-.247.364-.689.585-1.027l-1.183-.377a4.7,4.7,0,0,1-.416,1.027,11.824,11.824,0,0,1-4.173,4.537l.871.663A14.374,14.374,0,0,0,18.1,68.512H22.49a10.983,10.983,0,0,1-1.768,3.6c-.91-.637-1.885-1.274-2.743-1.768l-.7.728c.832.52,1.833,1.2,2.756,1.872A11.2,11.2,0,0,1,15,76.065l.936.819a12.47,12.47,0,0,0,4.953-3.3c.546.416,1.027.819,1.417,1.17l.767-.9c-.416-.338-.923-.728-1.482-1.131a13.808,13.808,0,0,0,2.041-4.056,4.085,4.085,0,0,1,.3-.689l-.611-.364.689-.312A18.424,18.424,0,0,0,22.945,65.522Zm1.43-.52-.689.286a13.666,13.666,0,0,1,1.079,1.794l.7-.312A17.1,17.1,0,0,0,24.375,65Zm2.743,6.305.52,1.014A25.678,25.678,0,0,0,32.591,70.2v4.81a12.059,12.059,0,0,1-.078,1.391h1.274a9.81,9.81,0,0,1-.078-1.391V69.526a21.268,21.268,0,0,0,3.51-2.9l-.871-.806A15.489,15.489,0,0,1,32.8,68.876,21.49,21.49,0,0,1,27.118,71.307Zm21.567-5.434L48,66.159a14.857,14.857,0,0,1,1.053,1.807l.7-.312A15,15,0,0,0,48.685,65.873Zm1.43-.52-.689.286a12.383,12.383,0,0,1,1.079,1.794l.7-.312A15.116,15.116,0,0,0,50.115,65.353Zm-8.541,6.734a17.075,17.075,0,0,1-2,3.536l1.1.468a18.853,18.853,0,0,0,1.911-3.575,28.506,28.506,0,0,0,1.183-4.069c.052-.273.156-.65.234-.936l-1.157-.247A19.816,19.816,0,0,1,41.574,72.087Zm6.4-.494a38.956,38.956,0,0,1,1.469,4.472l1.157-.377c-.338-1.17-1.027-3.159-1.56-4.446a42.026,42.026,0,0,0-1.9-4.108l-1.053.351A33.245,33.245,0,0,1,47.97,71.593Zm5.1-1.222v1.274c.4-.039,1.092-.065,1.807-.065H62.01c.585,0,1.131.052,1.391.065V70.371c-.286.026-.754.065-1.4.065H54.873C54.145,70.436,53.456,70.4,53.066,70.371Zm15.327-4.355-.585.871c.767.442,2.171,1.378,2.795,1.846l.611-.884C70.655,67.433,69.16,66.445,68.393,66.016Zm-1.95,9.295.6,1.053a16.184,16.184,0,0,0,4.316-1.612A15.148,15.148,0,0,0,76.349,70.1l-.624-1.066A13.259,13.259,0,0,1,70.8,73.79,13.81,13.81,0,0,1,66.443,75.311Zm-.013-6.37-.572.884a28.5,28.5,0,0,1,2.834,1.781l.6-.91C68.718,70.28,67.2,69.357,66.43,68.941ZM80.275,66.38v1.079c.325-.026.754-.039,1.183-.039H86.71c.377,0,.832.013,1.209.039V66.38a9.591,9.591,0,0,1-1.209.078H81.445A10.813,10.813,0,0,1,80.275,66.38Zm-1.56,3.263v1.079c.364-.026.741-.026,1.131-.026h3.9a6.294,6.294,0,0,1-.754,3.224,5.382,5.382,0,0,1-2.457,1.989l.962.715a6.344,6.344,0,0,0,2.561-2.379,7.869,7.869,0,0,0,.767-3.549h3.536c.312,0,.728.013,1.014.026V69.643a6.969,6.969,0,0,1-1.014.065H79.846A10.391,10.391,0,0,1,78.715,69.643Zm12.571,3,.494.962a24.4,24.4,0,0,0,4.069-1.716V75.87c0,.4-.026.936-.052,1.144h1.2a6.852,6.852,0,0,1-.065-1.144V71.242a16.106,16.106,0,0,0,2.938-2.431l-.806-.78a12.847,12.847,0,0,1-3.094,2.652A17.719,17.719,0,0,1,91.286,72.646Zm15.418-6.76-1.027.429a43.569,43.569,0,0,0,1.885,4c-1.391.975-2.249,2.028-2.249,3.367,0,1.95,1.768,2.678,4.212,2.678a25.592,25.592,0,0,0,4.108-.325V74.882a19.343,19.343,0,0,1-4.16.442c-2.054,0-3.081-.676-3.081-1.755,0-.988.728-1.846,1.937-2.626a43.185,43.185,0,0,1,3.952-2.158c.377-.2.7-.364,1-.546l-.572-.923a7.1,7.1,0,0,1-.923.611c-.715.39-2.119,1.079-3.341,1.82A28,28,0,0,1,106.7,65.886ZM14.118,90.307l.52,1.014A25.678,25.678,0,0,0,19.591,89.2v4.81a12.059,12.059,0,0,1-.078,1.391h1.274a9.81,9.81,0,0,1-.078-1.391V88.526a21.268,21.268,0,0,0,3.51-2.9l-.871-.806A15.489,15.489,0,0,1,19.8,87.876,21.49,21.49,0,0,1,14.118,90.307Zm14.833-4.836-.741.793a27,27,0,0,1,3.237,2.717l.819-.819A28.466,28.466,0,0,0,28.951,85.471Zm-1.118,8.71.689,1.066a14.249,14.249,0,0,0,5.109-2.015A12.989,12.989,0,0,0,38,88.6l-.624-1.1a12.246,12.246,0,0,1-4.342,4.784A13.423,13.423,0,0,1,27.833,94.181ZM45.981,84.9l-1.209-.39a4.452,4.452,0,0,1-.4,1.027,10.717,10.717,0,0,1-4.082,4.394l.9.676a13.179,13.179,0,0,0,3.3-3.2H48.88a10.688,10.688,0,0,1-2.08,4.056,10.517,10.517,0,0,1-5.187,3.263l.936.845a11.4,11.4,0,0,0,5.174-3.536,12.609,12.609,0,0,0,2.314-4.472,4.085,4.085,0,0,1,.3-.689l-.871-.533a2.176,2.176,0,0,1-.845.13H45.1a5.842,5.842,0,0,0,.312-.546A9.83,9.83,0,0,1,45.981,84.9Zm12.441,9.828.689.572a2.781,2.781,0,0,1,.442-.3,12.924,12.924,0,0,0,4.433-3.6l-.611-.884a9.989,9.989,0,0,1-3.8,3.2v-7.5a8.044,8.044,0,0,1,.052-.962h-1.2a6.17,6.17,0,0,1,.078.962V94A3.1,3.1,0,0,1,58.422,94.727Zm-5.954-.065.975.663a7.265,7.265,0,0,0,2.314-3.575,28.438,28.438,0,0,0,.4-5.525c0-.39.052-.78.065-.936h-1.2a4.789,4.789,0,0,1,.091.949,23.207,23.207,0,0,1-.39,5.226A6.17,6.17,0,0,1,52.468,94.662Zm13.468-5.291v1.274c.4-.039,1.092-.065,1.807-.065H74.88c.585,0,1.131.052,1.391.065V89.371c-.286.026-.754.065-1.4.065H67.743C67.015,89.436,66.326,89.4,65.936,89.371ZM86.658,85.3l-.715.3a14.537,14.537,0,0,1,1.183,2.054l.741-.338A19.193,19.193,0,0,0,86.658,85.3Zm1.7-.624-.728.312A14.134,14.134,0,0,1,88.868,87l.741-.338A18.746,18.746,0,0,0,88.361,84.678Zm-7.254.429-.585.871c.754.442,2.171,1.378,2.8,1.859l.611-.9C83.369,86.537,81.874,85.536,81.107,85.107ZM79.157,94.4l.6,1.053a15.524,15.524,0,0,0,4.3-1.612,15.3,15.3,0,0,0,5-4.641l-.624-1.079a13.288,13.288,0,0,1-4.927,4.771A14.229,14.229,0,0,1,79.157,94.4Zm-.013-6.37-.585.884A28.721,28.721,0,0,1,81.406,90.7l.585-.91C81.432,89.384,79.911,88.448,79.144,88.032Zm14.105-.169v1.014c.234-.013.988-.039,1.326-.039H99.4V91H94.692c-.442,0-.91-.026-1.157-.039v1c.26-.013.715-.026,1.17-.026H99.4v2.314H94.159a9.9,9.9,0,0,1-1.066-.052v1.04c.208,0,.663-.026,1.079-.026H99.4c0,.208,0,.4-.013.52h1.027c-.013-.182-.026-.494-.026-.7V88.552c0-.247,0-.52.013-.663-.169.013-.507.026-.793.026H94.575C94.237,87.915,93.5,87.889,93.249,87.863ZM106.3,85.471l-.741.793a27,27,0,0,1,3.237,2.717l.819-.819A28.466,28.466,0,0,0,106.3,85.471Zm-1.118,8.71.689,1.066a14.249,14.249,0,0,0,5.109-2.015,12.989,12.989,0,0,0,4.368-4.628l-.624-1.1a12.246,12.246,0,0,1-4.342,4.784A13.423,13.423,0,0,1,105.183,94.181ZM6.5,107.682a1.378,1.378,0,1,0,1.378,1.378A1.37,1.37,0,0,0,6.5,107.682Zm11.6-2.873c.039.156.13.663.273,1.365-1.222.2-2.353.364-2.86.416-.416.052-.754.078-1.079.091l.221,1.17c.39-.091.689-.156,1.053-.221.494-.091,1.625-.273,2.86-.468.156.806.338,1.729.52,2.613-1.482.234-2.9.455-3.549.546-.338.052-.845.1-1.144.117l.234,1.131c.273-.078.637-.143,1.144-.234.637-.117,2.028-.351,3.5-.6.247,1.287.455,2.34.507,2.626.091.39.13.78.195,1.222l1.183-.221c-.117-.364-.221-.806-.312-1.183-.065-.3-.273-1.339-.533-2.613,1.274-.195,2.483-.39,3.2-.507.481-.078.9-.143,1.17-.169l-.208-1.092c-.286.078-.65.156-1.157.247-.65.117-1.885.338-3.2.546-.169-.871-.351-1.794-.52-2.6,1.248-.2,2.431-.39,3.029-.481.338-.052.741-.1.936-.13l-.221-1.092a8.155,8.155,0,0,1-.923.221c-.546.1-1.742.3-3,.507-.156-.728-.247-1.261-.273-1.4-.039-.286-.1-.65-.117-.9l-1.17.208A6.09,6.09,0,0,1,18.1,104.809Zm12.909,1.235-1.118.273a3.23,3.23,0,0,1,.312.78c.078.247.234.806.429,1.5-.793.143-1.4.26-1.586.286-.39.065-.715.117-1.079.143l.26.988c.351-.078,1.417-.286,2.639-.533.507,1.859,1.131,4.16,1.3,4.745a7.259,7.259,0,0,1,.195.949l1.1-.286c-.078-.234-.208-.637-.286-.884-.169-.572-.806-2.86-1.326-4.732,1.807-.364,3.64-.728,3.939-.78a12,12,0,0,1-2.236,2.678l.923.455a17.983,17.983,0,0,0,2.769-3.8l-.65-.455a2.747,2.747,0,0,1-.494.156c-.442.1-2.652.533-4.485.884-.2-.689-.351-1.248-.429-1.534C31.109,106.551,31.044,106.265,31.005,106.044Zm18.083-1.911H47.866a9.327,9.327,0,0,1,.065,1.131v2.054c0,2.457-.156,3.51-1.079,4.589a5.96,5.96,0,0,1-3.107,1.729l.845.9a6.944,6.944,0,0,0,3.094-1.9c.936-1.118,1.365-2.145,1.365-5.265v-2.106C49.049,104.822,49.062,104.458,49.088,104.133Zm-6.032.1H41.873c.026.247.052.7.052.936V109.5a8.52,8.52,0,0,1-.065,1h1.2c-.026-.234-.052-.663-.052-.988v-4.342C43,104.861,43.03,104.484,43.056,104.237Zm21.047.975-.637-.611a6.42,6.42,0,0,1-.91.078H55.094a11.032,11.032,0,0,1-1.482-.117v1.183a14.526,14.526,0,0,1,1.482-.078H62.5a8.831,8.831,0,0,1-2.847,2.912l.858.689a12.534,12.534,0,0,0,3.237-3.588C63.843,105.537,64.012,105.342,64.1,105.212Zm-5.187,1.716h-1.17a7.815,7.815,0,0,1,.052.936c0,2.171-.286,4.017-2.3,5.252a4.477,4.477,0,0,1-1.17.585l.962.78C58.6,112.83,58.916,110.451,58.916,106.928Zm11.076-2.509v1.053H67.145v-1.053Zm-2.847,2.86v-1.118h2.847v1.118Zm3.757.741v-4.342H66.2V115h.949V108.02Zm-.364,3.016v-1.4h1.82v1.4Zm4.446.819v-.819H73.216v-1.4H74.7v-.793H68.289v.793h1.4v1.4H68.042v.819h1.625a3.272,3.272,0,0,1-1.534,2.5,3.385,3.385,0,0,1,.637.572,4.169,4.169,0,0,0,1.742-3.068h1.846v2.9h.858v-2.9Zm-2.015-4.563v-1.131H75.92v1.131Zm2.951-2.873v1.053H72.969v-1.053Zm.949-.741H72.046v4.355H75.92v5.694c0,.208-.065.286-.273.286s-.9.013-1.612-.013a3.194,3.194,0,0,1,.312.962,6.037,6.037,0,0,0,2.015-.169c.377-.169.507-.481.507-1.053Zm8.684,6.877H83.291v-1.937h2.262Zm2.5-1.937v-.494a8.27,8.27,0,0,0,1.859,1.131,3.986,3.986,0,0,1,.663-.806,8.447,8.447,0,0,1-2.431-1.508,20.868,20.868,0,0,0,2.041-1.677l-.728-.52a15.991,15.991,0,0,1-1.859,1.677,10.418,10.418,0,0,1-.845-1,17.235,17.235,0,0,0,1.911-1.638l-.728-.52a16.677,16.677,0,0,1-1.6,1.547,9.637,9.637,0,0,1-.819-1.638l-.832.247a11.2,11.2,0,0,0,2.9,4.3h-6.11a9.071,9.071,0,0,0,2.7-3.77l-.637-.312-.169.039H79.664v.858h3.224a9.106,9.106,0,0,1-1.209,1.716,18.078,18.078,0,0,0-1.573-1.274l-.6.507a13.78,13.78,0,0,1,1.56,1.365,8.991,8.991,0,0,1-2.639,1.69,5.229,5.229,0,0,1,.6.728,10.652,10.652,0,0,0,1.937-1.144v.494h1.365v1.937h-2.99v.9h2.886c-.234,1.079-.975,2.106-3.146,2.834a3.773,3.773,0,0,1,.611.767c2.548-.884,3.315-2.21,3.523-3.6h2.34v2.08c0,1.066.286,1.352,1.378,1.352h1.7c.949,0,1.222-.455,1.313-2.106a2.663,2.663,0,0,1-.871-.4c-.052,1.391-.117,1.651-.52,1.651H87.074c-.442,0-.52-.078-.52-.481v-2.093h3.081v-.9H86.554v-1.937Zm14.755.832a4.71,4.71,0,0,0-4.979-4.784,5.541,5.541,0,0,0-5.681,5.291c0,2.145,1.157,3.471,2.314,3.471,1.209,0,2.236-1.365,3.029-4.043a25.573,25.573,0,0,0,.78-3.744,3.62,3.62,0,0,1,3.471,3.77,3.926,3.926,0,0,1-3.3,3.861,9.821,9.821,0,0,1-1.118.169l.611.962C101.01,114,102.8,112.18,102.8,109.45Zm-9.646.416a4.535,4.535,0,0,1,4.03-4.212,21.241,21.241,0,0,1-.728,3.51c-.663,2.2-1.352,3.068-1.963,3.068C93.912,112.232,93.158,111.5,93.158,109.866Zm-70.8,17.167v-.468h1.43c.572,0,1.053.026,1.2.039v-1.092a9.558,9.558,0,0,1-1.2.065H22.36v-1.625a9.856,9.856,0,0,1,.065-1.066h-1.17a7.248,7.248,0,0,1,.065,1.066v1.625h-3.7v-1.664a8.024,8.024,0,0,1,.065-.949H16.523a8.029,8.029,0,0,1,.052.949v1.664h-1.4a9.53,9.53,0,0,1-1.3-.091v1.131c.156-.013.741-.052,1.3-.052h1.4v2.106c0,.494-.039,1.053-.052,1.183h1.144c-.013-.13-.052-.7-.052-1.183v-2.106h3.7v.546c0,3.64-1.183,4.758-3.549,5.668l.871.819C21.619,132.272,22.36,130.491,22.36,127.033Zm13.455-3.64a.827.827,0,0,1,.819-.832.832.832,0,1,1,0,1.664A.819.819,0,0,1,35.815,123.393Zm-.6,0a1.424,1.424,0,0,0,2.847,0,1.424,1.424,0,1,0-2.847,0Zm-2.171-.416H31.824a4.715,4.715,0,0,1,.091.923v1.339H28.3a9.724,9.724,0,0,1-1.105-.065v1.092c.351-.026.715-.039,1.105-.039h3.614v5.863c0,.338-.156.494-.507.494a9.247,9.247,0,0,1-1.5-.156l.091,1.04c.52.052,1.3.091,1.846.091.78,0,1.118-.351,1.118-1.04v-6.292h3.445c.312,0,.7,0,1.053.026v-1.079a9.975,9.975,0,0,1-1.066.065H32.968v-1.326A6.16,6.16,0,0,1,33.046,122.977ZM35.62,127.8l-.884.468a21.6,21.6,0,0,1,2.171,3.458l.962-.533A27.889,27.889,0,0,0,35.62,127.8Zm-5.434.429-.91-.442a13.88,13.88,0,0,1-2.483,3.406l.9.6A18.841,18.841,0,0,0,30.186,128.229Zm10.14-.858v1.274c.4-.039,1.092-.065,1.807-.065H49.27c.585,0,1.131.052,1.391.065v-1.274c-.286.026-.754.065-1.4.065H42.133C41.4,127.436,40.716,127.4,40.326,127.371Zm16.055,4.485a11.455,11.455,0,0,1-.091,1.534h1.261c-.052-.429-.078-1.131-.078-1.534,0-.377,0-2.34-.013-4.29a34.082,34.082,0,0,1,5.109,2.093l.442-1.1a41.551,41.551,0,0,0-5.551-2.145V124.29c0-.39.052-.949.091-1.352H56.277a8.205,8.205,0,0,1,.1,1.352ZM6.5,145.682a1.378,1.378,0,1,0,1.378,1.378A1.37,1.37,0,0,0,6.5,145.682ZM21.242,148.1v1.339H19.266V148.1Zm2.951,1.339h-2.08V148.1h2.08Zm-2.08,2.145v-1.391h2.08v1.391Zm-2.847-1.391h1.976v1.391H19.266Zm-.884-2.106c-.273-.273-1.209-1.131-1.664-1.482a12.023,12.023,0,0,0,1.508-2.743l-.533-.351-.182.039h-1.04v-2.418h-.936v2.418H13.767v.884H17.03A11.29,11.29,0,0,1,13.3,148.7a4.336,4.336,0,0,1,.494.871,10.917,10.917,0,0,0,1.742-1.534v4.927h.936V147.4c.481.481,1.092,1.144,1.365,1.5l.546-.78v4.875h.884v-.611h4.927v.572h.923v-5.668H18.382Zm5.239-2.4h-3.7v-1.443h3.7Zm-4.563-2.223v2.99h5.46v-2.99Zm-.728-1.7v.832h6.864v-.832Zm12.012.871a15.863,15.863,0,0,0,2.34-.689l-.715-.741a25.373,25.373,0,0,1-5.369,1.261,2.766,2.766,0,0,1,.3.767c.806-.117,1.664-.247,2.509-.4v2.2H26.689v.884h2.522A13.517,13.517,0,0,1,26.4,150.3a6.27,6.27,0,0,1,.533.9,13.946,13.946,0,0,0,2.47-3.835v5.6h.936V147.84c.663.611,1.5,1.443,1.885,1.872l.559-.793c-.377-.338-1.859-1.612-2.444-2.067V145.9h2.483v-.884H30.342Zm4.29.039H33.7v7.111h.936Zm2.236-1.287v10.335c0,.247-.1.325-.338.325s-1.066.013-1.976-.013A3.843,3.843,0,0,1,34.9,153a8.833,8.833,0,0,0,2.34-.169c.4-.169.585-.468.585-1.131V141.379Zm14.352,1.313v-.884H40.742v3.783c0,2.041-.091,4.875-1.248,6.89a4.237,4.237,0,0,1,.819.481c1.209-2.093,1.378-5.213,1.378-7.358v-2.912ZM43.784,145.5H49v.871H43.784Zm0-1.469H49v.845H43.784Zm6.162,3v-3.653H42.874v3.653Zm1.43,2.847H46.982v-.13a12.03,12.03,0,0,0,3.12-1.534l-.572-.494-.208.039H42.835v.7h5.421a13.517,13.517,0,0,1-1.521.689h-.7v.728H41.782v.78h4.251V152c0,.169-.065.208-.273.221s-.988.013-1.807-.013a3.829,3.829,0,0,1,.338.793,8.923,8.923,0,0,0,2.158-.13c.416-.117.533-.351.533-.845v-1.365h4.394Zm7.644,1.768v-3.3h4.173v-.936H59.02v-2.834h4.654v-.949H59.02v-2.5h-.988v2.5H55.393a17.845,17.845,0,0,0,.728-2.08l-.975-.208a11.851,11.851,0,0,1-2.4,4.784,6.473,6.473,0,0,1,.884.572,11.664,11.664,0,0,0,1.352-2.119h3.055v2.834H54.171v.936h3.861v3.3H52.767v.936H64.285v-.936ZM69,141.886l-1.027.429a43.569,43.569,0,0,0,1.885,4c-1.391.975-2.249,2.028-2.249,3.367,0,1.95,1.768,2.678,4.212,2.678a25.593,25.593,0,0,0,4.108-.325v-1.157a19.343,19.343,0,0,1-4.16.442c-2.054,0-3.081-.676-3.081-1.755,0-.988.728-1.846,1.937-2.626a43.19,43.19,0,0,1,3.952-2.158c.377-.2.7-.364,1-.546l-.572-.923a7.1,7.1,0,0,1-.923.611c-.715.39-2.119,1.079-3.341,1.82A28,28,0,0,1,69,141.886ZM88.933,143v.975H87.438V143Zm0,2.743H87.438v-1.014h1.495Zm-2.379-1.768H83.785v.754h2.769v1.014h-1.9v.741h1.9v.988H84.448v.754h2.106v1.014H84.071v.741h2.483v1.495h.884v-1.495H90.3v-.741h-2.86V148.23h2.483v-.754H87.438v-.988h2.327v-1.755h.78v-.754h-.78V142.25H87.438v-1.027h-.884v1.027h-1.9V143h1.9ZM80.86,141.2a13.784,13.784,0,0,1-2.535,4.992c.143.234.39.754.481.962a11.694,11.694,0,0,0,1.144-1.638v7.449h.858v-9.126a19.865,19.865,0,0,0,.91-2.4Zm2.86,4.589-.143.026h-.988c.546-1.222,1.092-2.522,1.482-3.484l-.611-.182-.156.052H81.536V143H82.9c-.455,1.131-1.157,2.756-1.742,3.965l.806.2.286-.611h1.105a12.6,12.6,0,0,1-.676,3.016,8.8,8.8,0,0,1-.6-1.963l-.754.234a9.083,9.083,0,0,0,.936,2.691,4.774,4.774,0,0,1-1.4,1.7,4.672,4.672,0,0,1,.572.7,5.419,5.419,0,0,0,1.378-1.612c.975,1.1,2.314,1.43,4.147,1.43h3.289a3.01,3.01,0,0,1,.325-.884c-.546.013-3.172.013-3.575.013-1.651,0-2.9-.312-3.757-1.4a14.794,14.794,0,0,0,1-4.589Zm9.776-2.613h9.789v-.858H98.371v-1.183h-.988v1.183h-4.8v3.809c0,1.9-.1,4.537-1.131,6.4a2.92,2.92,0,0,1,.78.52c1.1-1.963,1.261-4.888,1.261-6.916Zm3.458,7.267c-1.287.494-2.613.975-3.5,1.261l.455.78c.923-.364,2.093-.858,3.211-1.326ZM94.146,149a11.083,11.083,0,0,1,1.885,1.391l.585-.585a12.672,12.672,0,0,0-1.924-1.339Zm4.537-2.418h2.561v1.027H98.683Zm0-1.677h2.561v.949H98.683Zm3.471,3.406v-1.729h1.287v-.728h-1.287v-1.664H98.683v-.91H97.76v.91H94.718v.715H97.76v.949H93.821v.728H97.76v1.027H94.627v.7H97.76v3.575c0,.221-.065.286-.3.286s-1,.026-1.807,0a3.784,3.784,0,0,1,.3.832,8.619,8.619,0,0,0,2.171-.143c.4-.13.559-.377.559-.975v-2.418a6.734,6.734,0,0,0,3.9,3.38,3.06,3.06,0,0,1,.6-.754,6.275,6.275,0,0,1-2.73-1.573,19.986,19.986,0,0,0,2.275-1.417l-.728-.572a15.563,15.563,0,0,1-2.041,1.443A6.4,6.4,0,0,1,99,148.308Zm11.83,2.236V151.8h-6.1v-1.261Zm-.832-3.484v1.1h-5.265v-1.1Zm-5.265,1.846H114.1v-2.587h-7.124V153h.91v-.442h6.1v.416h.949V149.79h-7.046Zm8.515-6.8H112a6.825,6.825,0,0,0,.4-.819l-.923-.221a6.1,6.1,0,0,1-1.144,1.794v-.754h-3.406a6.471,6.471,0,0,0,.377-.806l-.9-.234a7.122,7.122,0,0,1-1.872,2.7,5.97,5.97,0,0,1,.793.52,8.863,8.863,0,0,0,1.118-1.378H107a8.193,8.193,0,0,1,.611,1.326l.858-.26a5.9,5.9,0,0,0-.507-1.066h2.314a5.207,5.207,0,0,1-.806.715,4.716,4.716,0,0,1,.533.3v.819h-4.9v2.431h.91v-1.664h9.035v1.664h.936v-2.431h-5.057v-1.014h-.195a9.044,9.044,0,0,0,.728-.819h1.04a6.038,6.038,0,0,1,.871,1.365l.884-.3a6.466,6.466,0,0,0-.7-1.066H116.4Zm5.187,7.28-1.417.468v-3.224h1.3v-.9h-1.3v-2.821h1.5V142h-4.03v.91h1.612v2.821H117.78v.9h1.469v3.51c-.663.221-1.261.4-1.742.546l.221.975c1.157-.377,2.639-.884,4.03-1.352Zm1.6-4.381h1.976v1.651h-1.976Zm0-2.444h1.976V144.2h-1.976Zm4.8,1.638H126v-1.638h1.989Zm0,2.457H126v-1.651h1.989Zm-1.911,5.031v-1.781H129.1v-.884h-3.029V147.5h2.834v-5.785h-6.6V147.5H125.1v1.521h-2.951v.884H125.1v1.781h-3.952v.884h8.372v-.884Z" transform="translate(212.59 2469.837)" fill="#164b99"/><path d="M6.5-6.318A1.37,1.37,0,0,0,5.122-4.94,1.37,1.37,0,0,0,6.5-3.562,1.37,1.37,0,0,0,7.878-4.94,1.37,1.37,0,0,0,6.5-6.318Zm9.191,4.9A10.432,10.432,0,0,1,17.706.416l.767-.585a10.617,10.617,0,0,0-2.067-1.768ZM15.9-5.681h3.094v1.053H15.9Zm0-1.742h3.094V-6.37H15.9Zm7.215,0V-6.37H19.929V-7.423Zm0,2.795H19.929V-5.681h3.185ZM25.3-2.912H22.36V-3.9h1.7V-8.125H19.929v-.884H25v-.832h-5.07v-1.014h-.936v1.014H14.04v.832h4.953v.884h-4V-3.9h6.435v.988H13.715v.832h7.709V-.052c0,.182-.078.234-.3.247S20.111.208,19.253.182a3.765,3.765,0,0,1,.325.845A8.6,8.6,0,0,0,21.814.884c.429-.13.546-.377.546-.91V-2.08H25.3ZM30.94-9.451V-8.32H28.184V-9.451Zm-2.756,3.12V-7.579H30.94v1.248ZM31.85-10.27H27.235V.988h.949V-5.525H31.85Zm2.132,3.952V-7.579h2.886v1.261Zm2.886-3.133V-8.32H33.982V-9.451Zm.975-.819H33.059v4.758h3.809V-.338c0,.26-.091.325-.325.338C36.27.013,35.386.026,34.5-.026a4.382,4.382,0,0,1,.351,1A8.747,8.747,0,0,0,37.245.793c.429-.156.6-.468.6-1.131Zm5.421,2.028h2.054v-.9H41.613a13.666,13.666,0,0,0,.4-1.56l-.936-.182A10.405,10.405,0,0,1,39.468-6.76a5.085,5.085,0,0,1,.793.559,9.659,9.659,0,0,0,1.053-2.041H42.3v2.587H39.624v.923h2.613A6.542,6.542,0,0,1,39.481.247a3.2,3.2,0,0,1,.676.715,7.085,7.085,0,0,0,2.691-3.835c.7.793,1.716,2.015,2.158,2.652l.65-.819c-.4-.455-1.976-2.21-2.587-2.821.052-.286.1-.585.13-.871h2.5v-.923H43.251c.013-.156.013-.312.013-.442Zm3.783,6.929V-8.84H49.79v7.527ZM46.111-9.75V.624h.936V-.4H49.79v.9h.962V-9.75ZM64.428-7.995a8.307,8.307,0,0,0-1.352-2.275l-.728.3a8.034,8.034,0,0,1,1.287,2.327Zm-3.51-1.469H59.28v-1.4h-.9v1.4h-1.69V-8.7h4.225Zm-1.04,2.938c.182-.494.377-1.274.585-1.95l-.832-.169a13.485,13.485,0,0,1-.442,1.963Zm-1.56-.182a6.56,6.56,0,0,0-.4-1.872l-.7.156a6.673,6.673,0,0,1,.364,1.885Zm-2.132-3.718H53.131v.78h3.055Zm.338,1.7H52.546v.793h3.978Zm-.312,1.755H53.079V-6.2h3.133Zm-3.133,2.5h3.133v-.78H53.079Zm2.353,1.755V-.546H53.807V-2.717Zm.793-.793H53.04V.845h.767V.234h2.418ZM57.8-1.287V-2.392h1.976v1.105ZM59.774-4.16v1.066H57.8V-4.16Zm3.445-.949a10.936,10.936,0,0,1-.871,2.184c-.1-.78-.169-1.716-.208-2.756h2.171v-.806h-2.2c-.039-1.3-.052-2.769-.039-4.368H61.23c.013,1.586.026,3.042.065,4.368H56.342v.806h4.992a30.616,30.616,0,0,0,.351,3.809A9.022,9.022,0,0,1,60.593-.65V-4.875H57.031v5H57.8v-.7h2.717A7.541,7.541,0,0,1,59.228.39a3.609,3.609,0,0,1,.546.546A9.339,9.339,0,0,0,61.893-.9c.338,1.209.845,1.9,1.612,1.937.442.013.871-.494,1.1-2.275a3.055,3.055,0,0,1-.624-.507C63.908-.676,63.752,0,63.531-.013c-.442-.039-.767-.65-1-1.716a10.791,10.791,0,0,0,1.43-2.99ZM69-10.114l-1.027.429a43.569,43.569,0,0,0,1.885,4c-1.391.975-2.249,2.028-2.249,3.367,0,1.95,1.768,2.678,4.212,2.678A25.591,25.591,0,0,0,75.933.039V-1.118a19.343,19.343,0,0,1-4.16.442c-2.054,0-3.081-.676-3.081-1.755,0-.988.728-1.846,1.937-2.626a43.187,43.187,0,0,1,3.952-2.158c.377-.195.7-.364,1-.546l-.572-.923a7.1,7.1,0,0,1-.923.611c-.715.39-2.119,1.079-3.341,1.82A28,28,0,0,1,69-10.114ZM82.732-5.2c-.468.143-.962.286-1.43.416V-7.358h1.43v-.91H81.3v-2.6h-.949v2.6H78.689v.91h1.664v2.834c-.689.195-1.313.351-1.833.468l.273.949,1.56-.455V-.169c0,.182-.078.247-.26.247-.156.013-.715.013-1.339,0a3.09,3.09,0,0,1,.3.884A4.511,4.511,0,0,0,80.821.793c.338-.156.481-.416.481-.962V-3.848c.507-.156,1.04-.312,1.56-.468Zm5.8.091a7.927,7.927,0,0,1-2.093,2.99,8.857,8.857,0,0,1-1.911-2.99Zm.611-.936-.156.039H86.918V-7.943h3.107v-.9H86.918v-2.041h-.949V-8.84H82.927v.9h3.042v1.937H83.187v.9h.429l-.039.013a10.366,10.366,0,0,0,2.132,3.562A10.674,10.674,0,0,1,82.186.117a3.681,3.681,0,0,1,.52.871A11.893,11.893,0,0,0,86.4-.871a9.334,9.334,0,0,0,3.471,1.885,3.979,3.979,0,0,1,.624-.832A8.857,8.857,0,0,1,87.139-1.5a9.512,9.512,0,0,0,2.639-4.277Zm14.105-4.069h-3.081v.858h3.081Zm-3.3,1.326a7.6,7.6,0,0,0-1.118-1.768l-.637.312A8.413,8.413,0,0,1,99.268-8.45Zm-6.188-2.08a8.9,8.9,0,0,1-2.314,2.6,5.776,5.776,0,0,1,.546.715,11.671,11.671,0,0,0,2.639-3Zm1.534,5.3a12.428,12.428,0,0,1-.858,4.433,3.834,3.834,0,0,1,.7.455,14.968,14.968,0,0,0,.975-4.771Zm4.5-1.573v-.9H97.812v-2.652h-.9v2.652h-1.95v.026l-.832-.273a10.926,10.926,0,0,1-2.873,3.7,5.469,5.469,0,0,1,.572.858A11.063,11.063,0,0,0,92.976-4.9V1h.9V-6.058a14.179,14.179,0,0,0,1.092-1.859v.78h1.95V.793h.9v-7.93ZM98.449-5.395a22.343,22.343,0,0,1,.663,3.848L99.9-1.69a24.09,24.09,0,0,0-.715-3.848Zm4.979-1.17H99.853v.884h1.5V-.156c0,.169-.052.221-.234.234s-.78,0-1.456-.026a3.848,3.848,0,0,1,.286.936A5.922,5.922,0,0,0,101.8.832c.364-.169.468-.455.468-.975V-5.681h1.157Zm6.916-1.482v-2.808h-1v2.808h-4.212v.962h4.16a8.759,8.759,0,0,1-4.55,7.371,3.458,3.458,0,0,1,.741.767,9.568,9.568,0,0,0,4.81-8.138h4.433c-.247,4.576-.533,6.409-1,6.851a.745.745,0,0,1-.6.195c-.325,0-1.157-.013-2.041-.091a2.115,2.115,0,0,1,.325.988A16.8,16.8,0,0,0,113.49.9,1.428,1.428,0,0,0,114.6.377c.572-.65.845-2.587,1.131-7.917.013-.143.026-.507.026-.507ZM6.5,12.682A1.378,1.378,0,1,0,7.878,14.06,1.37,1.37,0,0,0,6.5,12.682Zm8.736-2.6v1.157c.3-.013.949-.039,1.43-.039h6.227v6.136H16.51a13.726,13.726,0,0,1-1.443-.078v1.183c.351-.026.936-.052,1.469-.052h6.357c-.013.312-.013.585-.026.728h1.17c-.013-.208-.052-.793-.052-1.261V11.148c0-.312.026-.715.039-1.014-.26.013-.65.026-.962.026H16.653A13.119,13.119,0,0,1,15.236,10.082Zm14.495-.923-.377.962a43.034,43.034,0,0,1,6.786,1.547l.416-1A44.484,44.484,0,0,0,29.731,9.159Zm-.585,3.432-.39.975a38.046,38.046,0,0,1,6.526,1.586l.416-1A46.3,46.3,0,0,0,29.146,12.591Zm-.715,3.783-.4.988a42.438,42.438,0,0,1,7.7,1.963l.442-1A45.757,45.757,0,0,0,28.431,16.374Zm20.15-3.562-.793-.377a2.232,2.232,0,0,1-.65.091H43.186a8.875,8.875,0,0,1-1.027-.078V13.54c.325-.013.663-.039,1.04-.039h4.134c-.039.741-.416,3.276-.611,4.368H42.016c-.39,0-.767-.026-1.079-.052V18.9c.377-.026.676-.039,1.079-.039H49.14c.273,0,.754.013.988.026V17.83c-.273.026-.741.039-1.027.039H47.827c.182-1.2.559-3.77.663-4.654A2.892,2.892,0,0,1,48.581,12.812Zm5.733-2.275v1.17c.4-.013.832-.039,1.287-.039h5.564c.429,0,.923.013,1.287.039v-1.17a12.774,12.774,0,0,1-1.287.052H55.6C55.172,10.589,54.73,10.563,54.314,10.537ZM53.2,16.972V18.22c.442-.026.9-.065,1.365-.065h7.787c.351,0,.793.026,1.183.065V16.972a11.807,11.807,0,0,1-1.183.065H54.561C54.093,17.037,53.638,17,53.2,16.972Zm17.16-8.021L69.108,8.7a4.882,4.882,0,0,1-.195,1.04,8.786,8.786,0,0,1-.741,1.82,9.708,9.708,0,0,1-2.314,2.8l1.027.611a10.433,10.433,0,0,0,2.171-2.782h3.328a7.459,7.459,0,0,1-2.86,5.967,4.176,4.176,0,0,1-1.053.6l1.105.754c2.236-1.43,3.692-3.6,3.9-7.319h2.2c.3,0,.806.013,1.222.039V11.109a10.151,10.151,0,0,1-1.222.065H69.537c.208-.468.364-.936.494-1.313C70.122,9.588,70.252,9.25,70.356,8.951Zm8.97,4.42v1.274c.4-.039,1.092-.065,1.807-.065H88.27c.585,0,1.131.052,1.391.065V13.371c-.286.026-.754.065-1.4.065H81.133C80.4,13.436,79.716,13.4,79.326,13.371ZM94.653,9.016l-.585.871c.767.442,2.171,1.378,2.795,1.846l.611-.884C96.915,10.433,95.42,9.445,94.653,9.016Zm-1.95,9.3.6,1.053a16.183,16.183,0,0,0,4.316-1.612,15.148,15.148,0,0,0,4.992-4.654l-.624-1.066a13.259,13.259,0,0,1-4.927,4.758A13.81,13.81,0,0,1,92.7,18.311Zm-.013-6.37-.572.884a28.5,28.5,0,0,1,2.834,1.781l.6-.91C94.978,13.28,93.457,12.357,92.69,11.941Zm13.949-.078v1.014c.234-.013.988-.039,1.326-.039h4.823V15h-4.706c-.442,0-.91-.026-1.157-.039v1c.26-.013.715-.026,1.17-.026h4.693v2.314h-5.239a9.9,9.9,0,0,1-1.066-.052v1.04c.208,0,.663-.026,1.079-.026h5.226c0,.208,0,.4-.013.52H113.8c-.013-.182-.026-.494-.026-.7V12.552c0-.247,0-.52.013-.663-.169.013-.507.026-.793.026h-5.031C107.627,11.915,106.886,11.889,106.639,11.863Zm13.052-2.392-.741.793a27,27,0,0,1,3.237,2.717l.819-.819A28.466,28.466,0,0,0,119.691,9.471Zm-1.118,8.71.689,1.066a14.249,14.249,0,0,0,5.109-2.015,12.989,12.989,0,0,0,4.368-4.628l-.624-1.105a12.246,12.246,0,0,1-4.342,4.784A13.423,13.423,0,0,1,118.573,18.181ZM139.88,10.3l-.663-.507a3.56,3.56,0,0,1-.975.1h-5.018c-.39,0-1.131-.052-1.313-.078v1.183c.143-.013.858-.065,1.313-.065h5.07a11.44,11.44,0,0,1-2.158,3.614,14.866,14.866,0,0,1-5.356,3.861l.832.871a16.48,16.48,0,0,0,5.07-3.8,30.014,30.014,0,0,1,3.575,3.861l.91-.78a36.063,36.063,0,0,0-3.8-3.887,16.453,16.453,0,0,0,2.184-3.809A3.73,3.73,0,0,1,139.88,10.3Zm7.7-.494c.039.156.13.663.273,1.365-1.222.195-2.353.364-2.86.416-.416.052-.754.078-1.079.091l.221,1.17c.39-.091.689-.156,1.053-.221.494-.091,1.625-.273,2.86-.468.156.806.338,1.729.52,2.613-1.482.234-2.9.455-3.549.546-.338.052-.845.1-1.144.117l.234,1.131c.273-.078.637-.143,1.144-.234.637-.117,2.028-.351,3.5-.6.247,1.287.455,2.34.507,2.626.091.39.13.78.2,1.222l1.183-.221c-.117-.364-.221-.806-.312-1.183-.065-.3-.273-1.339-.533-2.613,1.274-.195,2.483-.39,3.2-.507.481-.078.9-.143,1.17-.169l-.208-1.092c-.286.078-.65.156-1.157.247-.65.117-1.885.338-3.2.546-.169-.871-.351-1.794-.52-2.6,1.248-.195,2.431-.39,3.029-.481.338-.052.741-.1.936-.13l-.221-1.092a8.155,8.155,0,0,1-.923.221c-.546.1-1.742.3-3,.507-.156-.728-.247-1.261-.273-1.4-.039-.286-.1-.65-.117-.9l-1.17.208A6.088,6.088,0,0,1,147.576,9.809Zm14.716,8.918.689.572a2.781,2.781,0,0,1,.442-.3,12.924,12.924,0,0,0,4.433-3.6l-.611-.884a9.989,9.989,0,0,1-3.8,3.2v-7.5a8.044,8.044,0,0,1,.052-.962h-1.2a6.17,6.17,0,0,1,.078.962V18A3.1,3.1,0,0,1,162.292,18.727Zm-5.954-.065.975.663a7.265,7.265,0,0,0,2.314-3.575,28.438,28.438,0,0,0,.4-5.525c0-.39.052-.78.065-.936h-1.2a4.79,4.79,0,0,1,.091.949,23.207,23.207,0,0,1-.39,5.226A6.17,6.17,0,0,1,156.338,18.662ZM6.5,31.682A1.378,1.378,0,1,0,7.878,33.06,1.37,1.37,0,0,0,6.5,31.682Zm11.479-3.224V29.55h-2.8V28.458Zm-2.8,2.99V30.265h2.8v1.183Zm3.718.78v-4.55H14.235V39h.949V32.228ZM20.969,34.2v2.145H17.914V34.2Zm.9,2.964V33.385H17.03v4.563h.884v-.78Zm-.884-5.707v-1.2h2.886v1.2Zm2.886-3.016v1.1H20.982v-1.1Zm.975-.767H20.059v4.55h3.809v5.46c0,.247-.078.325-.312.325-.26.013-1.1.026-1.95-.013a4.673,4.673,0,0,1,.338.988,8.51,8.51,0,0,0,2.327-.169c.416-.169.572-.494.572-1.131Zm12,3.5H33.748V30.2h3.094Zm0,1.638H33.748v-.962h3.094Zm0,1.664H33.748V33.5h3.094Zm-3.965-4.992v5.707h4.862V29.485h-2.4c.117-.3.247-.65.364-.988h2.561v-.741H32.383V28.5H34.8c-.078.325-.182.676-.286.988Zm2.873,6.292a10.71,10.71,0,0,1,1.989,1.742l.7-.455A9.711,9.711,0,0,0,36.413,35.4Zm-1.794-.364a6.4,6.4,0,0,1-2.145,1.56,4.871,4.871,0,0,1,.65.611,8.44,8.44,0,0,0,2.3-1.911ZM30.81,29.342H28.275V28.38H30.81Zm0,1.664H28.275v-.988H30.81Zm.884-3.341H27.4v4.056h4.29Zm-1.651,7.891h2.2v-.741h-2.2V33.424h2.418V32.67H26.637v.754h2.574v3.458a3.425,3.425,0,0,1-.962-1.261c.052-.481.078-.988.1-1.482h-.806c-.065,1.586-.286,3.328-1.066,4.264a2.769,2.769,0,0,1,.611.624,5.3,5.3,0,0,0,.988-2.366c1.17,1.742,3.107,2.054,5.915,2.054h4.173a2.631,2.631,0,0,1,.351-.832c-.754.026-3.952.026-4.524.026a10.566,10.566,0,0,1-3.952-.533Zm13.091-.715V33.32H44.3v1.521ZM41.262,33.32h1.17v1.521h-1.2c.026-.351.026-.7.026-1.014Zm1.95-4.277A11.734,11.734,0,0,1,42.64,30.4H41.145a14.54,14.54,0,0,0,.65-1.352Zm-.078,2.119H44.3v1.43h-1.17Zm-1.872,0h1.17v1.43h-1.17ZM50.219,28.6a5.583,5.583,0,0,1-.338,2.275c-.091.117-.195.13-.364.117a11.659,11.659,0,0,1-1.17-.052,2.478,2.478,0,0,1,.221.806,11.834,11.834,0,0,0,1.339.013.885.885,0,0,0,.7-.325c.286-.312.39-1.144.494-3.289.013-.117.013-.364.013-.364H45.5V28.6h1.755a3.557,3.557,0,0,1-2.132,2.847V30.4H43.5a16.992,16.992,0,0,0,.819-1.794l-.572-.364-.143.039H42.081c.1-.312.208-.637.3-.962l-.9-.195a9.538,9.538,0,0,1-2.028,4.108,4.775,4.775,0,0,1,.728.585,4.127,4.127,0,0,0,.273-.351v2.366a9.125,9.125,0,0,1-.962,4.745,2.845,2.845,0,0,1,.689.442,7.779,7.779,0,0,0,1-3.419H44.3v2.34c0,.169-.065.221-.247.234s-.754.013-1.43-.013a3.024,3.024,0,0,1,.312.819,5.011,5.011,0,0,0,1.742-.156c.338-.143.442-.416.442-.884V31.461a2.49,2.49,0,0,1,.52.65,4.284,4.284,0,0,0,2.5-3.51Zm1.248,7.059H49v-1.6h2.249v-.832H49V31.9h-.923v1.326H46.943c.1-.338.195-.689.273-1.04L46.4,32.02a7.392,7.392,0,0,1-1.2,2.912,5.783,5.783,0,0,1,.754.4,6.494,6.494,0,0,0,.676-1.274h1.443v1.6h-2.73v.832h2.73v2.431H49V36.492h2.47Zm4.615-7.033a9.28,9.28,0,0,0-2.34-1.391l-.52.7a10.022,10.022,0,0,1,2.3,1.456Zm-.637,3.38a10.449,10.449,0,0,0-2.379-1.3l-.533.728A10.048,10.048,0,0,1,54.9,32.813ZM55.12,34a40.627,40.627,0,0,1-2.223,4.2l.832.611c.689-1.222,1.508-2.834,2.132-4.212Zm5.109-3.9h2.2v2.951H60.177c.039-.494.052-1,.052-1.5Zm4.212,3.848v-.9H63.362V29.2H60.229V27.145H59.28V29.2H56.719v.9H59.28v1.443a14.472,14.472,0,0,1-.065,1.508h-3.2v.9h3.055a6.087,6.087,0,0,1-3.653,4.381,4.8,4.8,0,0,1,.754.689,6.65,6.65,0,0,0,3.822-4.706,7.094,7.094,0,0,0,3.887,4.706,3.112,3.112,0,0,1,.663-.819,6.331,6.331,0,0,1-3.7-4.251Zm11.5-1.157c1.027,0,1.326-.416,1.443-1.989a2.713,2.713,0,0,1-.884-.377c-.052,1.287-.143,1.5-.637,1.5H73.8c-.585,0-.689-.078-.689-.494V30.109A27.178,27.178,0,0,0,76.765,28.8l-.65-.7a21.63,21.63,0,0,1-3,1.222V27.145h-.949v4.29c0,1.066.325,1.352,1.56,1.352Zm-8.7,2.808V34.4h2.743v1.2Zm2.743-3.068v1.118H67.249V32.527Zm.949-.806H66.352v7.254h.9V36.336h2.743V37.87c0,.169-.039.208-.208.208s-.728.026-1.339,0a3.681,3.681,0,0,1,.312.871,5.409,5.409,0,0,0,1.742-.156c.351-.156.442-.429.442-.91Zm-1.6-3.38a14.865,14.865,0,0,1,.871,1.339l-2.665.117c.4-.741.819-1.651,1.17-2.444l-.975-.234a20.386,20.386,0,0,1-1.2,2.717c-.364.013-.689.026-.988.039l.091.91c1.326-.078,3.2-.169,5.018-.273a7,7,0,0,1,.338.767l.819-.364a12.631,12.631,0,0,0-1.69-2.886Zm4.5,9.685c-.611,0-.728-.078-.728-.507V36.011a18.777,18.777,0,0,0,3.8-1.443l-.637-.728a14.537,14.537,0,0,1-3.159,1.365V33.151h-.949v4.368c0,1.066.338,1.352,1.573,1.352H76.05c1.079,0,1.365-.455,1.495-2.2a2.582,2.582,0,0,1-.871-.364c-.065,1.456-.156,1.716-.7,1.716Zm10.5-8.073V27.145h-1v2.808H79.131v.962h4.16a8.759,8.759,0,0,1-4.55,7.371,3.458,3.458,0,0,1,.741.767,9.568,9.568,0,0,0,4.81-8.138h4.433c-.247,4.576-.533,6.409-1,6.851a.745.745,0,0,1-.6.195c-.325,0-1.157-.013-2.041-.091a2.115,2.115,0,0,1,.325.988,16.8,16.8,0,0,0,2.08.039,1.428,1.428,0,0,0,1.105-.52c.572-.65.845-2.587,1.131-7.917.013-.143.026-.507.026-.507ZM6.5,50.682A1.378,1.378,0,1,0,7.878,52.06,1.37,1.37,0,0,0,6.5,50.682Zm16.965-3.016a.865.865,0,1,1,.858.858A.868.868,0,0,1,23.465,47.666Zm-.6,0a1.465,1.465,0,0,0,.065.416c-.156.013-.3.013-.416.013H15.99A10.033,10.033,0,0,1,14.69,48v1.157c.338-.013.78-.039,1.3-.039h6.643a9.73,9.73,0,0,1-1.7,4.238,8.56,8.56,0,0,1-5.07,3.12l.884.975a9.844,9.844,0,0,0,5.122-3.471,12.7,12.7,0,0,0,1.937-4.8.671.671,0,0,0,.026-.143,1.571,1.571,0,0,0,.494.078,1.463,1.463,0,1,0-1.456-1.456ZM27.9,48.1c.026.312.026.715.026,1.014v6.4c0,.455-.026,1.417-.039,1.586H29c-.013-.1-.013-.416-.026-.754h7.1c0,.351-.013.663-.013.754H37.18c-.013-.143-.026-1.157-.026-1.573V49.109c0-.325,0-.689.026-1.014-.39.026-.858.026-1.144.026H29.055C28.756,48.121,28.405,48.108,27.9,48.1Zm1.079,1.053h7.111v6.175H28.977ZM48.308,47.3l-.715.3a14.537,14.537,0,0,1,1.183,2.054l.741-.338A19.193,19.193,0,0,0,48.308,47.3Zm1.7-.624-.728.312a14.134,14.134,0,0,1,1.235,2.015l.741-.338A18.745,18.745,0,0,0,50.011,46.678Zm-7.254.429-.585.871c.754.442,2.171,1.378,2.795,1.859l.611-.9C45.019,48.537,43.524,47.536,42.757,47.107ZM40.807,56.4l.6,1.053a15.524,15.524,0,0,0,4.3-1.612A15.3,15.3,0,0,0,50.713,51.2l-.624-1.079a13.288,13.288,0,0,1-4.927,4.771A14.229,14.229,0,0,1,40.807,56.4Zm-.013-6.37-.585.884A28.722,28.722,0,0,1,43.056,52.7l.585-.91C43.082,51.384,41.561,50.448,40.794,50.032Zm13.858.247v1.04c.273-.026.689-.039.9-.039h2.392v4.784h-2.99A7.55,7.55,0,0,1,54.015,56v1.092c.312-.026.65-.039.936-.039H62.14c.208,0,.611.013.871.039V56a5.945,5.945,0,0,1-.871.065H58.994V51.28h2.535c.3,0,.637.013.923.039v-1.04c-.273.026-.6.052-.923.052h-5.98A7.633,7.633,0,0,1,54.652,50.279ZM71.981,46.9l-1.209-.39a4.452,4.452,0,0,1-.4,1.027,10.717,10.717,0,0,1-4.082,4.394l.9.676a13.179,13.179,0,0,0,3.3-3.2H74.88a10.688,10.688,0,0,1-2.08,4.056,10.517,10.517,0,0,1-5.187,3.263l.936.845a11.4,11.4,0,0,0,5.174-3.536,12.609,12.609,0,0,0,2.314-4.472,4.085,4.085,0,0,1,.3-.689l-.871-.533a2.176,2.176,0,0,1-.845.13H71.1a5.841,5.841,0,0,0,.312-.546A9.831,9.831,0,0,1,71.981,46.9Zm10.4,8.957a11.454,11.454,0,0,1-.091,1.534h1.261c-.052-.429-.078-1.131-.078-1.534,0-.377,0-2.34-.013-4.29a34.082,34.082,0,0,1,5.109,2.093l.442-1.1a41.55,41.55,0,0,0-5.551-2.145V48.29c0-.39.052-.949.091-1.352H82.277a8.2,8.2,0,0,1,.1,1.352Zm18.6-.312v1.261h-6.1V55.544Zm-.832-3.484v1.1H94.887v-1.1Zm-5.265,1.846H101.1V51.319H93.977V58h.91v-.442h6.1v.416h.949V54.79H94.887Zm8.515-6.8H99a6.827,6.827,0,0,0,.4-.819l-.923-.221a6.1,6.1,0,0,1-1.144,1.794v-.754H93.925A6.472,6.472,0,0,0,94.3,46.3l-.9-.234a7.122,7.122,0,0,1-1.872,2.7,5.97,5.97,0,0,1,.793.52,8.864,8.864,0,0,0,1.118-1.378H94a8.193,8.193,0,0,1,.611,1.326l.858-.26a5.9,5.9,0,0,0-.507-1.066h2.314a5.207,5.207,0,0,1-.806.715,4.719,4.719,0,0,1,.533.3v.819h-4.9v2.431h.91V50.513h9.035v1.664h.936V49.746H97.929V48.732h-.195a9.048,9.048,0,0,0,.728-.819H99.5a6.038,6.038,0,0,1,.871,1.365l.884-.3a6.466,6.466,0,0,0-.7-1.066H103.4Zm5.187,7.28-1.417.468V51.631h1.3v-.9h-1.3V47.913h1.5V47h-4.03v.91h1.612v2.821H104.78v.9h1.469v3.51c-.663.221-1.261.4-1.742.546l.221.975c1.157-.377,2.639-.884,4.03-1.352Zm1.6-4.381h1.976v1.651h-1.976Zm0-2.444h1.976V49.2h-1.976Zm4.8,1.638H113V47.562h1.989Zm0,2.457H113V50.006h1.989Zm-1.911,5.031V54.907H116.1v-.884h-3.029V52.5h2.834V46.717h-6.6V52.5H112.1v1.521h-2.951v.884H112.1v1.781h-3.952v.884h8.372v-.884ZM127.4,48.3l-.663-.507a3.56,3.56,0,0,1-.975.1h-5.018c-.39,0-1.131-.052-1.313-.078v1.183c.143-.013.858-.065,1.313-.065h5.07a11.439,11.439,0,0,1-2.158,3.614,14.866,14.866,0,0,1-5.356,3.861l.832.871a16.48,16.48,0,0,0,5.07-3.8,30.016,30.016,0,0,1,3.575,3.861l.91-.78a36.061,36.061,0,0,0-3.8-3.887,16.453,16.453,0,0,0,2.184-3.809A3.729,3.729,0,0,1,127.4,48.3Zm7.7-.494c.039.156.13.663.273,1.365-1.222.195-2.353.364-2.86.416-.416.052-.754.078-1.079.091l.221,1.17c.39-.091.689-.156,1.053-.221.494-.091,1.625-.273,2.86-.468.156.806.338,1.729.52,2.613-1.482.234-2.9.455-3.549.546-.338.052-.845.1-1.144.117l.234,1.131c.273-.078.637-.143,1.144-.234.637-.117,2.028-.351,3.5-.6.247,1.287.455,2.34.507,2.626.091.39.13.78.2,1.222l1.183-.221c-.117-.364-.221-.806-.312-1.183-.065-.3-.273-1.339-.533-2.613,1.274-.195,2.483-.39,3.2-.507.481-.078.9-.143,1.17-.169l-.208-1.092c-.286.078-.65.156-1.157.247-.65.117-1.885.338-3.2.546-.169-.871-.351-1.794-.52-2.6,1.248-.195,2.431-.39,3.029-.481.338-.052.741-.1.936-.13l-.221-1.092a8.155,8.155,0,0,1-.923.221c-.546.1-1.742.3-3,.507-.156-.728-.247-1.261-.273-1.4-.039-.286-.1-.65-.117-.9l-1.17.208A6.089,6.089,0,0,1,135.1,47.809Zm14.716,8.918.689.572a2.781,2.781,0,0,1,.442-.3,12.924,12.924,0,0,0,4.433-3.6l-.611-.884a9.989,9.989,0,0,1-3.8,3.2v-7.5a8.044,8.044,0,0,1,.052-.962h-1.2a6.17,6.17,0,0,1,.078.962V56A3.1,3.1,0,0,1,149.812,56.727Zm-5.954-.065.975.663a7.265,7.265,0,0,0,2.314-3.575,28.438,28.438,0,0,0,.4-5.525c0-.39.052-.78.065-.936h-1.2a4.79,4.79,0,0,1,.091.949,23.207,23.207,0,0,1-.39,5.226A6.17,6.17,0,0,1,143.858,56.662ZM6.5,69.682A1.378,1.378,0,1,0,7.878,71.06,1.37,1.37,0,0,0,6.5,69.682ZM15,68.135h9.061V70.15H25V67.277H22.984c.442-.52.923-1.144,1.326-1.729l-1-.338a14.05,14.05,0,0,1-1.391,2.067h-2.3l.559-.221a8.016,8.016,0,0,0-1.053-1.989l-.845.312a7.684,7.684,0,0,1,.962,1.9H16.588l.442-.221a8.709,8.709,0,0,0-1.248-1.768l-.806.364a10.777,10.777,0,0,1,1.092,1.625H14.079V70.15H15Zm10.231,4.277H19.994v-.325a11.612,11.612,0,0,0,3.159-2.2l-.624-.468-.195.052H15.99v.858h5.369a10.886,10.886,0,0,1-1.833,1.144h-.494v.936h-5.2v.9h5.2v2.509c0,.195-.065.26-.338.273-.247.013-1.131.013-2.119-.013a4.144,4.144,0,0,1,.4.923,9.67,9.67,0,0,0,2.392-.156c.468-.143.624-.429.624-1V73.309h5.239Zm7.553-2.067c.988-.364,2.249-.832,3.445-1.287l-.143-.715c-1.352.481-2.717.962-3.653,1.261Zm2.548-2.47a7.169,7.169,0,0,0-1.742-1.183l-.507.585A6.2,6.2,0,0,1,34.8,68.512Zm-4.316,2.171c0,.143-.039.195-.195.195s-.676.013-1.248,0a3.582,3.582,0,0,1,.247.715,5.552,5.552,0,0,0,1.677-.117c.312-.13.416-.351.416-.78V65.782H26.988v.793h4.03Zm-3.484-2.782a6.676,6.676,0,0,1,1.69,1.274l.52-.624a7.176,7.176,0,0,0-1.7-1.222ZM30.16,68.59c-1.287.507-2.6.988-3.484,1.261l.377.793c.936-.364,2.106-.845,3.25-1.339ZM35.7,73.673h-6.3V72.412h6.3Zm-6.3,2.08V74.44h6.3v1.313Zm2.6-5.317a11.182,11.182,0,0,1-.507,1.222H28.444v5.369h.949V76.52h6.3v.507h.975V71.658H32.435c.182-.312.377-.676.559-1.027ZM37.7,65.782H32.734v.793H36.79v3.484c0,.156-.052.195-.208.208-.182,0-.741,0-1.352-.026a2.852,2.852,0,0,1,.273.767,5.936,5.936,0,0,0,1.755-.13c.338-.143.442-.364.442-.819Zm9.867.988a13.4,13.4,0,0,1-.637,1.3l.325.091H43.641l.377-.1a5.6,5.6,0,0,0-.559-1.287Zm3.51,1.391H47.853c.234-.364.494-.819.741-1.287l-.494-.1h2.314v-.78H45.955v-.871h-.949v.871H40.573v.78h2.392l-.442.1a6.361,6.361,0,0,1,.546,1.287H39.988v.793H51.077ZM48.711,71.1H42.367v-.767h6.344Zm0,1.469H42.367v-.793h6.344Zm.936-2.964h-8.2V73.3H44.59l-.494.481a8.939,8.939,0,0,1,2.158,1.339l.6-.611A8.72,8.72,0,0,0,44.811,73.3h4.836Zm-9.308,7.1a4.815,4.815,0,0,0,1.9-2.457l-.819-.3a4.3,4.3,0,0,1-1.82,2.249Zm4.277-.624c-.676,0-.78-.065-.78-.377V74.037h-.949V75.7c0,.936.351,1.17,1.651,1.17h2.457c1.04,0,1.339-.338,1.43-1.781a3,3,0,0,1-.819-.325c-.065,1.157-.143,1.313-.7,1.313Zm3.77-1.794a10.022,10.022,0,0,1,2.275,2.327l.78-.481a10.484,10.484,0,0,0-2.314-2.3Zm10.387-6.643a12.972,12.972,0,0,0-1.95-2.262l-.741.455a12.676,12.676,0,0,1,1.911,2.327Zm-4.381-2.223a8.434,8.434,0,0,1-2.041,2.691,5.527,5.527,0,0,1,.78.637,11.051,11.051,0,0,0,2.21-3.055Zm3.523,6.292h-4.03a14.211,14.211,0,0,0,1.989-2.652A15.377,15.377,0,0,1,58.1,71.866l.715-.728a8.383,8.383,0,0,0-.611-.858,5.762,5.762,0,0,1,.65.416,9.685,9.685,0,0,0,1.144-2.47h.845v2.041a7.18,7.18,0,0,1-2.925,5.759Zm-.91,3.51H54.561V72.581h2.444Zm4.784-6.994H63.4a16.415,16.415,0,0,1-.507,2.314l.78.221a26.672,26.672,0,0,0,.767-3.276L63.8,67.3l-.156.039H60.255a20.272,20.272,0,0,0,.442-2.08l-.988-.143a11.721,11.721,0,0,1-1.664,4.966A20.333,20.333,0,0,0,56.2,68.122h-.936a10.362,10.362,0,0,1-3,3.809,3.557,3.557,0,0,1,.663.663c.26-.221.52-.442.754-.676v4.94h.884v-.767h3.25c-.065.039-.13.091-.208.13a6.41,6.41,0,0,1,.572.793,7.058,7.058,0,0,0,3.146-4.8,7.214,7.214,0,0,0,2.769,4.8c.143-.221.429-.624.6-.832-2.483-1.625-2.912-4.875-2.9-5.915ZM69,65.886l-1.027.429a43.569,43.569,0,0,0,1.885,4c-1.391.975-2.249,2.028-2.249,3.367,0,1.95,1.768,2.678,4.212,2.678a25.592,25.592,0,0,0,4.108-.325V74.882a19.343,19.343,0,0,1-4.16.442c-2.054,0-3.081-.676-3.081-1.755,0-.988.728-1.846,1.937-2.626a43.185,43.185,0,0,1,3.952-2.158c.377-.2.7-.364,1-.546l-.572-.923a7.1,7.1,0,0,1-.923.611c-.715.39-2.119,1.079-3.341,1.82A28,28,0,0,1,69,65.886Zm21.229,7.579v-.858H84.981v-.832h-.559a1.393,1.393,0,0,0,.351-.078c.39-.117.507-.325.507-.832V69.032h3.276a11.457,11.457,0,0,1-1.443,1.573l.858.338a17.512,17.512,0,0,0,2.158-2.483l-.741-.273-.182.052H86.58l.078-.091a8.245,8.245,0,0,0-.988-.39,13.272,13.272,0,0,0,2.977-1.677L88,65.587l-.208.052H80.158v.793h6.487a12.526,12.526,0,0,1-2.067.949,19.112,19.112,0,0,0-2.106-.52l-.533.572a22.081,22.081,0,0,1,2.886.806H79.04v.793h3.952a12.5,12.5,0,0,1-4.147,2.106,4.845,4.845,0,0,1,.611.754,12.637,12.637,0,0,0,4.732-2.86h.13v1.82c0,.143-.052.195-.247.195s-.819.026-1.534-.013a4.929,4.929,0,0,1,.3.793c.468,0,.858,0,1.183-.013v.793H78.78v.858h4.3a11.712,11.712,0,0,1-4.524,2.522,5.426,5.426,0,0,1,.637.806,12.334,12.334,0,0,0,4.823-3.081v3.276h.962V73.764a11.794,11.794,0,0,0,4.862,2.951,4.9,4.9,0,0,1,.65-.806,11.039,11.039,0,0,1-4.6-2.444Zm6.032-3.224H94.9v-1.17h1.365Zm0,1.885H94.9v-1.2h1.365Zm-3.471-1.2h1.352v1.2H92.794Zm0-1.859h1.352v1.17H92.794Zm7.813-.689h1.651c-.169.91-.377,1.872-.572,2.522l.78.221a33.363,33.363,0,0,0,.858-3.484l-.637-.182-.169.039H99.047c.169-.715.312-1.469.429-2.236l-.949-.143A12.84,12.84,0,0,1,97.071,70.1V68.343H94.978v-.988h2.3v-.832h-2.3v-1.4h-.91v1.4h-2.3v.832h2.3v.988H92.027v4.511h2.041v1h-2.5v.871h2.5v2.249h.91V74.726h2.483v-.871H94.978v-1h2.093V70.592a6.666,6.666,0,0,1,.572.416A10.442,10.442,0,0,0,98.8,68.382h.871v2.21a6.552,6.552,0,0,1-3.328,5.616A6.874,6.874,0,0,1,96.9,77a6.677,6.677,0,0,0,3.224-4.576A6.906,6.906,0,0,0,103.012,77a9.316,9.316,0,0,1,.585-.819,6.767,6.767,0,0,1-2.99-5.59Zm4.55,2.782a14.5,14.5,0,0,0,.65-3.484l-.728-.1A13.136,13.136,0,0,1,104.4,70.9Zm1.118,5.824h.962V65.119h-.962Zm1.053-9.477a12.939,12.939,0,0,1,.9,2.21l.728-.351A12.277,12.277,0,0,0,108,67.2Zm5.707,8.112v-3.25h2.652v-.9h-2.652V68.785h2.938v-.923h-2.938V65.171h-.962v2.691h-1.625c.182-.637.338-1.313.468-1.989l-.936-.156a12.656,12.656,0,0,1-1.573,4.641,7.582,7.582,0,0,1,.858.442,9.374,9.374,0,0,0,.91-2.015h1.9v2.691h-2.756v.9h2.756v3.25h-3.718v.923h7.93v-.923Z" transform="translate(33 2198)" fill="#164b99"/><g transform="translate(136.966 2534.694)"><path d="M1146.977,1759.6H1015.292l-.15-.2c-.665-.9-66.591-90.214-76.222-104.716l.833-.553c9.393,14.146,72.5,99.674,76.043,104.473h131.18Z" transform="translate(-934.942 -1651.524)" fill="#164b99"/><circle cx="2.882" cy="2.882" r="2.882" transform="translate(2 0)" fill="#164b99"/></g><g transform="translate(38.682 2269.403)"><path d="M1090.464,1761.746H963.335v-1h126.841l40.759-25.6.532.847Z" transform="translate(-963.335 -1732.683)" fill="#164b99"/><circle cx="2.882" cy="2.882" r="2.882" transform="translate(164.022)" fill="#164b99"/></g></g></g></svg>