<svg xmlns="http://www.w3.org/2000/svg" xmlns:xlink="http://www.w3.org/1999/xlink" width="532" height="514" viewBox="0 0 532 514"><defs><clipPath id="a"><path d="M0,0H532V514H0Z" transform="translate(700 1708)" fill="#8b8b8b" opacity="0.5"/></clipPath><linearGradient id="b" x1="0.878" y1="0.697" x2="0.285" y2="0.06" gradientUnits="objectBoundingBox"><stop offset="0" stop-color="#f5f8ff"/><stop offset="1" stop-color="#cbd6f0"/></linearGradient><linearGradient id="c" x1="0.103" y1="0.206" x2="0.899" y2="0.673" gradientUnits="objectBoundingBox"><stop offset="0" stop-color="#b6e0e0"/><stop offset="1" stop-color="#f4fcfc"/></linearGradient><linearGradient id="d" x1="0.235" y1="0.098" x2="0.664" y2="0.946" gradientUnits="objectBoundingBox"><stop offset="0" stop-color="#82a7dd"/><stop offset="0.581" stop-color="#006eb8"/><stop offset="1" stop-color="#006eb8"/></linearGradient></defs><g transform="translate(-700 -1708)" clip-path="url(#a)"><g transform="translate(0 -120.25)"><g transform="translate(1.425 236.038)" opacity="0.3"><g transform="translate(0 -2)"><path d="M257,1a257.9,257.9,0,0,0-51.594,5.2A254.593,254.593,0,0,0,113.869,44.72,256.751,256.751,0,0,0,21.117,157.354,254.705,254.705,0,0,0,6.2,205.406a258.508,258.508,0,0,0,0,103.188A254.592,254.592,0,0,0,44.72,400.131a256.751,256.751,0,0,0,112.633,92.751A254.705,254.705,0,0,0,205.406,507.8a258.508,258.508,0,0,0,103.188,0,254.592,254.592,0,0,0,91.537-38.519,256.751,256.751,0,0,0,92.751-112.633A254.706,254.706,0,0,0,507.8,308.594a258.508,258.508,0,0,0,0-103.188,254.593,254.593,0,0,0-38.519-91.537A256.751,256.751,0,0,0,356.646,21.117,254.706,254.706,0,0,0,308.594,6.2,257.9,257.9,0,0,0,257,1m0-1C398.937,0,514,115.063,514,257S398.937,514,257,514,0,398.937,0,257,115.063,0,257,0Z" transform="translate(700 1594)" fill="#123696" opacity="0.5"/><path d="M202,1a202.5,202.5,0,0,0-40.51,4.084A199.892,199.892,0,0,0,89.62,35.327,201.59,201.59,0,0,0,16.8,123.762,199.986,199.986,0,0,0,5.084,161.49a202.971,202.971,0,0,0,0,81.019A199.893,199.893,0,0,0,35.327,314.38,201.59,201.59,0,0,0,123.762,387.2a199.988,199.988,0,0,0,37.728,11.712,202.971,202.971,0,0,0,81.019,0,199.894,199.894,0,0,0,71.871-30.243A201.59,201.59,0,0,0,387.2,280.238a199.987,199.987,0,0,0,11.712-37.728,202.971,202.971,0,0,0,0-81.019A199.894,199.894,0,0,0,368.673,89.62,201.59,201.59,0,0,0,280.238,16.8,199.985,199.985,0,0,0,242.51,5.084,202.494,202.494,0,0,0,202,1m0-1C313.561,0,404,90.438,404,202S313.561,404,202,404,0,313.561,0,202,90.438,0,202,0Z" transform="translate(755 1649)" fill="#123696" opacity="0.5"/><path d="M137,1a137.014,137.014,0,0,0-27.41,2.763A135.249,135.249,0,0,0,60.962,24.226,136.4,136.4,0,0,0,11.687,84.063,135.309,135.309,0,0,0,3.763,109.59a137.337,137.337,0,0,0,0,54.82,135.249,135.249,0,0,0,20.463,48.628,136.4,136.4,0,0,0,59.837,49.275,135.309,135.309,0,0,0,25.527,7.924,137.337,137.337,0,0,0,54.82,0,135.249,135.249,0,0,0,48.628-20.463,136.4,136.4,0,0,0,49.275-59.837,135.309,135.309,0,0,0,7.924-25.527,137.337,137.337,0,0,0,0-54.82,135.249,135.249,0,0,0-20.463-48.628,136.4,136.4,0,0,0-59.837-49.275A135.309,135.309,0,0,0,164.41,3.763,137.014,137.014,0,0,0,137,1m0-1A137,137,0,1,1,0,137,137,137,0,0,1,137,0Z" transform="translate(820 1714)" fill="#123696" opacity="0.5"/></g></g><circle cx="117.434" cy="117.434" r="117.434" transform="translate(890.704 2136.572) rotate(-160)" fill="url(#b)"/><circle cx="116.717" cy="116.717" r="116.717" transform="matrix(-0.819, -0.574, 0.574, -0.819, 1143.108, 2337.538)" fill="url(#c)"/><path d="M7-6.8A1.476,1.476,0,0,0,5.516-5.32,1.476,1.476,0,0,0,7-3.836,1.476,1.476,0,0,0,8.484-5.32,1.476,1.476,0,0,0,7-6.8Zm9.9,5.278A11.235,11.235,0,0,1,19.068.448l.826-.63a11.434,11.434,0,0,0-2.226-1.9Zm.224-4.592h3.332v1.134H17.122Zm0-1.876h3.332V-6.86H17.122Zm7.77,0V-6.86h-3.43V-7.994Zm0,3.01h-3.43V-6.118h3.43Zm2.352,1.848H24.08V-4.2h1.834V-8.75H21.462V-9.7h5.46v-.9h-5.46V-11.69H20.454V-10.6H15.12v.9h5.334v.952H16.142V-4.2h6.93v1.064h-8.3v.9h8.3V-.056c0,.2-.084.252-.322.266S21.658.224,20.734.2a4.054,4.054,0,0,1,.35.91A9.257,9.257,0,0,0,23.492.952c.462-.14.588-.406.588-.98V-2.24h3.164Zm6.076-7.042V-8.96H30.352v-1.218Zm-2.968,3.36V-8.162H33.32v1.344ZM34.3-11.06H29.33V1.064h1.022V-5.95H34.3ZM36.6-6.8V-8.162H39.7V-6.8ZM39.7-10.178V-8.96H36.6v-1.218Zm1.05-.882H35.6v5.124h4.1V-.364c0,.28-.1.35-.35.364-.294.014-1.246.028-2.2-.028a4.719,4.719,0,0,1,.378,1.078,9.42,9.42,0,0,0,2.576-.2c.462-.168.644-.5.644-1.218Zm5.838,2.184H48.8v-.966h-3.99a14.718,14.718,0,0,0,.434-1.68l-1.008-.2A11.206,11.206,0,0,1,42.5-7.28a5.476,5.476,0,0,1,.854.6,10.4,10.4,0,0,0,1.134-2.2h1.064V-6.09H42.672V-5.1h2.814A7.045,7.045,0,0,1,42.518.266a3.45,3.45,0,0,1,.728.77,7.63,7.63,0,0,0,2.9-4.13c.756.854,1.848,2.17,2.324,2.856l.7-.882c-.434-.49-2.128-2.38-2.786-3.038.056-.308.112-.63.14-.938H49.21V-6.09H46.578c.014-.168.014-.336.014-.476Zm4.074,7.462V-9.52H53.62v8.106ZM49.658-10.5V.672h1.008V-.434H53.62V.532h1.036V-10.5ZM69.384-8.61a8.946,8.946,0,0,0-1.456-2.45l-.784.322A8.652,8.652,0,0,1,68.53-8.232ZM65.6-10.192H63.84V-11.7h-.966v1.512h-1.82v.826H65.6Zm-1.12,3.164c.2-.532.406-1.372.63-2.1l-.9-.182A14.523,14.523,0,0,1,63.742-7.2Zm-1.68-.2A7.064,7.064,0,0,0,62.37-9.24l-.756.168a7.186,7.186,0,0,1,.392,2.03Zm-2.3-4h-3.29v.84h3.29Zm.364,1.834H56.588v.854h4.284ZM60.536-7.5H57.162v.826h3.374ZM57.162-4.816h3.374v-.84H57.162ZM59.7-2.926V-.588h-1.75V-2.926Zm.854-.854H57.12V.91h.826V.252h2.6Zm1.694,2.394v-1.19h2.128v1.19ZM64.372-4.48v1.148H62.244V-4.48ZM68.082-5.5a11.777,11.777,0,0,1-.938,2.352c-.112-.84-.182-1.848-.224-2.968h2.338v-.868H66.892c-.042-1.4-.056-2.982-.042-4.7h-.91c.014,1.708.028,3.276.07,4.7H60.676v.868h5.376a32.972,32.972,0,0,0,.378,4.1A9.716,9.716,0,0,1,65.254-.7V-5.25H61.418V.14h.826V-.616H65.17A8.121,8.121,0,0,1,63.784.42a3.887,3.887,0,0,1,.588.588A10.057,10.057,0,0,0,66.654-.966c.364,1.3.91,2.044,1.736,2.086.476.014.938-.532,1.19-2.45a3.291,3.291,0,0,1-.672-.546C68.824-.728,68.656,0,68.418-.014c-.476-.042-.826-.7-1.078-1.848a11.621,11.621,0,0,0,1.54-3.22Zm6.23-5.39-1.106.462a46.92,46.92,0,0,0,2.03,4.312c-1.5,1.05-2.422,2.184-2.422,3.626,0,2.1,1.9,2.884,4.536,2.884a27.56,27.56,0,0,0,4.424-.35V-1.2a20.831,20.831,0,0,1-4.48.476c-2.212,0-3.318-.728-3.318-1.89,0-1.064.784-1.988,2.086-2.828A46.509,46.509,0,0,1,80.318-7.77c.406-.21.756-.392,1.078-.588l-.616-.994a7.647,7.647,0,0,1-.994.658c-.77.42-2.282,1.162-3.6,1.96A30.149,30.149,0,0,1,74.312-10.892ZM89.1-5.6c-.5.154-1.036.308-1.54.448V-7.924H89.1V-8.9h-1.54v-2.8H86.534v2.8H84.742v.98h1.792v3.052c-.742.21-1.414.378-1.974.5l.294,1.022,1.68-.49V-.182c0,.2-.084.266-.28.266-.168.014-.77.014-1.442,0a3.328,3.328,0,0,1,.322.952,4.858,4.858,0,0,0,1.9-.182c.364-.168.518-.448.518-1.036V-4.144c.546-.168,1.12-.336,1.68-.5Zm6.244.1a8.537,8.537,0,0,1-2.254,3.22A9.539,9.539,0,0,1,91.028-5.5ZM96-6.51l-.168.042H93.6V-8.554H96.95V-9.52H93.6v-2.2H92.582v2.2H89.306v.966h3.276v2.086h-3V-5.5h.462l-.042.014a11.163,11.163,0,0,0,2.3,3.836A11.5,11.5,0,0,1,88.508.126a3.964,3.964,0,0,1,.56.938,12.808,12.808,0,0,0,3.976-2,10.052,10.052,0,0,0,3.738,2.03,4.285,4.285,0,0,1,.672-.9A9.538,9.538,0,0,1,93.842-1.61a10.244,10.244,0,0,0,2.842-4.606Zm15.19-4.382H107.87v.924h3.318Zm-3.556,1.428a8.187,8.187,0,0,0-1.2-1.9l-.686.336A9.059,9.059,0,0,1,106.9-9.1Zm-6.664-2.24a9.589,9.589,0,0,1-2.492,2.8,6.221,6.221,0,0,1,.588.77,12.569,12.569,0,0,0,2.842-3.234Zm1.652,5.712a13.384,13.384,0,0,1-.924,4.774,4.128,4.128,0,0,1,.756.49,16.119,16.119,0,0,0,1.05-5.138Zm4.844-1.694v-.966h-2.128v-2.856h-.966v2.856h-2.1v.028l-.9-.294a11.766,11.766,0,0,1-3.094,3.99A5.89,5.89,0,0,1,98.9-4a11.914,11.914,0,0,0,1.232-1.274V1.078h.966v-7.6a15.27,15.27,0,0,0,1.176-2v.84h2.1V.854h.966v-8.54ZM106.022-5.81a24.062,24.062,0,0,1,.714,4.144l.854-.154a25.942,25.942,0,0,0-.77-4.144Zm5.362-1.26h-3.85v.952h1.61v5.95c0,.182-.056.238-.252.252s-.84,0-1.568-.028a4.145,4.145,0,0,1,.308,1.008,6.377,6.377,0,0,0,2-.168c.392-.182.5-.49.5-1.05V-6.118h1.246Zm7.448-1.6V-11.69h-1.078v3.024h-4.536V-7.63h4.48A9.433,9.433,0,0,1,112.8.308a3.724,3.724,0,0,1,.8.826,10.3,10.3,0,0,0,5.18-8.764h4.774c-.266,4.928-.574,6.9-1.078,7.378a.8.8,0,0,1-.644.21c-.35,0-1.246-.014-2.2-.1a2.277,2.277,0,0,1,.35,1.064,18.1,18.1,0,0,0,2.24.042,1.538,1.538,0,0,0,1.19-.56c.616-.7.91-2.786,1.218-8.526.014-.154.028-.546.028-.546ZM7,13.2A1.484,1.484,0,1,0,8.484,14.68,1.476,1.476,0,0,0,7,13.2Zm9.408-2.8v1.246c.322-.014,1.022-.042,1.54-.042h6.706v6.608H17.78a14.783,14.783,0,0,1-1.554-.084V19.4c.378-.028,1.008-.056,1.582-.056h6.846c-.014.336-.014.63-.028.784h1.26c-.014-.224-.056-.854-.056-1.358V11.544c0-.336.028-.77.042-1.092-.28.014-.7.028-1.036.028h-6.9A14.128,14.128,0,0,1,16.408,10.4ZM32.018,9.4l-.406,1.036A46.344,46.344,0,0,1,38.92,12.1l.448-1.078A47.906,47.906,0,0,0,32.018,9.4Zm-.63,3.7-.42,1.05A40.973,40.973,0,0,1,38,15.856l.448-1.078A49.86,49.86,0,0,0,31.388,13.1Zm-.77,4.074-.434,1.064a45.7,45.7,0,0,1,8.288,2.114l.476-1.078A49.276,49.276,0,0,0,30.618,17.172Zm21.7-3.836-.854-.406a2.4,2.4,0,0,1-.7.1H46.508a9.558,9.558,0,0,1-1.106-.084V14.12c.35-.014.714-.042,1.12-.042h4.452c-.042.8-.448,3.528-.658,4.7H45.248c-.42,0-.826-.028-1.162-.056v1.162c.406-.028.728-.042,1.162-.042H52.92c.294,0,.812.014,1.064.028V18.74c-.294.028-.8.042-1.106.042H51.506c.2-1.288.6-4.06.714-5.012A3.115,3.115,0,0,1,52.318,13.336Zm6.174-2.45v1.26c.434-.014.9-.042,1.386-.042H65.87c.462,0,.994.014,1.386.042v-1.26a13.757,13.757,0,0,1-1.386.056H59.878C59.416,10.942,58.94,10.914,58.492,10.886Zm-1.2,6.93V19.16c.476-.028.966-.07,1.47-.07h8.386c.378,0,.854.028,1.274.07V17.816a12.715,12.715,0,0,1-1.274.07H58.758C58.254,17.886,57.764,17.844,57.288,17.816Zm18.48-8.638-1.344-.266a5.258,5.258,0,0,1-.21,1.12,9.462,9.462,0,0,1-.8,1.96A10.455,10.455,0,0,1,70.924,15l1.106.658a11.236,11.236,0,0,0,2.338-3h3.584c-.2,3.556-1.708,5.39-3.08,6.426a4.5,4.5,0,0,1-1.134.644l1.19.812c2.408-1.54,3.976-3.878,4.2-7.882h2.366c.322,0,.868.014,1.316.042V11.5a10.931,10.931,0,0,1-1.316.07H74.886c.224-.5.392-1.008.532-1.414C75.516,9.864,75.656,9.5,75.768,9.178Zm9.66,4.76V15.31c.434-.042,1.176-.07,1.946-.07H95.06c.63,0,1.218.056,1.5.07V13.938c-.308.028-.812.07-1.512.07H87.374C86.59,14.008,85.848,13.966,85.428,13.938Zm16.506-4.69-.63.938c.826.476,2.338,1.484,3.01,1.988l.658-.952C104.37,10.774,102.76,9.71,101.934,9.248Zm-2.1,10.01.644,1.134a17.428,17.428,0,0,0,4.648-1.736,16.313,16.313,0,0,0,5.376-5.012L109.83,12.5a14.279,14.279,0,0,1-5.306,5.124A14.872,14.872,0,0,1,99.834,19.258ZM99.82,12.4l-.616.952a30.688,30.688,0,0,1,3.052,1.918l.644-.98C102.284,13.84,100.646,12.846,99.82,12.4Zm15.022-.084v1.092c.252-.014,1.064-.042,1.428-.042h5.194v2.324H116.4c-.476,0-.98-.028-1.246-.042v1.078c.28-.014.77-.028,1.26-.028h5.054v2.492h-5.642a10.658,10.658,0,0,1-1.148-.056v1.12c.224,0,.714-.028,1.162-.028h5.628c0,.224,0,.434-.014.56h1.106c-.014-.2-.028-.532-.028-.756V13.056c0-.266,0-.56.014-.714-.182.014-.546.028-.854.028H116.27C115.906,12.37,115.108,12.342,114.842,12.314ZM128.9,9.738l-.8.854a29.076,29.076,0,0,1,3.486,2.926l.882-.882A30.656,30.656,0,0,0,128.9,9.738Zm-1.2,9.38.742,1.148a15.346,15.346,0,0,0,5.5-2.17,13.988,13.988,0,0,0,4.7-4.984l-.672-1.19a13.188,13.188,0,0,1-4.676,5.152A14.456,14.456,0,0,1,127.694,19.118Zm22.946-8.484-.714-.546a3.834,3.834,0,0,1-1.05.112h-5.4c-.42,0-1.218-.056-1.414-.084V11.39c.154-.014.924-.07,1.414-.07h5.46a12.32,12.32,0,0,1-2.324,3.892,16.009,16.009,0,0,1-5.768,4.158l.9.938a17.748,17.748,0,0,0,5.46-4.088,32.324,32.324,0,0,1,3.85,4.158l.98-.84a38.836,38.836,0,0,0-4.088-4.186,17.719,17.719,0,0,0,2.352-4.1A4.016,4.016,0,0,1,150.64,10.634Zm8.288-.532c.042.168.14.714.294,1.47-1.316.21-2.534.392-3.08.448-.448.056-.812.084-1.162.1l.238,1.26c.42-.1.742-.168,1.134-.238.532-.1,1.75-.294,3.08-.5.168.868.364,1.862.56,2.814-1.6.252-3.122.49-3.822.588-.364.056-.91.112-1.232.126l.252,1.218c.294-.084.686-.154,1.232-.252.686-.126,2.184-.378,3.766-.644.266,1.386.49,2.52.546,2.828.1.42.14.84.21,1.316l1.274-.238c-.126-.392-.238-.868-.336-1.274-.07-.322-.294-1.442-.574-2.814,1.372-.21,2.674-.42,3.444-.546.518-.084.966-.154,1.26-.182l-.224-1.176c-.308.084-.7.168-1.246.266-.7.126-2.03.364-3.444.588-.182-.938-.378-1.932-.56-2.8,1.344-.21,2.618-.42,3.262-.518.364-.056.8-.112,1.008-.14l-.238-1.176a8.782,8.782,0,0,1-.994.238c-.588.112-1.876.322-3.234.546-.168-.784-.266-1.358-.294-1.512-.042-.308-.112-.7-.126-.966l-1.26.224A6.559,6.559,0,0,1,158.928,10.1Zm15.848,9.6.742.616a3,3,0,0,1,.476-.322,13.918,13.918,0,0,0,4.774-3.878l-.658-.952a10.757,10.757,0,0,1-4.088,3.444V10.536a8.661,8.661,0,0,1,.056-1.036H174.79a6.645,6.645,0,0,1,.084,1.036v8.386A3.333,3.333,0,0,1,174.776,19.706Zm-6.412-.07,1.05.714a7.824,7.824,0,0,0,2.492-3.85,30.626,30.626,0,0,0,.434-5.95c0-.42.056-.84.07-1.008h-1.288a5.158,5.158,0,0,1,.1,1.022,24.992,24.992,0,0,1-.42,5.628A6.645,6.645,0,0,1,168.364,19.636ZM7,33.2A1.484,1.484,0,1,0,8.484,34.68,1.476,1.476,0,0,0,7,33.2Zm12.362-3.472V30.9h-3.01V29.724Zm-3.01,3.22V31.67h3.01v1.274Zm4,.84v-4.9H15.33V41.078h1.022V33.784Zm2.226,2.128v2.31h-3.29v-2.31Zm.966,3.192V35.03H18.34v4.914h.952V39.1ZM22.6,32.958V31.67H25.7v1.288ZM25.7,29.71V30.9H22.6V29.71Zm1.05-.826H21.6v4.9h4.1v5.88c0,.266-.084.35-.336.35-.28.014-1.19.028-2.1-.014a5.033,5.033,0,0,1,.364,1.064,9.164,9.164,0,0,0,2.506-.182c.448-.182.616-.532.616-1.218ZM39.676,32.65H36.344V31.6h3.332Zm0,1.764H36.344V33.378h3.332Zm0,1.792H36.344v-1.05h3.332Zm-4.27-5.376v6.146h5.236V30.83h-2.59c.126-.322.266-.7.392-1.064H41.2v-.8H34.874v.8h2.6c-.084.35-.2.728-.308,1.064ZM38.5,37.606a11.534,11.534,0,0,1,2.142,1.876l.756-.49A10.458,10.458,0,0,0,39.214,37.2Zm-1.932-.392a6.892,6.892,0,0,1-2.31,1.68,5.245,5.245,0,0,1,.7.658,9.089,9.089,0,0,0,2.478-2.058ZM33.18,30.676H30.45V29.64h2.73Zm0,1.792H30.45V31.4h2.73Zm.952-3.6h-4.62v4.368h4.62Zm-1.778,8.5H34.72v-.8H32.354v-1.5h2.6V34.26H28.686v.812h2.772V38.8a3.689,3.689,0,0,1-1.036-1.358c.056-.518.084-1.064.112-1.6h-.868c-.07,1.708-.308,3.584-1.148,4.592a2.982,2.982,0,0,1,.658.672,5.711,5.711,0,0,0,1.064-2.548c1.26,1.876,3.346,2.212,6.37,2.212H41.1a2.834,2.834,0,0,1,.378-.9c-.812.028-4.256.028-4.872.028a11.379,11.379,0,0,1-4.256-.574Zm14.1-.77V34.96h1.26V36.6ZM44.436,34.96H45.7V36.6H44.408c.028-.378.028-.756.028-1.092Zm2.1-4.606a12.637,12.637,0,0,1-.616,1.456H44.31a15.659,15.659,0,0,0,.7-1.456Zm-.084,2.282h1.26v1.54h-1.26Zm-2.016,0H45.7v1.54h-1.26Zm9.646-2.758a6.013,6.013,0,0,1-.364,2.45c-.1.126-.21.14-.392.126a12.555,12.555,0,0,1-1.26-.056,2.669,2.669,0,0,1,.238.868,12.744,12.744,0,0,0,1.442.014.953.953,0,0,0,.756-.35c.308-.336.42-1.232.532-3.542.014-.126.014-.392.014-.392H49v.882h1.89a3.831,3.831,0,0,1-2.3,3.066V31.81h-1.75a18.3,18.3,0,0,0,.882-1.932l-.616-.392-.154.042H45.318c.112-.336.224-.686.322-1.036l-.966-.21a10.271,10.271,0,0,1-2.184,4.424,5.143,5.143,0,0,1,.784.63,4.444,4.444,0,0,0,.294-.378v2.548a9.827,9.827,0,0,1-1.036,5.11,3.064,3.064,0,0,1,.742.476,8.377,8.377,0,0,0,1.078-3.682h3.36v2.52c0,.182-.07.238-.266.252s-.812.014-1.54-.014a3.257,3.257,0,0,1,.336.882,5.4,5.4,0,0,0,1.876-.168c.364-.154.476-.448.476-.952V32.958a2.682,2.682,0,0,1,.56.7,4.614,4.614,0,0,0,2.688-3.78Zm1.344,7.6h-2.66V35.758h2.422v-.9H52.766V33.434h-.994v1.428H50.554c.112-.364.21-.742.294-1.12l-.882-.182A7.961,7.961,0,0,1,48.678,36.7a6.228,6.228,0,0,1,.812.434,6.994,6.994,0,0,0,.728-1.372h1.554V37.48h-2.94v.9h2.94v2.618h.994V38.376h2.66Zm4.97-7.574a9.994,9.994,0,0,0-2.52-1.5l-.56.756a10.793,10.793,0,0,1,2.478,1.568Zm-.686,3.64a11.253,11.253,0,0,0-2.562-1.4l-.574.784a10.82,10.82,0,0,1,2.548,1.484Zm-.35,2.142a43.752,43.752,0,0,1-2.394,4.522l.9.658c.742-1.316,1.624-3.052,2.3-4.536Zm5.5-4.2h2.366v3.178H64.806c.042-.532.056-1.078.056-1.61ZM69.4,35.632v-.966H68.236V30.522H64.862V28.31H63.84v2.212H61.082v.966H63.84v1.554a15.585,15.585,0,0,1-.07,1.624H60.326v.966h3.29a6.555,6.555,0,0,1-3.934,4.718,5.169,5.169,0,0,1,.812.742,7.161,7.161,0,0,0,4.116-5.068A7.639,7.639,0,0,0,68.8,41.092a3.351,3.351,0,0,1,.714-.882,6.818,6.818,0,0,1-3.99-4.578Zm12.39-1.246c1.106,0,1.428-.448,1.554-2.142a2.921,2.921,0,0,1-.952-.406c-.056,1.386-.154,1.61-.686,1.61H79.478c-.63,0-.742-.084-.742-.532V31.5a29.268,29.268,0,0,0,3.934-1.414l-.7-.756a23.3,23.3,0,0,1-3.234,1.316V28.31H77.714v4.62c0,1.148.35,1.456,1.68,1.456ZM72.422,37.41V36.122h2.954V37.41Zm2.954-3.3v1.2H72.422v-1.2Zm1.022-.868H71.456V41.05h.966V38.208h2.954V39.86c0,.182-.042.224-.224.224s-.784.028-1.442,0a3.964,3.964,0,0,1,.336.938,5.826,5.826,0,0,0,1.876-.168c.378-.168.476-.462.476-.98ZM74.676,29.6a16.008,16.008,0,0,1,.938,1.442l-2.87.126c.434-.8.882-1.778,1.26-2.632l-1.05-.252a21.955,21.955,0,0,1-1.288,2.926c-.392.014-.742.028-1.064.042l.1.98c1.428-.084,3.444-.182,5.4-.294a7.543,7.543,0,0,1,.364.826l.882-.392a13.6,13.6,0,0,0-1.82-3.108Zm4.844,10.43c-.658,0-.784-.084-.784-.546V37.858A20.221,20.221,0,0,0,82.824,36.3l-.686-.784a15.655,15.655,0,0,1-3.4,1.47V34.778H77.714v4.7c0,1.148.364,1.456,1.694,1.456H81.9c1.162,0,1.47-.49,1.61-2.366a2.781,2.781,0,0,1-.938-.392c-.07,1.568-.168,1.848-.756,1.848Zm11.312-8.694V28.31H89.754v3.024H85.218V32.37H89.7a9.433,9.433,0,0,1-4.9,7.938,3.724,3.724,0,0,1,.8.826,10.3,10.3,0,0,0,5.18-8.764H95.55c-.266,4.928-.574,6.9-1.078,7.378a.8.8,0,0,1-.644.21c-.35,0-1.246-.014-2.2-.1a2.277,2.277,0,0,1,.35,1.064,18.1,18.1,0,0,0,2.24.042,1.538,1.538,0,0,0,1.19-.56c.616-.7.91-2.786,1.218-8.526.014-.154.028-.546.028-.546ZM7,53.2A1.484,1.484,0,1,0,8.484,54.68,1.476,1.476,0,0,0,7,53.2Zm18.27-3.248a.931.931,0,1,1,.924.924A.935.935,0,0,1,25.27,49.948Zm-.644,0a1.578,1.578,0,0,0,.07.448c-.168.014-.322.014-.448.014H17.22a10.8,10.8,0,0,1-1.4-.1v1.246c.364-.014.84-.042,1.4-.042h7.154A10.478,10.478,0,0,1,22.54,56.08a9.218,9.218,0,0,1-5.46,3.36l.952,1.05a10.6,10.6,0,0,0,5.516-3.738,13.677,13.677,0,0,0,2.086-5.166.722.722,0,0,0,.028-.154,1.692,1.692,0,0,0,.532.084,1.575,1.575,0,1,0-1.568-1.568Zm5.418.462c.028.336.028.77.028,1.092V58.39c0,.49-.028,1.526-.042,1.708h1.2c-.014-.112-.014-.448-.028-.812H38.85c0,.378-.014.714-.014.812h1.2c-.014-.154-.028-1.246-.028-1.694V51.5c0-.35,0-.742.028-1.092-.42.028-.924.028-1.232.028H31.29C30.968,50.438,30.59,50.424,30.044,50.41Zm1.162,1.134h7.658v6.65H31.206Zm20.818-1.988-.77.322a15.654,15.654,0,0,1,1.274,2.212l.8-.364A20.672,20.672,0,0,0,52.024,49.556Zm1.834-.672-.784.336a15.221,15.221,0,0,1,1.33,2.17l.8-.364A20.188,20.188,0,0,0,53.858,48.884Zm-7.812.462-.63.938c.812.476,2.338,1.484,3.01,2l.658-.966C48.482,50.886,46.872,49.808,46.046,49.346Zm-2.1,10.01.644,1.134a16.718,16.718,0,0,0,4.634-1.736,16.476,16.476,0,0,0,5.39-5l-.672-1.162a14.31,14.31,0,0,1-5.306,5.138A15.323,15.323,0,0,1,43.946,59.356Zm-.014-6.86-.63.952a30.931,30.931,0,0,1,3.066,1.918l.63-.98C46.4,53.952,44.758,52.944,43.932,52.5Zm14.924.266v1.12c.294-.028.742-.042.966-.042H62.4v5.152h-3.22a8.13,8.13,0,0,1-1.008-.07V60.1c.336-.028.7-.042,1.008-.042H66.92c.224,0,.658.014.938.042V58.922a6.4,6.4,0,0,1-.938.07H63.532V53.84h2.73c.322,0,.686.014.994.042v-1.12c-.294.028-.644.056-.994.056h-6.44A8.221,8.221,0,0,1,58.856,52.762Zm18.662-3.64-1.3-.42a4.794,4.794,0,0,1-.434,1.106,11.541,11.541,0,0,1-4.4,4.732l.966.728a14.193,14.193,0,0,0,3.556-3.444H80.64a11.51,11.51,0,0,1-2.24,4.368,11.326,11.326,0,0,1-5.586,3.514l1.008.91a12.275,12.275,0,0,0,5.572-3.808,13.579,13.579,0,0,0,2.492-4.816,4.4,4.4,0,0,1,.322-.742l-.938-.574a2.343,2.343,0,0,1-.91.14H76.566a6.292,6.292,0,0,0,.336-.588A10.586,10.586,0,0,1,77.518,49.122Zm11.2,9.646a12.336,12.336,0,0,1-.1,1.652h1.358c-.056-.462-.084-1.218-.084-1.652,0-.406,0-2.52-.014-4.62a36.7,36.7,0,0,1,5.5,2.254l.476-1.19A44.747,44.747,0,0,0,89.88,52.9V50.62c0-.42.056-1.022.1-1.456H88.606a8.836,8.836,0,0,1,.112,1.456Zm20.034-.336V59.79h-6.566V58.432Zm-.9-3.752v1.19h-5.67V54.68Zm-5.67,1.988h6.692V53.882h-7.672v7.2h.98V60.6h6.566v.448h1.022V57.62h-7.588Zm9.17-7.322H106.61a7.351,7.351,0,0,0,.434-.882l-.994-.238a6.57,6.57,0,0,1-1.232,1.932v-.812H101.15a6.969,6.969,0,0,0,.406-.868l-.966-.252a7.67,7.67,0,0,1-2.016,2.912,6.43,6.43,0,0,1,.854.56,9.546,9.546,0,0,0,1.2-1.484h.6a8.823,8.823,0,0,1,.658,1.428l.924-.28a6.354,6.354,0,0,0-.546-1.148h2.492a5.608,5.608,0,0,1-.868.77,5.081,5.081,0,0,1,.574.322v.882H99.19v2.618h.98V53.014h9.73v1.792h1.008V52.188h-5.446V51.1h-.21a9.744,9.744,0,0,0,.784-.882h1.12a6.5,6.5,0,0,1,.938,1.47l.952-.322a6.963,6.963,0,0,0-.756-1.148h3.066Zm5.586,7.84-1.526.5V54.218h1.4v-.966h-1.4V50.214h1.61v-.98h-4.34v.98h1.736v3.038H112.84v.966h1.582V58c-.714.238-1.358.434-1.876.588l.238,1.05c1.246-.406,2.842-.952,4.34-1.456Zm1.722-4.718h2.128v1.778h-2.128Zm0-2.632h2.128V51.6h-2.128ZM123.83,51.6h-2.142V49.836h2.142Zm0,2.646h-2.142V52.468h2.142Zm-2.058,5.418V57.746h3.262v-.952h-3.262V55.156h3.052v-6.23h-7.112v6.23h3.01v1.638h-3.178v.952h3.178v1.918h-4.256v.952h9.016v-.952Zm15.428-9.03-.714-.546a3.834,3.834,0,0,1-1.05.112h-5.4c-.42,0-1.218-.056-1.414-.084V51.39c.154-.014.924-.07,1.414-.07h5.46a12.32,12.32,0,0,1-2.324,3.892A16.009,16.009,0,0,1,127.4,59.37l.9.938a17.748,17.748,0,0,0,5.46-4.088,32.324,32.324,0,0,1,3.85,4.158l.98-.84a38.836,38.836,0,0,0-4.088-4.186,17.719,17.719,0,0,0,2.352-4.1A4.016,4.016,0,0,1,137.2,50.634Zm8.288-.532c.042.168.14.714.294,1.47-1.316.21-2.534.392-3.08.448-.448.056-.812.084-1.162.1l.238,1.26c.42-.1.742-.168,1.134-.238.532-.1,1.75-.294,3.08-.5.168.868.364,1.862.56,2.814-1.6.252-3.122.49-3.822.588-.364.056-.91.112-1.232.126l.252,1.218c.294-.084.686-.154,1.232-.252.686-.126,2.184-.378,3.766-.644.266,1.386.49,2.52.546,2.828.1.42.14.84.21,1.316l1.274-.238c-.126-.392-.238-.868-.336-1.274-.07-.322-.294-1.442-.574-2.814,1.372-.21,2.674-.42,3.444-.546.518-.084.966-.154,1.26-.182l-.224-1.176c-.308.084-.7.168-1.246.266-.7.126-2.03.364-3.444.588-.182-.938-.378-1.932-.56-2.8,1.344-.21,2.618-.42,3.262-.518.364-.056.8-.112,1.008-.14l-.238-1.176a8.782,8.782,0,0,1-.994.238c-.588.112-1.876.322-3.234.546-.168-.784-.266-1.358-.294-1.512-.042-.308-.112-.7-.126-.966l-1.26.224A6.559,6.559,0,0,1,145.488,50.1Zm15.848,9.6.742.616a3,3,0,0,1,.476-.322,13.918,13.918,0,0,0,4.774-3.878l-.658-.952a10.757,10.757,0,0,1-4.088,3.444V50.536a8.661,8.661,0,0,1,.056-1.036H161.35a6.645,6.645,0,0,1,.084,1.036v8.386A3.333,3.333,0,0,1,161.336,59.706Zm-6.412-.07,1.05.714a7.824,7.824,0,0,0,2.492-3.85,30.626,30.626,0,0,0,.434-5.95c0-.42.056-.84.07-1.008h-1.288a5.158,5.158,0,0,1,.1,1.022,24.992,24.992,0,0,1-.42,5.628A6.645,6.645,0,0,1,154.924,59.636ZM7,73.2A1.484,1.484,0,1,0,8.484,74.68,1.476,1.476,0,0,0,7,73.2Zm9.156-1.666h9.758V73.7h1.008V70.606h-2.17c.476-.56.994-1.232,1.428-1.862L25.1,68.38a15.131,15.131,0,0,1-1.5,2.226H21.126l.6-.238a8.633,8.633,0,0,0-1.134-2.142l-.91.336a8.275,8.275,0,0,1,1.036,2.044H17.864l.476-.238A9.379,9.379,0,0,0,17,68.464l-.868.392a11.606,11.606,0,0,1,1.176,1.75H15.162V73.7h.994Zm11.018,4.606H21.532v-.35a12.5,12.5,0,0,0,3.4-2.366l-.672-.5-.21.056H17.22V73.9H23a11.723,11.723,0,0,1-1.974,1.232H20.5v1.008H14.9V77.1h5.6v2.7c0,.21-.07.28-.364.294-.266.014-1.218.014-2.282-.014a4.463,4.463,0,0,1,.434.994,10.413,10.413,0,0,0,2.576-.168c.5-.154.672-.462.672-1.078V77.1h5.642Zm8.134-2.226c1.064-.392,2.422-.9,3.71-1.386l-.154-.77c-1.456.518-2.926,1.036-3.934,1.358Zm2.744-2.66a7.721,7.721,0,0,0-1.876-1.274l-.546.63a6.682,6.682,0,0,1,1.848,1.33ZM33.4,73.588c0,.154-.042.21-.21.21s-.728.014-1.344,0a3.858,3.858,0,0,1,.266.77,5.979,5.979,0,0,0,1.806-.126c.336-.14.448-.378.448-.84V69H29.064v.854H33.4Zm-3.752-3a7.189,7.189,0,0,1,1.82,1.372l.56-.672A7.728,7.728,0,0,0,30.2,69.976ZM32.48,72.02c-1.386.546-2.8,1.064-3.752,1.358l.406.854c1.008-.392,2.268-.91,3.5-1.442Zm5.964,5.474h-6.79V76.136h6.79Zm-6.79,2.24V78.32h6.79v1.414Zm2.8-5.726a12.043,12.043,0,0,1-.546,1.316H30.632v5.782h1.022V80.56h6.79v.546h1.05V75.324H34.93c.2-.336.406-.728.6-1.106ZM40.6,69H35.252v.854H39.62V73.6c0,.168-.056.21-.224.224-.2,0-.8,0-1.456-.028a3.072,3.072,0,0,1,.294.826,6.393,6.393,0,0,0,1.89-.14c.364-.154.476-.392.476-.882ZM51.226,70.06a14.426,14.426,0,0,1-.686,1.4l.35.1H47l.406-.112a6.029,6.029,0,0,0-.6-1.386Zm3.78,1.5H51.534c.252-.392.532-.882.8-1.386L51.8,70.06h2.492v-.84h-4.8v-.938H48.468v.938H43.694v.84H46.27l-.476.112a6.851,6.851,0,0,1,.588,1.386H43.064v.854H55.006Zm-2.548,3.164H45.626V73.9h6.832Zm0,1.582H45.626V75.45h6.832Zm1.008-3.192H44.632v3.976H48.02l-.532.518a9.626,9.626,0,0,1,2.324,1.442l.644-.658a9.391,9.391,0,0,0-2.2-1.3h5.208ZM43.442,80.756a5.185,5.185,0,0,0,2.044-2.646l-.882-.322a4.634,4.634,0,0,1-1.96,2.422Zm4.606-.672c-.728,0-.84-.07-.84-.406V77.886H46.186v1.792c0,1.008.378,1.26,1.778,1.26H50.61c1.12,0,1.442-.364,1.54-1.918a3.225,3.225,0,0,1-.882-.35c-.07,1.246-.154,1.414-.756,1.414Zm4.06-1.932a10.793,10.793,0,0,1,2.45,2.506l.84-.518a11.291,11.291,0,0,0-2.492-2.478ZM63.294,71a13.969,13.969,0,0,0-2.1-2.436l-.8.49a13.651,13.651,0,0,1,2.058,2.506ZM58.576,68.6a9.083,9.083,0,0,1-2.2,2.9,5.951,5.951,0,0,1,.84.686A11.9,11.9,0,0,0,59.6,68.9ZM62.37,75.38H58.03a15.3,15.3,0,0,0,2.142-2.856,16.56,16.56,0,0,1,2.394,3.024l.77-.784a9.028,9.028,0,0,0-.658-.924,6.2,6.2,0,0,1,.7.448,10.43,10.43,0,0,0,1.232-2.66h.91v2.2a7.732,7.732,0,0,1-3.15,6.2Zm-.98,3.78H58.758V76.318H61.39Zm5.152-7.532h1.736a17.678,17.678,0,0,1-.546,2.492l.84.238A28.724,28.724,0,0,0,69.4,70.83l-.686-.2-.168.042H64.89a21.832,21.832,0,0,0,.476-2.24L64.3,68.282A12.623,12.623,0,0,1,62.51,73.63a21.9,21.9,0,0,0-1.988-2.114H59.514a11.159,11.159,0,0,1-3.234,4.1,3.831,3.831,0,0,1,.714.714c.28-.238.56-.476.812-.728v5.32h.952V80.1h3.5c-.07.042-.14.1-.224.14a6.9,6.9,0,0,1,.616.854,7.6,7.6,0,0,0,3.388-5.166,7.769,7.769,0,0,0,2.982,5.166c.154-.238.462-.672.644-.9-2.674-1.75-3.136-5.25-3.122-6.37Zm7.77-2.52-1.106.462a46.921,46.921,0,0,0,2.03,4.312c-1.5,1.05-2.422,2.184-2.422,3.626,0,2.1,1.9,2.884,4.536,2.884a27.56,27.56,0,0,0,4.424-.35V78.8a20.831,20.831,0,0,1-4.48.476c-2.212,0-3.318-.728-3.318-1.89,0-1.064.784-1.988,2.086-2.828a46.507,46.507,0,0,1,4.256-2.324c.406-.21.756-.392,1.078-.588l-.616-.994a7.647,7.647,0,0,1-.994.658c-.77.42-2.282,1.162-3.6,1.96A30.148,30.148,0,0,1,74.312,69.108ZM97.174,77.27v-.924H91.518v-.9h-.6a1.5,1.5,0,0,0,.378-.084c.42-.126.546-.35.546-.9V72.5h3.528a12.337,12.337,0,0,1-1.554,1.694l.924.364a18.858,18.858,0,0,0,2.324-2.674l-.8-.294-.2.056H93.24l.084-.1a8.881,8.881,0,0,0-1.064-.42,14.293,14.293,0,0,0,3.206-1.806l-.7-.532-.224.056H86.324V69.7H93.31a13.489,13.489,0,0,1-2.226,1.022,20.583,20.583,0,0,0-2.268-.56l-.574.616a23.779,23.779,0,0,1,3.108.868H85.12V72.5h4.256a13.466,13.466,0,0,1-4.466,2.268,5.218,5.218,0,0,1,.658.812,13.609,13.609,0,0,0,5.1-3.08h.14v1.96c0,.154-.056.21-.266.21s-.882.028-1.652-.014a5.307,5.307,0,0,1,.322.854c.5,0,.924,0,1.274-.014v.854H84.84v.924h4.634A12.613,12.613,0,0,1,84.6,79.986a5.844,5.844,0,0,1,.686.868,13.283,13.283,0,0,0,5.194-3.318v3.528h1.036V77.592a12.7,12.7,0,0,0,5.236,3.178,5.278,5.278,0,0,1,.7-.868A11.888,11.888,0,0,1,92.5,77.27Zm6.5-3.472H102.2v-1.26h1.47Zm0,2.03H102.2V74.54h1.47ZM99.932,74.54h1.456v1.288H99.932Zm0-2h1.456V73.8H99.932Zm8.414-.742h1.778c-.182.98-.406,2.016-.616,2.716l.84.238A35.931,35.931,0,0,0,111.272,71l-.686-.2-.182.042h-3.738c.182-.77.336-1.582.462-2.408l-1.022-.154a13.827,13.827,0,0,1-1.568,5.362v-1.89h-2.254V70.69h2.478v-.9h-2.478V68.282h-.98v1.512H98.826v.9H101.3v1.064h-2.2v4.858h2.2V77.69H98.616v.938H101.3V81.05h.98V78.628h2.674V77.69h-2.674V76.612h2.254V74.176a7.181,7.181,0,0,1,.616.448A11.246,11.246,0,0,0,106.4,71.8h.938v2.38a7.056,7.056,0,0,1-3.584,6.048,7.4,7.4,0,0,1,.6.854,7.19,7.19,0,0,0,3.472-4.928,7.437,7.437,0,0,0,3.108,4.928,10.03,10.03,0,0,1,.63-.882,7.287,7.287,0,0,1-3.22-6.02Zm4.9,3a15.613,15.613,0,0,0,.7-3.752l-.784-.112a14.146,14.146,0,0,1-.728,3.584Zm1.2,6.272h1.036V68.282H114.45Zm1.134-10.206a13.936,13.936,0,0,1,.966,2.38l.784-.378a13.22,13.22,0,0,0-1.022-2.338Zm6.146,8.736v-3.5h2.856v-.966H121.73v-2.9h3.164v-.994H121.73v-2.9h-1.036v2.9h-1.75c.2-.686.364-1.414.5-2.142l-1.008-.168a13.63,13.63,0,0,1-1.694,5,8.167,8.167,0,0,1,.924.476,10.1,10.1,0,0,0,.98-2.17h2.044v2.9h-2.968v.966h2.968v3.5h-4v.994h8.54v-.994Z" transform="translate(961 1851.538)" fill="#164b99"/><text transform="translate(821 1961.538)" fill="#164b99" font-size="21" font-family="NotoSansJP-Regular, Noto Sans JP"><tspan x="-31.5" y="0">仕事</tspan><tspan y="0">の</tspan><tspan x="-63" y="30">ハードスキル</tspan><tspan x="-63" y="60">習得評価基準</tspan></text><path d="M7,9.2A1.484,1.484,0,1,0,8.484,10.68,1.476,1.476,0,0,0,7,9.2ZM21.714,6.7a9.653,9.653,0,0,0-1.106-2.38l-.91.294a9.459,9.459,0,0,1,1.036,2.436Zm-3.332.07A10.056,10.056,0,0,0,16.87,4.562l-.882.42a9.658,9.658,0,0,1,1.456,2.282Zm2.562,3.976c.07-.63.126-1.316.154-2.044h-1.12c-.028.742-.07,1.414-.126,2.044h-3.92v.98H19.7c-.434,2.212-1.568,3.64-4.914,4.424a3.1,3.1,0,0,1,.6.924c3.724-.938,4.956-2.7,5.418-5.348h3.92c-.14,2.8-.336,3.934-.644,4.242-.14.14-.308.154-.616.154s-1.274-.014-2.226-.1a2.353,2.353,0,0,1,.35,1.008,22.707,22.707,0,0,0,2.3.042,1.43,1.43,0,0,0,1.092-.448c.448-.476.644-1.848.826-5.4.014-.154.014-.476.014-.476ZM24.4,7.278A28.45,28.45,0,0,0,26.222,4.8l-1.106-.378a17.69,17.69,0,0,1-1.75,2.73l.308.126H15.2v2.954h1.008v-2H25.83v2h1.036V7.278ZM38.178,8.832a13.748,13.748,0,0,1-1.19,6.4c-.686.07-1.372.14-2.03.2V14.334h2.184v-.812H34.958v-.9H37.1V8.552H34.972V7.67h2.17v.77h1.036ZM32.746,10.9h1.386v1.022H32.746Zm0-1.652h1.386v.994H32.746Zm2.142.994V9.252h1.456v.994Zm0,1.68V10.9h1.456v1.022Zm4.2-4.41V4.352h-.91V7.516H37.2V6.858H34.972V5.892a18.671,18.671,0,0,0,2.17-.378l-.56-.756a36.208,36.208,0,0,1-4.83.672c.1-.266.182-.546.266-.812l-.924-.252A16.3,16.3,0,0,1,28.35,9.98a7.288,7.288,0,0,1,.518,1.05A14.805,14.805,0,0,0,30.1,9.168v7.91h.938v-9.8q.4-.9.714-1.848A2.9,2.9,0,0,1,32,6.172c.658-.042,1.358-.1,2.058-.168v.854H31.836V7.67h2.226v.882H32.018v4.074h2.044v.9H31.976v.812h2.086V15.51l-2.436.224.168.882c1.3-.154,3-.336,4.69-.546-.126.182-.266.35-.406.518a3.276,3.276,0,0,1,.77.546c1.974-2.338,2.24-5.614,2.24-8.3V8.44h1.26c-.112,5.222-.238,7.042-.5,7.434a.4.4,0,0,1-.42.224c-.238,0-.714-.014-1.26-.056a2.226,2.226,0,0,1,.252.91,7.731,7.731,0,0,0,1.4,0,.977.977,0,0,0,.826-.49c.392-.56.49-2.464.616-8.456,0-.126.014-.49.014-.49ZM46.1,6.144V9.252h-2.03V6.144ZM44.072,13.4V10.162H46.1V13.4Zm3.01-8.19H43.12V15.468h.952V14.334h3.01Zm1.148,7.84a10.8,10.8,0,0,1,1.778,2.464l.882-.56a9.9,9.9,0,0,0-1.82-2.38Zm7.224-3.472V8.65H51.842V6.872h3.01V5.948h-3.01V4.282H50.82V5.948H47.908v.924H50.82V8.65H47.306v.924h5.362v1.582H47.376v.924h5.292v3.738c0,.21-.07.266-.308.28s-.994.014-1.862-.014a3.179,3.179,0,0,1,.336.966,8.01,8.01,0,0,0,2.268-.168c.42-.154.574-.462.574-1.05V12.08H55.3v-.924H53.676V9.574ZM61.362,5.7V6.858H58.338V5.7ZM58.338,8.86V7.628h3.024V8.86Zm4.018.8V4.884H57.3V17.078h1.036V9.658ZM64.61,11.52v1.288H61.32V11.52Zm-3.29,3.43V13.592h3.29V14.95Zm4.256.826V10.708H60.382v5.768h.938v-.7Zm-.98-6.9V7.628h3.136V8.874ZM67.732,5.7V6.858H64.6V5.7Zm1.05-.812H63.6V9.672h4.13v6.006c0,.252-.084.336-.322.336S66.3,16.042,65.45,16a3.834,3.834,0,0,1,.364,1.064,7.969,7.969,0,0,0,2.352-.182c.462-.182.616-.532.616-1.19Zm5.53.224-1.106.462a46.92,46.92,0,0,0,2.03,4.312c-1.5,1.05-2.422,2.184-2.422,3.626,0,2.1,1.9,2.884,4.536,2.884a27.56,27.56,0,0,0,4.424-.35V14.8a20.831,20.831,0,0,1-4.48.476c-2.212,0-3.318-.728-3.318-1.89,0-1.064.784-1.988,2.086-2.828A46.509,46.509,0,0,1,80.318,8.23c.406-.21.756-.392,1.078-.588l-.616-.994a7.647,7.647,0,0,1-.994.658c-.77.42-2.282,1.162-3.6,1.96A30.149,30.149,0,0,1,74.312,5.108ZM96.264,6.662l-.854-.546a4.194,4.194,0,0,1-.882.084H87.346c-.6,0-1.12-.014-1.5-.042A6.891,6.891,0,0,1,85.9,7.1v2.982a7.135,7.135,0,0,1-.056.9h1.274c-.028-.336-.042-.686-.042-.9v-2.8h7.728a10.779,10.779,0,0,1-1.33,4.69,8.885,8.885,0,0,1-5.208,3.556l.952.966a9.856,9.856,0,0,0,5.306-3.948A13.423,13.423,0,0,0,96.082,7.32,5.762,5.762,0,0,1,96.264,6.662Zm3.164,3.276V11.31c.434-.042,1.176-.07,1.946-.07h7.686c.63,0,1.218.056,1.5.07V9.938c-.308.028-.812.07-1.512.07h-7.672C100.59,10.008,99.848,9.966,99.428,9.938Zm20.09-4.816-1.3-.42a4.794,4.794,0,0,1-.434,1.106,11.541,11.541,0,0,1-4.4,4.732l.966.728a14.193,14.193,0,0,0,3.556-3.444h4.732a11.51,11.51,0,0,1-2.24,4.368,11.326,11.326,0,0,1-5.586,3.514l1.008.91a12.275,12.275,0,0,0,5.572-3.808,13.579,13.579,0,0,0,2.492-4.816,4.4,4.4,0,0,1,.322-.742l-.938-.574a2.343,2.343,0,0,1-.91.14h-3.794a6.292,6.292,0,0,0,.336-.588A10.586,10.586,0,0,1,119.518,5.122Zm9.716.448V6.732c.378-.028.826-.042,1.26-.042h5.488c.476,0,.952.014,1.288.042V5.57A8.72,8.72,0,0,1,136,5.64h-5.5A8.755,8.755,0,0,1,129.234,5.57Zm9.058,3.7-.8-.5a1.86,1.86,0,0,1-.77.112h-7.378a13.232,13.232,0,0,1-1.372-.084V9.966c.5-.028,1.036-.042,1.372-.042h7.434a7.157,7.157,0,0,1-1.666,3.094,9.329,9.329,0,0,1-4.928,2.562l.868.994a10.138,10.138,0,0,0,5.012-2.926,9.641,9.641,0,0,0,2.044-3.976A2.449,2.449,0,0,1,138.292,9.266Zm2.912,1.68.56,1.092A27.654,27.654,0,0,0,147.1,9.756v5.18a12.988,12.988,0,0,1-.084,1.5h1.372a10.564,10.564,0,0,1-.084-1.5V9.028a22.9,22.9,0,0,0,3.78-3.122l-.938-.868a16.681,16.681,0,0,1-3.822,3.29A23.143,23.143,0,0,1,141.2,10.946Zm24.85-4.256-.854-.546a2.874,2.874,0,0,1-.742.07H157.43c-.462,0-1.008-.042-1.4-.084V7.362c.364-.014.84-.042,1.4-.042h7.154a10.651,10.651,0,0,1-1.834,4.564,9.342,9.342,0,0,1-5.46,3.374l.952,1.05a10.7,10.7,0,0,0,5.516-3.752,13.677,13.677,0,0,0,2.086-5.166A2.952,2.952,0,0,1,166.054,6.69Zm12.656-1.6-.742.308A16,16,0,0,1,179.1,7.348l.756-.336A16.156,16.156,0,0,0,178.71,5.094Zm1.54-.56-.742.308a13.335,13.335,0,0,1,1.162,1.932l.756-.336A16.277,16.277,0,0,0,180.25,4.534Zm-9.2,7.252a18.389,18.389,0,0,1-2.156,3.808l1.19.5a20.3,20.3,0,0,0,2.058-3.85,30.7,30.7,0,0,0,1.274-4.382c.056-.294.168-.7.252-1.008l-1.246-.266A21.339,21.339,0,0,1,171.052,11.786Zm6.888-.532a41.955,41.955,0,0,1,1.582,4.816l1.246-.406c-.364-1.26-1.106-3.4-1.68-4.788a45.259,45.259,0,0,0-2.044-4.424l-1.134.378A35.8,35.8,0,0,1,177.94,11.254Zm7.294-5.684V6.732c.378-.028.826-.042,1.26-.042h5.488c.476,0,.952.014,1.288.042V5.57A8.72,8.72,0,0,1,192,5.64h-5.5A8.755,8.755,0,0,1,185.234,5.57Zm9.058,3.7-.8-.5a1.86,1.86,0,0,1-.77.112h-7.378a13.232,13.232,0,0,1-1.372-.084V9.966c.5-.028,1.036-.042,1.372-.042h7.434a7.157,7.157,0,0,1-1.666,3.094,9.329,9.329,0,0,1-4.928,2.562l.868.994a10.138,10.138,0,0,0,5.012-2.926,9.641,9.641,0,0,0,2.044-3.976A2.449,2.449,0,0,1,194.292,9.266Zm4.886-3.528-.8.854a29.076,29.076,0,0,1,3.486,2.926l.882-.882A30.656,30.656,0,0,0,199.178,5.738Zm-1.2,9.38.742,1.148a15.346,15.346,0,0,0,5.5-2.17,13.988,13.988,0,0,0,4.7-4.984l-.672-1.19a13.188,13.188,0,0,1-4.676,5.152A14.456,14.456,0,0,1,197.974,15.118ZM220.92,6.634l-.714-.546a3.834,3.834,0,0,1-1.05.112h-5.4c-.42,0-1.218-.056-1.414-.084V7.39c.154-.014.924-.07,1.414-.07h5.46a12.32,12.32,0,0,1-2.324,3.892,16.009,16.009,0,0,1-5.768,4.158l.9.938a17.748,17.748,0,0,0,5.46-4.088,32.324,32.324,0,0,1,3.85,4.158l.98-.84a38.836,38.836,0,0,0-4.088-4.186,17.719,17.719,0,0,0,2.352-4.1A4.016,4.016,0,0,1,220.92,6.634ZM7,29.2A1.484,1.484,0,1,0,8.484,30.68,1.476,1.476,0,0,0,7,29.2Zm20.426-2.114A9.146,9.146,0,0,0,25.942,24.8l-.714.378a9.69,9.69,0,0,1,1.442,2.31Zm-9.6.728h-1.54V25.822h1.54Zm-1.54,5.978v-2.24h1.54v1.946Zm1.54-3.108h-1.54v-2h1.54Zm1.554-4.858v.658h4.368v-.8H21.966V24.31h-.924v1.372H19.39v-.8H14.756v.938H15.4V33.97l-.882.168.182.938c.9-.182,2-.42,3.122-.672v2.66H18.7V25.822Zm3.276,2.87c.182-.5.42-1.288.644-1.96l-.854-.182a17.413,17.413,0,0,1-.476,1.96ZM22.6,31.184v1.2H20.552v-1.2ZM20.552,34.39V33.144H22.6V34.39Zm2.884.784V30.4H19.712v5.656h.84v-.882ZM19.8,26.732a7.354,7.354,0,0,1,.42,1.974l.77-.182a6.682,6.682,0,0,0-.476-1.946Zm6.342,3.542a12.209,12.209,0,0,1-.784,2.254c-.1-.868-.168-1.862-.224-2.968h2.282v-.854H25.088C25.032,27.348,25,25.85,25,24.31H24.08c.014,1.554.042,3.038.1,4.4H18.97v.854h5.25a39.236,39.236,0,0,0,.406,4.284,8.524,8.524,0,0,1-2.534,2.52,4.88,4.88,0,0,1,.644.7,9.8,9.8,0,0,0,2.128-2.044c.322,1.26.8,2,1.456,2.016.448.014.938-.56,1.19-2.744a2.845,2.845,0,0,1-.686-.532c-.084,1.3-.266,2.086-.476,2.086-.322-.014-.588-.7-.784-1.862A13.513,13.513,0,0,0,27.02,30.47Zm13.3-3.682h-4.48V25.486h4.48Zm0,1.848h-4.48V27.32h4.48ZM40.4,24.7h-6.4v4.522h6.4Zm-7.588,6.874-1.428.644V28.286H32.9v-.98H31.388V24.394h-.966v2.912H28.784v.98h1.638v4.382c-.714.322-1.372.6-1.9.826l.406,1.022c1.176-.56,2.7-1.3,4.116-2.016ZM41.4,30.89v-.882H32.634v.882h1.96a7.928,7.928,0,0,1-2.772,2.8,4.564,4.564,0,0,1,.714.644,9.6,9.6,0,0,0,1.82-1.6H35.77a9.239,9.239,0,0,1-3.15,3.136,2.753,2.753,0,0,1,.686.644,10.573,10.573,0,0,0,3.4-3.78h1.358a8.235,8.235,0,0,1-2.73,3.78,3.173,3.173,0,0,1,.742.6,9.74,9.74,0,0,0,2.856-4.382h1.092c-.182,2.2-.392,3.08-.63,3.332-.1.14-.224.154-.42.154s-.672-.014-1.19-.056a1.766,1.766,0,0,1,.238.84c.56.028,1.078.028,1.386.014a1.136,1.136,0,0,0,.784-.35c.392-.406.616-1.5.826-4.382a3.994,3.994,0,0,0,.042-.42h-6.02a8.751,8.751,0,0,0,.6-.98Zm13.314.21a5.073,5.073,0,0,0-5.362-5.152,5.967,5.967,0,0,0-6.118,5.7c0,2.31,1.246,3.738,2.492,3.738,1.3,0,2.408-1.47,3.262-4.354A27.54,27.54,0,0,0,49.826,27a3.9,3.9,0,0,1,3.738,4.06,4.228,4.228,0,0,1-3.556,4.158,10.575,10.575,0,0,1-1.2.182l.658,1.036C52.78,36,54.712,34.04,54.712,31.1Zm-10.388.448a4.883,4.883,0,0,1,4.34-4.536,22.874,22.874,0,0,1-.784,3.78c-.714,2.366-1.456,3.3-2.114,3.3C45.136,34.1,44.324,33.312,44.324,31.548ZM58.408,26.4v1.246c.322-.014,1.022-.042,1.54-.042h6.706v6.608H59.78a14.783,14.783,0,0,1-1.554-.084V35.4c.378-.028,1.008-.056,1.582-.056h6.846c-.014.336-.014.63-.028.784h1.26c-.014-.224-.056-.854-.056-1.358V27.544c0-.336.028-.77.042-1.092-.28.014-.7.028-1.036.028h-6.9A14.128,14.128,0,0,1,58.408,26.4Zm15.61-.994-.406,1.036A46.344,46.344,0,0,1,80.92,28.1l.448-1.078A47.906,47.906,0,0,0,74.018,25.4Zm-.63,3.7-.42,1.05A40.973,40.973,0,0,1,80,31.856l.448-1.078A49.859,49.859,0,0,0,73.388,29.1Zm-.77,4.074-.434,1.064a45.7,45.7,0,0,1,8.288,2.114l.476-1.078A49.276,49.276,0,0,0,72.618,33.172Zm21.7-3.836-.854-.406a2.4,2.4,0,0,1-.7.1H88.508a9.558,9.558,0,0,1-1.106-.084V30.12c.35-.014.714-.042,1.12-.042h4.452c-.042.8-.448,3.528-.658,4.7H87.248c-.42,0-.826-.028-1.162-.056v1.162c.406-.028.728-.042,1.162-.042H94.92c.294,0,.812.014,1.064.028V34.74c-.294.028-.8.042-1.106.042H93.506c.2-1.288.6-4.06.714-5.012A3.115,3.115,0,0,1,94.318,29.336Zm6.174-2.45v1.26c.434-.014.9-.042,1.386-.042h5.992c.462,0,.994.014,1.386.042v-1.26a13.757,13.757,0,0,1-1.386.056h-5.992C101.416,26.942,100.94,26.914,100.492,26.886Zm-1.2,6.93V35.16c.476-.028.966-.07,1.47-.07h8.386c.378,0,.854.028,1.274.07V33.816a12.715,12.715,0,0,1-1.274.07h-8.386C100.254,33.886,99.764,33.844,99.288,33.816Zm18.48-8.638-1.344-.266a5.258,5.258,0,0,1-.21,1.12,9.462,9.462,0,0,1-.8,1.96A10.455,10.455,0,0,1,112.924,31l1.106.658a11.236,11.236,0,0,0,2.338-3h3.584c-.2,3.556-1.708,5.39-3.08,6.426a4.5,4.5,0,0,1-1.134.644l1.19.812c2.408-1.54,3.976-3.878,4.2-7.882h2.366c.322,0,.868.014,1.316.042V27.5a10.931,10.931,0,0,1-1.316.07h-6.608c.224-.5.392-1.008.532-1.414C117.516,25.864,117.656,25.5,117.768,25.178Zm9.66,4.76V31.31c.434-.042,1.176-.07,1.946-.07h7.686c.63,0,1.218.056,1.5.07V29.938c-.308.028-.812.07-1.512.07h-7.672C128.59,30.008,127.848,29.966,127.428,29.938Zm16.506-4.69-.63.938c.826.476,2.338,1.484,3.01,1.988l.658-.952C146.37,26.774,144.76,25.71,143.934,25.248Zm-2.1,10.01.644,1.134a17.428,17.428,0,0,0,4.648-1.736,16.313,16.313,0,0,0,5.376-5.012L151.83,28.5a14.279,14.279,0,0,1-5.306,5.124A14.872,14.872,0,0,1,141.834,35.258Zm-.014-6.86-.616.952a30.684,30.684,0,0,1,3.052,1.918l.644-.98C144.284,29.84,142.646,28.846,141.82,28.4Zm15.022-.084v1.092c.252-.014,1.064-.042,1.428-.042h5.194v2.324H158.4c-.476,0-.98-.028-1.246-.042v1.078c.28-.014.77-.028,1.26-.028h5.054v2.492h-5.642a10.658,10.658,0,0,1-1.148-.056v1.12c.224,0,.714-.028,1.162-.028h5.628c0,.224,0,.434-.014.56h1.106c-.014-.2-.028-.532-.028-.756V29.056c0-.266,0-.56.014-.714-.182.014-.546.028-.854.028H158.27C157.906,28.37,157.108,28.342,156.842,28.314ZM170.9,25.738l-.8.854a29.076,29.076,0,0,1,3.486,2.926l.882-.882A30.656,30.656,0,0,0,170.9,25.738Zm-1.2,9.38.742,1.148a15.346,15.346,0,0,0,5.5-2.17,13.988,13.988,0,0,0,4.7-4.984l-.672-1.19a13.188,13.188,0,0,1-4.676,5.152A14.456,14.456,0,0,1,169.694,35.118Zm16.338-10.01-1.106.462a46.924,46.924,0,0,0,2.03,4.312c-1.5,1.05-2.422,2.184-2.422,3.626,0,2.1,1.9,2.884,4.536,2.884a27.56,27.56,0,0,0,4.424-.35V34.8a20.831,20.831,0,0,1-4.48.476c-2.212,0-3.318-.728-3.318-1.89,0-1.064.784-1.988,2.086-2.828a46.511,46.511,0,0,1,4.256-2.324c.406-.21.756-.392,1.078-.588l-.616-.994a7.647,7.647,0,0,1-.994.658c-.77.42-2.282,1.162-3.6,1.96A30.148,30.148,0,0,1,186.032,25.108Zm21.336,1.554c-.14,1.4-.266,1.988-.476,2.17a.509.509,0,0,1-.42.126c-.224,0-.77-.014-1.358-.07a2.308,2.308,0,0,1,.28.9c.588.028,1.148.028,1.456.014a1.127,1.127,0,0,0,.826-.35c.322-.322.5-1.176.686-3.234a3.852,3.852,0,0,0,.042-.406h-3.472a12.322,12.322,0,0,0,.182-1.526h-.966a10.126,10.126,0,0,1-.182,1.526h-2.688v.854h2.45a4.334,4.334,0,0,1-3,2.688,2.627,2.627,0,0,1,.532.728,5.083,5.083,0,0,0,3.458-3.416ZM200.69,28.93v-.952h-1.652V24.3h-.98v3.682h-1.736v.952h1.736v8.12h.98V28.93Zm1.61,2.66c.028-.462.056-.952.07-1.442h-.91c-.014.49-.028.98-.056,1.442H199.99v.84h1.33a5.757,5.757,0,0,1-1.722,4.018,2.851,2.851,0,0,1,.588.644,6.871,6.871,0,0,0,2.03-4.662h1.12c-.084,2.52-.2,3.444-.364,3.682a.363.363,0,0,1-.336.14c-.168,0-.476,0-.868-.028a2.073,2.073,0,0,1,.224.826,8.027,8.027,0,0,0,1.036-.014.875.875,0,0,0,.686-.35c.28-.378.392-1.5.5-4.676.014-.14.014-.42.014-.42Zm4.578,0c.028-.462.056-.952.07-1.456h-.924c-.014.5-.028.994-.056,1.456H204.61v.84h1.274a5.4,5.4,0,0,1-1.82,3.962,2.651,2.651,0,0,1,.6.658c1.344-1.064,1.89-2.646,2.128-4.62h1.246c-.084,2.52-.182,3.43-.35,3.668-.084.126-.182.126-.35.126s-.532,0-.952-.028a2.844,2.844,0,0,1,.224.854,9.806,9.806,0,0,0,1.148-.014.919.919,0,0,0,.686-.35c.294-.378.392-1.5.49-4.676.014-.126.014-.42.014-.42Zm9.674-4.256V24.31h-1.078v3.024h-4.536V28.37h4.48a9.433,9.433,0,0,1-4.9,7.938,3.724,3.724,0,0,1,.8.826,10.3,10.3,0,0,0,5.18-8.764h4.774c-.266,4.928-.574,6.9-1.078,7.378a.8.8,0,0,1-.644.21c-.35,0-1.246-.014-2.2-.1a2.277,2.277,0,0,1,.35,1.064,18.1,18.1,0,0,0,2.24.042,1.538,1.538,0,0,0,1.19-.56c.616-.7.91-2.786,1.218-8.526.014-.154.028-.546.028-.546ZM7,49.2A1.484,1.484,0,1,0,8.484,50.68,1.476,1.476,0,0,0,7,49.2Zm17.71-4.48-.742.322a15.4,15.4,0,0,1,1.12,1.9l-.238-.14a2.77,2.77,0,0,1-.924.126h-3.78c.1-.168.2-.336.28-.49.14-.266.392-.742.63-1.106l-1.274-.406a5.056,5.056,0,0,1-.448,1.106,12.734,12.734,0,0,1-4.494,4.886l.938.714a15.479,15.479,0,0,0,3.71-3.7H24.22a11.828,11.828,0,0,1-1.9,3.878c-.98-.686-2.03-1.372-2.954-1.9l-.756.784c.9.56,1.974,1.288,2.968,2.016a12.063,12.063,0,0,1-5.418,3.36l1.008.882A13.429,13.429,0,0,0,22.5,53.4c.588.448,1.106.882,1.526,1.26l.826-.966c-.448-.364-.994-.784-1.6-1.218a14.87,14.87,0,0,0,2.2-4.368,4.4,4.4,0,0,1,.322-.742l-.658-.392.742-.336A19.841,19.841,0,0,0,24.71,44.716Zm1.54-.56-.742.308A14.718,14.718,0,0,1,26.67,46.4l.756-.336A18.412,18.412,0,0,0,26.25,44.156Zm2.954,6.79.56,1.092A27.654,27.654,0,0,0,35.1,49.756v5.18a12.987,12.987,0,0,1-.084,1.5h1.372a10.564,10.564,0,0,1-.084-1.5V49.028a22.9,22.9,0,0,0,3.78-3.122l-.938-.868a16.681,16.681,0,0,1-3.822,3.29A23.143,23.143,0,0,1,29.2,50.946ZM52.43,45.094l-.742.308a16,16,0,0,1,1.134,1.946l.756-.336A16.155,16.155,0,0,0,52.43,45.094Zm1.54-.56-.742.308a13.335,13.335,0,0,1,1.162,1.932l.756-.336A16.279,16.279,0,0,0,53.97,44.534Zm-9.2,7.252a18.389,18.389,0,0,1-2.156,3.808l1.19.5a20.3,20.3,0,0,0,2.058-3.85,30.7,30.7,0,0,0,1.274-4.382c.056-.294.168-.7.252-1.008l-1.246-.266A21.34,21.34,0,0,1,44.772,51.786Zm6.888-.532a41.952,41.952,0,0,1,1.582,4.816l1.246-.406c-.364-1.26-1.106-3.4-1.68-4.788a45.259,45.259,0,0,0-2.044-4.424l-1.134.378A35.8,35.8,0,0,1,51.66,51.254Zm5.488-1.316V51.31c.434-.042,1.176-.07,1.946-.07H66.78c.63,0,1.218.056,1.5.07V49.938c-.308.028-.812.07-1.512.07H59.094C58.31,50.008,57.568,49.966,57.148,49.938Zm16.506-4.69-.63.938c.826.476,2.338,1.484,3.01,1.988l.658-.952C76.09,46.774,74.48,45.71,73.654,45.248Zm-2.1,10.01.644,1.134a17.428,17.428,0,0,0,4.648-1.736,16.313,16.313,0,0,0,5.376-5.012L81.55,48.5a14.279,14.279,0,0,1-5.306,5.124A14.872,14.872,0,0,1,71.554,55.258ZM71.54,48.4l-.616.952a30.688,30.688,0,0,1,3.052,1.918l.644-.98C74,49.84,72.366,48.846,71.54,48.4ZM86.45,45.64V46.8c.35-.028.812-.042,1.274-.042H93.38c.406,0,.9.014,1.3.042V45.64a10.329,10.329,0,0,1-1.3.084H87.71A11.646,11.646,0,0,1,86.45,45.64Zm-1.68,3.514v1.162c.392-.028.8-.028,1.218-.028h4.2a6.778,6.778,0,0,1-.812,3.472A5.8,5.8,0,0,1,86.73,55.9l1.036.77a6.832,6.832,0,0,0,2.758-2.562,8.474,8.474,0,0,0,.826-3.822h3.808c.336,0,.784.014,1.092.028V49.154a7.505,7.505,0,0,1-1.092.07h-9.17A11.191,11.191,0,0,1,84.77,49.154Zm13.538,3.234.532,1.036a26.277,26.277,0,0,0,4.382-1.848V55.86c0,.434-.028,1.008-.056,1.232h1.288a7.379,7.379,0,0,1-.07-1.232V50.876a17.345,17.345,0,0,0,3.164-2.618l-.868-.84a13.835,13.835,0,0,1-3.332,2.856A19.082,19.082,0,0,1,98.308,52.388Zm16.6-7.28-1.106.462a46.92,46.92,0,0,0,2.03,4.312c-1.5,1.05-2.422,2.184-2.422,3.626,0,2.1,1.9,2.884,4.536,2.884a27.56,27.56,0,0,0,4.424-.35V54.8a20.831,20.831,0,0,1-4.48.476c-2.212,0-3.318-.728-3.318-1.89,0-1.064.784-1.988,2.086-2.828a46.509,46.509,0,0,1,4.256-2.324c.406-.21.756-.392,1.078-.588l-.616-.994a7.647,7.647,0,0,1-.994.658c-.77.42-2.282,1.162-3.6,1.96A30.148,30.148,0,0,1,114.912,45.108ZM125.8,50.946l.56,1.092a27.654,27.654,0,0,0,5.334-2.282v5.18a12.985,12.985,0,0,1-.084,1.5h1.372a10.564,10.564,0,0,1-.084-1.5V49.028a22.9,22.9,0,0,0,3.78-3.122l-.938-.868a16.681,16.681,0,0,1-3.822,3.29A23.143,23.143,0,0,1,125.8,50.946Zm15.974-5.208-.8.854a29.076,29.076,0,0,1,3.486,2.926l.882-.882A30.655,30.655,0,0,0,141.778,45.738Zm-1.2,9.38.742,1.148a15.346,15.346,0,0,0,5.5-2.17,13.988,13.988,0,0,0,4.7-4.984l-.672-1.19a13.188,13.188,0,0,1-4.676,5.152A14.456,14.456,0,0,1,140.574,55.118Zm19.544-10-1.3-.42a4.794,4.794,0,0,1-.434,1.106,11.541,11.541,0,0,1-4.4,4.732l.966.728a14.193,14.193,0,0,0,3.556-3.444h4.732A11.509,11.509,0,0,1,161,52.192a11.326,11.326,0,0,1-5.586,3.514l1.008.91a12.275,12.275,0,0,0,5.572-3.808,13.579,13.579,0,0,0,2.492-4.816,4.4,4.4,0,0,1,.322-.742l-.938-.574a2.343,2.343,0,0,1-.91.14h-3.794a6.289,6.289,0,0,0,.336-.588A10.586,10.586,0,0,1,160.118,45.122Zm13.4,10.584.742.616a3,3,0,0,1,.476-.322,13.918,13.918,0,0,0,4.774-3.878l-.658-.952a10.757,10.757,0,0,1-4.088,3.444V46.536a8.661,8.661,0,0,1,.056-1.036H173.53a6.645,6.645,0,0,1,.084,1.036v8.386A3.333,3.333,0,0,1,173.516,55.706Zm-6.412-.07,1.05.714a7.824,7.824,0,0,0,2.492-3.85,30.626,30.626,0,0,0,.434-5.95c0-.42.056-.84.07-1.008h-1.288a5.158,5.158,0,0,1,.1,1.022,24.992,24.992,0,0,1-.42,5.628A6.645,6.645,0,0,1,167.1,55.636Zm14.5-5.7V51.31c.434-.042,1.176-.07,1.946-.07h7.686c.63,0,1.218.056,1.5.07V49.938c-.308.028-.812.07-1.512.07h-7.672C182.77,50.008,182.028,49.966,181.608,49.938Zm22.316-4.382-.77.322a15.654,15.654,0,0,1,1.274,2.212l.8-.364A20.674,20.674,0,0,0,203.924,45.556Zm1.834-.672-.784.336a15.221,15.221,0,0,1,1.33,2.17l.8-.364A20.187,20.187,0,0,0,205.758,44.884Zm-7.812.462-.63.938c.812.476,2.338,1.484,3.01,2l.658-.966C200.382,46.886,198.772,45.808,197.946,45.346Zm-2.1,10.01.644,1.134a16.718,16.718,0,0,0,4.634-1.736,16.476,16.476,0,0,0,5.39-5l-.672-1.162a14.31,14.31,0,0,1-5.306,5.138A15.323,15.323,0,0,1,195.846,55.356Zm-.014-6.86-.63.952a30.93,30.93,0,0,1,3.066,1.918l.63-.98C198.3,49.952,196.658,48.944,195.832,48.5Zm15.19-.182v1.092c.252-.014,1.064-.042,1.428-.042h5.194v2.324h-5.068c-.476,0-.98-.028-1.246-.042v1.078c.28-.014.77-.028,1.26-.028h5.054v2.492H212a10.658,10.658,0,0,1-1.148-.056v1.12c.224,0,.714-.028,1.162-.028h5.628c0,.224,0,.434-.014.56h1.106c-.014-.2-.028-.532-.028-.756V49.056c0-.266,0-.56.014-.714-.182.014-.546.028-.854.028H212.45C212.086,48.37,211.288,48.342,211.022,48.314Zm14.056-2.576-.8.854a29.076,29.076,0,0,1,3.486,2.926l.882-.882A30.655,30.655,0,0,0,225.078,45.738Zm-1.2,9.38.742,1.148a15.346,15.346,0,0,0,5.5-2.17,13.988,13.988,0,0,0,4.7-4.984l-.672-1.19a13.188,13.188,0,0,1-4.676,5.152A14.456,14.456,0,0,1,223.874,55.118ZM7,69.2A1.484,1.484,0,1,0,8.484,70.68,1.476,1.476,0,0,0,7,69.2ZM19.488,66.1c.042.168.14.714.294,1.47-1.316.21-2.534.392-3.08.448-.448.056-.812.084-1.162.1l.238,1.26c.42-.1.742-.168,1.134-.238.532-.1,1.75-.294,3.08-.5.168.868.364,1.862.56,2.814-1.6.252-3.122.49-3.822.588-.364.056-.91.112-1.232.126l.252,1.218c.294-.084.686-.154,1.232-.252.686-.126,2.184-.378,3.766-.644.266,1.386.49,2.52.546,2.828.1.42.14.84.21,1.316l1.274-.238c-.126-.392-.238-.868-.336-1.274-.07-.322-.294-1.442-.574-2.814,1.372-.21,2.674-.42,3.444-.546.518-.084.966-.154,1.26-.182L26.348,70.4c-.308.084-.7.168-1.246.266-.7.126-2.03.364-3.444.588-.182-.938-.378-1.932-.56-2.8,1.344-.21,2.618-.42,3.262-.518.364-.056.8-.112,1.008-.14L25.13,66.62a8.781,8.781,0,0,1-.994.238c-.588.112-1.876.322-3.234.546-.168-.784-.266-1.358-.294-1.512-.042-.308-.112-.7-.126-.966l-1.26.224A6.559,6.559,0,0,1,19.488,66.1Zm13.9,1.33-1.2.294a3.479,3.479,0,0,1,.336.84c.084.266.252.868.462,1.61-.854.154-1.512.28-1.708.308-.42.07-.77.126-1.162.154l.28,1.064c.378-.084,1.526-.308,2.842-.574.546,2,1.218,4.48,1.4,5.11a7.818,7.818,0,0,1,.21,1.022l1.19-.308c-.084-.252-.224-.686-.308-.952-.182-.616-.868-3.08-1.428-5.1,1.946-.392,3.92-.784,4.242-.84a12.923,12.923,0,0,1-2.408,2.884l.994.49A19.367,19.367,0,0,0,40.11,69.35l-.7-.49a2.958,2.958,0,0,1-.532.168c-.476.112-2.856.574-4.83.952-.21-.742-.378-1.344-.462-1.652C33.5,67.978,33.432,67.67,33.39,67.432Zm19.474-2.058H51.548a10.044,10.044,0,0,1,.07,1.218V68.8c0,2.646-.168,3.78-1.162,4.942a6.418,6.418,0,0,1-3.346,1.862l.91.966a7.478,7.478,0,0,0,3.332-2.044c1.008-1.2,1.47-2.31,1.47-5.67V66.592C52.822,66.116,52.836,65.724,52.864,65.374Zm-6.5.112H45.094c.028.266.056.756.056,1.008v4.662a9.176,9.176,0,0,1-.07,1.078h1.288c-.028-.252-.056-.714-.056-1.064V66.494C46.312,66.158,46.34,65.752,46.368,65.486Zm22.666,1.05-.686-.658a6.914,6.914,0,0,1-.98.084H59.332a11.881,11.881,0,0,1-1.6-.126V67.11a15.644,15.644,0,0,1,1.6-.084h7.98a9.51,9.51,0,0,1-3.066,3.136l.924.742a13.5,13.5,0,0,0,3.486-3.864C68.754,66.886,68.936,66.676,69.034,66.536Zm-5.586,1.848h-1.26a8.416,8.416,0,0,1,.056,1.008c0,2.338-.308,4.326-2.478,5.656a4.822,4.822,0,0,1-1.26.63l1.036.84C63.112,74.74,63.448,72.178,63.448,68.384Zm11.928-2.7v1.134H72.31V65.682Zm-3.066,3.08v-1.2h3.066v1.2Zm4.046.8V64.884H71.288V77.078H72.31V69.56Zm-.392,3.248V71.3h1.96v1.512Zm4.788.882v-.882h-1.9V71.3h1.6v-.854h-6.9V71.3h1.512v1.512H73.276v.882h1.75a3.523,3.523,0,0,1-1.652,2.688,3.645,3.645,0,0,1,.686.616,4.49,4.49,0,0,0,1.876-3.3h1.988v3.122h.924V73.69Zm-2.17-4.914V67.558H81.76v1.218Zm3.178-3.094v1.134H78.582V65.682Zm1.022-.8H77.588v4.69H81.76v6.132c0,.224-.07.308-.294.308S80.5,76.028,79.73,76a3.439,3.439,0,0,1,.336,1.036,6.5,6.5,0,0,0,2.17-.182c.406-.182.546-.518.546-1.134Zm9.352,7.406H89.7V70.2h2.436ZM94.822,70.2v-.532a8.906,8.906,0,0,0,2,1.218,4.292,4.292,0,0,1,.714-.868A9.1,9.1,0,0,1,94.92,68.4a22.473,22.473,0,0,0,2.2-1.806l-.784-.56a17.221,17.221,0,0,1-2,1.806,11.221,11.221,0,0,1-.91-1.078A18.56,18.56,0,0,0,95.48,65l-.784-.56A17.961,17.961,0,0,1,92.974,66.1a10.377,10.377,0,0,1-.882-1.764l-.9.266a12.065,12.065,0,0,0,3.122,4.634h-6.58a9.769,9.769,0,0,0,2.912-4.06l-.686-.336-.182.042h-3.99v.924h3.472a9.806,9.806,0,0,1-1.3,1.848,19.468,19.468,0,0,0-1.694-1.372l-.644.546A14.84,14.84,0,0,1,87.3,68.3a9.683,9.683,0,0,1-2.842,1.82,5.632,5.632,0,0,1,.644.784,11.471,11.471,0,0,0,2.086-1.232V70.2h1.47V72.29h-3.22v.966H88.55c-.252,1.162-1.05,2.268-3.388,3.052a4.063,4.063,0,0,1,.658.826c2.744-.952,3.57-2.38,3.794-3.878h2.52V75.5c0,1.148.308,1.456,1.484,1.456h1.834c1.022,0,1.316-.49,1.414-2.268a2.868,2.868,0,0,1-.938-.434c-.056,1.5-.126,1.778-.56,1.778h-1.6c-.476,0-.56-.084-.56-.518V73.256H96.53V72.29H93.212V70.2Zm15.89.9a5.073,5.073,0,0,0-5.362-5.152,5.967,5.967,0,0,0-6.118,5.7c0,2.31,1.246,3.738,2.492,3.738,1.3,0,2.408-1.47,3.262-4.354a27.541,27.541,0,0,0,.84-4.032,3.9,3.9,0,0,1,3.738,4.06,4.228,4.228,0,0,1-3.556,4.158,10.576,10.576,0,0,1-1.2.182l.658,1.036C108.78,76,110.712,74.04,110.712,71.1Zm-10.388.448a4.883,4.883,0,0,1,4.34-4.536,22.874,22.874,0,0,1-.784,3.78c-.714,2.366-1.456,3.3-2.114,3.3C101.136,74.1,100.324,73.312,100.324,71.548Zm21.756-1.974v-.5h1.54c.616,0,1.134.028,1.288.042V67.936a10.3,10.3,0,0,1-1.288.07h-1.54v-1.75a10.614,10.614,0,0,1,.07-1.148h-1.26a7.8,7.8,0,0,1,.07,1.148v1.75h-3.99V66.214a8.641,8.641,0,0,1,.07-1.022h-1.246a8.646,8.646,0,0,1,.056,1.022v1.792h-1.512a10.263,10.263,0,0,1-1.4-.1v1.218c.168-.014.8-.056,1.4-.056h1.512v2.268c0,.532-.042,1.134-.056,1.274h1.232c-.014-.14-.056-.756-.056-1.274V69.07h3.99v.588c0,3.92-1.274,5.124-3.822,6.1l.938.882C121.282,75.216,122.08,73.3,122.08,69.574Zm14.49-3.92a.89.89,0,0,1,.882-.9.9.9,0,1,1,0,1.792A.881.881,0,0,1,136.57,65.654Zm-.644,0a1.533,1.533,0,0,0,3.066,0,1.533,1.533,0,1,0-3.066,0Zm-2.338-.448h-1.316a5.077,5.077,0,0,1,.1.994v1.442h-3.892a10.472,10.472,0,0,1-1.19-.07v1.176c.378-.028.77-.042,1.19-.042h3.892V75.02c0,.364-.168.532-.546.532a9.958,9.958,0,0,1-1.61-.168l.1,1.12c.56.056,1.4.1,1.988.1.84,0,1.2-.378,1.2-1.12V68.706h3.71c.336,0,.756,0,1.134.028V67.572a10.743,10.743,0,0,1-1.148.07h-3.7V66.214A6.634,6.634,0,0,1,133.588,65.206ZM136.36,70.4l-.952.5a23.261,23.261,0,0,1,2.338,3.724l1.036-.574A30.032,30.032,0,0,0,136.36,70.4Zm-5.852.462-.98-.476a14.948,14.948,0,0,1-2.674,3.668l.966.644A20.29,20.29,0,0,0,130.508,70.862Zm10.92-.924V71.31c.434-.042,1.176-.07,1.946-.07h7.686c.63,0,1.218.056,1.5.07V69.938c-.308.028-.812.07-1.512.07h-7.672C142.59,70.008,141.848,69.966,141.428,69.938Zm17.29,4.83a12.334,12.334,0,0,1-.1,1.652h1.358c-.056-.462-.084-1.218-.084-1.652,0-.406,0-2.52-.014-4.62a36.7,36.7,0,0,1,5.5,2.254l.476-1.19a44.747,44.747,0,0,0-5.978-2.31V66.62c0-.42.056-1.022.1-1.456h-1.372a8.836,8.836,0,0,1,.112,1.456ZM7,89.2A1.484,1.484,0,1,0,8.484,90.68,1.476,1.476,0,0,0,7,89.2Zm15.876,2.6v1.442H20.748V91.8Zm3.178,1.442h-2.24V91.8h2.24Zm-2.24,2.31v-1.5h2.24v1.5Zm-3.066-1.5h2.128v1.5H20.748ZM19.8,91.786c-.294-.294-1.3-1.218-1.792-1.6a12.948,12.948,0,0,0,1.624-2.954l-.574-.378-.2.042h-1.12V84.3H16.73v2.6h-1.9v.952H18.34a12.159,12.159,0,0,1-4.018,4.592,4.669,4.669,0,0,1,.532.938A11.757,11.757,0,0,0,16.73,91.73v5.306h1.008V91.044c.518.518,1.176,1.232,1.47,1.61l.588-.84v5.25h.952v-.658h5.306v.616h.994v-6.1H19.8Zm5.642-2.59h-3.99V87.642h3.99ZM20.524,86.8v3.22H26.4V86.8Zm-.784-1.834v.9h7.392v-.9Zm12.936.938a17.084,17.084,0,0,0,2.52-.742l-.77-.8a27.324,27.324,0,0,1-5.782,1.358,2.979,2.979,0,0,1,.322.826c.868-.126,1.792-.266,2.7-.434v2.366H28.742v.952h2.716a14.557,14.557,0,0,1-3.024,4.732,6.751,6.751,0,0,1,.574.966A15.019,15.019,0,0,0,31.668,91v6.034h1.008V91.52c.714.658,1.61,1.554,2.03,2.016l.6-.854c-.406-.364-2-1.736-2.632-2.226V89.434H35.35v-.952H32.676Zm4.62.042H36.288v7.658H37.3ZM39.7,84.562v11.13c0,.266-.112.35-.364.35s-1.148.014-2.128-.014a4.139,4.139,0,0,1,.378,1.05,9.513,9.513,0,0,0,2.52-.182c.434-.182.63-.5.63-1.218V84.562ZM55.16,85.976v-.952H43.876V89.1c0,2.2-.1,5.25-1.344,7.42a4.564,4.564,0,0,1,.882.518c1.3-2.254,1.484-5.614,1.484-7.924V85.976ZM47.152,89h5.614v.938H47.152Zm0-1.582h5.614v.91H47.152Zm6.636,3.234V86.718H46.172v3.934Zm1.54,3.066H50.6v-.14a12.955,12.955,0,0,0,3.36-1.652l-.616-.532-.224.042H46.13v.756h5.838a14.555,14.555,0,0,1-1.638.742h-.756v.784H45v.84h4.578V96c0,.182-.07.224-.294.238s-1.064.014-1.946-.014a4.123,4.123,0,0,1,.364.854,9.61,9.61,0,0,0,2.324-.14c.448-.126.574-.378.574-.91v-1.47h4.732Zm8.232,1.9V92.066h4.494V91.058H63.56V88.006h5.012V86.984H63.56V84.3H62.5v2.688H59.654a19.217,19.217,0,0,0,.784-2.24l-1.05-.224a12.763,12.763,0,0,1-2.59,5.152,6.971,6.971,0,0,1,.952.616,12.561,12.561,0,0,0,1.456-2.282H62.5v3.052H58.338v1.008H62.5v3.556h-5.67V96.63h12.4V95.622ZM74.312,85.108l-1.106.462a46.921,46.921,0,0,0,2.03,4.312c-1.5,1.05-2.422,2.184-2.422,3.626,0,2.1,1.9,2.884,4.536,2.884a27.56,27.56,0,0,0,4.424-.35V94.8a20.831,20.831,0,0,1-4.48.476c-2.212,0-3.318-.728-3.318-1.89,0-1.064.784-1.988,2.086-2.828a46.507,46.507,0,0,1,4.256-2.324c.406-.21.756-.392,1.078-.588l-.616-.994a7.647,7.647,0,0,1-.994.658c-.77.42-2.282,1.162-3.6,1.96A30.148,30.148,0,0,1,74.312,85.108Zm21.462,1.2v1.05h-1.61v-1.05Zm0,2.954h-1.61V88.174h1.61Zm-2.562-1.9H90.23v.812h2.982v1.092H91.168v.8h2.044v1.064H90.944v.812h2.268v1.092H90.538v.8h2.674v1.61h.952V93.83h3.08v-.8h-3.08V91.94h2.674v-.812H94.164V90.064H96.67v-1.89h.84v-.812h-.84V85.5H94.164V84.394h-.952V85.5H91.168v.812h2.044Zm-6.132-3a14.844,14.844,0,0,1-2.73,5.376c.154.252.42.812.518,1.036A12.592,12.592,0,0,0,86.1,89.014v8.022h.924V87.208a21.392,21.392,0,0,0,.98-2.59Zm3.08,4.942-.154.028H88.942c.588-1.316,1.176-2.716,1.6-3.752l-.658-.2-.168.056h-1.9v.868h1.47c-.49,1.218-1.246,2.968-1.876,4.27l.868.21.308-.658h1.19a13.571,13.571,0,0,1-.728,3.248,9.482,9.482,0,0,1-.644-2.114l-.812.252a9.781,9.781,0,0,0,1.008,2.9,5.141,5.141,0,0,1-1.512,1.834,5.031,5.031,0,0,1,.616.756,5.836,5.836,0,0,0,1.484-1.736c1.05,1.19,2.492,1.54,4.466,1.54h3.542a3.241,3.241,0,0,1,.35-.952c-.588.014-3.416.014-3.85.014-1.778,0-3.122-.336-4.046-1.512A15.932,15.932,0,0,0,90.72,89.42Zm10.528-2.814H111.23V85.57h-5.292V84.3h-1.064V85.57H99.708v4.1c0,2.044-.112,4.886-1.218,6.888a3.145,3.145,0,0,1,.84.56c1.19-2.114,1.358-5.264,1.358-7.448Zm3.724,7.826c-1.386.532-2.814,1.05-3.766,1.358l.49.84c.994-.392,2.254-.924,3.458-1.428Zm-3.024-1.554a11.935,11.935,0,0,1,2.03,1.5l.63-.63a13.647,13.647,0,0,0-2.072-1.442Zm4.886-2.6h2.758v1.106h-2.758Zm0-1.806h2.758v1.022h-2.758Zm3.738,3.668V90.162H111.4v-.784h-1.386V87.586h-3.738v-.98h-.994v.98H102v.77h3.276v1.022h-4.242v.784h4.242v1.106h-3.374v.756h3.374v3.85c0,.238-.07.308-.322.308s-1.078.028-1.946,0a4.075,4.075,0,0,1,.322.9,9.282,9.282,0,0,0,2.338-.154c.434-.14.6-.406.6-1.05v-2.6a7.252,7.252,0,0,0,4.2,3.64,3.3,3.3,0,0,1,.644-.812,6.757,6.757,0,0,1-2.94-1.694,21.523,21.523,0,0,0,2.45-1.526l-.784-.616a16.759,16.759,0,0,1-2.2,1.554,6.888,6.888,0,0,1-1.036-1.792Zm12.74,2.408V95.79h-6.566V94.432Zm-.9-3.752v1.19h-5.67V90.68Zm-5.67,1.988h6.692V89.882h-7.672v7.2h.98V96.6h6.566v.448h1.022V93.62h-7.588Zm9.17-7.322H120.61a7.35,7.35,0,0,0,.434-.882l-.994-.238a6.57,6.57,0,0,1-1.232,1.932v-.812H115.15a6.968,6.968,0,0,0,.406-.868l-.966-.252a7.67,7.67,0,0,1-2.016,2.912,6.43,6.43,0,0,1,.854.56,9.546,9.546,0,0,0,1.2-1.484h.6a8.824,8.824,0,0,1,.658,1.428l.924-.28a6.354,6.354,0,0,0-.546-1.148h2.492a5.607,5.607,0,0,1-.868.77,5.081,5.081,0,0,1,.574.322v.882H113.19v2.618h.98V89.014h9.73v1.792h1.008V88.188h-5.446V87.1h-.21a9.743,9.743,0,0,0,.784-.882h1.12a6.5,6.5,0,0,1,.938,1.47l.952-.322a6.964,6.964,0,0,0-.756-1.148h3.066Zm5.586,7.84-1.526.5V90.218h1.4v-.966h-1.4V86.214h1.61v-.98h-4.34v.98h1.736v3.038H126.84v.966h1.582V94c-.714.238-1.358.434-1.876.588l.238,1.05c1.246-.406,2.842-.952,4.34-1.456Zm1.722-4.718h2.128v1.778h-2.128Zm0-2.632h2.128V87.6h-2.128ZM137.83,87.6h-2.142V85.836h2.142Zm0,2.646h-2.142V88.468h2.142Zm-2.058,5.418V93.746h3.262v-.952h-3.262V91.156h3.052v-6.23h-7.112v6.23h3.01v1.638h-3.178v.952h3.178v1.918h-4.256v.952h9.016v-.952Z" transform="translate(740 2186.538)" fill="#164b99"/><path d="M-64.176-13.524a12.111,12.111,0,0,0-2.478-3.423l-1.2.609a11.751,11.751,0,0,1,2.373,3.465Zm-8.736-1.386h-4.116v-2.667h-1.554v2.667h-4.242v1.428h9.912Zm-8.379,9.66A11.306,11.306,0,0,1-83.244-.84a6.619,6.619,0,0,1,1.2.9,14.3,14.3,0,0,0,2.184-5.019Zm1.05-5.271h4.872v2.814h-4.872Zm6.363,4.158v-5.481H-81.69v5.481H-78.5V-.189c0,.231-.084.294-.336.315-.273.021-1.071.021-2.016,0a5.632,5.632,0,0,1,.5,1.407A7.742,7.742,0,0,0-77.7,1.281c.546-.252.672-.693.672-1.449V-6.363Zm.693,4.452A15.5,15.5,0,0,0-74.7-5.439L-75.936-5a17.963,17.963,0,0,1,1.449,3.57ZM-66.843,0a.951.951,0,0,1-.567-.147.415.415,0,0,1-.189-.4V-9.534h-1.05c.021-.357.063-.693.084-1.029h4.578v-1.491h-4.536c.021-.4.021-.777.021-1.155v-4.368h-1.512v4.389c0,.357,0,.735-.021,1.134h-3.024v1.491H-70.1c-.231,3.7-1.2,8.043-4.788,11.3a6.264,6.264,0,0,1,1.344.9A15.569,15.569,0,0,0-69.027-6.93V-.609c0,1.071.105,1.407.462,1.722A2.5,2.5,0,0,0-67.2,1.47h1.323a3.106,3.106,0,0,0,1.239-.231,1.566,1.566,0,0,0,.714-.966,17.68,17.68,0,0,0,.189-2.835,3.688,3.688,0,0,1-1.2-.651,18.654,18.654,0,0,1-.084,2.541.716.716,0,0,1-.315.546A1.437,1.437,0,0,1-65.982,0Zm17.472-12.516a19.2,19.2,0,0,1-1.071,2.184l.21.063h-4.935l.672-.147a8.9,8.9,0,0,0-1.05-2.1Zm6.027,9.135V-4.7h-8.421V-6.258h6.573v-1.2h-6.573V-8.988h7.6v-1.281H-48.93c.42-.63.882-1.449,1.3-2.247h4.2V-13.86h-3.255a29.365,29.365,0,0,0,1.848-3.024l-1.6-.42a23.824,23.824,0,0,1-1.6,3.192l.777.252h-2.541v-3.717h-1.47v3.717h-2.5v-3.717h-1.449v3.717h-2.583l1.071-.4a14.475,14.475,0,0,0-1.785-3.087l-1.323.441A16.369,16.369,0,0,1-58.17-13.86h-3.339v1.344h5.124l-.735.147a8.818,8.818,0,0,1,1.029,2.1h-4.578v1.281H-53.3v1.533h-6.321v1.2H-53.3V-4.7h-8.295v1.323h6.867A20.239,20.239,0,0,1-62.139-.063,6.688,6.688,0,0,1-61.131,1.26,21.1,21.1,0,0,0-53.3-2.877V1.6h1.533V-2.982a19.825,19.825,0,0,0,7.9,4.305,5.615,5.615,0,0,1,1.05-1.386,19.214,19.214,0,0,1-7.5-3.318Zm11.277-7.476v-2.688H-27.4A33.2,33.2,0,0,1-30.6-10.857Zm5.691,6.993h-8.505V-5.943h8.505ZM-34.881-.441V-2.625h8.505V-.441ZM-22.218-9.45v-1.407h-6.048a31.851,31.851,0,0,0,5.1-5.271l-1.323-.714A24.6,24.6,0,0,1-26.88-14.07v-.861h-5.187v-2.625H-33.6v2.625h-5.355v1.386H-33.6v2.688h-7.182V-9.45h8.169a41.439,41.439,0,0,1-8.631,4.158,9.1,9.1,0,0,1,.987,1.281c1.281-.483,2.583-1.05,3.843-1.659V1.6h1.533V.924h8.505v.588h1.6V-7.266h-8.673c1.155-.672,2.289-1.407,3.381-2.184Zm20.286,2.1c0-4.263-3.129-7.728-8.043-7.728-5.124,0-9.177,3.99-9.177,8.547,0,3.465,1.869,5.607,3.738,5.607,1.953,0,3.612-2.205,4.893-6.531A41.31,41.31,0,0,0-9.261-13.5a5.848,5.848,0,0,1,5.607,6.09c0,3.633-2.646,5.628-5.334,6.237A15.863,15.863,0,0,1-10.794-.9L-9.807.651C-4.83,0-1.932-2.94-1.932-7.35Zm-15.582.672a7.325,7.325,0,0,1,6.51-6.8,34.311,34.311,0,0,1-1.176,5.67c-1.071,3.549-2.184,4.956-3.171,4.956C-16.3-2.856-17.514-4.032-17.514-6.678Zm29.085-7.266a14.48,14.48,0,0,0-1.659-3.57l-1.365.441A14.188,14.188,0,0,1,10.1-13.419Zm-5,.1A15.084,15.084,0,0,0,4.3-17.157l-1.323.63A14.488,14.488,0,0,1,5.166-13.1Zm3.843,5.964c.105-.945.189-1.974.231-3.066H8.967c-.042,1.113-.105,2.121-.189,3.066H2.9v1.47H8.547C7.9-3.087,6.195-.945,1.176.231a4.642,4.642,0,0,1,.9,1.386C7.665.21,9.513-2.436,10.206-6.405h5.88c-.21,4.2-.5,5.9-.966,6.363-.21.21-.462.231-.924.231-.483,0-1.911-.021-3.339-.147a3.529,3.529,0,0,1,.525,1.512,34.061,34.061,0,0,0,3.444.063A2.146,2.146,0,0,0,16.464.945c.672-.714.966-2.772,1.239-8.106.021-.231.021-.714.021-.714ZM15.6-13.083a42.674,42.674,0,0,0,2.73-3.717l-1.659-.567a26.535,26.535,0,0,1-2.625,4.1l.462.189H1.806v4.431H3.318v-3H17.745v3H19.3v-4.431Zm20.664,2.331c0,2.982-.189,6.573-1.785,9.6-1.029.1-2.058.21-3.045.294V-2.5h3.276V-3.717H31.437V-5.061H34.65v-6.111H31.458V-12.5h3.255v1.155h1.554ZM28.119-7.644H30.2v1.533H28.119Zm0-2.478H30.2v1.491H28.119Zm3.213,1.491v-1.491h2.184v1.491Zm0,2.52V-7.644h2.184v1.533Zm6.3-6.615v-4.746H36.267v4.746H34.8v-.987H31.458v-1.449a28.007,28.007,0,0,0,3.255-.567l-.84-1.134a54.312,54.312,0,0,1-7.245,1.008c.147-.4.273-.819.4-1.218l-1.386-.378A24.45,24.45,0,0,1,21.525-9.03,10.932,10.932,0,0,1,22.3-7.455a22.208,22.208,0,0,0,1.848-2.793V1.617h1.407v-14.7q.6-1.354,1.071-2.772a4.357,4.357,0,0,1,.378,1.113c.987-.063,2.037-.147,3.087-.252v1.281H26.754V-12.5h3.339v1.323H27.027v6.111h3.066v1.344H26.964V-2.5h3.129V-.735L26.439-.4,26.691.924C28.644.693,31.185.42,33.726.1c-.189.273-.4.525-.609.777a4.915,4.915,0,0,1,1.155.819c2.961-3.507,3.36-8.421,3.36-12.453v-.588h1.89c-.168,7.833-.357,10.563-.756,11.151a.607.607,0,0,1-.63.336c-.357,0-1.071-.021-1.89-.084a3.339,3.339,0,0,1,.378,1.365,11.6,11.6,0,0,0,2.1,0A1.465,1.465,0,0,0,39.963.693c.588-.84.735-3.7.924-12.684,0-.189.021-.735.021-.735Zm22.155-.966H57.75v-2.037h2.037Zm-3.15,0h-2v-2.037h2Zm-3.108,0H51.6v-2.037h1.932Zm7.6-3.192H50.295v4.326H61.131ZM49.749-4.956l-2.73.777V-8.694H49.2v-1.365H47.019V-14.7h2.5v-1.407h-6.51V-14.7h2.6v4.641H43.239v1.365h2.373V-3.78c-1.05.294-2.037.567-2.835.756l.378,1.47c1.911-.546,4.41-1.281,6.762-2.016ZM52.017-7.77H59.2v2.121H52.017ZM60.48-4.263a25.02,25.02,0,0,1-2.751,1.848,8.559,8.559,0,0,1-1.344-2.037h4.284V-8.946H50.631v4.494h3.78a20.285,20.285,0,0,1-6.573,3.7A6.671,6.671,0,0,1,48.762.357,23.265,23.265,0,0,0,53.55-2.226V1.6h1.491v-5c.126-.105.252-.231.378-.336A10.164,10.164,0,0,0,61.089,1.6,6.073,6.073,0,0,1,62.1.357a9.235,9.235,0,0,1-3.591-1.974,22.436,22.436,0,0,0,3.087-1.827ZM49.329-11.4v1.3h12.81v-1.3Zm29.8-3.255a24.294,24.294,0,0,1-1.008,2.247l.651.168H74.319l.861-.231a8.469,8.469,0,0,0-.9-2.184ZM70.5-6.216c-.819.378-1.638.756-2.436,1.113V-11h2.163v.063H83.076v-1.3H79.527c.357-.588.735-1.386,1.134-2.142l-1.155-.273h3.087v-1.281H77.364v-1.6H75.852v1.6H70.917v1.281h3l-.987.252a10.555,10.555,0,0,1,.819,2.163H70.266v-.231H68.061v-4.872H66.612v4.872H64.176V-11h2.436v6.552c-1.071.462-2.037.882-2.835,1.176l.567,1.554,6.489-3.087Zm2.688.021h7.182v1.554H73.185Zm0-2.583h7.182v1.554H73.185Zm6.426,8.9c-.5,0-.588-.084-.588-.546V-3.549H81.9V-9.87H71.715v6.321h2.1c-.462,1.953-1.6,3.171-5,3.864a5.081,5.081,0,0,1,.882,1.3c3.78-.924,5.124-2.583,5.649-5.166h2.184V-.4c0,1.449.357,1.848,1.89,1.848h2.037C82.7,1.449,83.1.9,83.244-1.428a4.1,4.1,0,0,1-1.323-.546c-.042,1.848-.147,2.1-.63,2.1ZM-33.978,13.158h-6.048v1.26h6.048Zm.777,2.751h-7.917V17.19H-33.2Zm-2.1,9.7v3.528h-3.507V25.611Zm1.365-1.281h-6.237v7.035h1.365V30.4h4.872Zm-6.195-1.554h6.216v-1.26h-6.216Zm0-2.793h6.216V18.744h-6.216Zm18.27,2.625H-26.88v-7.56h4.6V13.6H-32.76v1.449h4.347v7.56h-5.166v1.47h5.166v7.5h1.533v-7.5h5.019Zm-10.4-6.069A25.314,25.314,0,0,1-31.164,21.7l1.344-.336A24.007,24.007,0,0,0-31,16.2Zm7.854,5.145a54.281,54.281,0,0,0,1.68-5.271l-1.47-.378A38.133,38.133,0,0,1-25.6,21.327Zm8.778-9.2a23.2,23.2,0,0,1-4.893,8.169,12.1,12.1,0,0,1,.861,1.47A21.531,21.531,0,0,0-17.7,19.689V31.575h1.491v-14.3A33.93,33.93,0,0,0-14.2,12.927Zm9.03,6.888H-8.988V15.951h2.394Zm3.8,9.135H-5.229V20.781h2.436Zm-9.891-7.728h2.331v7.728h-2.331Zm6.09,0v7.728H-8.988V20.781Zm5.481-4.83V14.544H-14.385v1.407h3.927v3.423h-3.654V31.26h1.428V29.9h9.891v1.239h1.512V19.374H-5.1V15.951ZM11.235,27.5h4.389V26.22H11.235V24.456H9.681V26.22H5.4V27.5H9.681v2.2H2.646v1.323H18.48V29.706H11.235ZM6.72,20.97h7.623v1.491H6.72Zm7.623-5.208v1.407H6.72V15.762ZM6.72,18.345h7.623v1.449H6.72Zm13.251,5.439V22.461H15.918v-6.7h3.15v-1.3h-3.15V12.444H14.343V14.46H6.72V12.444H5.187V14.46H2v1.3H5.187v6.7H1.029v1.323H5.565A12.194,12.194,0,0,1,.819,27.291a5.452,5.452,0,0,1,1.008,1.2,14.367,14.367,0,0,0,5.481-4.7h6.573a12.84,12.84,0,0,0,5.334,4.431,6.1,6.1,0,0,1,1.029-1.2,11.61,11.61,0,0,1-4.725-3.234Zm13.755-6.258h-3.4V15.993h3.4Zm0,2.667h-3.4V18.7h3.4Zm0,2.772h-3.4v-1.6h3.4Zm-4.893,1.26h11.7v-1.26H35.2v-1.6h4.2V20.193H35.2V18.7h4.158V17.526H35.2V15.993h4.767v-1.26H35.322c.378-.609.8-1.3,1.176-1.974l-1.659-.315a22.2,22.2,0,0,1-1.092,2.289H30.828A16.4,16.4,0,0,0,31.92,12.78l-1.491-.441a14.845,14.845,0,0,1-4.242,5.355,10.31,10.31,0,0,1,1.218,1.071,14.972,14.972,0,0,0,1.428-1.407Zm-5.229.714c1.26-1.365,2.667-2.982,3.864-4.452l-.84-1.05a49.175,49.175,0,0,1-4.116,4.305Zm4.032-10.815a16.929,16.929,0,0,0-3.381-1.575l-.777,1.071a18.244,18.244,0,0,1,3.339,1.722ZM26.082,17.4a18.679,18.679,0,0,0-3.4-1.407L21.9,17.085a17.24,17.24,0,0,1,3.4,1.554Zm14.826,8.694H32.214V24.372H30.639v1.722H22.176V27.5h8.463v4.116h1.575V27.5h8.694Z" transform="translate(1114 2180.538)" fill="#164b99"/><g transform="translate(-3 229.538)"><path d="M908.112,1762.686l-.618-.786,58.17-45.773h187.868v1H966.01Z" fill="#164b99"/><circle cx="3" cy="3" r="3" transform="translate(905 1759)" fill="#164b99"/></g><g transform="translate(820.652 2248.352)"><path d="M1095.671,1762.793H826.115v-1h269.21l57.9-45.559.618.786Z" transform="translate(-907.803 -1713.919)" fill="#164b99"/><circle cx="3" cy="3" r="3" transform="translate(242.532)" fill="#164b99"/></g><circle cx="76" cy="76" r="76" transform="translate(882 2009.038)" fill="url(#d)"/><text transform="translate(958 2110.725)" fill="#fff" font-size="12" font-family="NotoSansJP-Regular, Noto Sans JP"><tspan x="-48" y="0">職業技能専門教育</tspan><tspan x="-24" y="16">研究機構</tspan></text><g transform="translate(-86 330.917)"><path d="M80.962.177a15.88,15.88,0,1,0,15.88,15.88A15.881,15.881,0,0,0,80.962.177m7.112,20.681a8.586,8.586,0,1,1,1.468-4.8,8.588,8.588,0,0,1-1.468,4.8" transform="translate(999.38 1726.144)" fill="#fff"/><path d="M79.583,10.891a3.788,3.788,0,1,1-3.788,3.788,3.789,3.789,0,0,1,3.788-3.788" transform="translate(1000.759 1727.523)" fill="#fff" fill-rule="evenodd"/><path d="M36.305,21.638a3.788,3.788,0,1,1-3.788,3.788,3.789,3.789,0,0,1,3.788-3.788" transform="translate(995.187 1728.907)" fill="#fff" fill-rule="evenodd"/><path d="M54.054,20.575A10.941,10.941,0,0,0,58.989,17c2.908-3.75,2.475-10.354-.841-13.67Q54.919.106,48.868.1H32.7V22.989h7.144V6.428h8.436a6.422,6.422,0,0,1,4.048,1.137c2,1.564,1.912,5.146.069,6.778a5.819,5.819,0,0,1-3.98,1.228h-5.54L53.644,31.947h8.188Z" transform="translate(995.21 1726.134)" fill="#fff" fill-rule="evenodd"/><path d="M25.451,3.229Q22.222,0,16.17,0H0V31.961H7.144V6.323H15.58A6.422,6.422,0,0,1,19.628,7.46a4.138,4.138,0,0,1,1.465,3.133c0,.051,0,.1,0,.152s0,.1,0,.151a4.14,4.14,0,0,1-1.465,3.135,5.023,5.023,0,0,1-1.832.874,5.8,5.8,0,0,1-.205,6.538,11.824,11.824,0,0,0,7.861-3.182,10.657,10.657,0,0,0,2.769-7.515,10.662,10.662,0,0,0-2.769-7.516" transform="translate(991 1726.121)" fill="#fff" fill-rule="evenodd"/><path d="M11.833,12.611A3.788,3.788,0,1,1,8.045,16.4a3.789,3.789,0,0,1,3.788-3.788" transform="translate(992.036 1727.745)" fill="#fff" fill-rule="evenodd"/></g></g></g></svg>