<svg xmlns="http://www.w3.org/2000/svg" xmlns:xlink="http://www.w3.org/1999/xlink" width="90" height="90" viewBox="0 0 90 90">
  <defs>
    <clipPath id="clip-path">
      <rect id="長方形_504" data-name="長方形 504" width="70.832" height="89.196" fill="none"/>
    </clipPath>
  </defs>
  <g id="グループ_870" data-name="グループ 870" transform="translate(-241 -2814.741)">
    <rect id="長方形_503" data-name="長方形 503" width="90" height="90" transform="translate(241 2814.741)" fill="none"/>
    <g id="グループ_644" data-name="グループ 644" transform="translate(251.397 2815)">
      <g id="グループ_643" data-name="グループ 643" clip-path="url(#clip-path)">
        <path id="パス_931" data-name="パス 931" d="M24.46,134.7l3.42-15.875a1.228,1.228,0,0,1,1.687-.849l4.588,2a1.729,1.729,0,0,1,.85.8l4.9,9.631" transform="translate(-11.075 -53.375)" fill="none" stroke="#164b99" stroke-linecap="round" stroke-linejoin="round" stroke-width="2"/>
        <line id="線_87" data-name="線 87" x1="1.667" y2="20.508" transform="translate(7.271 61.078)" fill="none" stroke="#164b99" stroke-linecap="round" stroke-linejoin="round" stroke-width="2"/>
        <path id="パス_932" data-name="パス 932" d="M10.2,72.221,6.138,85.793a2.594,2.594,0,0,1-5.03-1.247L3.605,71.9c1.4-6.3,4.355-9.5,9.556-9.142a10.206,10.206,0,0,1,4.71,1.474,6.2,6.2,0,0,1,2.871,5.227v8.911l.034.169V82.97a2.2,2.2,0,0,0,1,1.846L28.219,89a1.887,1.887,0,0,1,.716.863L34.5,103.388" transform="translate(-0.479 -28.406)" fill="none" stroke="#164b99" stroke-linecap="round" stroke-linejoin="round" stroke-width="2"/>
        <path id="パス_933" data-name="パス 933" d="M43.859,70.3l8.84,7.027a2.683,2.683,0,0,1-3.071,4.388l-6.054-3.708" transform="translate(-19.73 -31.832)" fill="none" stroke="#164b99" stroke-linecap="round" stroke-linejoin="round" stroke-width="2"/>
        <circle id="楕円形_73" data-name="楕円形 73" cx="6.437" cy="6.437" r="6.437" transform="matrix(0.983, -0.181, 0.181, 0.983, 6.801, 18.931)" fill="none" stroke="#164b99" stroke-linecap="round" stroke-linejoin="round" stroke-width="2"/>
        <path id="パス_934" data-name="パス 934" d="M49.281,59.984,59.633,48.377l11.1,12.77L60.1,61.094v.723c0,24.39-20.926,46.63-46.691,46.564-7.261-.018-12.412.01-12.412.126H13.553c25.728,0,46.586-22.232,46.586-46.586" transform="translate(-0.453 -21.905)" fill="none" stroke="#164b99" stroke-linecap="round" stroke-linejoin="round" stroke-width="2"/>
        <path id="パス_935" data-name="パス 935" d="M63.887,143.3c10.372-5.4,18.676-12.752,24.331-22.6" transform="translate(-28.928 -54.656)" fill="none" stroke="#164b99" stroke-linecap="round" stroke-linejoin="round" stroke-width="2"/>
        <path id="パス_936" data-name="パス 936" d="M73.689,29.958l-4.783-2.47-4.746,2.54a.654.654,0,0,1-.953-.682l.871-5.312L60.2,20.3a.653.653,0,0,1,.354-1.117l5.321-.813,2.348-4.844a.653.653,0,0,1,1.172-.009l2.418,4.809,5.333.735a.653.653,0,0,1,.37,1.112l-3.827,3.786.949,5.3A.654.654,0,0,1,73.689,29.958Z" transform="translate(-27.166 -5.959)" fill="none" stroke="#164b99" stroke-linecap="round" stroke-linejoin="round" stroke-width="2"/>
        <line id="線_88" data-name="線 88" x1="1.162" y2="1.599" transform="translate(48.03 5.571)" fill="none" stroke="#164b99" stroke-linecap="round" stroke-linejoin="round" stroke-width="2"/>
        <line id="線_89" data-name="線 89" x1="2.24" y2="0.728" transform="translate(53.918 10.979)" fill="none" stroke="#164b99" stroke-linecap="round" stroke-linejoin="round" stroke-width="2"/>
        <line id="線_90" data-name="線 90" x1="1.88" y1="0.611" transform="translate(51.952 19.245)" fill="none" stroke="#164b99" stroke-linecap="round" stroke-linejoin="round" stroke-width="2"/>
        <line id="線_91" data-name="線 91" y1="0.611" x2="1.88" transform="translate(29.537 19.241)" fill="none" stroke="#164b99" stroke-linecap="round" stroke-linejoin="round" stroke-width="2"/>
        <line id="線_92" data-name="線 92" x2="2.24" y2="0.728" transform="translate(27.212 10.976)" fill="none" stroke="#164b99" stroke-linecap="round" stroke-linejoin="round" stroke-width="2"/>
        <line id="線_93" data-name="線 93" x2="1.162" y2="1.599" transform="translate(34.177 5.571)" fill="none" stroke="#164b99" stroke-linecap="round" stroke-linejoin="round" stroke-width="2"/>
        <line id="線_94" data-name="線 94" y2="2.23" transform="translate(41.637 0.547)" fill="none" stroke="#164b99" stroke-linecap="round" stroke-linejoin="round" stroke-width="2"/>
      </g>
    </g>
  </g>
</svg>
