<svg xmlns="http://www.w3.org/2000/svg" xmlns:xlink="http://www.w3.org/1999/xlink" width="16" height="12" viewBox="0 0 16 12"><defs><clipPath id="a"><rect width="16" height="12" transform="translate(0 0)" fill="#fff"/></clipPath></defs><g clip-path="url(#a)"><path d="M14.106,7.257H.964a.976.976,0,0,1,0-1.952H14.106a.976.976,0,0,1,0,1.952" transform="translate(0 -0.128)" fill="#fff"/><path d="M10.639,12a.955.955,0,0,1-.666-.27.984.984,0,0,1-.031-1.379L14.049,6,9.942,1.651A.985.985,0,0,1,9.973.271.953.953,0,0,1,11.336.3l4.743,5.024a.984.984,0,0,1,0,1.348L11.336,11.7a.957.957,0,0,1-.7.3" transform="translate(-0.346 0)" fill="#fff"/></g></svg>