<svg xmlns="http://www.w3.org/2000/svg" width="32" height="30.085" viewBox="0 0 32 30.085"><g transform="translate(-323 -11)"><rect width="32" height="1" transform="translate(323 11)" fill="#164b99"/><rect width="32" height="1" transform="translate(323 19)" fill="#164b99"/><rect width="32" height="1" transform="translate(323 27)" fill="#164b99"/><path d="M4.44-2.59q.06.12.115.253l.11.263q.05-.135.105-.267A2.716,2.716,0,0,1,4.89-2.6L7.32-7a.265.265,0,0,1,.133-.14.646.646,0,0,1,.2-.025H8.37V0H7.52V-5.265q0-.105.005-.225t.015-.245L5.085-1.255a.372.372,0,0,1-.35.225H4.6a.372.372,0,0,1-.35-.225l-2.51-4.5q.015.13.023.255t.007.23V0H.915V-7.165H1.63a.622.622,0,0,1,.2.025A.288.288,0,0,1,1.965-7ZM14.615-7.165v.79H11.17V-4h2.79v.76H11.17V-.79h3.45L14.615,0H10.2V-7.165Zm1.86,0a.683.683,0,0,1,.11.008.282.282,0,0,1,.08.025.3.3,0,0,1,.07.05A.767.767,0,0,1,16.81-7l4.145,5.395q-.01-.13-.017-.252T20.93-2.09V-7.165h.85V0H21.3A.417.417,0,0,1,21.1-.04a.486.486,0,0,1-.153-.135L16.805-5.57q.01.125.015.245t.005.22V0h-.85V-7.165Zm9.9,6.395a2,2,0,0,0,.8-.15,1.667,1.667,0,0,0,.593-.42,1.837,1.837,0,0,0,.37-.645,2.549,2.549,0,0,0,.128-.825V-7.165h.965V-2.81a3.268,3.268,0,0,1-.2,1.15,2.672,2.672,0,0,1-.565.918,2.583,2.583,0,0,1-.9.607,3.078,3.078,0,0,1-1.19.22,3.078,3.078,0,0,1-1.19-.22,2.609,2.609,0,0,1-.9-.607,2.652,2.652,0,0,1-.568-.918,3.268,3.268,0,0,1-.2-1.15V-7.165h.965v4.35a2.549,2.549,0,0,0,.127.825,1.837,1.837,0,0,0,.37.645,1.689,1.689,0,0,0,.595.423A1.99,1.99,0,0,0,26.375-.77Z" transform="translate(324 41)" fill="#164b99"/></g></svg>