<svg xmlns="http://www.w3.org/2000/svg" xmlns:xlink="http://www.w3.org/1999/xlink" width="164" height="164" viewBox="0 0 164 164">
  <defs>
    <clipPath id="clip-path">
      <rect id="長方形_501" data-name="長方形 501" width="117.142" height="162" fill="none"/>
    </clipPath>
  </defs>
  <g id="グループ_642" data-name="グループ 642" transform="translate(-241 -2425)">
    <rect id="長方形_502" data-name="長方形 502" width="164" height="164" transform="translate(241 2425)" fill="none"/>
    <g id="グループ_641" data-name="グループ 641" transform="translate(270.858 2425)">
      <line id="線_84" data-name="線 84" x2="27.968" transform="translate(34.414 23.566)" fill="none" stroke="#164b99" stroke-linecap="round" stroke-linejoin="round" stroke-width="2"/>
      <line id="線_85" data-name="線 85" x2="59.828" transform="translate(18.483 38.925)" fill="none" stroke="#164b99" stroke-linecap="round" stroke-linejoin="round" stroke-width="2"/>
      <line id="線_86" data-name="線 86" x2="59.828" transform="translate(18.483 54.279)" fill="none" stroke="#164b99" stroke-linecap="round" stroke-linejoin="round" stroke-width="2"/>
      <g id="グループ_640" data-name="グループ 640">
        <g id="グループ_639" data-name="グループ 639" clip-path="url(#clip-path)">
          <path id="パス_928" data-name="パス 928" d="M48.825,125.14H1V1H94.643V71.981" transform="translate(0.045 0.045)" fill="none" stroke="#164b99" stroke-linecap="round" stroke-linejoin="round" stroke-width="2"/>
          <path id="パス_929" data-name="パス 929" d="M60.412,117.074,46.9,146.339l13.8-3.458,6.5,12.833L80.7,126.449" transform="translate(2.091 5.242)" fill="none" stroke="#164b99" stroke-linecap="round" stroke-linejoin="round" stroke-width="2"/>
          <path id="パス_930" data-name="パス 930" d="M99.07,117.074l13.515,29.264-13.8-3.458-6.5,12.833L78.778,126.449" transform="translate(3.512 5.242)" fill="none" stroke="#164b99" stroke-linecap="round" stroke-linejoin="round" stroke-width="2"/>
          <ellipse id="楕円形_71" data-name="楕円形 71" cx="26.301" cy="26.305" rx="26.301" ry="26.305" transform="translate(56.242 78.694)" fill="none" stroke="#164b99" stroke-linecap="round" stroke-linejoin="round" stroke-width="2"/>
          <ellipse id="楕円形_72" data-name="楕円形 72" cx="13.604" cy="13.606" rx="13.604" ry="13.606" transform="translate(68.939 91.394)" fill="none" stroke="#164b99" stroke-linecap="round" stroke-linejoin="round" stroke-width="2"/>
        </g>
      </g>
    </g>
  </g>
</svg>
