<svg id="グループ_594" data-name="グループ 594" xmlns="http://www.w3.org/2000/svg" xmlns:xlink="http://www.w3.org/1999/xlink" width="26" height="25" viewBox="0 0 26 25">
  <defs>
    <clipPath id="clip-path">
      <rect id="長方形_450" data-name="長方形 450" width="26" height="25" fill="none"/>
    </clipPath>
  </defs>
  <g id="グループ_591" data-name="グループ 591" transform="translate(0 0)" clip-path="url(#clip-path)">
    <path id="パス_881" data-name="パス 881" d="M30.294.572c-1.477.719-8.782,9.055-12.739,12.964l-3.032-3.03c-.353-.426-1.107-1.752-1.826-.889l-1.109,1.612c-.723.863.042,2.279.61,2.722l4.873,5.637c.569.442,1.612.1,2.333-.761l.613-.735h0L31.367,1.843c.721-.866,2.408-2.8-1.072-1.27" transform="translate(-6.414 0)" fill="#469fe3"/>
    <path id="パス_882" data-name="パス 882" d="M22.062,9.7V22.609a1.433,1.433,0,0,1-1.43,1.434H3.464a1.433,1.433,0,0,1-1.43-1.434V5.389a1.433,1.433,0,0,1,1.43-1.434H19.2c.776-.806,1.428-1.467,1.979-2a3.439,3.439,0,0,0-.546-.044H3.464A3.474,3.474,0,0,0,0,5.389v17.22a3.474,3.474,0,0,0,3.464,3.475H20.632A3.474,3.474,0,0,0,24.1,22.609V6.788Z" transform="translate(0 -1.085)" fill="#afddf9"/>
  </g>
</svg>
