<svg id="グループ_850" data-name="グループ 850" xmlns="http://www.w3.org/2000/svg" xmlns:xlink="http://www.w3.org/1999/xlink" width="95" height="95" viewBox="0 0 95 95">
  <defs>
    <clipPath id="clip-path">
      <rect id="長方形_699" data-name="長方形 699" width="95" height="95" fill="none"/>
    </clipPath>
  </defs>
  <g id="グループ_849" data-name="グループ 849" clip-path="url(#clip-path)">
    <path id="パス_1027" data-name="パス 1027" d="M76.01,91.468V13.849h-55.6V49.666" fill="none" stroke="#164b99" stroke-linecap="round" stroke-linejoin="round" stroke-width="2"/>
    <line id="線_151" data-name="線 151" y2="5.636" transform="translate(20.411 85.832)" fill="none" stroke="#164b99" stroke-linecap="round" stroke-linejoin="round" stroke-width="2"/>
    <path id="パス_1028" data-name="パス 1028" d="M45.138,91.467V78.252h6.145V91.467" fill="none" stroke="#164b99" stroke-linecap="round" stroke-linejoin="round" stroke-width="2"/>
    <line id="線_152" data-name="線 152" x2="91.7" transform="translate(1.333 92.733)" fill="none" stroke="#164b99" stroke-linecap="round" stroke-linejoin="round" stroke-width="2"/>
    <path id="パス_1029" data-name="パス 1029" d="M1.954,72.705A7.226,7.226,0,0,0,9.18,79.931a8.246,8.246,0,0,0,5.47-2.063,6.329,6.329,0,0,0,5.736,3.713,6.956,6.956,0,0,0,2.5-13.449,5.381,5.381,0,0,0-3.733-9.262c-.13,0-.257.01-.384.019a4.136,4.136,0,1,0-7.109-1.116A4.6,4.6,0,0,0,7.2,65.761,7.223,7.223,0,0,0,1.954,72.705Z" fill="none" stroke="#164b99" stroke-linecap="round" stroke-linejoin="round" stroke-width="2"/>
    <line id="線_153" data-name="線 153" y1="2.895" x2="5.394" transform="translate(14.643 71.45)" fill="none" stroke="#164b99" stroke-linecap="round" stroke-linejoin="round" stroke-width="2"/>
    <line id="線_154" data-name="線 154" y1="31.117" transform="translate(14.65 60.538)" fill="none" stroke="#164b99" stroke-linecap="round" stroke-linejoin="round" stroke-width="2"/>
    <path id="パス_1030" data-name="パス 1030" d="M10.881,63.146l3.769,2.347,4.162-2.347" fill="none" stroke="#164b99" stroke-linecap="round" stroke-linejoin="round" stroke-width="2"/>
    <line id="線_155" data-name="線 155" x1="5.807" y1="2.551" transform="translate(8.836 71.794)" fill="none" stroke="#164b99" stroke-linecap="round" stroke-linejoin="round" stroke-width="2"/>
    <path id="パス_1031" data-name="パス 1031" d="M60.79,13.848V7.459H35.63v6.389" fill="none" stroke="#164b99" stroke-linecap="round" stroke-linejoin="round" stroke-width="2"/>
    <line id="線_156" data-name="線 156" y1="5.644" transform="translate(48.21 1.815)" fill="none" stroke="#164b99" stroke-linecap="round" stroke-linejoin="round" stroke-width="2"/>
    <rect id="長方形_687" data-name="長方形 687" width="6.145" height="7.398" transform="translate(30.774 36.582)" fill="none" stroke="#164b99" stroke-linecap="round" stroke-linejoin="round" stroke-width="2"/>
    <rect id="長方形_688" data-name="長方形 688" width="6.145" height="7.398" transform="translate(45.138 36.582)" fill="none" stroke="#164b99" stroke-linecap="round" stroke-linejoin="round" stroke-width="2"/>
    <rect id="長方形_689" data-name="長方形 689" width="6.145" height="7.398" transform="translate(59.502 36.582)" fill="none" stroke="#164b99" stroke-linecap="round" stroke-linejoin="round" stroke-width="2"/>
    <rect id="長方形_690" data-name="長方形 690" width="6.145" height="7.398" transform="translate(30.774 49.998)" fill="none" stroke="#164b99" stroke-linecap="round" stroke-linejoin="round" stroke-width="2"/>
    <rect id="長方形_691" data-name="長方形 691" width="6.145" height="7.398" transform="translate(45.138 49.998)" fill="none" stroke="#164b99" stroke-linecap="round" stroke-linejoin="round" stroke-width="2"/>
    <rect id="長方形_692" data-name="長方形 692" width="6.145" height="7.398" transform="translate(59.502 49.998)" fill="none" stroke="#164b99" stroke-linecap="round" stroke-linejoin="round" stroke-width="2"/>
    <rect id="長方形_693" data-name="長方形 693" width="6.145" height="7.398" transform="translate(30.774 63.415)" fill="none" stroke="#164b99" stroke-linecap="round" stroke-linejoin="round" stroke-width="2"/>
    <rect id="長方形_694" data-name="長方形 694" width="6.145" height="7.398" transform="translate(45.138 63.415)" fill="none" stroke="#164b99" stroke-linecap="round" stroke-linejoin="round" stroke-width="2"/>
    <rect id="長方形_695" data-name="長方形 695" width="6.145" height="7.398" transform="translate(59.502 63.415)" fill="none" stroke="#164b99" stroke-linecap="round" stroke-linejoin="round" stroke-width="2"/>
    <rect id="長方形_696" data-name="長方形 696" width="6.145" height="7.398" transform="translate(30.774 23.165)" fill="none" stroke="#164b99" stroke-linecap="round" stroke-linejoin="round" stroke-width="2"/>
    <rect id="長方形_697" data-name="長方形 697" width="6.145" height="7.398" transform="translate(45.138 23.165)" fill="none" stroke="#164b99" stroke-linecap="round" stroke-linejoin="round" stroke-width="2"/>
    <rect id="長方形_698" data-name="長方形 698" width="6.145" height="7.398" transform="translate(59.502 23.165)" fill="none" stroke="#164b99" stroke-linecap="round" stroke-linejoin="round" stroke-width="2"/>
    <ellipse id="楕円形_77" data-name="楕円形 77" cx="5.888" cy="9.888" rx="5.888" ry="9.888" transform="translate(79.832 64.869)" fill="none" stroke="#164b99" stroke-linecap="round" stroke-linejoin="round" stroke-width="2"/>
    <line id="線_157" data-name="線 157" y2="12.826" transform="translate(85.719 79.151)" fill="none" stroke="#164b99" stroke-linecap="round" stroke-linejoin="round" stroke-width="2"/>
  </g>
</svg>
