<svg xmlns="http://www.w3.org/2000/svg" xmlns:xlink="http://www.w3.org/1999/xlink" width="234" height="140" viewBox="0 0 234 140">
  <defs>
    <clipPath id="clip-path">
      <rect id="長方形_508" data-name="長方形 508" width="233.255" height="132.169" fill="none"/>
    </clipPath>
  </defs>
  <g id="グループ_656" data-name="グループ 656" transform="translate(-841 -5123)">
    <rect id="長方形_506" data-name="長方形 506" width="234" height="140" transform="translate(841 5123)" fill="none"/>
    <g id="グループ_655" data-name="グループ 655" transform="translate(841.745 5127)">
      <g id="グループ_650" data-name="グループ 650">
        <g id="グループ_649" data-name="グループ 649" clip-path="url(#clip-path)">
          <path id="パス_956" data-name="パス 956" d="M123.646,131.169V29.1H180.2V63.981" fill="none" stroke="#164b99" stroke-linecap="round" stroke-linejoin="round" stroke-width="2"/>
          <line id="線_101" data-name="線 101" y2="7.634" transform="translate(180.196 123.535)" fill="none" stroke="#164b99" stroke-linecap="round" stroke-linejoin="round" stroke-width="2"/>
        </g>
      </g>
      <line id="線_102" data-name="線 102" x2="29.425" transform="translate(137.671 43.585)" fill="none" stroke="#164b99" stroke-linecap="round" stroke-linejoin="round" stroke-width="2"/>
      <line id="線_103" data-name="線 103" x2="29.425" transform="translate(137.671 54.16)" fill="none" stroke="#164b99" stroke-linecap="round" stroke-linejoin="round" stroke-width="2"/>
      <line id="線_104" data-name="線 104" x2="29.425" transform="translate(137.671 64.734)" fill="none" stroke="#164b99" stroke-linecap="round" stroke-linejoin="round" stroke-width="2"/>
      <line id="線_105" data-name="線 105" x2="29.425" transform="translate(137.671 75.308)" fill="none" stroke="#164b99" stroke-linecap="round" stroke-linejoin="round" stroke-width="2"/>
      <line id="線_106" data-name="線 106" x2="29.425" transform="translate(137.671 85.883)" fill="none" stroke="#164b99" stroke-linecap="round" stroke-linejoin="round" stroke-width="2"/>
      <line id="線_107" data-name="線 107" x2="29.425" transform="translate(137.671 96.457)" fill="none" stroke="#164b99" stroke-linecap="round" stroke-linejoin="round" stroke-width="2"/>
      <g id="グループ_652" data-name="グループ 652">
        <g id="グループ_651" data-name="グループ 651" clip-path="url(#clip-path)">
          <path id="パス_957" data-name="パス 957" d="M159.047,131.169V109.407H144.794v21.762" fill="none" stroke="#164b99" stroke-linecap="round" stroke-linejoin="round" stroke-width="2"/>
          <path id="パス_958" data-name="パス 958" d="M123.646,64.734H85.6v66.435" fill="none" stroke="#164b99" stroke-linecap="round" stroke-linejoin="round" stroke-width="2"/>
        </g>
      </g>
      <line id="線_108" data-name="線 108" x1="14.977" transform="translate(97.135 75.308)" fill="none" stroke="#164b99" stroke-linecap="round" stroke-linejoin="round" stroke-width="2"/>
      <line id="線_109" data-name="線 109" x1="14.977" transform="translate(97.135 85.883)" fill="none" stroke="#164b99" stroke-linecap="round" stroke-linejoin="round" stroke-width="2"/>
      <line id="線_110" data-name="線 110" x1="14.977" transform="translate(97.135 96.458)" fill="none" stroke="#164b99" stroke-linecap="round" stroke-linejoin="round" stroke-width="2"/>
      <line id="線_111" data-name="線 111" x1="14.977" transform="translate(97.135 107.032)" fill="none" stroke="#164b99" stroke-linecap="round" stroke-linejoin="round" stroke-width="2"/>
      <line id="線_112" data-name="線 112" x1="14.977" transform="translate(97.135 117.607)" fill="none" stroke="#164b99" stroke-linecap="round" stroke-linejoin="round" stroke-width="2"/>
      <g id="グループ_654" data-name="グループ 654">
        <g id="グループ_653" data-name="グループ 653" clip-path="url(#clip-path)">
          <line id="線_113" data-name="線 113" x2="160.674" transform="translate(71.581 131.169)" fill="none" stroke="#164b99" stroke-linecap="round" stroke-linejoin="round" stroke-width="2"/>
          <path id="パス_959" data-name="パス 959" d="M214.825,84.615a8.971,8.971,0,0,0-8.693-15.563,8.052,8.052,0,1,0-13.851,2.174c-.248-.017-.5-.037-.747-.037a10.486,10.486,0,0,0-7.274,18.046,13.554,13.554,0,0,0,4.871,26.205c5.2,0,8.9-2.935,11.176-7.236a16.065,16.065,0,0,0,10.657,4.02,14.074,14.074,0,0,0,3.861-27.609Z" fill="none" stroke="#164b99" stroke-linecap="round" stroke-linejoin="round" stroke-width="2"/>
          <line id="線_114" data-name="線 114" x1="10.509" y1="5.641" transform="translate(189.811 95.699)" fill="none" stroke="#164b99" stroke-linecap="round" stroke-linejoin="round" stroke-width="2"/>
          <line id="線_115" data-name="線 115" y1="56.73" transform="translate(200.307 74.439)" fill="none" stroke="#164b99" stroke-linecap="round" stroke-linejoin="round" stroke-width="2"/>
          <path id="パス_960" data-name="パス 960" d="M207.65,79.52l-7.344,4.572L192.2,79.52" fill="none" stroke="#164b99" stroke-linecap="round" stroke-linejoin="round" stroke-width="2"/>
          <line id="線_116" data-name="線 116" y1="4.97" x2="11.314" transform="translate(200.32 96.37)" fill="none" stroke="#164b99" stroke-linecap="round" stroke-linejoin="round" stroke-width="2"/>
          <path id="パス_961" data-name="パス 961" d="M135.545,29.1V19.3H167.1v9.8" fill="none" stroke="#164b99" stroke-linecap="round" stroke-linejoin="round" stroke-width="2"/>
          <path id="パス_962" data-name="パス 962" d="M31.161,84.765H5.989A4.989,4.989,0,0,1,1,79.776V5.99A4.989,4.989,0,0,1,5.989,1h95.573a4.989,4.989,0,0,1,4.989,4.99v52.2" fill="none" stroke="#164b99" stroke-linecap="round" stroke-linejoin="round" stroke-width="2"/>
          <path id="パス_963" data-name="パス 963" d="M46.9,43.844l.473-1.074a6.991,6.991,0,0,1,12.8,0l.474,1.074A6.99,6.99,0,0,0,67.8,47.973l1.167-.126a6.992,6.992,0,0,1,6.4,11.081l-.694.947a6.992,6.992,0,0,0,0,8.26l.694.947a6.992,6.992,0,0,1-6.4,11.081L67.8,80.036a6.989,6.989,0,0,0-7.153,4.13l-.474,1.074a6.992,6.992,0,0,1-12.8,0L46.9,84.166a6.991,6.991,0,0,0-7.153-4.13l-1.168.127a6.992,6.992,0,0,1-6.4-11.081l.694-.947a6.992,6.992,0,0,0,0-8.26l-.694-.947a6.992,6.992,0,0,1,6.4-11.081l1.168.126A6.991,6.991,0,0,0,46.9,43.844Z" fill="none" stroke="#164b99" stroke-linecap="round" stroke-linejoin="round" stroke-width="2"/>
          <path id="パス_964" data-name="パス 964" d="M63.6,64a9.825,9.825,0,1,1-9.825-9.825" fill="none" stroke="#164b99" stroke-linecap="round" stroke-linejoin="round" stroke-width="2"/>
          <path id="パス_965" data-name="パス 965" d="M58.882,97.372l4.958,9.179,11.569-6.679L69.211,88.4" fill="none" stroke="#164b99" stroke-linecap="round" stroke-linejoin="round" stroke-width="2"/>
          <path id="パス_966" data-name="パス 966" d="M48.411,97.372l-4.959,9.179L31.884,99.872l6.2-11.474" fill="none" stroke="#164b99" stroke-linecap="round" stroke-linejoin="round" stroke-width="2"/>
          <path id="パス_967" data-name="パス 967" d="M12.056,21.459V12.046h9.413" fill="none" stroke="#164b99" stroke-linecap="round" stroke-linejoin="round" stroke-width="2"/>
          <path id="パス_968" data-name="パス 968" d="M95.5,21.459V12.046H86.083" fill="none" stroke="#164b99" stroke-linecap="round" stroke-linejoin="round" stroke-width="2"/>
          <path id="パス_969" data-name="パス 969" d="M12.056,64.305v9.413h9.413" fill="none" stroke="#164b99" stroke-linecap="round" stroke-linejoin="round" stroke-width="2"/>
          <line id="線_117" data-name="線 117" x2="42.153" transform="translate(32.699 19.826)" fill="none" stroke="#164b99" stroke-linecap="round" stroke-linejoin="round" stroke-width="2"/>
          <line id="線_118" data-name="線 118" x2="42.153" transform="translate(32.699 29.239)" fill="none" stroke="#164b99" stroke-linecap="round" stroke-linejoin="round" stroke-width="2"/>
        </g>
      </g>
    </g>
  </g>
</svg>
