<svg id="グループ_525" data-name="グループ 525" xmlns="http://www.w3.org/2000/svg" xmlns:xlink="http://www.w3.org/1999/xlink" width="95" height="94.999" viewBox="0 0 95 94.999">
  <defs>
    <clipPath id="clip-path">
      <rect id="長方形_278" data-name="長方形 278" width="95" height="94.999" fill="none"/>
    </clipPath>
    <clipPath id="clip-path-2">
      <rect id="長方形_279" data-name="長方形 279" width="60.835" height="40.702" transform="translate(33.566 54.297)" fill="none"/>
    </clipPath>
  </defs>
  <g id="グループ_520" data-name="グループ 520">
    <g id="グループ_519" data-name="グループ 519" clip-path="url(#clip-path)">
      <path id="パス_492" data-name="パス 492" d="M23.41,9.51c2.545,0,5.818,2.423,5.818,6.913s-2.273,7.632-5.818,7.632-5.818-3.142-5.818-7.632S20.865,9.51,23.41,9.51Z" fill="none" stroke="#164b99" stroke-linecap="round" stroke-linejoin="round" stroke-width="2"/>
      <line id="線_48" data-name="線 48" y2="20.363" transform="translate(23.41 61.872)" fill="none" stroke="#164b99" stroke-linecap="round" stroke-linejoin="round" stroke-width="2"/>
      <path id="パス_493" data-name="パス 493" d="M16.138,82.235V37.378L9,43.6l5.862,5.861a4.354,4.354,0,0,1,.01,6.157l-.01.01a1.449,1.449,0,0,1-2.049,0L5.185,48.01a7.357,7.357,0,0,1-2.138-5.047,7.157,7.157,0,0,1,2.138-5.046l5.484-5.484a8.716,8.716,0,0,1,6.182-2.56h21a4.374,4.374,0,0,0,3.783-2.182l6.69-11.636h.007a1.451,1.451,0,0,1,1.981-.536h.005a4.363,4.363,0,0,1,1.6,5.957l-5.683,9.846a8.728,8.728,0,0,1-7.558,4.364H36.5A5.816,5.816,0,0,0,30.682,41.5V82.235" fill="none" stroke="#164b99" stroke-linecap="round" stroke-linejoin="round" stroke-width="2"/>
    </g>
  </g>
  <g id="グループ_522" data-name="グループ 522">
    <g id="グループ_521" data-name="グループ 521" clip-path="url(#clip-path-2)">
      <path id="パス_494" data-name="パス 494" d="M49.879,59.7c2.354,0,5.38,2.241,5.38,6.392s-2.1,7.057-5.38,7.057-5.38-2.9-5.38-7.057,3.026-6.392,5.38-6.392" fill="#edeff2"/>
      <path id="パス_495" data-name="パス 495" d="M49.879,59.7c2.354,0,5.38,2.241,5.38,6.392s-2.1,7.057-5.38,7.057-5.38-2.9-5.38-7.057S47.525,59.7,49.879,59.7Z" fill="none" stroke="#164b99" stroke-linecap="round" stroke-linejoin="round" stroke-width="2"/>
      <path id="パス_496" data-name="パス 496" d="M43.155,104.082a4.037,4.037,0,0,1-4.035,4.035,1.345,1.345,0,0,1-1.345-1.345V86.6a8.07,8.07,0,0,1,8.07-8.07h8.07a8.07,8.07,0,0,1,8.069,8.07v20.174a1.344,1.344,0,0,1-1.343,1.345,4.037,4.037,0,0,1-4.035-4.035" fill="#edeff2"/>
      <path id="パス_497" data-name="パス 497" d="M43.155,104.082a4.037,4.037,0,0,1-4.035,4.035,1.345,1.345,0,0,1-1.345-1.345V86.6a8.07,8.07,0,0,1,8.07-8.07h8.07a8.07,8.07,0,0,1,8.069,8.07v20.174a1.344,1.344,0,0,1-1.343,1.345,4.037,4.037,0,0,1-4.035-4.035" fill="none" stroke="#164b99" stroke-linecap="round" stroke-linejoin="round" stroke-width="2"/>
      <path id="パス_498" data-name="パス 498" d="M80.681,59.7c2.354,0,5.38,2.241,5.38,6.392s-2.1,7.057-5.38,7.057-5.38-2.9-5.38-7.057,3.026-6.392,5.38-6.392" fill="#edeff2"/>
      <path id="パス_499" data-name="パス 499" d="M80.681,59.7c2.354,0,5.38,2.241,5.38,6.392s-2.1,7.057-5.38,7.057-5.38-2.9-5.38-7.057S78.327,59.7,80.681,59.7Z" fill="none" stroke="#164b99" stroke-linecap="round" stroke-linejoin="round" stroke-width="2"/>
      <path id="パス_500" data-name="パス 500" d="M73.957,104.082a4.037,4.037,0,0,1-4.035,4.035,1.345,1.345,0,0,1-1.345-1.345V86.6a8.07,8.07,0,0,1,8.07-8.07h8.07a8.07,8.07,0,0,1,8.069,8.07v20.174a1.344,1.344,0,0,1-1.343,1.345,4.037,4.037,0,0,1-4.035-4.035" fill="#edeff2"/>
      <path id="パス_501" data-name="パス 501" d="M73.957,104.082a4.037,4.037,0,0,1-4.035,4.035,1.345,1.345,0,0,1-1.345-1.345V86.6a8.07,8.07,0,0,1,8.07-8.07h8.07a8.07,8.07,0,0,1,8.069,8.07v20.174a1.344,1.344,0,0,1-1.343,1.345,4.037,4.037,0,0,1-4.035-4.035" fill="none" stroke="#164b99" stroke-linecap="round" stroke-linejoin="round" stroke-width="2"/>
    </g>
  </g>
  <g id="グループ_524" data-name="グループ 524">
    <g id="グループ_523" data-name="グループ 523" clip-path="url(#clip-path)">
      <path id="パス_502" data-name="パス 502" d="M71.25,49H44.565a4,4,0,0,1-4-4V41.332" fill="none" stroke="#164b99" stroke-linecap="round" stroke-linejoin="round" stroke-width="2"/>
      <path id="パス_503" data-name="パス 503" d="M40.565,19.523V10.387a4,4,0,0,1,4-4H86.34a4,4,0,0,1,4,4V45a4,4,0,0,1-4,4" fill="none" stroke="#164b99" stroke-linecap="round" stroke-linejoin="round" stroke-width="2"/>
    </g>
  </g>
</svg>
