<svg xmlns="http://www.w3.org/2000/svg" xmlns:xlink="http://www.w3.org/1999/xlink" width="95" height="95" viewBox="0 0 95 95"><defs><clipPath id="a"><rect width="95" height="95" fill="none"/></clipPath></defs><g clip-path="url(#a)"><path d="M76.01,92.468a1,1,0,0,1-1-1V14.849h-53.6V49.666a1,1,0,0,1-2,0V13.849a1,1,0,0,1,1-1h55.6a1,1,0,0,1,1,1V91.468A1,1,0,0,1,76.01,92.468Z" fill="#164b99"/><path d="M0,6.636a1,1,0,0,1-1-1V0A1,1,0,0,1,0-1,1,1,0,0,1,1,0V5.636A1,1,0,0,1,0,6.636Z" transform="translate(20.411 85.832)" fill="#164b99"/><path d="M51.283,92.467a1,1,0,0,1-1-1V79.252H46.138V91.467a1,1,0,0,1-2,0V78.252a1,1,0,0,1,1-1h6.145a1,1,0,0,1,1,1V91.467A1,1,0,0,1,51.283,92.467Z" fill="#164b99"/><path d="M91.7,1H0A1,1,0,0,1-1,0,1,1,0,0,1,0-1H91.7a1,1,0,0,1,1,1A1,1,0,0,1,91.7,1Z" transform="translate(1.333 92.733)" fill="#164b99"/><path d="M20.386,82.581a6.945,6.945,0,0,1-4-1.2,7.83,7.83,0,0,1-2-2.017,9.605,9.605,0,0,1-5.208,1.57A8.235,8.235,0,0,1,.954,72.705a8.137,8.137,0,0,1,1.694-5A8.3,8.3,0,0,1,5.414,65.4a5.6,5.6,0,0,1,4.47-8.982q.258,0,.512.023,0-.056,0-.112a5.134,5.134,0,1,1,9.993,1.662,6.4,6.4,0,0,1,5.151,6.266,6.317,6.317,0,0,1-1.071,3.538,7.956,7.956,0,0,1-4.082,14.787ZM14.65,76.868a1,1,0,0,1,.884.533,6.347,6.347,0,0,0,1.984,2.326,4.981,4.981,0,0,0,2.868.854,5.966,5.966,0,0,0,5.96-5.959,5.9,5.9,0,0,0-1.071-3.4,5.969,5.969,0,0,0-2.749-2.152,1,1,0,0,1-.334-1.653,4.381,4.381,0,0,0-3.039-7.542c-.083,0-.178.007-.279.014l-.035,0a1,1,0,0,1-.855-1.618,3.1,3.1,0,0,0,.678-1.94,3.134,3.134,0,1,0-6.066,1.1A1,1,0,0,1,11.273,58.7a3.573,3.573,0,0,0-1.389-.278,3.6,3.6,0,0,0-2.1,6.532,1,1,0,0,1-.31,1.774,6.28,6.28,0,0,0-3.238,2.2,6.153,6.153,0,0,0-1.281,3.779A6.233,6.233,0,0,0,9.18,78.931a7.223,7.223,0,0,0,4.771-1.778A1,1,0,0,1,14.65,76.868Z" fill="#164b99"/><path d="M0,3.9a1,1,0,0,1-.882-.527A1,1,0,0,1-.473,2.014L4.921-.881a1,1,0,0,1,1.354.408A1,1,0,0,1,5.867.881L.473,3.776A1,1,0,0,1,0,3.9Z" transform="translate(14.643 71.45)" fill="#164b99"/><path d="M0,32.117a1,1,0,0,1-1-1V0A1,1,0,0,1,0-1,1,1,0,0,1,1,0V31.117A1,1,0,0,1,0,32.117Z" transform="translate(14.65 60.538)" fill="#164b99"/><path d="M14.65,66.493a1,1,0,0,1-.529-.151l-3.769-2.347a1,1,0,1,1,1.057-1.7l3.266,2.034,3.646-2.056a1,1,0,0,1,.982,1.742l-4.162,2.347A1,1,0,0,1,14.65,66.493Z" fill="#164b99"/><path d="M5.806,3.551a1,1,0,0,1-.4-.085L-.4.916A1,1,0,0,1-.916-.4,1,1,0,0,1,.4-.916L6.209,1.635a1,1,0,0,1-.4,1.916Z" transform="translate(8.836 71.794)" fill="#164b99"/><path d="M60.79,14.848a1,1,0,0,1-1-1V8.459H36.63v5.389a1,1,0,0,1-2,0V7.459a1,1,0,0,1,1-1H60.79a1,1,0,0,1,1,1v6.389A1,1,0,0,1,60.79,14.848Z" fill="#164b99"/><path d="M0,6.644a1,1,0,0,1-1-1V0A1,1,0,0,1,0-1,1,1,0,0,1,1,0V5.644A1,1,0,0,1,0,6.644Z" transform="translate(48.21 1.815)" fill="#164b99"/><path d="M0-1H6.145a1,1,0,0,1,1,1V7.4a1,1,0,0,1-1,1H0a1,1,0,0,1-1-1V0A1,1,0,0,1,0-1ZM5.145,1H1V6.4H5.145Z" transform="translate(30.774 36.582)" fill="#164b99"/><path d="M0-1H6.145a1,1,0,0,1,1,1V7.4a1,1,0,0,1-1,1H0a1,1,0,0,1-1-1V0A1,1,0,0,1,0-1ZM5.145,1H1V6.4H5.145Z" transform="translate(45.138 36.582)" fill="#164b99"/><path d="M0-1H6.145a1,1,0,0,1,1,1V7.4a1,1,0,0,1-1,1H0a1,1,0,0,1-1-1V0A1,1,0,0,1,0-1ZM5.145,1H1V6.4H5.145Z" transform="translate(59.502 36.582)" fill="#164b99"/><path d="M0-1H6.145a1,1,0,0,1,1,1V7.4a1,1,0,0,1-1,1H0a1,1,0,0,1-1-1V0A1,1,0,0,1,0-1ZM5.145,1H1V6.4H5.145Z" transform="translate(30.774 49.998)" fill="#164b99"/><path d="M0-1H6.145a1,1,0,0,1,1,1V7.4a1,1,0,0,1-1,1H0a1,1,0,0,1-1-1V0A1,1,0,0,1,0-1ZM5.145,1H1V6.4H5.145Z" transform="translate(45.138 49.998)" fill="#164b99"/><path d="M0-1H6.145a1,1,0,0,1,1,1V7.4a1,1,0,0,1-1,1H0a1,1,0,0,1-1-1V0A1,1,0,0,1,0-1ZM5.145,1H1V6.4H5.145Z" transform="translate(59.502 49.998)" fill="#164b99"/><path d="M0-1H6.145a1,1,0,0,1,1,1V7.4a1,1,0,0,1-1,1H0a1,1,0,0,1-1-1V0A1,1,0,0,1,0-1ZM5.145,1H1V6.4H5.145Z" transform="translate(30.774 63.415)" fill="#164b99"/><path d="M0-1H6.145a1,1,0,0,1,1,1V7.4a1,1,0,0,1-1,1H0a1,1,0,0,1-1-1V0A1,1,0,0,1,0-1ZM5.145,1H1V6.4H5.145Z" transform="translate(45.138 63.415)" fill="#164b99"/><path d="M0-1H6.145a1,1,0,0,1,1,1V7.4a1,1,0,0,1-1,1H0a1,1,0,0,1-1-1V0A1,1,0,0,1,0-1ZM5.145,1H1V6.4H5.145Z" transform="translate(59.502 63.415)" fill="#164b99"/><path d="M0-1H6.145a1,1,0,0,1,1,1V7.4a1,1,0,0,1-1,1H0a1,1,0,0,1-1-1V0A1,1,0,0,1,0-1ZM5.145,1H1V6.4H5.145Z" transform="translate(30.774 23.165)" fill="#164b99"/><path d="M0-1H6.145a1,1,0,0,1,1,1V7.4a1,1,0,0,1-1,1H0a1,1,0,0,1-1-1V0A1,1,0,0,1,0-1ZM5.145,1H1V6.4H5.145Z" transform="translate(45.138 23.165)" fill="#164b99"/><path d="M0-1H6.145a1,1,0,0,1,1,1V7.4a1,1,0,0,1-1,1H0a1,1,0,0,1-1-1V0A1,1,0,0,1,0-1ZM5.145,1H1V6.4H5.145Z" transform="translate(59.502 23.165)" fill="#164b99"/><path d="M5.888-1C7.827-1,9.611.2,10.911,2.384a14.876,14.876,0,0,1,1.865,7.5,14.876,14.876,0,0,1-1.865,7.5c-1.3,2.183-3.083,3.385-5.023,3.385s-3.723-1.2-5.023-3.385A14.876,14.876,0,0,1-1,9.888a14.876,14.876,0,0,1,1.865-7.5C2.165.2,3.949-1,5.888-1Zm0,19.776c1.206,0,2.38-.855,3.3-2.408a12.863,12.863,0,0,0,1.584-6.48,12.863,12.863,0,0,0-1.584-6.48C8.268,1.855,7.094,1,5.888,1s-2.38.855-3.3,2.408A12.863,12.863,0,0,0,1,9.888a12.863,12.863,0,0,0,1.584,6.48C3.508,17.921,4.682,18.776,5.888,18.776Z" transform="translate(79.832 64.869)" fill="#164b99"/><path d="M0,13.826a1,1,0,0,1-1-1V0A1,1,0,0,1,0-1,1,1,0,0,1,1,0V12.826A1,1,0,0,1,0,13.826Z" transform="translate(85.719 79.151)" fill="#164b99"/></g></svg>