<svg xmlns="http://www.w3.org/2000/svg" xmlns:xlink="http://www.w3.org/1999/xlink" width="342" height="384" viewBox="0 0 342 384"><defs><clipPath id="a"><rect width="342" height="384" transform="translate(17 2240)" fill="#efefef"/></clipPath><linearGradient id="b" x1="0.878" y1="0.697" x2="0.285" y2="0.06" gradientUnits="objectBoundingBox"><stop offset="0" stop-color="#f5f8ff"/><stop offset="1" stop-color="#cbd6f0"/></linearGradient><linearGradient id="c" x1="0.103" y1="0.206" x2="0.899" y2="0.673" gradientUnits="objectBoundingBox"><stop offset="0" stop-color="#b6e0e0"/><stop offset="1" stop-color="#f4fcfc"/></linearGradient><linearGradient id="d" x1="0.235" y1="0.098" x2="0.664" y2="0.946" gradientUnits="objectBoundingBox"><stop offset="0" stop-color="#82a7dd"/><stop offset="0.581" stop-color="#006eb8"/><stop offset="1" stop-color="#006eb8"/></linearGradient></defs><g transform="translate(-17 -2240)" clip-path="url(#a)"><g transform="translate(30.682 2278.061)"><g transform="translate(0 0)" opacity="0.3"><path d="M156.5,1a156.655,156.655,0,0,0-31.34,3.159,154.643,154.643,0,0,0-55.6,23.4A155.957,155.957,0,0,0,13.22,95.973a154.714,154.714,0,0,0-9.06,29.188,157.026,157.026,0,0,0,0,62.679,154.643,154.643,0,0,0,23.4,55.6,155.957,155.957,0,0,0,68.416,56.34,154.714,154.714,0,0,0,29.188,9.06,157.026,157.026,0,0,0,62.679,0,154.643,154.643,0,0,0,55.6-23.4,155.957,155.957,0,0,0,56.34-68.416,154.713,154.713,0,0,0,9.06-29.188,157.026,157.026,0,0,0,0-62.679,154.643,154.643,0,0,0-23.4-55.6,155.957,155.957,0,0,0-68.416-56.34,154.713,154.713,0,0,0-29.188-9.06A156.655,156.655,0,0,0,156.5,1m0-1A156.5,156.5,0,1,1,0,156.5,156.5,156.5,0,0,1,156.5,0Z" transform="translate(0.318 -0.061)" fill="#123696" opacity="0.5"/><path d="M118.287,1A118.158,118.158,0,0,0,94.648,3.383,116.64,116.64,0,0,0,52.711,21.03a117.632,117.632,0,0,0-42.495,51.6A116.686,116.686,0,0,0,3.383,94.648a118.439,118.439,0,0,0,0,47.277A116.638,116.638,0,0,0,21.03,183.862a117.631,117.631,0,0,0,51.6,42.495,116.686,116.686,0,0,0,22.015,6.834,118.439,118.439,0,0,0,47.277,0,116.639,116.639,0,0,0,41.937-17.647,117.632,117.632,0,0,0,42.495-51.6,116.686,116.686,0,0,0,6.834-22.015,118.439,118.439,0,0,0,0-47.277,116.639,116.639,0,0,0-17.647-41.937,117.632,117.632,0,0,0-51.6-42.495,116.686,116.686,0,0,0-22.015-6.834A118.158,118.158,0,0,0,118.287,1m0-1A118.287,118.287,0,1,1,0,118.287,118.287,118.287,0,0,1,118.287,0Z" transform="translate(38.327 38.327)" fill="#123696" opacity="0.5"/></g></g><circle cx="81.67" cy="81.67" r="81.67" transform="translate(322.489 2448.354) rotate(-160)" fill="url(#b)"/><path d="M-32.444-13.656H-21.42v1.4H-32.444Zm.405,4.415h8.827v1.376h-8.827Zm4.309-7.566h1.489v8.344H-27.73ZM-30.1-8.235a13.619,13.619,0,0,0,3.516,5.4A13.324,13.324,0,0,0-20.693.323a3.78,3.78,0,0,0-.355.386q-.189.233-.353.471t-.278.435a14.08,14.08,0,0,1-6.029-3.5,16.258,16.258,0,0,1-3.739-5.953Zm6.759-1.006h.284l.272-.063.953.423a14.854,14.854,0,0,1-1.741,3.845,14.556,14.556,0,0,1-2.545,2.985A15.963,15.963,0,0,1-29.253.133a19.451,19.451,0,0,1-3.531,1.451,2.905,2.905,0,0,0-.2-.449q-.138-.252-.3-.5a2.747,2.747,0,0,0-.306-.4,17.069,17.069,0,0,0,3.324-1.245,14.846,14.846,0,0,0,2.981-1.959,13.088,13.088,0,0,0,2.393-2.666,11.763,11.763,0,0,0,1.557-3.347ZM-39.267-6.216q.839-.209,1.906-.491t2.254-.622q1.187-.339,2.37-.668l.189,1.367q-1.636.5-3.286.988t-2.993.876Zm.248-6.545h6.287v1.411h-6.287Zm2.587-4.034h1.482V-.22a2.238,2.238,0,0,1-.17.977,1.128,1.128,0,0,1-.566.52A3.226,3.226,0,0,1-36.73,1.5q-.654.051-1.693.039A3.388,3.388,0,0,0-38.6.867a6.284,6.284,0,0,0-.289-.7q.7.02,1.288.02t.785-.012a.341.341,0,0,0,.38-.392Zm20.59-.018,1.552.364q-.36.826-.776,1.712t-.847,1.7q-.43.809-.827,1.445l-1.3-.372q.4-.651.808-1.5t.778-1.736Q-16.084-16.091-15.843-16.813Zm-3.365,4.252,2.412-.09q1.361-.05,2.9-.124t3.1-.134l-.02,1.337-2.977.173q-1.492.086-2.838.157t-2.444.14Zm1.217,2.887h6.336V-8.4h-4.937V1.575h-1.4Zm5.655,0h1.477V-.139A2.347,2.347,0,0,1-11,.772a1.031,1.031,0,0,1-.554.522,3.313,3.313,0,0,1-1.079.211q-.665.037-1.606.037a3.981,3.981,0,0,0-.2-.7,4.8,4.8,0,0,0-.306-.679q.708.02,1.286.024t.794-.016A.385.385,0,0,0-12.4.108a.38.38,0,0,0,.064-.258Zm-4.992,2.991h5.774V-5.5h-5.774Zm0,3h5.774v1.193h-5.774ZM-8.97-16.768h1.485v6.624q0,.487.2.629a1.735,1.735,0,0,0,.88.142h3.177a.9.9,0,0,0,.6-.171,1.115,1.115,0,0,0,.281-.666A13.1,13.1,0,0,0-2.232-11.7a2.9,2.9,0,0,0,.4.241,3.356,3.356,0,0,0,.489.2q.258.085.467.14a8.2,8.2,0,0,1-.3,1.895,1.586,1.586,0,0,1-.673.94,2.527,2.527,0,0,1-1.26.263H-6.543A4.771,4.771,0,0,1-8.031-8.2a1.176,1.176,0,0,1-.734-.644,3.261,3.261,0,0,1-.205-1.29ZM-2.843-15.3l1,1.112q-.859.391-1.9.779t-2.137.73q-1.095.342-2.136.639a2.58,2.58,0,0,0-.178-.53,4.181,4.181,0,0,0-.269-.523q.985-.312,2.023-.688t1.978-.772Q-3.519-14.946-2.843-15.3ZM-8.97-7.461h1.477V-.7a.757.757,0,0,0,.211.639A1.824,1.824,0,0,0-6.352.09h3.286A.955.955,0,0,0-2.421-.1a1.265,1.265,0,0,0,.3-.758,16.181,16.181,0,0,0,.126-1.7,3.876,3.876,0,0,0,.655.333,5.367,5.367,0,0,0,.7.239A10.209,10.209,0,0,1-.946.1a1.734,1.734,0,0,1-.685,1.034,2.468,2.468,0,0,1-1.312.293H-6.507a4.911,4.911,0,0,1-1.5-.182A1.192,1.192,0,0,1-8.761.6,3.22,3.22,0,0,1-8.97-.694Zm6.362,1.082,1,1.12a13.779,13.779,0,0,1-1.913.915q-1.082.428-2.242.8t-2.24.668a2.992,2.992,0,0,0-.2-.544q-.144-.319-.267-.537,1.038-.308,2.136-.707T-4.257-5.5A11.859,11.859,0,0,0-2.609-6.379Zm-10.735-8.538,1.236-.493q.541.691,1.052,1.5t.936,1.589a10.137,10.137,0,0,1,.646,1.4l-1.314.577a9.678,9.678,0,0,0-.606-1.415q-.405-.791-.911-1.62T-13.344-14.917Zm23.568.874h7.391v1.461H10.224ZM.959-15.552h9.768v1.411H.959ZM3.295-11.49H8.481v1.372H3.295Zm0,4.16H8.481v1.36H3.295Zm13.869-6.713h.268L17.7-14.1l.961.265a28.346,28.346,0,0,1-1.618,6.924A17.677,17.677,0,0,1,14.21-1.953a14.261,14.261,0,0,1-3.847,3.263q-.174-.279-.455-.648A3.5,3.5,0,0,0,9.378.09a11.868,11.868,0,0,0,3.585-2.929,16.775,16.775,0,0,0,2.69-4.618,24.552,24.552,0,0,0,1.511-6.234ZM12.047-12.5A29.062,29.062,0,0,0,13.556-7.14,16.93,16.93,0,0,0,16.01-2.792,10.8,10.8,0,0,0,19.548.14,4.655,4.655,0,0,0,19.18.5q-.207.223-.382.453t-.3.428a12.255,12.255,0,0,1-3.7-3.214,18.209,18.209,0,0,1-2.547-4.62,35.411,35.411,0,0,1-1.641-5.767Zm-9.54-2.513H3.949V-2.036H2.507Zm5.362,0H9.314V1.554H7.868ZM.544-2.469q.988-.124,2.272-.3T5.553-3.15q1.453-.208,2.906-.425l.075,1.383q-2.063.328-4.107.656t-3.6.564Zm29.088-9.876v1.636h6.624v-1.636Zm0-2.7v1.6h6.624v-1.6Zm-1.446-1.146h9.57v6.623h-9.57ZM26.94-8.194H38.712V-6.92H26.94Zm-.454,2.989H39.067V-3.9H26.486ZM34.564-7.09h1.5V-.05a2.19,2.19,0,0,1-.159.929,1.026,1.026,0,0,1-.616.5,4.1,4.1,0,0,1-1.192.2q-.743.036-1.858.036A3.131,3.131,0,0,0,32.045.93a6.443,6.443,0,0,0-.308-.678q.854.02,1.528.024t.9-.008a.56.56,0,0,0,.32-.092.346.346,0,0,0,.076-.257ZM28.22-2.871l1.068-.713q.7.633,1.43,1.42A10.055,10.055,0,0,1,31.832-.78L30.7.044a7.2,7.2,0,0,0-.653-.911q-.417-.507-.889-1.037T28.22-2.871Zm-2.839-9.475,1.32.531a19.81,19.81,0,0,1-1.579,2.359,25.984,25.984,0,0,1-1.9,2.2,21.047,21.047,0,0,1-1.993,1.819,4.789,4.789,0,0,0-.2-.444q-.138-.275-.3-.554a4.3,4.3,0,0,0-.295-.456,17.009,17.009,0,0,0,1.829-1.538,20.317,20.317,0,0,0,1.72-1.876A15.346,15.346,0,0,0,25.382-12.346Zm-.364-4.4,1.43.559a15.871,15.871,0,0,1-1.4,1.743,21.4,21.4,0,0,1-1.7,1.666A17.356,17.356,0,0,1,21.554-11.4a3.121,3.121,0,0,0-.223-.41q-.144-.228-.3-.457a3.971,3.971,0,0,0-.276-.37,16.089,16.089,0,0,0,1.619-1.207,16.533,16.533,0,0,0,1.513-1.445A9.737,9.737,0,0,0,25.018-16.751ZM23.582-8.81l1.411-1.411.055.035V1.583H23.582Z" transform="translate(274 2352)" fill="#164b99"/><circle cx="81.67" cy="81.67" r="81.67" transform="matrix(-0.819, -0.574, 0.574, -0.819, 121.8, 2644.487)" fill="url(#c)"/><path d="M-32.166-14.14q-.076-.387-.167-.724t-.2-.644l1.785-.308q.028.276.084.664t.112.72l.172.927q.136.733.348,1.834t.47,2.379q.258,1.279.517,2.575t.484,2.434q.226,1.138.394,1.944t.219,1.082q.1.428.228.913t.268.908l-1.833.344q-.08-.507-.138-.973t-.158-.907q-.043-.265-.193-1.058t-.366-1.913q-.216-1.12-.474-2.409t-.507-2.569q-.248-1.28-.47-2.38t-.37-1.857Q-32.11-13.916-32.166-14.14Zm-5.641,2.884.784-.058q.411-.03.883-.078l1.275-.17q.818-.11,1.854-.266t2.146-.332q1.11-.176,2.15-.352l1.874-.316q.834-.14,1.311-.232.439-.088.813-.175t.623-.158l.324,1.684q-.221.02-.63.08l-.8.12-1.377.214q-.862.134-1.91.3t-2.154.344q-1.106.174-2.133.34l-1.828.3-1.239.2q-.415.076-.791.151t-.827.187Zm-.062,5.774q.359-.02.867-.072t.9-.107q.54-.068,1.452-.208T-32.59-6.2l2.377-.382q1.227-.2,2.389-.4l2.129-.368q.967-.166,1.563-.266.58-.108,1.011-.205t.75-.193l.335,1.68q-.306.02-.771.1t-1.033.175q-.669.1-1.655.262l-2.151.352q-1.164.19-2.373.38t-2.321.38q-1.112.19-2,.334t-1.4.244q-.582.1-1.01.183t-.756.188ZM-12.3-12.24q.048.254.123.576t.156.71q.115.407.35,1.278t.548,1.993q.312,1.123.643,2.316t.641,2.293q.31,1.1.543,1.91T-8.957,0a4.46,4.46,0,0,1,.142.437q.07.253.153.5t.151.427l-1.718.446q-.036-.343-.105-.716a6.291,6.291,0,0,0-.185-.74q-.1-.358-.332-1.2T-11.386-2.8q-.307-1.115-.633-2.317l-.631-2.32q-.3-1.119-.536-1.968t-.351-1.217a5.679,5.679,0,0,0-.221-.674,4.179,4.179,0,0,0-.252-.524ZM-2.7-9.5a13.869,13.869,0,0,1-.82,1.432q-.512.8-1.118,1.621T-5.846-4.892q-.606.726-1.122,1.241l-1.4-.71A14.162,14.162,0,0,0-7.083-5.635q.658-.732,1.238-1.492a11.69,11.69,0,0,0,.91-1.351q-.191.028-.842.16t-1.6.32q-.95.188-2.065.413l-2.245.453-2.133.43q-1,.2-1.731.352t-1.036.218l-.4-1.526q.427-.04.82-.094t.84-.134l.846-.152q.63-.112,1.536-.284T-11-8.687q1.041-.192,2.093-.391t1.97-.38l1.573-.312q.654-.13.9-.186.19-.048.4-.111a2.1,2.1,0,0,0,.359-.139Zm18.214-5.674q-.02.367-.044.8t-.024.934V-10.2q0,1.793-.121,3.056a11.81,11.81,0,0,1-.38,2.151,7.07,7.07,0,0,1-.654,1.57A8.938,8.938,0,0,1,13.357-2.1,7.022,7.022,0,0,1,11.888-.761,10.752,10.752,0,0,1,10.2.19Q9.343.572,8.6.824L7.3-.55a12.589,12.589,0,0,0,2.616-.985,7.224,7.224,0,0,0,2.163-1.687A6.563,6.563,0,0,0,12.943-4.5a5.8,5.8,0,0,0,.5-1.45A12.773,12.773,0,0,0,13.679-7.8q.064-1.054.064-2.472v-3.164q0-.5-.028-.934t-.076-.8Zm-9.284.156q-.02.282-.044.679t-.024.754V-6.9q0,.38.024.816t.044.714H4.41q.032-.239.06-.671T4.5-6.912v-6.67q0-.268-.02-.71t-.06-.724Zm32.394,1.5q-.119.135-.277.34t-.269.372a17.029,17.029,0,0,1-1.136,1.675,23,23,0,0,1-1.721,2.02,13.667,13.667,0,0,1-2.119,1.821L31.777-8.347a9.1,9.1,0,0,0,1.367-.967,15.39,15.39,0,0,0,1.265-1.2,14.62,14.62,0,0,0,1.045-1.234,8.23,8.23,0,0,0,.7-1.069H24.757q-.562,0-1.124.028t-1.147.083v-1.8q.523.068,1.116.119t1.156.052h11.49q.193,0,.46-.014t.528-.045a3.344,3.344,0,0,0,.4-.067Zm-8,2.635q0,1.62-.095,3.041a15.4,15.4,0,0,1-.4,2.658,8.723,8.723,0,0,1-.915,2.293A8.087,8.087,0,0,1,27.6-.924,11.28,11.28,0,0,1,25.055.742L23.59-.46a6.709,6.709,0,0,0,.895-.369,6.983,6.983,0,0,0,.9-.522,7.049,7.049,0,0,0,1.87-1.593A6.439,6.439,0,0,0,28.31-4.849a9.875,9.875,0,0,0,.483-2.181,22.114,22.114,0,0,0,.126-2.4q0-.361-.012-.709a5.924,5.924,0,0,0-.075-.742ZM-14.975,18.06h9.926v1.235h-9.926Zm-.37,3.412H-4.623V22.75H-15.345Zm6.657-3.029h1.357v8.78H-8.688Zm-4.109.063h1.313v3.647a6.979,6.979,0,0,1-.114,1.136,7.44,7.44,0,0,1-.41,1.435,6.443,6.443,0,0,1-.833,1.492,5.525,5.525,0,0,1-1.382,1.3,4.334,4.334,0,0,0-.46-.48,4.125,4.125,0,0,0-.539-.428A4.674,4.674,0,0,0-13.7,25.148a5.393,5.393,0,0,0,.71-1.641,6.211,6.211,0,0,0,.188-1.362Zm-4.656-5.673h5.615V13.9h-5.615Zm9.223,0h5.664V13.9H-8.231Zm5.072-2.773h1.482V25.653a2.612,2.612,0,0,1-.173,1.056,1.176,1.176,0,0,1-.615.583,3.78,3.78,0,0,1-1.214.234q-.765.045-1.913.037a4.27,4.27,0,0,0-.1-.475q-.069-.27-.166-.55a2.868,2.868,0,0,0-.211-.481q.836.02,1.544.024t.955-.008a.469.469,0,0,0,.319-.106.454.454,0,0,0,.09-.318Zm-14.162,0h6.4v6.735h-6.4v-1.15h4.988V11.2H-17.32Zm14.889,0V11.2H-7.716v4.467h5.284v1.149H-9.146V10.059Zm-15.791,0h1.474v17.56h-1.474ZM4.51,16.305h11V17.74h-11ZM2.5,10.059H8.466V11.38H2.5Zm-.51,10.663H17.957v1.391H1.992ZM7.95,10.059h.276L8.507,10l1,.477a12.915,12.915,0,0,1-1.4,2.752,14.769,14.769,0,0,1-1.921,2.312,15.753,15.753,0,0,1-2.264,1.846,16.93,16.93,0,0,1-2.417,1.354,4.824,4.824,0,0,0-.422-.6,3.937,3.937,0,0,0-.508-.542,13.244,13.244,0,0,0,2.246-1.186,14.947,14.947,0,0,0,2.11-1.669,13.669,13.669,0,0,0,1.783-2.058A10.113,10.113,0,0,0,7.95,10.344ZM6.641,16.985H8.13v3.431a11.32,11.32,0,0,1-.188,2.06,5.924,5.924,0,0,1-.753,1.966,6.273,6.273,0,0,1-1.677,1.778A11.1,11.1,0,0,1,2.54,27.7a2.9,2.9,0,0,0-.262-.4q-.168-.22-.351-.433a3.018,3.018,0,0,0-.349-.35,10.791,10.791,0,0,0,2.714-1.278,5.431,5.431,0,0,0,1.522-1.509,4.715,4.715,0,0,0,.667-1.643,9.035,9.035,0,0,0,.16-1.691Zm4.947-7.719a14.915,14.915,0,0,0,1.864,3.411,14.857,14.857,0,0,0,2.685,2.831,12.513,12.513,0,0,0,3.295,1.927,3.5,3.5,0,0,0-.366.376q-.2.23-.376.463a4.532,4.532,0,0,0-.3.437,13.781,13.781,0,0,1-3.37-2.17,16.113,16.113,0,0,1-2.751-3.107,18.966,18.966,0,0,1-1.992-3.782Zm-9.35,3.617.954-.8q.474.318.98.727t.967.8a8.243,8.243,0,0,1,.75.7l-1,.916a9.536,9.536,0,0,0-.721-.725q-.448-.412-.953-.839T2.239,12.882ZM15.313,9.414l1.155.8q-.763.753-1.687,1.529t-1.689,1.313l-.927-.722q.505-.377,1.087-.881t1.131-1.044Q14.931,9.871,15.313,9.414Zm2.376,2.292,1.119.8Q18,13.284,17,14.084t-1.842,1.37l-.922-.722q.545-.389,1.183-.914t1.245-1.086Q17.267,12.171,17.688,11.706ZM11.636,17.04h1.54v8.292a.894.894,0,0,0,.145.616,1.05,1.05,0,0,0,.663.138h2.3a.591.591,0,0,0,.482-.188,1.505,1.505,0,0,0,.223-.734q.066-.545.106-1.613a2.953,2.953,0,0,0,.65.361,4.937,4.937,0,0,0,.717.247,10.287,10.287,0,0,1-.277,2,1.721,1.721,0,0,1-.615,1.006,2.017,2.017,0,0,1-1.157.287H13.778a3.653,3.653,0,0,1-1.315-.186,1.114,1.114,0,0,1-.644-.647,3.614,3.614,0,0,1-.183-1.29Z" transform="translate(102 2532)" fill="#164b99"/><g transform="translate(0 -162)"><circle cx="70" cy="70" r="70" transform="translate(118 2527)" fill="url(#d)"/><path d="M-35.61-2.564h2.03v.536h-2.03ZM-36.173-7.4h3.148v.582h-3.148Zm-.29,2.187h6.077V-4.6h-6.077ZM-35.488-4h2.247V-.567h-2.247v-.555h1.631V-3.439h-1.631Zm-.439,0h.6V.068h-.6Zm.961-4.39h.657v1.4h-.657Zm3.671,4.3.631.134a9.55,9.55,0,0,1-1.2,2.779A7.109,7.109,0,0,1-33.746.8,1.515,1.515,0,0,0-33.87.643q-.084-.095-.177-.19T-34.211.3A5.906,5.906,0,0,0-32.39-1.513,8.5,8.5,0,0,0-31.295-4.089ZM-35.87-6.632l.513-.122a4.334,4.334,0,0,1,.236.722,3.955,3.955,0,0,1,.11.686l-.551.13a3.48,3.48,0,0,0-.1-.682A6.191,6.191,0,0,0-35.87-6.632Zm3.918-1.124.513-.27a6.091,6.091,0,0,1,.626.828,5.324,5.324,0,0,1,.436.807l-.551.3a4.915,4.915,0,0,0-.417-.819A6.372,6.372,0,0,0-31.952-7.756Zm-2.013.982.612.141q-.12.358-.237.745t-.222.653l-.5-.123q.1-.3.2-.7T-33.965-6.775ZM-39.5-7.968h3.337V-7.3H-39.5Zm.78,2.1h1.805v.629h-1.805Zm0,2.067h1.805v.635h-1.805Zm-.31-3.825h.633v6.4h-.633Zm1.729,0h.651V.8H-37.3Zm-2.372,6.31q.526-.094,1.237-.233t1.475-.3l.051.655-1.384.3q-.686.149-1.249.275Zm6.877-7.064h.678q0,1.34.04,2.569t.117,2.269q.075,1.04.191,1.81A6.724,6.724,0,0,0-31.5-.531q.155.435.347.441.117,0,.2-.4a7.94,7.94,0,0,0,.129-1.1,1.429,1.429,0,0,0,.161.154,1.684,1.684,0,0,0,.2.143l.158.1a6.636,6.636,0,0,1-.24,1.211,1.6,1.6,0,0,1-.3.6.463.463,0,0,1-.324.165.808.808,0,0,1-.666-.464,4.3,4.3,0,0,1-.45-1.285,16.613,16.613,0,0,1-.28-1.971q-.1-1.141-.153-2.522T-32.793-8.385Zm3.429,6.157h8.76v.637h-8.76Zm.038-4.388h8.685v.637h-8.685Zm.4,1.714H-21v.62h-7.918Zm.5,1.351h6.929v.579H-28.42Zm3.031-1.064h.745V.8h-.745Zm-.919-3.793h.71v2.1h-.71Zm1.9,0h.717v2.06h-.717Zm-1.218,6.433.6.284a5.965,5.965,0,0,1-1.141.966,10.081,10.081,0,0,1-1.451.8,11.087,11.087,0,0,1-1.519.56,1.469,1.469,0,0,0-.138-.216q-.087-.115-.176-.23A1.446,1.446,0,0,0-29.627,0a10.7,10.7,0,0,0,1.5-.468,9.7,9.7,0,0,0,1.416-.686A5.346,5.346,0,0,0-25.629-1.975Zm1.219-.018a5.153,5.153,0,0,0,.779.641,7.613,7.613,0,0,0,1,.57,10.072,10.072,0,0,0,1.125.458A10.4,10.4,0,0,0-20.357,0q-.081.081-.179.2t-.184.242a2.517,2.517,0,0,0-.141.227,10.567,10.567,0,0,1-1.156-.4A9.854,9.854,0,0,1-23.145-.29a8.877,8.877,0,0,1-1.022-.679,5.62,5.62,0,0,1-.826-.772Zm2.32-6.288.767.21q-.219.4-.467.816t-.462.709l-.613-.2q.14-.212.285-.482t.274-.549Q-22.175-8.058-22.09-8.28Zm-1.34,2.111.775.2q-.183.333-.373.66t-.358.568l-.624-.188q.15-.268.318-.619A6.4,6.4,0,0,0-23.431-6.169Zm-5.089-1.908.64-.225a6.72,6.72,0,0,1,.506.755,4.258,4.258,0,0,1,.351.729l-.673.257a4.414,4.414,0,0,0-.336-.736A8.009,8.009,0,0,0-28.519-8.077Zm1.3,2.17.712-.137a4.754,4.754,0,0,1,.327.548,2.809,2.809,0,0,1,.218.532l-.74.155a3.258,3.258,0,0,0-.2-.537A3.954,3.954,0,0,0-27.215-5.907Zm10.993-.921h5.512v.7h-5.512Zm.2,2.208h4.414v.688h-4.414ZM-13.865-8.4h.745v4.172h-.745Zm-1.183,4.286a6.809,6.809,0,0,0,1.758,2.7A6.662,6.662,0,0,0-10.347.161a1.89,1.89,0,0,0-.177.193q-.095.116-.176.235t-.139.218A7.04,7.04,0,0,1-13.854-.942a8.129,8.129,0,0,1-1.869-2.977Zm3.38-.5h.142l.136-.032.476.211a7.427,7.427,0,0,1-.87,1.922,7.278,7.278,0,0,1-1.272,1.492A7.982,7.982,0,0,1-14.626.067a9.726,9.726,0,0,1-1.766.725,1.453,1.453,0,0,0-.1-.225q-.069-.126-.149-.25a1.373,1.373,0,0,0-.153-.2,8.534,8.534,0,0,0,1.662-.623,7.423,7.423,0,0,0,1.49-.979,6.544,6.544,0,0,0,1.2-1.333,5.881,5.881,0,0,0,.779-1.673Zm-7.965,1.512q.42-.1.953-.246t1.127-.311q.593-.169,1.185-.334l.095.683q-.818.25-1.643.494t-1.5.438Zm.124-3.272h3.143v.706H-19.51ZM-18.216-8.4h.741V-.11a1.119,1.119,0,0,1-.085.488.564.564,0,0,1-.283.26,1.613,1.613,0,0,1-.521.112q-.327.026-.846.019A1.694,1.694,0,0,0-19.3.434a3.142,3.142,0,0,0-.144-.349q.352.01.644.01t.392-.006a.171.171,0,0,0,.19-.2Zm10.295-.009.776.182q-.18.413-.388.856t-.423.848q-.215.4-.414.723l-.648-.186q.2-.326.4-.751t.389-.868Q-8.042-8.045-7.921-8.407ZM-9.6-6.281-8.4-6.326q.681-.025,1.449-.062T-5.4-6.455l-.01.668L-6.9-5.7l-1.419.079q-.673.036-1.222.07ZM-9-4.837h3.168V-4.2H-8.3V.788H-9Zm2.828,0h.739V-.07A1.174,1.174,0,0,1-5.5.386a.516.516,0,0,1-.277.261,1.657,1.657,0,0,1-.539.105q-.332.019-.8.019a1.991,1.991,0,0,0-.1-.349A2.4,2.4,0,0,0-7.374.083q.354.01.643.012t.4-.008A.193.193,0,0,0-6.2.054a.19.19,0,0,0,.032-.129Zm-2.5,1.5h2.887v.59H-8.664Zm0,1.5h2.887v.6H-8.664Zm4.179-6.542h.743v3.312q0,.243.1.315a.868.868,0,0,0,.44.071h1.589a.448.448,0,0,0,.3-.085.557.557,0,0,0,.14-.333,6.55,6.55,0,0,0,.061-.743,1.452,1.452,0,0,0,.2.12,1.678,1.678,0,0,0,.244.1q.129.042.234.07a4.1,4.1,0,0,1-.149.947.793.793,0,0,1-.337.47,1.263,1.263,0,0,1-.63.132H-3.272A2.385,2.385,0,0,1-4.015-4.1a.588.588,0,0,1-.367-.322,1.63,1.63,0,0,1-.1-.645Zm3.064.736.5.556q-.429.2-.95.39t-1.069.365q-.547.171-1.068.319A1.29,1.29,0,0,0-4.1-6.284a2.091,2.091,0,0,0-.134-.261q.493-.156,1.012-.344t.989-.386Q-1.76-7.473-1.421-7.648ZM-4.485-3.731h.739v3.38a.378.378,0,0,0,.105.32.912.912,0,0,0,.465.076h1.643A.477.477,0,0,0-1.21-.049.633.633,0,0,0-1.06-.428,8.09,8.09,0,0,0-1-1.278a1.938,1.938,0,0,0,.327.167,2.683,2.683,0,0,0,.351.119A5.1,5.1,0,0,1-.473.049.867.867,0,0,1-.816.566a1.234,1.234,0,0,1-.656.147H-3.253A2.455,2.455,0,0,1-4.005.622.6.6,0,0,1-4.381.3a1.61,1.61,0,0,1-.1-.647Zm3.181.541.5.56a6.89,6.89,0,0,1-.956.458q-.541.214-1.121.4T-4-1.44a1.5,1.5,0,0,0-.1-.272q-.072-.16-.133-.268.519-.154,1.068-.354t1.037-.418A5.929,5.929,0,0,0-1.3-3.189ZM-6.672-7.458l.618-.247q.27.346.526.749t.468.794a5.069,5.069,0,0,1,.323.7l-.657.288a4.839,4.839,0,0,0-.3-.707q-.2-.4-.455-.81T-6.672-7.458ZM.52-2.225H9.49v.649H.52Zm.246-5.37h8.5v.637H.766ZM6.481-3.117h.741V0a1,1,0,0,1-.09.476.555.555,0,0,1-.337.242,2.706,2.706,0,0,1-.669.09Q5.7.828,5.059.828A1.392,1.392,0,0,0,4.964.494,3.569,3.569,0,0,0,4.812.168q.334,0,.63.011t.515,0l.3,0A.315.315,0,0,0,6.437.131a.19.19,0,0,0,.044-.145ZM4.6-8.385h.741v5.1H4.6ZM2.046-1.063,2.6-1.47a6.519,6.519,0,0,1,.6.43q.306.244.572.485A3.332,3.332,0,0,1,4.2-.1l-.6.46a3.654,3.654,0,0,0-.408-.463Q2.936-.36,2.634-.611T2.046-1.063Zm.161-3.312v.824H7.8v-.824Zm0-1.344V-4.9H7.8V-5.72ZM1.5-6.277H8.538V-3H1.5Zm9.773-.14H14.05v.571H11.273Zm4.6,0H18.7v.571H15.873Zm2.51-1.51h.756v7.7a1.288,1.288,0,0,1-.1.579.637.637,0,0,1-.358.3,2.5,2.5,0,0,1-.716.115q-.456.021-1.136.021A1.883,1.883,0,0,0,16.764.54q-.043-.139-.1-.283a1.779,1.779,0,0,0-.117-.248q.349.014.67.018t.565,0l.34,0a.317.317,0,0,0,.2-.059.262.262,0,0,0,.056-.192Zm-7.05,0H14.5v3.671H11.332v-.632h2.457V-7.3H11.332Zm7.444,0V-7.3H16.152v2.422h2.624v.631H15.437V-7.928Zm-7.857,0h.739V.8h-.739Zm10.31,3.619h3.012v.61H21.229Zm-.414-3.046h3.273V-6.7H20.815Zm-.4,1.643h4.849v.66H20.42ZM22.138-8.4h.706V-5.37h-.706Zm2.656.232.7.2a11.54,11.54,0,0,1-1.969,3.259,10.662,10.662,0,0,1-2.783,2.294,1.363,1.363,0,0,0-.146-.186q-.1-.109-.2-.214t-.184-.173a9.256,9.256,0,0,0,2.737-2.134A10.277,10.277,0,0,0,24.794-8.172ZM22.537-2.96h.707V0a1.076,1.076,0,0,1-.073.443.5.5,0,0,1-.281.24,1.8,1.8,0,0,1-.538.1Q22.023.8,21.541.8a1.769,1.769,0,0,0-.088-.331,1.976,1.976,0,0,0-.147-.325q.378.01.668.01t.393-.006A.218.218,0,0,0,22.5.1a.161.161,0,0,0,.032-.113ZM24.09-4.308h.16l.138-.04.434.321a7.348,7.348,0,0,1-.826.87,7.532,7.532,0,0,1-.919.719,1.424,1.424,0,0,0-.186-.21q-.119-.113-.2-.182a5.121,5.121,0,0,0,.524-.408q.266-.234.5-.484a4.053,4.053,0,0,0,.379-.464ZM20.369-1.856l1.415-.136q.8-.077,1.708-.171t1.81-.19V-1.7l-1.742.19-1.671.183-1.429.156Zm5.678-4.683H29.61v.7H26.047ZM26.312-8.4l.756.12a17.992,17.992,0,0,1-.427,1.821,13.312,13.312,0,0,1-.592,1.644,6.971,6.971,0,0,1-.758,1.335q-.061-.067-.174-.166t-.234-.194a2.286,2.286,0,0,0-.212-.149A5.887,5.887,0,0,0,25.4-5.216a11.04,11.04,0,0,0,.543-1.516A15.934,15.934,0,0,0,26.312-8.4Zm1.922,2.247L29-6.073a15.321,15.321,0,0,1-.715,3.038A7.244,7.244,0,0,1,27-.771a6.711,6.711,0,0,1-2.065,1.6,1.823,1.823,0,0,0-.117-.218Q24.743.485,24.654.36a1.473,1.473,0,0,0-.168-.2A5.818,5.818,0,0,0,26.429-1.27a6.325,6.325,0,0,0,1.179-2.083A13.639,13.639,0,0,0,28.234-6.154Zm-1.807.211a16.147,16.147,0,0,0,.626,2.59,8,8,0,0,0,1.053,2.117,4.542,4.542,0,0,0,1.58,1.4,2.131,2.131,0,0,0-.19.185A2.779,2.779,0,0,0,29.3.584q-.09.121-.151.223A5.229,5.229,0,0,1,27.507-.751a8.812,8.812,0,0,1-1.089-2.267,19.107,19.107,0,0,1-.67-2.812Zm5.612,1.78h5.489v.635H32.786V.8H32.04Zm5.232,0h.754V0a.933.933,0,0,1-.091.462.566.566,0,0,1-.325.234,2.406,2.406,0,0,1-.636.088q-.4.013-1,.013a1.628,1.628,0,0,0-.1-.307,3.194,3.194,0,0,0-.148-.312q.293.01.567.014t.482,0l.284,0a.275.275,0,0,0,.172-.048.191.191,0,0,0,.044-.142Zm-4.789,1.4h5.1V-2.2h-5.1ZM30.61-7.422h8.8v.668h-8.8Zm2.775.406.818.239q-.327.46-.714.939t-.711.815l-.6-.229q.2-.24.428-.551t.431-.631Q33.245-6.754,33.385-7.016Zm2.788.634.592-.387q.445.286.932.641t.916.714a7.326,7.326,0,0,1,.7.657l-.631.45a6.918,6.918,0,0,0-.673-.668q-.417-.368-.9-.739T36.173-6.382ZM31-5.48q.667,0,1.514-.013t1.806-.031l1.971-.036q1.012-.018,2.012-.044l-.04.621L35.638-4.9q-1.321.042-2.507.071l-2.1.049Zm1.479,4.05h5.071v.559H32.482ZM34.6-8.407h.768V-7.1H34.6ZM-15.426,6.152H-10.6v.7h-4.829Zm-.28,3.586h5.31v.717h-5.31Zm3.46-3.306h.715V14.8h-.715Zm-2.346.032h.707v3.5q0,.626-.05,1.28a8.848,8.848,0,0,1-.2,1.291,5.861,5.861,0,0,1-.426,1.226,4.117,4.117,0,0,1-.753,1.081,1.634,1.634,0,0,0-.165-.15q-.1-.081-.21-.157a1.7,1.7,0,0,0-.2-.124,3.773,3.773,0,0,0,.69-1,5.492,5.492,0,0,0,.389-1.135,7.868,7.868,0,0,0,.174-1.182q.041-.59.041-1.135Zm-4.9-.316h3.525v.688h-3.525Zm1.007,3.063h2.342V13.54h-2.342v-.672h1.68V9.89h-1.68Zm.3-2.743.694.148q-.172.944-.43,1.846a12.677,12.677,0,0,1-.607,1.683,6.712,6.712,0,0,1-.814,1.38,1.607,1.607,0,0,0-.08-.248q-.06-.152-.129-.308a1.675,1.675,0,0,0-.133-.25,6.434,6.434,0,0,0,.938-1.886A15.769,15.769,0,0,0-18.182,6.469Zm-.632,2.743h.641v5.13h-.641Zm9.934,1.654h5.9v.7h-5.9Zm5.488,0h.777v2.828a.361.361,0,0,0,.061.255.423.423,0,0,0,.265.056h.848a.245.245,0,0,0,.214-.1.973.973,0,0,0,.1-.422q.028-.321.042-.974a1.049,1.049,0,0,0,.209.131,2.55,2.55,0,0,0,.263.111l.239.085a6.672,6.672,0,0,1-.131,1.171,1.015,1.015,0,0,1-.3.574.871.871,0,0,1-.557.16H-2.4a1.611,1.611,0,0,1-.6-.089.538.538,0,0,1-.306-.316,1.809,1.809,0,0,1-.089-.639ZM-5.378,5.593h.768V6.955h-.768Zm-1.2,1.419h.786a5.973,5.973,0,0,1-.249,1.194,2.675,2.675,0,0,1-.52.925,2.886,2.886,0,0,1-.935.686,6.462,6.462,0,0,1-1.488.474,1.649,1.649,0,0,0-.164-.321,1.5,1.5,0,0,0-.229-.292,6.229,6.229,0,0,0,1.336-.383,2.457,2.457,0,0,0,.819-.552,2.03,2.03,0,0,0,.443-.752A4.665,4.665,0,0,0-6.58,7.012Zm2.311.011h.745v1.95q0,.177.071.225a.758.758,0,0,0,.347.048h1.249A.373.373,0,0,0-1.643,9.2a.323.323,0,0,0,.1-.212,3.805,3.805,0,0,0,.044-.49,1.254,1.254,0,0,0,.2.112,2.252,2.252,0,0,0,.242.095q.124.04.229.068a2.731,2.731,0,0,1-.135.708.617.617,0,0,1-.291.351,1.17,1.17,0,0,1-.525.1H-3.188a2.113,2.113,0,0,1-.67-.083.517.517,0,0,1-.324-.289,1.5,1.5,0,0,1-.088-.572Zm-4.96-.5h8.54V8.248h-.778V7.2H-8.482V8.33h-.746ZM-6,9.641h.746v1.211a4.888,4.888,0,0,1-.076.84,3.12,3.12,0,0,1-.3.872,3.235,3.235,0,0,1-.64.846,4.776,4.776,0,0,1-1.1.772,8.54,8.54,0,0,1-1.693.645,2.369,2.369,0,0,0-.229-.31,3.885,3.885,0,0,0-.278-.3,8.8,8.8,0,0,0,1.591-.581,4.634,4.634,0,0,0,1.034-.676,2.831,2.831,0,0,0,.6-.722,2.545,2.545,0,0,0,.273-.724A3.451,3.451,0,0,0-6,10.837Zm9.482,1.07H9.558v.616H3.486Zm.793,1.58.4-.455q.267.146.555.336t.544.378a4.685,4.685,0,0,1,.42.342l-.418.519a4.3,4.3,0,0,0-.414-.363q-.254-.2-.538-.4T4.28,12.291Zm3.236-2.165.368-.358q.281.15.586.353a2.984,2.984,0,0,1,.472.373l-.384.389A3.747,3.747,0,0,0,8.09,10.5Q7.792,10.285,7.515,10.125ZM4.222,11h.684a11.328,11.328,0,0,1-.2,1.477,4.773,4.773,0,0,1-.458,1.3,2.964,2.964,0,0,1-.876,1,1.875,1.875,0,0,0-.207-.262,1.555,1.555,0,0,0-.252-.228,2.4,2.4,0,0,0,.77-.871,4.121,4.121,0,0,0,.385-1.142A9.9,9.9,0,0,0,4.222,11Zm1.8-5.393h.674Q6.679,7.1,6.758,8.4T7,10.765a11.476,11.476,0,0,0,.414,1.82A3.744,3.744,0,0,0,8,13.755a.943.943,0,0,0,.737.41.316.316,0,0,0,.309-.231,3.534,3.534,0,0,0,.13-.909,1.557,1.557,0,0,0,.261.192,2.384,2.384,0,0,0,.269.141,3.875,3.875,0,0,1-.17.878.86.86,0,0,1-.314.448.961.961,0,0,1-.535.132,1.408,1.408,0,0,1-1.046-.464,3.665,3.665,0,0,1-.753-1.307,11.128,11.128,0,0,1-.493-1.993Q6.2,9.9,6.118,8.517T6.02,5.606Zm2.241,5.875.647.243a5.469,5.469,0,0,1-1.377,1.813,7.414,7.414,0,0,1-2.05,1.256,2.47,2.47,0,0,0-.191-.245,2.63,2.63,0,0,0-.224-.233,6.505,6.505,0,0,0,1.956-1.171A4.788,4.788,0,0,0,8.261,11.481ZM6.742,7.343l.313-.412a6.017,6.017,0,0,1,.665.533,3.487,3.487,0,0,1,.507.555L7.9,8.487a3.734,3.734,0,0,0-.5-.575A6.635,6.635,0,0,0,6.742,7.343Zm1.87,1.215.461-.186a6.185,6.185,0,0,1,.391.752,3.529,3.529,0,0,1,.237.694l-.49.23a5.029,5.029,0,0,0-.233-.721A5.825,5.825,0,0,0,8.612,8.558Zm-1.739.694q.471-.024,1.07-.062L9.2,9.109l.006.516q-.6.056-1.16.112t-1.061.1ZM7.9,5.7l.586.231q-.217.412-.458.859t-.447.753l-.425-.2q.126-.224.264-.512t.268-.588Q7.821,5.941,7.9,5.7Zm.826,1,.553.263q-.25.432-.55.908t-.6.919q-.3.444-.576.784L7.13,9.332q.27-.342.567-.8t.571-.945Q8.543,7.1,8.729,6.7Zm-5.37.645.313-.412a6.017,6.017,0,0,1,.665.533,3.23,3.23,0,0,1,.5.555l-.32.467a4.069,4.069,0,0,0-.505-.575A7.092,7.092,0,0,0,3.359,7.343ZM5.091,8.617l.461-.171a5.528,5.528,0,0,1,.358.754,3.8,3.8,0,0,1,.209.7l-.5.212a4.007,4.007,0,0,0-.2-.719A6.235,6.235,0,0,0,5.091,8.617Zm-1.7.748q.47-.024,1.073-.069t1.265-.089l.006.537q-.6.064-1.166.117l-1.067.1ZM4.52,5.7l.582.235q-.217.412-.459.863T4.2,7.557l-.431-.2q.132-.228.27-.52t.268-.6Q4.438,5.941,4.52,5.7Zm.825,1,.547.263q-.26.44-.566.935T4.7,8.85q-.316.459-.6.808l-.425-.229q.28-.356.589-.836t.6-.98Q5.15,7.112,5.346,6.7ZM.516,7.769H3.549v.7H.516ZM1.785,5.6h.68v9.189h-.68ZM1.759,8.188l.445.14q-.1.586-.262,1.228t-.358,1.261q-.2.619-.43,1.15a6.114,6.114,0,0,1-.475.909,2.41,2.41,0,0,0-.172-.321q-.113-.181-.2-.3a5.825,5.825,0,0,0,.447-.811q.219-.473.413-1.024t.348-1.125Q1.67,8.72,1.759,8.188Zm.658.658q.08.1.238.348L3,9.737q.188.3.342.55t.214.364l-.383.551q-.07-.185-.213-.475t-.308-.6q-.164-.312-.313-.579t-.232-.415Zm11.752-1.21h5.079V8.19H14.169Zm-.432,1.236h5.857v.571H13.737Zm-.176,3.7h6.152v.589H13.561Zm1.053-1.27h4.035v.542H14.613Zm-.638-4.874h5.418v.559H13.976ZM15.129,5.6h.7V9.154h-.7Zm1.137,3.625h.69v3.6h-.69ZM17.437,5.6h.707V9.129h-.707Zm-3.2,4.447h4.408V10.6H14.933v4.169h-.694Zm4.128,0h.7V14a1.01,1.01,0,0,1-.073.428.479.479,0,0,1-.267.229,1.913,1.913,0,0,1-.54.093q-.333.018-.828.018a1.715,1.715,0,0,0-.087-.309,2.915,2.915,0,0,0-.133-.309q.364.01.662.013t.394,0q.172-.006.172-.162ZM10.52,7.769h3.248v.706H10.52Zm1.4-2.173h.688v9.189h-.688ZM11.9,8.188l.463.154q-.112.6-.29,1.237t-.4,1.26a12.006,12.006,0,0,1-.47,1.149,6.323,6.323,0,0,1-.515.908,2.386,2.386,0,0,0-.176-.333q-.117-.189-.206-.311a5.828,5.828,0,0,0,.489-.813,11.111,11.111,0,0,0,.452-1.024q.212-.549.378-1.123T11.9,8.188Zm.658.91q.09.1.265.356t.381.553q.206.3.374.556t.234.365l-.417.56q-.084-.189-.239-.477t-.335-.6q-.179-.312-.343-.579t-.261-.416Z" transform="translate(185.021 2619.455)" fill="#fff"/><g transform="translate(139.415 2570.891)"><path d="M79.713.177A14.631,14.631,0,1,0,94.344,14.808,14.631,14.631,0,0,0,79.713.177m6.553,19.054a7.91,7.91,0,1,1,1.353-4.423,7.913,7.913,0,0,1-1.353,4.423" transform="translate(2.601 0.007)" fill="#fff"/><path d="M79.285,10.891a3.49,3.49,0,1,1-3.49,3.49,3.491,3.491,0,0,1,3.49-3.49" transform="translate(3.028 0.435)" fill="#fff" fill-rule="evenodd"/><path d="M36.007,21.638a3.49,3.49,0,1,1-3.49,3.49,3.491,3.491,0,0,1,3.49-3.49" transform="translate(1.299 0.865)" fill="#fff" fill-rule="evenodd"/><path d="M52.374,18.965a10.08,10.08,0,0,0,4.547-3.289C59.6,12.22,59.2,6.136,56.146,3.08Q53.171.106,47.6.1H32.7V21.189h6.582V5.931h7.773a5.917,5.917,0,0,1,3.729,1.047,4.334,4.334,0,0,1,.063,6.245,5.361,5.361,0,0,1-3.667,1.131h-5.1L52,29.442H59.54Z" transform="translate(1.306 0.004)" fill="#fff" fill-rule="evenodd"/><path d="M23.449,2.975Q20.474,0,14.9,0H0V29.446H6.582V5.826h7.773a5.917,5.917,0,0,1,3.729,1.047,3.812,3.812,0,0,1,1.35,2.887c0,.047,0,.094,0,.14s0,.093,0,.139a3.814,3.814,0,0,1-1.35,2.888,4.628,4.628,0,0,1-1.688.8,5.348,5.348,0,0,1-.189,6.023,10.894,10.894,0,0,0,7.242-2.932A9.819,9.819,0,0,0,26,9.9a9.823,9.823,0,0,0-2.551-6.925" transform="translate(0 0)" fill="#fff" fill-rule="evenodd"/><path d="M11.535,12.611a3.49,3.49,0,1,1-3.49,3.49,3.491,3.491,0,0,1,3.49-3.49" transform="translate(0.322 0.504)" fill="#fff" fill-rule="evenodd"/></g></g><path d="M1146.977,1759.6H987.01l-.145-.245c-.231-.389-23.174-39.054-29.9-50.919l.87-.493c6.438,11.361,27.767,47.327,29.742,50.657h159.4Z" transform="translate(-805.977 852.97)" fill="#164b99"/><circle cx="2.882" cy="2.882" r="2.882" transform="translate(148.235 2558.28)" fill="#164b99"/><g transform="translate(0 -162)"><path d="M1116.936,1761.746h-153.6v-1h153.21l34.115-31.417.677.736Z" transform="translate(-932.335 754.948)" fill="#164b99"/><circle cx="2.882" cy="2.882" r="2.882" transform="translate(215.781 2481.762)" fill="#164b99"/></g><g transform="translate(-2 -159)"><path d="M6.5-6.324a1.328,1.328,0,0,1,.7.187,1.452,1.452,0,0,1,.5.5,1.323,1.323,0,0,1,.188.7,1.337,1.337,0,0,1-.187.692,1.428,1.428,0,0,1-.5.5,1.326,1.326,0,0,1-.7.187,1.338,1.338,0,0,1-.692-.187,1.405,1.405,0,0,1-.5-.5,1.335,1.335,0,0,1-.187-.691,1.33,1.33,0,0,1,.187-.7,1.429,1.429,0,0,1,.5-.5A1.331,1.331,0,0,1,6.5-6.324ZM18.473-9.368h6.512V-8.5H18.473Zm-.546,2.523h7.606v.874H17.927ZM17.99-4.5H25.4v.869H17.99Zm3.216-6.434h.963v4.624h-.963Zm1.715,4.824h.958V-.118a1.414,1.414,0,0,1-.118.641.737.737,0,0,1-.42.339A2.758,2.758,0,0,1,22.531,1q-.509.024-1.3.024a2.408,2.408,0,0,0-.124-.457A3.134,3.134,0,0,0,20.9.1q.606.013,1.1.02t.648,0a.37.37,0,0,0,.217-.059.256.256,0,0,0,.058-.2ZM18.783-2.713l.778-.462q.334.331.668.73t.616.791a4.338,4.338,0,0,1,.427.712l-.84.516a4.44,4.44,0,0,0-.4-.724q-.267-.4-.59-.812A9.2,9.2,0,0,0,18.783-2.713Zm-4.329-7.357H17.7v8.548H14.453v-.884h2.333V-9.179H14.453Zm.041,3.783h2.722v.877H14.494Zm-.512-3.783H14.9V-.456h-.917Zm16.23,3.615,8.056-1.016.141.922L30.35-5.532Zm5.078-3.725L36-10.647q.391.307.806.684t.772.747a6.96,6.96,0,0,1,.577.667l-.757.518a6.628,6.628,0,0,0-.559-.672q-.35-.376-.753-.768T35.289-10.181Zm-5.226-.606.927.3a18.254,18.254,0,0,1-1.149,2.236A18.811,18.811,0,0,1,28.416-6.2a14.036,14.036,0,0,1-1.575,1.682q-.051-.115-.154-.3t-.216-.36a2.624,2.624,0,0,0-.2-.287,11.687,11.687,0,0,0,1.462-1.48,15.293,15.293,0,0,0,1.307-1.83A14.381,14.381,0,0,0,30.063-10.786ZM28.591-7.319l.985-.985.01.018V1.019h-1Zm4.533-3.413h.98q.069,2.195.28,4.091A25.07,25.07,0,0,0,34.96-3.3a7.579,7.579,0,0,0,.911,2.274,1.771,1.771,0,0,0,1.275.908q.282.013.448-.557a9.525,9.525,0,0,0,.265-1.7,2.687,2.687,0,0,0,.255.2,3.615,3.615,0,0,0,.309.193q.156.087.246.13A8.864,8.864,0,0,1,38.314-.1a2.128,2.128,0,0,1-.5.892.852.852,0,0,1-.629.234A2.437,2.437,0,0,1,35.66.367a4.763,4.763,0,0,1-1.093-1.652,12.842,12.842,0,0,1-.737-2.495,31.088,31.088,0,0,1-.453-3.2Q33.212-8.742,33.123-10.733Zm8.113-.192h.978V1.021h-.978Zm-1.2,2.474.739.111q-.034.524-.12,1.159t-.219,1.249a8.448,8.448,0,0,1-.308,1.095L39.363-5.1a6.384,6.384,0,0,0,.313-1.016q.133-.582.228-1.2T40.037-8.45Zm2.27-.083.682-.295a11.18,11.18,0,0,1,.568,1.141,7.338,7.338,0,0,1,.375,1.037l-.733.365a5.775,5.775,0,0,0-.209-.678q-.141-.384-.318-.8T42.307-8.533Zm2.654-1.786.953.154q-.167.943-.418,1.855A17.711,17.711,0,0,1,44.939-6.6a9.286,9.286,0,0,1-.672,1.4,2.985,2.985,0,0,0-.256-.156q-.161-.09-.329-.168t-.291-.13a7.3,7.3,0,0,0,.682-1.323,13.294,13.294,0,0,0,.525-1.61Q44.82-9.445,44.962-10.319Zm.009,2.153h6.051v.933H44.668Zm2.106-2.708h.981V.17h-.981ZM44.313-4.525h6.421v.914H44.313ZM43.338-.354h8v.93h-8Zm15.99-8.521Q59.2-7.864,59-6.758a19.374,19.374,0,0,1-.514,2.146,12.17,12.17,0,0,1-.869,2.232A4.508,4.508,0,0,1,56.6-1.026a1.748,1.748,0,0,1-1.141.455,1.77,1.77,0,0,1-1.109-.419,3.016,3.016,0,0,1-.871-1.2,4.634,4.634,0,0,1-.339-1.854,4.765,4.765,0,0,1,.436-2.012,5.444,5.444,0,0,1,1.213-1.688A5.78,5.78,0,0,1,56.6-8.905a5.815,5.815,0,0,1,2.224-.423,5.419,5.419,0,0,1,2.06.373,4.669,4.669,0,0,1,1.568,1.028,4.535,4.535,0,0,1,1,1.524,4.921,4.921,0,0,1,.349,1.854,4.866,4.866,0,0,1-.578,2.4,4.505,4.505,0,0,1-1.667,1.69A6.859,6.859,0,0,1,58.925.4l-.6-.968q.313-.028.6-.071t.517-.092a5.027,5.027,0,0,0,1.214-.446,4.214,4.214,0,0,0,1.061-.781,3.56,3.56,0,0,0,.749-1.134,3.828,3.828,0,0,0,.278-1.5,4.092,4.092,0,0,0-.262-1.472,3.516,3.516,0,0,0-.768-1.208,3.578,3.578,0,0,0-1.236-.819,4.384,4.384,0,0,0-1.666-.3A4.626,4.626,0,0,0,56.881-8a4.719,4.719,0,0,0-1.47,1.022,4.6,4.6,0,0,0-.931,1.381,3.69,3.69,0,0,0-.321,1.461,3.614,3.614,0,0,0,.212,1.339,1.891,1.891,0,0,0,.52.777.965.965,0,0,0,.605.25.949.949,0,0,0,.634-.308,3.523,3.523,0,0,0,.664-.988,11.609,11.609,0,0,0,.667-1.775,18.2,18.2,0,0,0,.491-1.992q.2-1.053.291-2.064Zm11.8-1.419a2.724,2.724,0,0,0-.079.28q-.038.162-.069.3-.106.542-.209,1.359T70.607-6.61q-.065.929-.065,1.823a12.265,12.265,0,0,0,.107,1.632,13.762,13.762,0,0,0,.286,1.51q.179.716.376,1.329l-.943.287q-.187-.585-.357-1.355t-.275-1.623a13.693,13.693,0,0,1-.105-1.674q0-.672.043-1.376t.107-1.376q.064-.672.127-1.255T70.015-9.7q.018-.171.027-.34t0-.285Zm-2.1,1.609q1.144,0,2.26-.065t2.152-.2q1.036-.13,1.938-.334l.013.966q-.706.117-1.513.214t-1.654.166q-.847.069-1.668.105t-1.546.036q-.274,0-.666-.016t-.779-.035l-.656-.032-.028-.977q.226.034.629.075t.824.066Q68.763-8.686,69.035-8.686Zm5.419,1.524q-.036.082-.084.217l-.1.272q-.049.137-.085.246a12.833,12.833,0,0,1-.931,2.193,11.056,11.056,0,0,1-1.182,1.767,8.461,8.461,0,0,1-1.319,1.3,6.38,6.38,0,0,1-1.372.8,3.606,3.606,0,0,1-1.428.32,1.716,1.716,0,0,1-.776-.176,1.293,1.293,0,0,1-.558-.54,1.843,1.843,0,0,1-.2-.912A3.272,3.272,0,0,1,66.7-3a5.07,5.07,0,0,1,.784-1.242,6.244,6.244,0,0,1,1.143-1.05A6.1,6.1,0,0,1,70-6.028a8.365,8.365,0,0,1,1.387-.388,7.3,7.3,0,0,1,1.376-.143,4.826,4.826,0,0,1,2.127.434,3.406,3.406,0,0,1,1.384,1.168,2.9,2.9,0,0,1,.49,1.646,3.762,3.762,0,0,1-.24,1.335A3.364,3.364,0,0,1,75.773-.81a4.412,4.412,0,0,1-1.319.9,7.379,7.379,0,0,1-1.938.557L71.96-.216a5.924,5.924,0,0,0,2.023-.552A3.426,3.426,0,0,0,75.3-1.859a2.567,2.567,0,0,0,.464-1.5,2.1,2.1,0,0,0-.349-1.174A2.493,2.493,0,0,0,74.393-5.4a3.7,3.7,0,0,0-1.643-.329,5.636,5.636,0,0,0-1.515.194,8.6,8.6,0,0,0-1.19.415,4.926,4.926,0,0,0-1.335.869,4.694,4.694,0,0,0-.956,1.18,2.517,2.517,0,0,0-.354,1.23.83.83,0,0,0,.192.6.73.73,0,0,0,.55.2,2.7,2.7,0,0,0,1.094-.274,5.032,5.032,0,0,0,1.234-.825A9.764,9.764,0,0,0,72.09-3.99a8.945,8.945,0,0,0,1.194-2.678q.028-.1.054-.233t.053-.275a1.828,1.828,0,0,0,.032-.243Zm6.641-2.419q.22.023.471.035t.45.012q.2,0,.647-.01t1.015-.029l1.132-.039q.564-.021,1.009-.044l.655-.036q.294-.031.446-.054a2,2,0,0,0,.259-.054l.6.757q-.176.116-.366.246t-.374.28q-.241.182-.659.531l-.915.767-.98.825q-.482.407-.866.726a4.46,4.46,0,0,1,.908-.212,7.318,7.318,0,0,1,.9-.057,4.4,4.4,0,0,1,1.914.4,3.281,3.281,0,0,1,1.314,1.084,2.678,2.678,0,0,1,.478,1.57,3.082,3.082,0,0,1-.547,1.822,3.532,3.532,0,0,1-1.549,1.2,6.052,6.052,0,0,1-2.383.427A4.369,4.369,0,0,1,83.136.327a2.252,2.252,0,0,1-.984-.656,1.467,1.467,0,0,1-.344-.959,1.524,1.524,0,0,1,.247-.833,1.79,1.79,0,0,1,.7-.625,2.239,2.239,0,0,1,1.051-.237,2.706,2.706,0,0,1,1.448.357,2.435,2.435,0,0,1,.886.937A2.99,2.99,0,0,1,86.49-.446l-.934.157a2.271,2.271,0,0,0-.513-1.369A1.547,1.547,0,0,0,83.8-2.193a1.157,1.157,0,0,0-.746.242.722.722,0,0,0-.3.579.825.825,0,0,0,.485.744,2.55,2.55,0,0,0,1.249.27,5.606,5.606,0,0,0,1.917-.295,2.675,2.675,0,0,0,1.248-.867A2.2,2.2,0,0,0,88.093-2.9a1.864,1.864,0,0,0-.376-1.143,2.543,2.543,0,0,0-1.037-.8,3.7,3.7,0,0,0-1.51-.292,5.774,5.774,0,0,0-1.459.17,4.915,4.915,0,0,0-1.215.5,7.033,7.033,0,0,0-1.122.813q-.556.488-1.175,1.115l-.748-.76q.407-.334.895-.74l.981-.816q.493-.41.92-.772l.7-.6q.273-.221.681-.561t.853-.716q.445-.376.841-.714t.638-.554l-.6.025-.895.039-.981.043-.888.04q-.4.019-.6.033t-.436.03q-.222.017-.432.048ZM92.6-5.6h3.916v.793H92.6ZM92.06-9.56h4.255v.852H92.06Zm-.514,2.136h6.3v.859h-6.3Zm2.234-3.5H94.7V-6.98h-.917Zm3.453.3.909.264a15,15,0,0,1-2.56,4.237A13.86,13.86,0,0,1,91.963-3.14a1.772,1.772,0,0,0-.19-.242q-.128-.142-.264-.278t-.239-.225a12.032,12.032,0,0,0,3.558-2.774A13.36,13.36,0,0,0,97.232-10.623ZM94.3-3.849h.919V0a1.4,1.4,0,0,1-.094.576.647.647,0,0,1-.365.313,2.344,2.344,0,0,1-.7.124q-.428.022-1.055.022A2.3,2.3,0,0,0,92.889.6,2.568,2.568,0,0,0,92.7.18q.492.013.869.013t.51-.008a.284.284,0,0,0,.179-.051A.209.209,0,0,0,94.3-.013ZM96.317-5.6h.208l.18-.051.565.417A9.553,9.553,0,0,1,96.2-4.1a9.792,9.792,0,0,1-1.2.935,1.851,1.851,0,0,0-.242-.273q-.154-.147-.265-.237a6.657,6.657,0,0,0,.682-.53q.345-.3.648-.629a5.27,5.27,0,0,0,.493-.6ZM91.479-2.413l1.84-.177q1.042-.1,2.22-.222t2.354-.247v.854l-2.264.247-2.172.238-1.858.2ZM98.861-8.5h4.632v.909H98.861Zm.345-2.421.983.156A23.389,23.389,0,0,1,99.634-8.4a17.306,17.306,0,0,1-.77,2.137,9.062,9.062,0,0,1-.986,1.736q-.08-.087-.226-.216t-.3-.252a2.972,2.972,0,0,0-.276-.194,7.653,7.653,0,0,0,.94-1.594,14.351,14.351,0,0,0,.706-1.97A20.714,20.714,0,0,0,99.205-10.922ZM101.7-8l.993.106a19.917,19.917,0,0,1-.93,3.949A9.417,9.417,0,0,1,100.1-1,8.724,8.724,0,0,1,97.42,1.078,2.37,2.37,0,0,0,97.267.8q-.1-.165-.217-.327a1.915,1.915,0,0,0-.218-.262,7.564,7.564,0,0,0,2.525-1.857,8.223,8.223,0,0,0,1.533-2.708A17.731,17.731,0,0,0,101.7-8Zm-2.349.274a20.991,20.991,0,0,0,.814,3.367,10.4,10.4,0,0,0,1.369,2.752A5.9,5.9,0,0,0,103.593.216a2.77,2.77,0,0,0-.248.241,3.612,3.612,0,0,0-.251.3q-.116.157-.2.29a6.8,6.8,0,0,1-2.139-2.027,11.455,11.455,0,0,1-1.415-2.948,24.839,24.839,0,0,1-.872-3.656Zm7.3,2.314h7.135v.826h-6.165V1.042h-.97Zm6.8,0h.98V0a1.213,1.213,0,0,1-.119.6.736.736,0,0,1-.423.3,3.127,3.127,0,0,1-.827.114q-.522.017-1.3.017a2.116,2.116,0,0,0-.128-.4,4.155,4.155,0,0,0-.193-.406q.381.013.738.018t.627,0q.27-.006.369-.006A.357.357,0,0,0,113.4.176a.248.248,0,0,0,.057-.185Zm-6.226,1.819h6.632v.73h-6.632Zm-2.434-6.055h11.434v.869H104.793Zm3.608.528,1.064.311q-.426.6-.929,1.22t-.925,1.06l-.778-.3q.266-.312.557-.716t.56-.82Q108.218-8.78,108.4-9.121Zm3.624.824.77-.5q.578.372,1.211.833t1.191.928a9.523,9.523,0,0,1,.912.854l-.821.585a8.994,8.994,0,0,0-.875-.868q-.542-.478-1.167-.96T112.025-8.3ZM105.3-7.124q.868,0,1.968-.017t2.348-.04l2.563-.047q1.315-.023,2.615-.057l-.051.807q-1.7.057-3.417.112t-3.259.092q-1.542.038-2.73.064Zm1.923,5.265h6.593v.727h-6.593Zm2.753-9.071h1v1.705h-1ZM23.471,8.663a.85.85,0,0,0,.856.855.839.839,0,0,0,.61-.249.819.819,0,0,0,.253-.606.864.864,0,0,0-.863-.863.819.819,0,0,0-.606.253A.838.838,0,0,0,23.471,8.663Zm-.6,0a1.413,1.413,0,0,1,.2-.735A1.5,1.5,0,0,1,23.6,7.4a1.391,1.391,0,0,1,.731-.2,1.412,1.412,0,0,1,.735.2,1.492,1.492,0,0,1,.529.53,1.413,1.413,0,0,1,.2.735,1.391,1.391,0,0,1-.2.731,1.5,1.5,0,0,1-.529.526,1.412,1.412,0,0,1-.735.2,1.391,1.391,0,0,1-.731-.2,1.513,1.513,0,0,1-.525-.526A1.391,1.391,0,0,1,22.873,8.663ZM24,9.535a1.907,1.907,0,0,0-.109.3q-.045.159-.086.356-.1.511-.272,1.133T23.121,12.6a11.658,11.658,0,0,1-.556,1.269,7.252,7.252,0,0,1-.7,1.115,10.833,10.833,0,0,1-1.325,1.408,9.315,9.315,0,0,1-1.666,1.173,11.451,11.451,0,0,1-2.125.9l-.883-.973A11.07,11.07,0,0,0,18.06,16.7a8.071,8.071,0,0,0,1.63-1.057,8.868,8.868,0,0,0,1.245-1.287,6.739,6.739,0,0,0,.809-1.34,11.6,11.6,0,0,0,.575-1.51,9.191,9.191,0,0,0,.315-1.384H15.987q-.386,0-.714.012t-.58.03V9.01l.4.04q.217.022.455.034t.446.011h6.518q.149,0,.333-.011a1.941,1.941,0,0,0,.363-.058Zm3.9-.443q.387.013.659.019t.5.007h6.977q.212,0,.53,0t.613-.017q-.013.238-.02.5t-.007.506v6.408q0,.152,0,.394t.007.493q0,.251.01.44t.007.245H36.059q.008-.071.01-.309t.008-.546q.005-.308.005-.576V10.143h-7.1v6.892q0,.219.007.433t.01.384q0,.17,0,.233H27.886q0-.063.007-.249t.013-.43q.007-.245.009-.485t0-.41V9.6Q27.917,9.328,27.9,9.093Zm8.609,7.232V17.34h-8.04V16.325ZM48.946,7.6q.169.226.361.546t.38.645q.187.325.32.591l-.7.314q-.192-.4-.49-.913t-.558-.887Zm1.425-.521q.177.239.38.563t.4.642q.194.318.314.563l-.7.314q-.211-.427-.5-.924a9.088,9.088,0,0,0-.57-.862Zm-.561,3.109a2.388,2.388,0,0,0-.163.337q-.081.2-.137.356a10.6,10.6,0,0,1-.492,1.422,13.843,13.843,0,0,1-.777,1.558,11.053,11.053,0,0,1-1.036,1.5,11.2,11.2,0,0,1-2.118,1.966A13.013,13.013,0,0,1,42.029,18.9l-.944-.855a11.572,11.572,0,0,0,2.147-.849,10.412,10.412,0,0,0,1.705-1.111,9.986,9.986,0,0,0,1.342-1.3,8.914,8.914,0,0,0,.928-1.315,12.349,12.349,0,0,0,.718-1.435,7.432,7.432,0,0,0,.427-1.309H43.535l.417-.933H48.1a3.588,3.588,0,0,0,.48-.03,1.529,1.529,0,0,0,.371-.092ZM45.453,8.223q-.162.255-.319.546l-.255.473a14.018,14.018,0,0,1-.968,1.54,13.084,13.084,0,0,1-1.394,1.633,12.072,12.072,0,0,1-1.853,1.507l-.9-.671a10.267,10.267,0,0,0,1.508-1.083,10.693,10.693,0,0,0,1.166-1.178,11.193,11.193,0,0,0,.852-1.147,10.1,10.1,0,0,0,.565-.986,3.374,3.374,0,0,0,.225-.476,3.73,3.73,0,0,0,.179-.556Zm9.552.1q.257.031.557.047t.606.016h5.117q.3,0,.621-.016t.556-.047V9.4q-.233-.026-.55-.031t-.646-.005h-5.1q-.293,0-.594.009t-.568.027Zm8.41,3.423q-.046.087-.1.2a1.362,1.362,0,0,0-.076.188,11.18,11.18,0,0,1-.712,1.927,7.14,7.14,0,0,1-1.186,1.765,8,8,0,0,1-2.213,1.742,12.654,12.654,0,0,1-2.436.972l-.8-.925a9.983,9.983,0,0,0,2.562-.9,7.405,7.405,0,0,0,2.013-1.486,5.748,5.748,0,0,0,.979-1.4,7.338,7.338,0,0,0,.563-1.478h-6.9q-.231,0-.573.009t-.7.04V11.309q.36.031.684.053t.586.022h6.846a3.171,3.171,0,0,0,.419-.026,1.111,1.111,0,0,0,.3-.075ZM71.4,8.307q-.1.238-.208.514t-.244.692q-.106.329-.288.908t-.412,1.288q-.23.71-.486,1.469t-.5,1.472q-.242.712-.447,1.278t-.347.9l-1.182.038q.166-.378.391-.98t.481-1.339q.256-.737.51-1.515t.486-1.5q.232-.724.411-1.31t.276-.929q.119-.457.175-.723t.084-.527Zm2.471,4.354q.343.5.755,1.193t.822,1.451q.41.757.752,1.448t.544,1.2l-1.085.489q-.194-.529-.517-1.251T74.432,15.7q-.389-.769-.791-1.457a11.423,11.423,0,0,0-.753-1.148Zm-7.087,3.894q.466-.029,1.134-.082t1.449-.13q.781-.077,1.591-.164T72.535,16q.766-.088,1.4-.17t1.051-.139l.291,1.01q-.446.057-1.12.136t-1.463.168q-.79.088-1.623.185t-1.628.182q-.8.086-1.468.152l-1.134.111q-.247.018-.52.058l-.558.079-.2-1.2q.3.008.616,0T66.785,16.555ZM78.632,9.442q.374-.013.674-.033l.49-.032.9-.091q.588-.06,1.36-.134T83.709,9l1.778-.155q.713-.06,1.349-.105t1.182-.077q.546-.031.974-.044L89,9.656q-.37-.008-.838.005t-.921.055a3.942,3.942,0,0,0-.785.144,3.743,3.743,0,0,0-1.248.672,4.691,4.691,0,0,0-.942,1.032,4.892,4.892,0,0,0-.592,1.208,3.894,3.894,0,0,0-.2,1.2A3.138,3.138,0,0,0,83.73,15.3a2.8,2.8,0,0,0,.711.955,3.9,3.9,0,0,0,1.024.636,5.807,5.807,0,0,0,1.215.367,8.541,8.541,0,0,0,1.276.144l-.376,1.074a7.306,7.306,0,0,1-1.452-.2,6.516,6.516,0,0,1-1.4-.508,4.665,4.665,0,0,1-1.18-.836,3.748,3.748,0,0,1-.816-1.182,3.8,3.8,0,0,1-.3-1.55,4.866,4.866,0,0,1,.358-1.88,5.544,5.544,0,0,1,.916-1.512,4.7,4.7,0,0,1,1.155-1q-.417.047-1.031.111t-1.317.141q-.7.077-1.411.163t-1.322.176q-.615.09-1.035.178Zm8.488,1.806q.153.21.35.529t.392.654q.2.336.336.63l-.673.309q-.22-.477-.492-.955a8.853,8.853,0,0,0-.568-.881Zm1.421-.545q.161.21.367.524t.41.647q.2.333.35.623L89,12.82q-.238-.472-.515-.939A9.493,9.493,0,0,0,87.9,11Zm8.069-3a2.724,2.724,0,0,0-.079.28q-.038.162-.069.3-.106.542-.209,1.359t-.168,1.746q-.065.929-.065,1.823a12.265,12.265,0,0,0,.107,1.632,13.764,13.764,0,0,0,.286,1.51q.179.716.376,1.329l-.943.287q-.187-.585-.357-1.355t-.275-1.623a13.693,13.693,0,0,1-.105-1.674q0-.672.043-1.376t.107-1.376q.064-.672.127-1.255T95.495,8.3q.018-.171.027-.34t0-.285Zm-2.1,1.609q1.144,0,2.26-.065t2.152-.2q1.036-.13,1.938-.334l.013.966q-.706.117-1.513.214t-1.654.166q-.847.069-1.668.105t-1.546.036q-.274,0-.666-.016t-.779-.035l-.656-.032-.028-.977q.226.034.629.075t.824.066Q94.243,9.314,94.515,9.314Zm5.419,1.524q-.036.082-.084.217l-.1.272q-.049.137-.085.246a12.833,12.833,0,0,1-.931,2.193,11.057,11.057,0,0,1-1.182,1.767,8.461,8.461,0,0,1-1.319,1.3,6.38,6.38,0,0,1-1.372.8,3.606,3.606,0,0,1-1.428.32,1.716,1.716,0,0,1-.776-.176,1.293,1.293,0,0,1-.558-.54,1.843,1.843,0,0,1-.2-.912A3.272,3.272,0,0,1,92.184,15a5.07,5.07,0,0,1,.784-1.242,6.245,6.245,0,0,1,1.143-1.05,6.1,6.1,0,0,1,1.372-.739,8.365,8.365,0,0,1,1.387-.388,7.3,7.3,0,0,1,1.376-.143,4.826,4.826,0,0,1,2.127.434,3.406,3.406,0,0,1,1.384,1.168,2.9,2.9,0,0,1,.49,1.646,3.762,3.762,0,0,1-.24,1.335,3.364,3.364,0,0,1-.753,1.166,4.412,4.412,0,0,1-1.319.9A7.379,7.379,0,0,1,98,18.651l-.556-.866a5.924,5.924,0,0,0,2.023-.552,3.426,3.426,0,0,0,1.314-1.091,2.567,2.567,0,0,0,.464-1.5,2.1,2.1,0,0,0-.349-1.174,2.493,2.493,0,0,0-1.018-.864,3.7,3.7,0,0,0-1.643-.329,5.636,5.636,0,0,0-1.515.194,8.6,8.6,0,0,0-1.19.415,4.926,4.926,0,0,0-1.335.869,4.694,4.694,0,0,0-.956,1.18,2.517,2.517,0,0,0-.354,1.23.83.83,0,0,0,.192.6.73.73,0,0,0,.55.2,2.7,2.7,0,0,0,1.094-.274,5.032,5.032,0,0,0,1.234-.825A9.764,9.764,0,0,0,97.57,14.01a8.945,8.945,0,0,0,1.194-2.678q.028-.1.054-.233t.053-.275a1.825,1.825,0,0,0,.032-.243Zm6.641-2.419q.22.023.471.035t.45.012q.2,0,.647-.01t1.015-.029l1.132-.039q.564-.021,1.009-.044l.655-.036q.294-.031.446-.054a2,2,0,0,0,.259-.054l.6.757q-.176.116-.366.246t-.374.28q-.241.182-.659.531l-.915.767-.98.825q-.482.407-.866.726a4.46,4.46,0,0,1,.908-.212,7.318,7.318,0,0,1,.9-.057,4.4,4.4,0,0,1,1.914.4,3.281,3.281,0,0,1,1.314,1.084,2.678,2.678,0,0,1,.478,1.57,3.082,3.082,0,0,1-.547,1.822,3.532,3.532,0,0,1-1.549,1.2,6.052,6.052,0,0,1-2.383.427,4.369,4.369,0,0,1-1.518-.237,2.252,2.252,0,0,1-.984-.656,1.467,1.467,0,0,1-.344-.959,1.524,1.524,0,0,1,.247-.833,1.79,1.79,0,0,1,.7-.625,2.239,2.239,0,0,1,1.051-.237,2.706,2.706,0,0,1,1.448.357,2.435,2.435,0,0,1,.886.937,2.99,2.99,0,0,1,.349,1.241l-.934.157a2.271,2.271,0,0,0-.513-1.369,1.547,1.547,0,0,0-1.238-.534,1.157,1.157,0,0,0-.746.242.722.722,0,0,0-.3.579.825.825,0,0,0,.485.744,2.55,2.55,0,0,0,1.249.27,5.606,5.606,0,0,0,1.917-.295,2.675,2.675,0,0,0,1.248-.867,2.2,2.2,0,0,0,.439-1.379,1.864,1.864,0,0,0-.376-1.143,2.543,2.543,0,0,0-1.037-.8,3.7,3.7,0,0,0-1.51-.292,5.774,5.774,0,0,0-1.459.17,4.915,4.915,0,0,0-1.215.5,7.033,7.033,0,0,0-1.122.813q-.556.487-1.175,1.115l-.748-.76q.407-.334.895-.74l.981-.816q.493-.41.92-.772l.7-.6q.273-.221.681-.561t.853-.716q.445-.376.841-.714t.638-.554l-.6.025-.895.039-.981.043-.888.04q-.4.019-.6.033t-.436.03q-.222.017-.432.048Z" transform="translate(31 2413)" fill="#164b99"/><path d="M6.5-6.324a1.328,1.328,0,0,1,.7.187,1.452,1.452,0,0,1,.5.5,1.323,1.323,0,0,1,.188.7,1.337,1.337,0,0,1-.187.692,1.428,1.428,0,0,1-.5.5,1.326,1.326,0,0,1-.7.187,1.338,1.338,0,0,1-.692-.187,1.405,1.405,0,0,1-.5-.5,1.335,1.335,0,0,1-.187-.691,1.33,1.33,0,0,1,.187-.7,1.429,1.429,0,0,1,.5-.5A1.331,1.331,0,0,1,6.5-6.324Zm9.7.533v4.608h-.943v-3.7H13.6v-.909Zm0,4.208A2.763,2.763,0,0,0,17.5-.515a5.779,5.779,0,0,0,1.99.4q.54.018,1.321.025t1.64,0q.858-.009,1.663-.036T25.51-.2a2.389,2.389,0,0,0-.122.278q-.065.173-.115.355t-.078.328Q24.653.784,23.9.8T22.348.822q-.809.007-1.559,0T19.495.792A6.639,6.639,0,0,1,17.3.378,3.621,3.621,0,0,1,15.784-.758q-.427.419-.878.84T13.97.936l-.506-.957q.435-.319.932-.73t.948-.831Zm-2.469-8.469.737-.543a9.644,9.644,0,0,1,.817.671q.414.377.756.755a4.79,4.79,0,0,1,.542.705l-.8.609a4.66,4.66,0,0,0-.519-.719q-.334-.391-.735-.779A10.175,10.175,0,0,0,13.727-10.052Zm3.2.224h8.38v.793h-8.38Zm1.827,3.8H23.4v.661H18.754Zm1.8-4.894H21.5v1.583h-.945Zm.137,3.939h.747v2.748h-.747ZM17.4-7.7h6.892v.785H18.3V-.885h-.9Zm1.939,3.27h.725v2.865H19.34Zm.382,0h3.124v2.366H19.722v-.62h2.4V-3.813h-2.4ZM23.935-7.7h.9v5.769a1.466,1.466,0,0,1-.085.562.629.629,0,0,1-.333.314,2.264,2.264,0,0,1-.67.128q-.406.026-.986.026a2.19,2.19,0,0,0-.116-.425,3.582,3.582,0,0,0-.18-.414q.439.013.787.016t.476-.005a.256.256,0,0,0,.161-.049.217.217,0,0,0,.042-.153ZM22.706-9.191l.92.237q-.206.4-.415.779t-.389.665l-.778-.216q.175-.318.365-.738T22.706-9.191Zm-4.148.273.815-.208a4.657,4.657,0,0,1,.383.688,3.118,3.118,0,0,1,.234.681l-.853.234a3.367,3.367,0,0,0-.215-.678A5.23,5.23,0,0,0,18.558-8.919Zm12.653-.858h6.426v.93H31.211Zm6.018,0h1l0,.107q0,.107,0,.237t-.005.2q-.06,2.5-.124,4.221T37.936-2.2a13.85,13.85,0,0,1-.217,1.678A2.211,2.211,0,0,1,37.4.317a1.3,1.3,0,0,1-.45.418A1.853,1.853,0,0,1,36.384.9a6.487,6.487,0,0,1-.82.033q-.5-.005-1.02-.042A2.392,2.392,0,0,0,34.45.386a1.754,1.754,0,0,0-.218-.491q.576.047,1.048.053t.69.006a.712.712,0,0,0,.3-.039.536.536,0,0,0,.218-.187,1.819,1.819,0,0,0,.27-.757,16.081,16.081,0,0,0,.2-1.644q.089-1.077.154-2.76t.12-4.1ZM26.375-6.736,31.864-7.9l.172.875-5.49,1.175Zm1.578-3.817h.96v7.643a.825.825,0,0,0,.076.446.422.422,0,0,0,.333.1h1.165a.271.271,0,0,0,.251-.147,1.53,1.53,0,0,0,.122-.55q.038-.4.059-1.161a1.874,1.874,0,0,0,.416.251,2.721,2.721,0,0,0,.455.167,9.185,9.185,0,0,1-.167,1.419,1.347,1.347,0,0,1-.364.733,1.02,1.02,0,0,1-.7.218H29.18a1.762,1.762,0,0,1-.753-.13.717.717,0,0,1-.371-.453,3.066,3.066,0,0,1-.1-.9Zm5.562,1.191h.97q-.021,1.283-.087,2.524a21.388,21.388,0,0,1-.26,2.4,10.846,10.846,0,0,1-.595,2.176A7.191,7.191,0,0,1,32.46-.393a6.325,6.325,0,0,1-1.743,1.481A2.7,2.7,0,0,0,30.4.679,2.434,2.434,0,0,0,30.01.323a5.686,5.686,0,0,0,1.655-1.347,6.362,6.362,0,0,0,1.014-1.734,9.726,9.726,0,0,0,.541-2.026,20.138,20.138,0,0,0,.222-2.231Q33.494-8.172,33.515-9.362ZM40.26-8.2q.36.044.766.064t.827.019q.707,0,1.469-.066a15.343,15.343,0,0,0,1.542-.214,12.824,12.824,0,0,0,1.53-.389l.028.966q-.634.175-1.394.316t-1.571.226a15.546,15.546,0,0,1-1.606.084q-.355,0-.753-.009t-.765-.027Zm4.606-2.121q-.078.311-.195.793t-.258,1.007q-.141.525-.3.988a19.151,19.151,0,0,1-.787,1.974q-.477,1.038-1.023,2.011a15.846,15.846,0,0,1-1.089,1.7l-1-.518a12.293,12.293,0,0,0,.867-1.165q.433-.654.818-1.365t.7-1.4a13.655,13.655,0,0,0,.514-1.267,14.255,14.255,0,0,0,.4-1.4,7.788,7.788,0,0,0,.211-1.471ZM47.932-6.3q-.018.4-.023.723t.008.677l.032.8q.02.484.045,1.024t.046,1.034q.02.493.02.82a1.931,1.931,0,0,1-.235.944A1.672,1.672,0,0,1,47.093.4a2.88,2.88,0,0,1-1.307.254,4.024,4.024,0,0,1-1.3-.2,2.088,2.088,0,0,1-.94-.614,1.57,1.57,0,0,1-.354-1.057,1.638,1.638,0,0,1,.342-1.04,2.181,2.181,0,0,1,.931-.674,3.517,3.517,0,0,1,1.32-.236,6.287,6.287,0,0,1,2.014.308,7.45,7.45,0,0,1,1.646.775,11.476,11.476,0,0,1,1.269.927l-.556.881q-.378-.336-.84-.7A7.351,7.351,0,0,0,48.3-1.642a6.256,6.256,0,0,0-1.195-.5,4.627,4.627,0,0,0-1.355-.194,2.06,2.06,0,0,0-1.161.295.873.873,0,0,0-.442.747.879.879,0,0,0,.376.737,1.887,1.887,0,0,0,1.136.282,1.812,1.812,0,0,0,.857-.171,1,1,0,0,0,.451-.465,1.526,1.526,0,0,0,.135-.642q0-.374-.022-.954t-.055-1.253q-.032-.672-.061-1.341t-.047-1.2Zm2.6.345a7.342,7.342,0,0,0-.885-.642q-.535-.338-1.1-.645t-.992-.5l.522-.791q.351.156.781.376t.861.465q.431.246.8.478t.6.407ZM58.6-10.226q-.018.218-.036.52t-.031.536a21.248,21.248,0,0,1-.357,3.48,11.2,11.2,0,0,1-.823,2.6,7.991,7.991,0,0,1-1.274,1.941,9.851,9.851,0,0,1-1.71,1.5l-.945-.768A6.057,6.057,0,0,0,54.1-.841a5.954,5.954,0,0,0,.654-.536,7.2,7.2,0,0,0,1.1-1.261A7.761,7.761,0,0,0,56.7-4.273,10.886,10.886,0,0,0,57.26-6.4a17.487,17.487,0,0,0,.207-2.745q0-.151-.009-.344t-.027-.39q-.018-.2-.044-.345Zm4.521,2.7q-.026.164-.047.336t-.029.3q-.013.371-.042,1T62.916-4.5q-.059.751-.147,1.5t-.213,1.379a4.462,4.462,0,0,1-.3,1.007,1.3,1.3,0,0,1-.521.6,1.737,1.737,0,0,1-.871.189q-.487,0-1.035-.027T58.776.091L58.648-.992q.526.067,1.025.107t.91.04a1.021,1.021,0,0,0,.465-.093.651.651,0,0,0,.29-.332,3.632,3.632,0,0,0,.256-.824q.11-.524.188-1.169t.128-1.312q.049-.667.069-1.262T62-6.854H55.147q-.386,0-.767.009t-.733.04V-7.9q.344.028.732.05t.76.022h6.42q.263,0,.463-.018t.362-.046ZM75.087-9.861q-.013.238-.029.519t-.016.607v2.1q0,1.165-.079,1.987a7.675,7.675,0,0,1-.247,1.4,4.6,4.6,0,0,1-.425,1.02,5.809,5.809,0,0,1-.61.857,4.564,4.564,0,0,1-.955.873,6.989,6.989,0,0,1-1.1.619q-.556.248-1.037.412l-.85-.893a8.183,8.183,0,0,0,1.7-.64,4.7,4.7,0,0,0,1.406-1.1,4.266,4.266,0,0,0,.565-.827,3.766,3.766,0,0,0,.326-.943,8.3,8.3,0,0,0,.152-1.207q.042-.685.042-1.607V-8.735q0-.326-.018-.607t-.049-.519Zm-6.035.1q-.013.183-.029.442t-.016.49v4.341q0,.247.016.531t.029.464H67.866q.021-.155.039-.436t.018-.564V-8.828q0-.174-.013-.461t-.039-.471Zm14.04.569q-.049-.251-.109-.471t-.13-.419l1.16-.2q.018.179.055.432t.073.468l.112.6q.088.477.226,1.192t.306,1.546q.168.831.336,1.674l.315,1.582q.147.74.256,1.264t.142.7q.065.278.148.593t.174.59L84.965.59q-.052-.329-.09-.633t-.1-.589q-.028-.172-.126-.687t-.238-1.243q-.14-.728-.308-1.566T83.771-5.8q-.161-.832-.306-1.547t-.241-1.207Q83.128-9.045,83.092-9.191ZM79.426-7.316l.51-.038q.267-.02.574-.051l.829-.111q.532-.071,1.205-.173T83.938-7.9q.721-.114,1.4-.229l1.218-.205q.542-.091.852-.151.285-.057.529-.114t.405-.1l.21,1.094q-.144.013-.41.052l-.522.078-.9.139q-.56.087-1.241.2t-1.4.224q-.719.113-1.386.221l-1.188.194-.805.133q-.27.049-.514.1t-.538.121Zm-.04,3.753q.233-.013.563-.047t.584-.07q.351-.044.944-.135t1.341-.212l1.545-.248q.8-.127,1.553-.259L87.3-4.774l1.016-.173q.377-.07.657-.133t.487-.125l.218,1.092q-.2.013-.5.062t-.672.114q-.435.065-1.076.17l-1.4.229q-.757.123-1.542.247t-1.508.247q-.723.123-1.3.217t-.91.159q-.378.062-.657.119t-.491.122Zm21.194-2.622q-.028.088-.053.2t-.035.2q-.031.292-.1.8t-.16,1.122q-.088.613-.179,1.218t-.166,1.1q-.075.5-.127.769H98.663q.044-.215.117-.677T98.947-2.5q.094-.586.175-1.18t.141-1.081q.06-.488.065-.74H95.2q-.285,0-.544.012t-.5.03V-6.547q.158.018.334.034t.357.024q.182.009.343.009h3.95q.108,0,.237-.011t.242-.031a.555.555,0,0,0,.165-.047Zm-7.647,5,.515.036q.274.018.566.018H101.1q.212,0,.517-.012t.511-.03V-.118q-.119-.013-.3-.015l-.364,0-.331,0H94.013q-.292,0-.539.006t-.543.025Zm14.074-8.5q.257.031.557.047t.606.016h5.117q.3,0,.621-.016t.556-.047V-8.6q-.233-.026-.55-.031t-.646-.005h-5.1q-.293,0-.594.009t-.568.027Zm8.41,3.423q-.046.087-.1.2a1.362,1.362,0,0,0-.076.188,11.18,11.18,0,0,1-.712,1.927,7.14,7.14,0,0,1-1.186,1.765A8,8,0,0,1,111.13-.437a12.654,12.654,0,0,1-2.436.972l-.8-.925a9.983,9.983,0,0,0,2.562-.9,7.4,7.4,0,0,0,2.013-1.486,5.748,5.748,0,0,0,.979-1.4,7.338,7.338,0,0,0,.563-1.478h-6.9q-.231,0-.573.009t-.7.04V-6.691q.36.031.684.053t.586.022h6.846a3.171,3.171,0,0,0,.419-.026,1.112,1.112,0,0,0,.3-.075ZM123.4-9.693q-.1.238-.208.514t-.244.692q-.106.329-.288.908t-.412,1.288q-.23.71-.486,1.469t-.5,1.472q-.242.712-.447,1.278t-.347.9l-1.182.038q.166-.378.391-.98t.481-1.339q.256-.737.51-1.515t.486-1.5q.232-.724.411-1.31t.276-.929q.119-.457.175-.723t.084-.527Zm2.471,4.354q.343.5.755,1.193t.822,1.451q.41.757.752,1.448t.544,1.2L127.66.441q-.194-.529-.517-1.251T126.432-2.3q-.389-.769-.791-1.457a11.423,11.423,0,0,0-.753-1.148Zm-7.087,3.894q.466-.029,1.134-.082t1.449-.13q.781-.077,1.591-.164T124.535-2q.766-.088,1.4-.17t1.051-.139l.291,1.01q-.446.057-1.12.137T124.7-.993q-.79.088-1.623.185t-1.628.182q-.8.086-1.468.152l-1.134.111q-.247.018-.52.058l-.558.079-.2-1.2q.3.008.616,0T118.785-1.445Zm21.4-6.313q-.211.137-.458.268t-.539.279q-.326.175-.8.41t-1.027.519q-.55.284-1.1.6t-1.025.624a5.92,5.92,0,0,0-1.42,1.237,2.2,2.2,0,0,0-.515,1.393,1.444,1.444,0,0,0,.771,1.278,4.487,4.487,0,0,0,2.312.475q.713,0,1.482-.057t1.475-.158a11.716,11.716,0,0,0,1.206-.228l-.01,1.165Q140.056.125,139.4.2T138,.316q-.754.043-1.57.043a9.07,9.07,0,0,1-1.683-.146,4.42,4.42,0,0,1-1.334-.459,2.324,2.324,0,0,1-.877-.827,2.348,2.348,0,0,1-.313-1.244,2.94,2.94,0,0,1,.3-1.316,4.226,4.226,0,0,1,.86-1.155A9.236,9.236,0,0,1,134.7-5.84q.5-.339,1.063-.658t1.115-.615q.55-.3,1.023-.54t.791-.422q.281-.168.5-.306a3.958,3.958,0,0,0,.429-.309Zm-6.576-2.358q.3.829.649,1.626t.7,1.487q.352.69.651,1.218l-.887.537q-.324-.537-.688-1.263T133.3-8.058q-.369-.822-.717-1.624ZM14.6,12.4h3.916v.793H14.6ZM14.06,8.44h4.255v.852H14.06Zm-.514,2.136h6.3v.859h-6.3Zm2.234-3.5H16.7V11.02h-.917Zm3.453.3.909.264a15,15,0,0,1-2.56,4.237,13.86,13.86,0,0,1-3.618,2.982,1.772,1.772,0,0,0-.19-.242q-.128-.142-.264-.278t-.239-.225a12.032,12.032,0,0,0,3.558-2.774A13.36,13.36,0,0,0,19.232,7.377ZM16.3,14.151h.919V18a1.4,1.4,0,0,1-.094.576.647.647,0,0,1-.365.313,2.344,2.344,0,0,1-.7.124q-.428.022-1.055.022a2.3,2.3,0,0,0-.114-.43,2.569,2.569,0,0,0-.192-.423q.492.013.869.013t.51-.008a.284.284,0,0,0,.179-.051.209.209,0,0,0,.042-.147Zm2.02-1.752h.208l.18-.051.565.417A9.552,9.552,0,0,1,18.2,13.9a9.791,9.791,0,0,1-1.2.935,1.851,1.851,0,0,0-.242-.273q-.154-.147-.265-.237a6.657,6.657,0,0,0,.682-.53q.345-.3.648-.629a5.269,5.269,0,0,0,.493-.6Zm-4.838,3.188,1.84-.177q1.042-.1,2.22-.222t2.354-.247v.854l-2.264.247-2.172.238-1.858.2ZM20.861,9.5h4.632v.909H20.861Zm.345-2.421.983.156A23.389,23.389,0,0,1,21.634,9.6a17.306,17.306,0,0,1-.77,2.137,9.062,9.062,0,0,1-.986,1.736q-.08-.087-.226-.216t-.3-.252a2.973,2.973,0,0,0-.276-.194,7.653,7.653,0,0,0,.94-1.594,14.352,14.352,0,0,0,.706-1.97A20.714,20.714,0,0,0,21.205,7.078ZM23.7,10l.993.106a19.917,19.917,0,0,1-.93,3.949A9.417,9.417,0,0,1,22.1,17a8.724,8.724,0,0,1-2.684,2.081,2.37,2.37,0,0,0-.153-.283q-.1-.165-.217-.327a1.915,1.915,0,0,0-.218-.262,7.564,7.564,0,0,0,2.525-1.857,8.223,8.223,0,0,0,1.533-2.708A17.73,17.73,0,0,0,23.7,10Zm-2.349.274a20.992,20.992,0,0,0,.814,3.367,10.4,10.4,0,0,0,1.369,2.752,5.9,5.9,0,0,0,2.054,1.823,2.771,2.771,0,0,0-.248.241,3.613,3.613,0,0,0-.251.3q-.116.157-.2.29a6.8,6.8,0,0,1-2.139-2.027,11.456,11.456,0,0,1-1.415-2.948,24.839,24.839,0,0,1-.872-3.656Zm10.843-.4h6.266v.938H32.2ZM36.1,7.1h1.016V17.7a1.63,1.63,0,0,1-.137.763.822.822,0,0,1-.468.365,3.135,3.135,0,0,1-.9.156q-.58.033-1.414.033a3.179,3.179,0,0,0-.141-.5,5.273,5.273,0,0,0-.205-.5q.632.013,1.192.016t.737-.005a.407.407,0,0,0,.254-.073.321.321,0,0,0,.071-.242ZM36,10.308l.781.471a14.262,14.262,0,0,1-.875,1.739,18.661,18.661,0,0,1-1.133,1.7,16.888,16.888,0,0,1-1.286,1.531,11.314,11.314,0,0,1-1.342,1.217,3.571,3.571,0,0,0-.317-.426,2.722,2.722,0,0,0-.379-.375,9.03,9.03,0,0,0,1.328-1.11,14.858,14.858,0,0,0,1.269-1.45,16.668,16.668,0,0,0,1.108-1.629A13.012,13.012,0,0,0,36,10.308Zm-9.214-.44h4.935v.938H26.782Zm2.173-2.793h.975V19.021h-.975Zm-.049,3.369.686.239q-.193.8-.487,1.639t-.65,1.649a15.594,15.594,0,0,1-.755,1.5,7.671,7.671,0,0,1-.821,1.182,2.945,2.945,0,0,0-.248-.478q-.166-.266-.3-.45a7.9,7.9,0,0,0,.786-1.052,12.465,12.465,0,0,0,.725-1.317q.339-.71.615-1.457A12.652,12.652,0,0,0,28.906,10.445Zm.942.629q.122.115.351.367t.5.564q.276.312.545.629l.487.576q.217.258.316.381l-.622.835q-.153-.254-.43-.653t-.6-.827q-.321-.429-.611-.8t-.462-.579ZM44.517,7.9q-.033.175-.073.377t-.081.4q-.041.23-.111.633t-.151.851q-.081.448-.178.858-.138.551-.327,1.247t-.44,1.481q-.251.785-.564,1.6T41.9,16.945a14.51,14.51,0,0,1-.822,1.506l-1.055-.423A9.6,9.6,0,0,0,40.86,16.7q.389-.743.714-1.541t.586-1.577q.261-.779.447-1.447t.29-1.146q.182-.777.3-1.618a11.282,11.282,0,0,0,.115-1.587Zm4.469,1.505a8.759,8.759,0,0,1,.65.989q.343.595.679,1.261t.613,1.289q.277.622.436,1.074l-1.008.479q-.141-.5-.391-1.137t-.569-1.3q-.319-.66-.666-1.248a6.665,6.665,0,0,0-.69-.983Zm-9.152,1.349q.306.018.58.016T41,10.755q.293-.013.752-.045t.994-.075l1.064-.088q.529-.046.975-.075t.705-.03a2.933,2.933,0,0,1,1.061.182,1.515,1.515,0,0,1,.761.66,2.646,2.646,0,0,1,.288,1.358q0,.77-.073,1.658a14.356,14.356,0,0,1-.237,1.692,5.241,5.241,0,0,1-.442,1.344,1.647,1.647,0,0,1-.782.87,2.7,2.7,0,0,1-1.115.216,5.708,5.708,0,0,1-.794-.06q-.425-.06-.736-.13l-.171-1.084q.279.081.576.142t.568.092a4.065,4.065,0,0,0,.45.031,1.615,1.615,0,0,0,.648-.125,1.045,1.045,0,0,0,.49-.544,4.972,4.972,0,0,0,.344-1.108,12.843,12.843,0,0,0,.2-1.419q.068-.754.068-1.455a1.853,1.853,0,0,0-.17-.9.865.865,0,0,0-.48-.4,2.234,2.234,0,0,0-.729-.107q-.328,0-.889.045t-1.194.108q-.633.062-1.177.123t-.843.092l-.571.073q-.346.045-.6.086Zm9.3-3.239q.169.226.361.546t.384.649q.191.329.324.595l-.712.314q-.122-.265-.3-.591t-.376-.652a6.27,6.27,0,0,0-.377-.564ZM50.567,7q.177.239.384.563t.4.646q.194.322.314.567l-.706.314q-.211-.427-.5-.928a7.952,7.952,0,0,0-.578-.866Zm7.647,2.977v1.04h4.345V9.973Zm0-1.726V9.279h4.345V8.247ZM57.323,7.5h6.171v4.257H57.323Zm-.592,5.2H64.21v.818H56.731Zm3.19.4h.917V18.42l-.917-.376Zm-1.74,2.392a3.678,3.678,0,0,0,.907,1.606,2.833,2.833,0,0,0,1.328.7,7.5,7.5,0,0,0,1.669.174H63.3l.783,0q.365,0,.536-.008a2.593,2.593,0,0,0-.121.259,2.432,2.432,0,0,0-.107.322q-.042.165-.066.293H62.046a8.851,8.851,0,0,1-1.509-.12,3.714,3.714,0,0,1-1.248-.446,3.108,3.108,0,0,1-.985-.944,5.735,5.735,0,0,1-.722-1.608Zm2.371-.449h3.011v.806H60.553Zm-2.975-.909.894.105a10.087,10.087,0,0,1-.711,2.805,5.6,5.6,0,0,1-1.4,1.991,1.577,1.577,0,0,0-.21-.2q-.139-.111-.278-.22a2.743,2.743,0,0,0-.239-.17,4.429,4.429,0,0,0,1.331-1.783A8.922,8.922,0,0,0,57.578,14.137Zm-5.2-.148q.755-.2,1.819-.532t2.16-.67l.136.889q-1,.334-2.02.666t-1.848.6ZM52.52,9.7h3.963v.912H52.52Zm1.612-2.612h.907V17.822a1.517,1.517,0,0,1-.1.613.688.688,0,0,1-.341.334,1.729,1.729,0,0,1-.623.154q-.393.036-1.014.028a2.39,2.39,0,0,0-.1-.44,3.085,3.085,0,0,0-.179-.461q.423.013.765.013t.458-.008A.244.244,0,0,0,54.082,18a.267.267,0,0,0,.049-.187ZM68.5,7.112l.924.282a19.9,19.9,0,0,1-1,2.173,19.55,19.55,0,0,1-1.234,2.022,13.624,13.624,0,0,1-1.369,1.677q-.046-.115-.142-.3t-.207-.372a2.027,2.027,0,0,0-.2-.3,11.787,11.787,0,0,0,1.236-1.465A16.2,16.2,0,0,0,68.5,7.112ZM67.11,10.478l.947-.947.016.013v9.472H67.11Zm2.243-.617h7.983V10.8H69.353ZM69.025,14h8.457v.958H69.025Zm2-6.787h.958v7.3h-.958Zm3.5-.01h.95V14.53h-.95ZM71.3,15.69l.927.289A10.144,10.144,0,0,1,71.49,17.1a13.337,13.337,0,0,1-.871,1.046,9.289,9.289,0,0,1-.9.858q-.09-.082-.229-.2t-.288-.232a2.588,2.588,0,0,0-.261-.182,9.068,9.068,0,0,0,1.306-1.227A8.128,8.128,0,0,0,71.3,15.69Zm2.953.473.771-.443q.448.427.894.93t.821.99a8.434,8.434,0,0,1,.6.88l-.817.525a7.918,7.918,0,0,0-.588-.909q-.37-.5-.808-1.022T74.25,16.163ZM84.81,8.786q-.062-.21-.147-.486t-.181-.537l1.112-.136q.062.374.182.848t.277.962q.156.488.3.912a11.911,11.911,0,0,0,.752,1.678,12.893,12.893,0,0,0,.864,1.4q.134.186.278.359t.291.331l-.529.738a5.539,5.539,0,0,0-.619-.111q-.384-.051-.831-.1t-.89-.087q-.442-.04-.8-.063l.077-.863q.37.026.78.064t.78.068q.37.03.6.059-.272-.412-.585-.957t-.606-1.148q-.292-.6-.511-1.189-.208-.565-.354-1.007T84.81,8.786ZM80.051,9.8q1.089.124,2.111.176T84.1,10q.918-.025,1.655-.1.521-.062,1.1-.156t1.154-.233q.577-.139,1.076-.306l.12,1.024q-.458.133-1,.242t-1.091.2q-.546.088-1.021.146a26.25,26.25,0,0,1-2.767.149q-1.524.009-3.245-.129Zm2.007,4.145a5.657,5.657,0,0,0-.452.906,2.505,2.505,0,0,0-.166.9,1.427,1.427,0,0,0,.807,1.35,4.987,4.987,0,0,0,2.256.445,16.527,16.527,0,0,0,1.832-.079,13.057,13.057,0,0,0,1.519-.241l-.046,1.037q-.607.107-1.439.2a16.865,16.865,0,0,1-1.924.083,7,7,0,0,1-2.134-.306,2.974,2.974,0,0,1-1.4-.893,2.224,2.224,0,0,1-.495-1.47,3.343,3.343,0,0,1,.175-1.068,9.339,9.339,0,0,1,.452-1.1Zm21.606,3.067a3.918,3.918,0,0,1-1.121.8,2.96,2.96,0,0,1-1.267.281,1.381,1.381,0,0,1-1.044-.416,1.7,1.7,0,0,1-.4-1.221,10.21,10.21,0,0,1,.075-1.186q.075-.642.168-1.308t.168-1.271a8.853,8.853,0,0,0,.075-1.082,1.07,1.07,0,0,0-.275-.819,1.092,1.092,0,0,0-.771-.255,2.361,2.361,0,0,0-1.014.271,6.853,6.853,0,0,0-1.149.719,11.921,11.921,0,0,0-1.148,1q-.557.548-1.019,1.1l.022-1.287q.242-.263.625-.618t.863-.731a10.464,10.464,0,0,1,1.008-.7,6.122,6.122,0,0,1,1.058-.518,2.9,2.9,0,0,1,1.007-.2,2.144,2.144,0,0,1,1.013.213,1.384,1.384,0,0,1,.6.608,2.013,2.013,0,0,1,.2.921,9.664,9.664,0,0,1-.074,1.115q-.074.632-.171,1.305t-.171,1.309a9.821,9.821,0,0,0-.074,1.127.947.947,0,0,0,.166.561.587.587,0,0,0,.515.235,2,2,0,0,0,.966-.276,4.235,4.235,0,0,0,1-.8Zm-8.737-6.215q-.152.018-.473.061l-.722.1-.82.111q-.418.057-.781.112l-.108-1.066q.217.013.416.006t.435-.019q.267-.018.664-.062t.831-.1q.434-.056.818-.126A4.23,4.23,0,0,0,95.8,9.66l.376.444q-.112.167-.255.391t-.285.456q-.143.231-.252.416l-.4,1.774q-.224.349-.547.827t-.684,1q-.361.527-.722,1.043t-.666.939l-.659-.888q.239-.3.575-.742t.706-.939q.37-.5.725-1t.636-.907q.281-.413.43-.667l.053-.672Zm-.121-2.149q0-.225,0-.476a3.146,3.146,0,0,0-.045-.489l1.22.041q-.054.251-.129.808T95.7,9.839q-.075.751-.141,1.582t-.108,1.647q-.041.816-.041,1.5,0,.589,0,1.084t.014.982q.012.487.035,1.071.013.169.03.389t.035.4H94.4a3.8,3.8,0,0,0,.032-.4q.007-.213.007-.369.005-.629.01-1.112t.01-1q.005-.512.015-1.225.005-.291.031-.789t.062-1.1q.036-.606.079-1.23t.079-1.178q.036-.554.06-.942T94.805,8.646Zm9.906.717q.374-.013.674-.032l.49-.033.9-.091q.588-.06,1.359-.134t1.653-.151l1.778-.155q.713-.06,1.349-.105t1.182-.077q.546-.031.974-.044l.005,1.037q-.37-.008-.838.005t-.921.055a3.942,3.942,0,0,0-.785.144,3.747,3.747,0,0,0-1.248.672,4.689,4.689,0,0,0-.942,1.032,4.892,4.892,0,0,0-.592,1.208,3.9,3.9,0,0,0-.2,1.2,3.139,3.139,0,0,0,.261,1.327,2.8,2.8,0,0,0,.711.955,3.893,3.893,0,0,0,1.024.636,5.813,5.813,0,0,0,1.215.367,8.539,8.539,0,0,0,1.277.144l-.376,1.074a7.3,7.3,0,0,1-1.453-.2,6.523,6.523,0,0,1-1.4-.508,4.662,4.662,0,0,1-1.18-.836,3.747,3.747,0,0,1-.816-1.182,3.806,3.806,0,0,1-.3-1.55,4.866,4.866,0,0,1,.358-1.88,5.545,5.545,0,0,1,.916-1.512,4.693,4.693,0,0,1,1.155-1q-.417.047-1.031.111t-1.317.141q-.7.077-1.411.163t-1.322.176q-.615.089-1.035.178Zm14.8-.434q-.028.154-.051.385t-.037.468q-.014.237-.022.408-.008.405,0,.918t.027,1.066q.021.553.068,1.091a10.457,10.457,0,0,0,.351,1.9,3.729,3.729,0,0,0,.6,1.265,1.038,1.038,0,0,0,.823.45.7.7,0,0,0,.479-.224,2.494,2.494,0,0,0,.445-.607,6.527,6.527,0,0,0,.387-.856,9.748,9.748,0,0,0,.3-.956l.817.927a9.473,9.473,0,0,1-.79,1.743,3.067,3.067,0,0,1-.808.93,1.482,1.482,0,0,1-.855.283,1.888,1.888,0,0,1-1.178-.447,3.524,3.524,0,0,1-.987-1.456,10.017,10.017,0,0,1-.6-2.69q-.057-.569-.09-1.228t-.043-1.261q-.01-.6-.01-.973,0-.227-.014-.579a2.914,2.914,0,0,0-.071-.579Zm6.769.358a7.89,7.89,0,0,1,.665,1.038,11.877,11.877,0,0,1,.588,1.26q.269.672.482,1.383t.354,1.419a13.691,13.691,0,0,1,.2,1.37l-1.046.417a15.929,15.929,0,0,0-.271-1.8,16.094,16.094,0,0,0-.478-1.781,12.556,12.556,0,0,0-.665-1.63,7.127,7.127,0,0,0-.839-1.331Zm6.423-.868q.22.023.471.035t.45.012q.2,0,.647-.01t1.015-.029l1.132-.039q.564-.021,1.009-.044l.655-.036q.294-.031.446-.054a2.005,2.005,0,0,0,.259-.054l.6.757q-.176.116-.366.246t-.374.28q-.241.182-.659.531l-.915.767-.98.825q-.482.407-.866.726a4.46,4.46,0,0,1,.908-.212,7.318,7.318,0,0,1,.9-.057,4.4,4.4,0,0,1,1.914.4,3.281,3.281,0,0,1,1.314,1.084,2.678,2.678,0,0,1,.478,1.57,3.081,3.081,0,0,1-.547,1.822,3.532,3.532,0,0,1-1.549,1.2,6.052,6.052,0,0,1-2.383.427,4.369,4.369,0,0,1-1.518-.237,2.252,2.252,0,0,1-.984-.656,1.467,1.467,0,0,1-.344-.959,1.524,1.524,0,0,1,.247-.833,1.79,1.79,0,0,1,.7-.625,2.239,2.239,0,0,1,1.051-.237,2.706,2.706,0,0,1,1.448.357,2.435,2.435,0,0,1,.886.937,2.99,2.99,0,0,1,.349,1.241l-.934.157a2.271,2.271,0,0,0-.513-1.369,1.547,1.547,0,0,0-1.238-.534,1.157,1.157,0,0,0-.746.242.722.722,0,0,0-.3.579.825.825,0,0,0,.485.744,2.55,2.55,0,0,0,1.249.27,5.606,5.606,0,0,0,1.917-.295,2.675,2.675,0,0,0,1.248-.867A2.2,2.2,0,0,0,139.7,15.1a1.864,1.864,0,0,0-.376-1.143,2.543,2.543,0,0,0-1.037-.8,3.7,3.7,0,0,0-1.51-.292,5.774,5.774,0,0,0-1.459.17,4.915,4.915,0,0,0-1.215.5,7.033,7.033,0,0,0-1.122.813q-.556.487-1.175,1.115l-.748-.76q.407-.334.895-.74l.981-.816q.493-.41.92-.772l.7-.6q.273-.221.681-.561t.853-.716q.445-.376.841-.714t.638-.554l-.6.025-.895.039-.981.043-.888.04q-.4.019-.6.033t-.436.03q-.222.017-.432.048Z" transform="translate(31 2455)" fill="#164b99"/><path d="M6.5-6.324a1.328,1.328,0,0,1,.7.187,1.452,1.452,0,0,1,.5.5,1.323,1.323,0,0,1,.188.7,1.337,1.337,0,0,1-.187.692,1.428,1.428,0,0,1-.5.5,1.326,1.326,0,0,1-.7.187,1.338,1.338,0,0,1-.692-.187,1.405,1.405,0,0,1-.5-.5,1.335,1.335,0,0,1-.187-.691,1.33,1.33,0,0,1,.187-.7,1.429,1.429,0,0,1,.5-.5A1.331,1.331,0,0,1,6.5-6.324ZM24.056-8.656l.933.216q-.156.554-.337,1.155t-.361,1.156q-.18.555-.352.979l-.761-.216q.162-.44.329-1.019t.312-1.182Q23.964-8.169,24.056-8.656Zm-5.033.294.789-.2q.186.512.34,1.1t.261,1.135a8.754,8.754,0,0,1,.141.984l-.849.216a9.562,9.562,0,0,0-.132-1q-.1-.559-.239-1.139T19.023-8.362Zm-.3-1.83h6.531v.914H18.719Zm-.511,5.615h7.3v.925h-7.3Zm3.222-5.3h.955V1.032h-.955Zm-7.318,2.89h3.878v.777H14.113Zm.063-3.474h3.789v.778H14.175Zm-.063,5.212h3.878v.778H14.113ZM13.5-8.759h4.943v.811H13.5Zm1.075,5.264h3.406V.3H14.574V-.508h2.548V-2.684H14.574Zm-.482,0h.856V.9h-.856ZM30.071-9.605h8.288v.889H30.071Zm.175,3.021h8.005V.75h-.94V-5.716H31.15V.82h-.9Zm2.277-2.884h.92v3.512h-.92Zm2.421-.005h.925v3.512h-.925ZM30.661-.886h7.32v.859h-7.32Zm1.933-5.094h.843V-.236h-.843Zm2.35-.005h.844V-.241h-.844Zm-5.644-4.9.886.276a19.23,19.23,0,0,1-.938,2.123,19.551,19.551,0,0,1-1.166,1.977,13.249,13.249,0,0,1-1.3,1.649q-.046-.11-.14-.292t-.2-.362a2.115,2.115,0,0,0-.2-.29,10.311,10.311,0,0,0,1.182-1.435,15.7,15.7,0,0,0,1.044-1.751A16.074,16.074,0,0,0,29.3-10.883ZM28.011-7.509l.9-.912.016.014V1.029h-.92Zm21.564-.248q-.211.137-.458.268t-.539.279q-.326.175-.8.41t-1.027.519q-.55.284-1.1.6t-1.025.624a5.92,5.92,0,0,0-1.42,1.237,2.2,2.2,0,0,0-.515,1.393,1.444,1.444,0,0,0,.771,1.278,4.487,4.487,0,0,0,2.312.475q.713,0,1.482-.057t1.475-.158a11.715,11.715,0,0,0,1.206-.228L49.928.042Q49.446.125,48.794.2T47.388.316q-.754.043-1.57.043A9.07,9.07,0,0,1,44.136.213,4.42,4.42,0,0,1,42.8-.246a2.325,2.325,0,0,1-.877-.827,2.348,2.348,0,0,1-.313-1.244,2.94,2.94,0,0,1,.3-1.316,4.226,4.226,0,0,1,.86-1.155A9.236,9.236,0,0,1,44.092-5.84q.5-.339,1.063-.658t1.115-.615q.55-.3,1.023-.54t.791-.422q.281-.168.5-.306a3.957,3.957,0,0,0,.429-.309ZM43-10.115q.3.829.649,1.626T44.349-7q.352.69.651,1.218l-.887.537q-.324-.537-.688-1.263t-.733-1.548q-.369-.822-.717-1.624ZM63.194-8.642a1.908,1.908,0,0,0-.109.3q-.045.159-.086.356-.1.51-.272,1.133t-.412,1.276a11.659,11.659,0,0,1-.556,1.269,7.252,7.252,0,0,1-.7,1.115,10.845,10.845,0,0,1-1.325,1.408A9.312,9.312,0,0,1,58.069-.617a11.451,11.451,0,0,1-2.125.9L55.06-.692a11.07,11.07,0,0,0,2.195-.786,8.139,8.139,0,0,0,1.633-1.057,8.59,8.59,0,0,0,1.242-1.287,6.739,6.739,0,0,0,.809-1.34,11.6,11.6,0,0,0,.575-1.51,9.192,9.192,0,0,0,.315-1.384H55.181q-.386,0-.714.012t-.58.03V-9.167l.4.04q.217.022.455.034t.446.012h6.518q.15,0,.333-.012a1.947,1.947,0,0,0,.363-.058Zm3.129,5.289A13.766,13.766,0,0,0,68.062-3.9q.877-.337,1.648-.719t1.3-.7a11.592,11.592,0,0,0,1.2-.835q.581-.461,1.071-.931a9.248,9.248,0,0,0,.82-.883l.807.781a11.237,11.237,0,0,1-.92.891q-.553.485-1.2.968t-1.331.9q-.407.249-.938.519t-1.134.545q-.6.274-1.257.526t-1.3.455ZM70.89-4.731,71.97-5V-.124q0,.192.007.42T72,.715a2.183,2.183,0,0,0,.037.293h-1.2a2.5,2.5,0,0,0,.027-.293q.009-.19.018-.418t.009-.42Zm8.174-.9.483.031q.287.018.628.027t.7.009H88q.49,0,.838-.027t.563-.04v1.27l-.579-.034q-.379-.021-.814-.021H80.877q-.535,0-1.02.014t-.793.04ZM99.272-9.355q.163.231.384.574t.434.707q.213.364.364.679l-.744.339q-.16-.344-.347-.688t-.39-.676a7.177,7.177,0,0,0-.424-.62Zm1.567-.654q.176.225.4.563t.447.7q.224.362.375.664l-.729.36q-.166-.344-.363-.681t-.408-.662q-.21-.325-.43-.607ZM94.707-.978V-8.536q0-.279-.023-.668a5.887,5.887,0,0,0-.077-.689h1.276q-.031.292-.061.678t-.03.679v2.721q0,.8,0,1.586t0,1.469V-.978q0,.2.008.483t.031.561l.041.5H94.623q.041-.313.063-.746T94.707-.978Zm.855-5.5q.642.185,1.418.451t1.576.569q.8.3,1.526.609t1.263.574l-.453,1.1q-.554-.3-1.253-.613T98.2-4.392q-.736-.294-1.422-.534t-1.219-.406Zm18.129-3.651q.169.226.361.546t.38.645q.187.325.32.591l-.7.314q-.192-.4-.49-.913T113-9.836Zm1.425-.521q.177.239.38.563t.4.642q.194.318.314.563l-.7.314Q115.3-9,115-9.495a9.088,9.088,0,0,0-.57-.862ZM106.57-3.907q.213-.509.416-1.109t.375-1.245q.172-.645.3-1.275t.189-1.193l1.159.235q-.036.144-.082.31t-.085.332q-.039.166-.073.306-.065.3-.178.786t-.27,1.052q-.157.568-.341,1.148t-.387,1.081q-.237.595-.546,1.221t-.659,1.228q-.35.6-.714,1.125l-1.1-.468a14.522,14.522,0,0,0,1.145-1.773A17.364,17.364,0,0,0,106.57-3.907Zm6.406-.5q-.2-.5-.434-1.066T112.049-6.6q-.256-.565-.5-1.062t-.459-.858l1.051-.351q.192.35.435.843t.5,1.051q.259.558.506,1.131t.456,1.086q.2.479.413,1.07t.433,1.2q.216.609.4,1.175T115.6-.306l-1.156.371q-.158-.665-.4-1.437t-.518-1.56Q113.252-3.721,112.975-4.407Zm10.049-3.08q.088.192.23.574l.3.814q.161.432.294.818t.195.6l-.965.349q-.049-.223-.175-.6t-.282-.811q-.156-.43-.308-.811t-.25-.6Zm4.706.733q-.067.195-.115.352l-.09.288a12.647,12.647,0,0,1-.7,2.094,8.544,8.544,0,0,1-1.14,1.908,9.234,9.234,0,0,1-2.026,1.9A10.716,10.716,0,0,1,121.448.971L120.59.1a8.873,8.873,0,0,0,1.523-.614,9.178,9.178,0,0,0,1.471-.939,7.5,7.5,0,0,0,1.234-1.206,7.532,7.532,0,0,0,.83-1.286,9.069,9.069,0,0,0,.616-1.526,9.538,9.538,0,0,0,.346-1.639ZM120-6.833q.1.209.261.592t.334.827q.177.445.337.853t.251.663l-.98.366q-.078-.252-.231-.672t-.333-.879q-.179-.459-.341-.836a5.64,5.64,0,0,0-.259-.547Zm21.071-1.3a2.389,2.389,0,0,0-.163.337q-.081.2-.137.356a10.614,10.614,0,0,1-.492,1.422,13.835,13.835,0,0,1-.777,1.558,11.054,11.054,0,0,1-1.036,1.5,11.2,11.2,0,0,1-2.118,1.966A13.009,13.009,0,0,1,133.292.578l-.944-.855a11.572,11.572,0,0,0,2.147-.849A10.514,10.514,0,0,0,136.2-2.234a9.7,9.7,0,0,0,1.342-1.3,8.913,8.913,0,0,0,.928-1.315,12.344,12.344,0,0,0,.718-1.435,7.438,7.438,0,0,0,.427-1.309H134.8l.417-.933h4.145a3.588,3.588,0,0,0,.48-.03,1.529,1.529,0,0,0,.371-.092Zm-4.355-1.963q-.162.255-.319.547l-.255.473a14.069,14.069,0,0,1-.968,1.54A13.072,13.072,0,0,1,133.78-5.9,12.072,12.072,0,0,1,131.927-4.4l-.9-.671a10.267,10.267,0,0,0,1.508-1.083A10.687,10.687,0,0,0,133.7-7.327a11.206,11.206,0,0,0,.852-1.147,10.088,10.088,0,0,0,.565-.986,3.371,3.371,0,0,0,.225-.476,3.737,3.737,0,0,0,.179-.556Z" transform="translate(31 2497)" fill="#164b99"/></g><g transform="translate(-33 -231.428)"><path d="M6.5-6.324a1.328,1.328,0,0,1,.7.187,1.452,1.452,0,0,1,.5.5,1.323,1.323,0,0,1,.188.7,1.337,1.337,0,0,1-.187.692,1.428,1.428,0,0,1-.5.5,1.326,1.326,0,0,1-.7.187,1.338,1.338,0,0,1-.692-.187,1.405,1.405,0,0,1-.5-.5,1.335,1.335,0,0,1-.187-.691,1.33,1.33,0,0,1,.187-.7,1.429,1.429,0,0,1,.5-.5A1.331,1.331,0,0,1,6.5-6.324Zm9.7.533v4.608h-.943v-3.7H13.6v-.909Zm0,4.208A2.763,2.763,0,0,0,17.5-.515a5.779,5.779,0,0,0,1.99.4q.54.018,1.321.025t1.64,0q.858-.009,1.663-.036T25.51-.2a2.389,2.389,0,0,0-.122.278q-.065.173-.115.355t-.078.328Q24.653.784,23.9.8T22.348.822q-.809.007-1.559,0T19.495.792A6.639,6.639,0,0,1,17.3.378,3.621,3.621,0,0,1,15.784-.758q-.427.419-.878.84T13.97.936l-.506-.957q.435-.319.932-.73t.948-.831Zm-2.469-8.469.737-.543a9.644,9.644,0,0,1,.817.671q.414.377.756.755a4.79,4.79,0,0,1,.542.705l-.8.609a4.66,4.66,0,0,0-.519-.719q-.334-.391-.735-.779A10.175,10.175,0,0,0,13.727-10.052Zm3.2.224h8.38v.793h-8.38Zm1.827,3.8H23.4v.661H18.754Zm1.8-4.894H21.5v1.583h-.945Zm.137,3.939h.747v2.748h-.747ZM17.4-7.7h6.892v.785H18.3V-.885h-.9Zm1.939,3.27h.725v2.865H19.34Zm.382,0h3.124v2.366H19.722v-.62h2.4V-3.813h-2.4ZM23.935-7.7h.9v5.769a1.466,1.466,0,0,1-.085.562.629.629,0,0,1-.333.314,2.264,2.264,0,0,1-.67.128q-.406.026-.986.026a2.19,2.19,0,0,0-.116-.425,3.582,3.582,0,0,0-.18-.414q.439.013.787.016t.476-.005a.256.256,0,0,0,.161-.049.217.217,0,0,0,.042-.153ZM22.706-9.191l.92.237q-.206.4-.415.779t-.389.665l-.778-.216q.175-.318.365-.738T22.706-9.191Zm-4.148.273.815-.208a4.657,4.657,0,0,1,.383.688,3.118,3.118,0,0,1,.234.681l-.853.234a3.367,3.367,0,0,0-.215-.678A5.23,5.23,0,0,0,18.558-8.919Zm12.653-.858h6.426v.93H31.211Zm6.018,0h1l0,.107q0,.107,0,.237t-.005.2q-.06,2.5-.124,4.221T37.936-2.2a13.85,13.85,0,0,1-.217,1.678A2.211,2.211,0,0,1,37.4.317a1.3,1.3,0,0,1-.45.418A1.853,1.853,0,0,1,36.384.9a6.487,6.487,0,0,1-.82.033q-.5-.005-1.02-.042A2.392,2.392,0,0,0,34.45.386a1.754,1.754,0,0,0-.218-.491q.576.047,1.048.053t.69.006a.712.712,0,0,0,.3-.039.536.536,0,0,0,.218-.187,1.819,1.819,0,0,0,.27-.757,16.081,16.081,0,0,0,.2-1.644q.089-1.077.154-2.76t.12-4.1ZM26.375-6.736,31.864-7.9l.172.875-5.49,1.175Zm1.578-3.817h.96v7.643a.825.825,0,0,0,.076.446.422.422,0,0,0,.333.1h1.165a.271.271,0,0,0,.251-.147,1.53,1.53,0,0,0,.122-.55q.038-.4.059-1.161a1.874,1.874,0,0,0,.416.251,2.721,2.721,0,0,0,.455.167,9.185,9.185,0,0,1-.167,1.419,1.347,1.347,0,0,1-.364.733,1.02,1.02,0,0,1-.7.218H29.18a1.762,1.762,0,0,1-.753-.13.717.717,0,0,1-.371-.453,3.066,3.066,0,0,1-.1-.9Zm5.562,1.191h.97q-.021,1.283-.087,2.524a21.388,21.388,0,0,1-.26,2.4,10.846,10.846,0,0,1-.595,2.176A7.191,7.191,0,0,1,32.46-.393a6.325,6.325,0,0,1-1.743,1.481A2.7,2.7,0,0,0,30.4.679,2.434,2.434,0,0,0,30.01.323a5.686,5.686,0,0,0,1.655-1.347,6.362,6.362,0,0,0,1.014-1.734,9.726,9.726,0,0,0,.541-2.026,20.138,20.138,0,0,0,.222-2.231Q33.494-8.172,33.515-9.362ZM40.26-8.2q.36.044.766.064t.827.019q.707,0,1.469-.066a15.343,15.343,0,0,0,1.542-.214,12.824,12.824,0,0,0,1.53-.389l.028.966q-.634.175-1.394.316t-1.571.226a15.546,15.546,0,0,1-1.606.084q-.355,0-.753-.009t-.765-.027Zm4.606-2.121q-.078.311-.195.793t-.258,1.007q-.141.525-.3.988a19.151,19.151,0,0,1-.787,1.974q-.477,1.038-1.023,2.011a15.846,15.846,0,0,1-1.089,1.7l-1-.518a12.293,12.293,0,0,0,.867-1.165q.433-.654.818-1.365t.7-1.4a13.655,13.655,0,0,0,.514-1.267,14.255,14.255,0,0,0,.4-1.4,7.788,7.788,0,0,0,.211-1.471ZM47.932-6.3q-.018.4-.023.723t.008.677l.032.8q.02.484.045,1.024t.046,1.034q.02.493.02.82a1.931,1.931,0,0,1-.235.944A1.672,1.672,0,0,1,47.093.4a2.88,2.88,0,0,1-1.307.254,4.024,4.024,0,0,1-1.3-.2,2.088,2.088,0,0,1-.94-.614,1.57,1.57,0,0,1-.354-1.057,1.638,1.638,0,0,1,.342-1.04,2.181,2.181,0,0,1,.931-.674,3.517,3.517,0,0,1,1.32-.236,6.287,6.287,0,0,1,2.014.308,7.45,7.45,0,0,1,1.646.775,11.476,11.476,0,0,1,1.269.927l-.556.881q-.378-.336-.84-.7A7.351,7.351,0,0,0,48.3-1.642a6.256,6.256,0,0,0-1.195-.5,4.627,4.627,0,0,0-1.355-.194,2.06,2.06,0,0,0-1.161.295.873.873,0,0,0-.442.747.879.879,0,0,0,.376.737,1.887,1.887,0,0,0,1.136.282,1.812,1.812,0,0,0,.857-.171,1,1,0,0,0,.451-.465,1.526,1.526,0,0,0,.135-.642q0-.374-.022-.954t-.055-1.253q-.032-.672-.061-1.341t-.047-1.2Zm2.6.345a7.342,7.342,0,0,0-.885-.642q-.535-.338-1.1-.645t-.992-.5l.522-.791q.351.156.781.376t.861.465q.431.246.8.478t.6.407Zm4.433-.572h6.444v.864H54.965ZM52.782-3.57h11.5v.912h-11.5Zm5.232-.947h.993V-.128a1.343,1.343,0,0,1-.137.675.839.839,0,0,1-.5.344,3.887,3.887,0,0,1-.932.133q-.579.026-1.472.026A2.935,2.935,0,0,0,55.79.574,3.711,3.711,0,0,0,55.542.1l.941.022q.442.009.761.005T57.692.12A.475.475,0,0,0,57.95.048a.248.248,0,0,0,.064-.194Zm3.1-2.016h.238l.213-.051.628.474a8.594,8.594,0,0,1-1.017.882,13.318,13.318,0,0,1-1.216.809,12.349,12.349,0,0,1-1.252.648,2.679,2.679,0,0,0-.261-.3q-.163-.166-.283-.274a9.851,9.851,0,0,0,1.115-.579,11.165,11.165,0,0,0,1.047-.707,5.862,5.862,0,0,0,.787-.706ZM53.044-8.759H64.058v2.9h-.963V-7.877H53.972v2.023h-.927Zm9.292-2.083,1.02.347q-.412.6-.9,1.213t-.892,1.037l-.775-.332q.263-.306.551-.7t.554-.807A8.2,8.2,0,0,0,62.337-10.842Zm-8.4.455.819-.382a9.316,9.316,0,0,1,.733.913,4.929,4.929,0,0,1,.519.886l-.86.428a5.633,5.633,0,0,0-.511-.9Q54.286-9.959,53.934-10.386Zm3.34-.278.844-.315a9.38,9.38,0,0,1,.636,1.024,5.258,5.258,0,0,1,.428.979l-.9.356a5.682,5.682,0,0,0-.4-.993A9.224,9.224,0,0,0,57.274-10.664ZM67.407-4.338h8.314V1.079H74.713V-3.56H68.375V1.079h-.968ZM67.915-2.3h7.112v.78H67.915Zm.041,2.092h7.073V.565H67.956Zm3.019-5.351,1.026.2q-.217.43-.456.844t-.436.7l-.794-.209q.177-.332.371-.768A5.835,5.835,0,0,0,70.975-5.563Zm-5.033-4.694h4.33v.793h-4.33Zm4.07,0h.894v4.308a1.175,1.175,0,0,1-.086.5.616.616,0,0,1-.329.284,2.152,2.152,0,0,1-.657.107q-.406.014-1.025.014a1.968,1.968,0,0,0-.107-.368,2.659,2.659,0,0,0-.166-.358q.44.013.793.013t.473-.008a.231.231,0,0,0,.169-.046.21.21,0,0,0,.042-.144Zm1.719,0h4.538v.793H71.731Zm4.09,0h.914v4.314a1.177,1.177,0,0,1-.093.525.668.668,0,0,1-.351.291,2.255,2.255,0,0,1-.686.118q-.433.021-1.078.016a2.015,2.015,0,0,0-.112-.392,3.631,3.631,0,0,0-.171-.385q.463.013.847.02t.509,0a.365.365,0,0,0,.177-.048.185.185,0,0,0,.044-.147ZM71.434-6.411q.713-.227,1.688-.568l1.993-.7.151.72q-.9.344-1.815.685t-1.661.609Zm.659-2.347.5-.582a9.182,9.182,0,0,1,.973.559,4.641,4.641,0,0,1,.788.619l-.534.651a4.282,4.282,0,0,0-.76-.652A8.311,8.311,0,0,0,72.093-8.758Zm-6.465,2.6q.669-.214,1.6-.555t1.9-.709l.154.728q-.857.349-1.711.7T66-5.343Zm.86-2.609L67-9.336a9.634,9.634,0,0,1,.963.584,4.039,4.039,0,0,1,.757.636l-.527.633a4.82,4.82,0,0,0-.753-.662A8.88,8.88,0,0,0,66.488-8.764ZM87.361-5.973a14.237,14.237,0,0,1-.166,2.3,5.828,5.828,0,0,1-.576,1.781A4.592,4.592,0,0,1,85.485-.506,7.923,7.923,0,0,1,83.648.6l-.873-.825a8.79,8.79,0,0,0,1.551-.761,3.9,3.9,0,0,0,1.107-1.045A4.42,4.42,0,0,0,86.1-3.589a10.212,10.212,0,0,0,.22-2.3V-9.048q0-.387-.023-.678t-.039-.387h1.173q-.01.1-.039.387t-.029.678Zm-4.682-4.058q-.01.091-.035.347t-.025.593v4.766q0,.233.013.484t.022.439q.009.187.014.253h-1.15q.01-.066.023-.249t.026-.435q.013-.252.013-.492V-9.088q0-.214-.014-.469t-.045-.474Zm-3.8,2.521q.061.01.265.031t.485.039q.281.018.553.018h8.611q.437,0,.749-.026t.444-.046v1.1q-.106-.01-.431-.025t-.756-.014H80.177q-.279,0-.551.01l-.473.02-.277.014Zm21.936-2.1a.8.8,0,0,0,.24.587.8.8,0,0,0,.587.24.812.812,0,0,0,.591-.24.792.792,0,0,0,.244-.587.805.805,0,0,0-.244-.591.805.805,0,0,0-.591-.244.792.792,0,0,0-.587.244A.812.812,0,0,0,100.811-9.606Zm-.593,0a1.383,1.383,0,0,1,.192-.72,1.456,1.456,0,0,1,.515-.515,1.369,1.369,0,0,1,.713-.192,1.383,1.383,0,0,1,.72.192,1.456,1.456,0,0,1,.515.515,1.383,1.383,0,0,1,.192.72,1.369,1.369,0,0,1-.192.713,1.455,1.455,0,0,1-.515.515,1.384,1.384,0,0,1-.72.192,1.369,1.369,0,0,1-.713-.192,1.455,1.455,0,0,1-.515-.515A1.369,1.369,0,0,1,100.218-9.606Zm-2.175-.413q-.013.091-.032.258t-.033.347q-.014.181-.014.323V-.476A1.05,1.05,0,0,1,97.7.3a1.173,1.173,0,0,1-.855.261q-.271,0-.6-.013T95.59.509Q95.267.487,95,.464L94.907-.57q.432.078.839.114t.665.036a.511.511,0,0,0,.38-.121.54.54,0,0,0,.122-.376q0-.178,0-.625t0-1.042V-9.1a4.607,4.607,0,0,0-.031-.5q-.031-.282-.062-.424ZM92.2-7.83q.275.031.535.052t.566.021h8.1q.228,0,.525-.018t.538-.049v1.079q-.253-.018-.532-.023t-.517-.005H93.307q-.294,0-.57.009T92.2-6.73Zm2.989,3.061q-.21.418-.517.912t-.664.991q-.358.5-.7.929t-.619.733l-.894-.61a7.6,7.6,0,0,0,.679-.715q.354-.419.695-.889t.628-.933a9.389,9.389,0,0,0,.479-.86Zm5.43-.434q.263.312.57.743t.623.915q.316.484.589.937t.468.8l-.958.53q-.189-.387-.456-.854t-.566-.949q-.3-.481-.6-.913t-.553-.739Zm4.707-.427.483.031q.287.018.628.027t.7.009h7.125q.49,0,.838-.027t.563-.04v1.27l-.579-.034q-.379-.021-.814-.021h-7.133q-.535,0-1.02.014t-.793.04Zm16.057,4.48V-8.707q0-.279-.023-.668a5.918,5.918,0,0,0-.077-.689h1.275q-.031.293-.061.678t-.03.679v2.721q0,.8,0,1.585t0,1.469v1.782q0,.209.008.487t.031.557l.041.5H121.3q.041-.313.063-.746T121.381-1.149Zm.855-5.5q.642.185,1.418.451t1.576.569q.8.3,1.526.609t1.263.575l-.453,1.1q-.554-.3-1.253-.613t-1.435-.605q-.736-.294-1.422-.534T122.235-5.5Z" transform="translate(219 2779)" fill="#164b99"/><path d="M6.5-6.324a1.328,1.328,0,0,1,.7.187,1.452,1.452,0,0,1,.5.5,1.323,1.323,0,0,1,.188.7,1.337,1.337,0,0,1-.187.692,1.428,1.428,0,0,1-.5.5,1.326,1.326,0,0,1-.7.187,1.338,1.338,0,0,1-.692-.187,1.405,1.405,0,0,1-.5-.5,1.335,1.335,0,0,1-.187-.691,1.33,1.33,0,0,1,.187-.7,1.429,1.429,0,0,1,.5-.5A1.331,1.331,0,0,1,6.5-6.324ZM18.092-9.191q-.049-.251-.109-.471t-.13-.419l1.16-.2q.018.179.055.432t.073.468l.112.6q.088.477.226,1.192t.306,1.546q.168.831.336,1.674l.315,1.582q.147.74.256,1.264t.142.7q.065.278.148.593t.174.59L19.965.59q-.052-.329-.09-.633t-.1-.589q-.028-.172-.126-.687t-.238-1.243q-.14-.728-.308-1.566T18.771-5.8q-.161-.832-.306-1.547t-.24-1.207Q18.128-9.045,18.092-9.191ZM14.426-7.316l.51-.038q.267-.02.574-.051l.829-.111q.532-.071,1.205-.173T18.938-7.9q.722-.114,1.4-.229l1.218-.205q.542-.091.852-.151.285-.057.529-.114t.405-.1l.21,1.094q-.144.013-.41.052l-.522.078-.9.139q-.56.087-1.241.2t-1.4.224q-.719.113-1.386.221l-1.188.194-.805.133q-.27.049-.514.1t-.538.121Zm-.04,3.753q.233-.013.563-.047t.584-.07q.351-.044.944-.135t1.341-.212l1.545-.248q.8-.127,1.553-.259L22.3-4.774l1.016-.173q.377-.07.657-.133t.487-.125l.218,1.092q-.2.013-.5.062t-.672.114q-.435.065-1.076.17l-1.4.229q-.757.123-1.542.247t-1.508.247q-.723.123-1.3.217t-.91.159q-.378.062-.657.119t-.491.122ZM31.008-7.956q.031.165.08.374t.1.462q.075.265.228.831t.356,1.3q.2.73.418,1.506T32.607-2q.2.715.353,1.242T33.178,0a2.9,2.9,0,0,1,.092.284q.045.164.1.323t.1.278l-1.117.29q-.023-.223-.068-.465a4.09,4.09,0,0,0-.12-.481q-.067-.233-.216-.778T31.6-1.821q-.2-.725-.412-1.506l-.41-1.508-.348-1.279q-.151-.552-.228-.791a3.691,3.691,0,0,0-.144-.438,2.716,2.716,0,0,0-.164-.341Zm6.24,1.783a9.015,9.015,0,0,1-.533.931q-.333.518-.727,1.054T35.2-3.18q-.394.472-.729.807l-.912-.462a9.205,9.205,0,0,0,.838-.828q.428-.476.8-.97a7.6,7.6,0,0,0,.591-.878q-.124.018-.547.1L34.2-5.2l-1.342.268-1.46.294-1.386.28-1.125.229q-.474.1-.673.142l-.259-.992q.277-.026.533-.061t.546-.087l.55-.1q.41-.073,1-.185t1.265-.237l1.36-.254q.684-.129,1.281-.247l1.022-.2q.425-.084.583-.121.123-.031.262-.072a1.367,1.367,0,0,0,.234-.09ZM49.087-9.861q-.013.238-.029.519t-.016.607v2.1q0,1.165-.079,1.987a7.676,7.676,0,0,1-.247,1.4,4.6,4.6,0,0,1-.425,1.02,5.81,5.81,0,0,1-.61.857,4.564,4.564,0,0,1-.955.873,6.989,6.989,0,0,1-1.1.619q-.556.248-1.037.412l-.85-.893a8.183,8.183,0,0,0,1.7-.64,4.7,4.7,0,0,0,1.406-1.1,4.266,4.266,0,0,0,.565-.827,3.767,3.767,0,0,0,.326-.943,8.3,8.3,0,0,0,.152-1.207q.042-.685.042-1.607V-8.735q0-.326-.018-.607t-.049-.519Zm-6.035.1q-.013.183-.029.442t-.016.49v4.341q0,.247.016.531t.029.464H41.866q.021-.155.039-.436t.018-.564V-8.828q0-.174-.013-.461t-.039-.471Zm21.056.975q-.077.088-.18.221t-.175.242a11.069,11.069,0,0,1-.738,1.089A14.951,14.951,0,0,1,61.9-5.92a8.884,8.884,0,0,1-1.378,1.184l-.864-.689a5.912,5.912,0,0,0,.888-.628,10,10,0,0,0,.822-.781,9.5,9.5,0,0,0,.679-.8,5.349,5.349,0,0,0,.453-.7H55.092q-.365,0-.731.018t-.746.054V-9.432q.34.044.725.078t.751.034h7.469q.126,0,.3-.009t.343-.03a2.174,2.174,0,0,0,.26-.044Zm-5.2,1.713q0,1.053-.062,1.976a10.007,10.007,0,0,1-.26,1.728,5.67,5.67,0,0,1-.595,1.491A5.257,5.257,0,0,1,56.939-.6,7.332,7.332,0,0,1,55.286.482L54.333-.3a4.361,4.361,0,0,0,.582-.24A4.539,4.539,0,0,0,55.5-.878a4.582,4.582,0,0,0,1.216-1.035A4.185,4.185,0,0,0,57.4-3.152a6.419,6.419,0,0,0,.314-1.418,14.375,14.375,0,0,0,.082-1.56q0-.235-.008-.461a3.85,3.85,0,0,0-.049-.482Zm15.45,1.1a14.237,14.237,0,0,1-.166,2.3,5.828,5.828,0,0,1-.576,1.781A4.592,4.592,0,0,1,72.485-.506,7.923,7.923,0,0,1,70.648.6l-.873-.825a8.79,8.79,0,0,0,1.551-.761,3.9,3.9,0,0,0,1.107-1.045A4.42,4.42,0,0,0,73.1-3.589a10.212,10.212,0,0,0,.22-2.3V-9.048q0-.387-.023-.678t-.039-.387h1.173q-.01.1-.039.387t-.029.678Zm-4.682-4.058q-.01.091-.035.347t-.025.593v4.766q0,.233.013.484t.022.439q.009.187.014.253h-1.15q.01-.066.023-.249t.026-.435q.013-.252.013-.492V-9.088q0-.214-.014-.469t-.045-.474Zm-3.8,2.521q.061.01.265.031t.485.039q.281.018.553.018h8.611q.437,0,.749-.026t.444-.046v1.1q-.106-.01-.431-.025t-.756-.014H67.177q-.279,0-.551.01l-.473.02-.277.014Zm21.936-2.1a.8.8,0,0,0,.24.587.8.8,0,0,0,.587.24.812.812,0,0,0,.591-.24.792.792,0,0,0,.244-.587.805.805,0,0,0-.244-.591.805.805,0,0,0-.591-.244.792.792,0,0,0-.587.244A.812.812,0,0,0,87.811-9.606Zm-.593,0a1.383,1.383,0,0,1,.192-.72,1.456,1.456,0,0,1,.515-.515,1.369,1.369,0,0,1,.713-.192,1.383,1.383,0,0,1,.72.192,1.456,1.456,0,0,1,.515.515,1.383,1.383,0,0,1,.192.72,1.369,1.369,0,0,1-.192.713,1.455,1.455,0,0,1-.515.515,1.384,1.384,0,0,1-.72.192,1.369,1.369,0,0,1-.713-.192,1.455,1.455,0,0,1-.515-.515A1.369,1.369,0,0,1,87.218-9.606Zm-2.175-.413q-.013.091-.032.258t-.033.347q-.014.181-.014.323V-.476A1.05,1.05,0,0,1,84.7.3a1.173,1.173,0,0,1-.855.261q-.271,0-.6-.013T82.59.509Q82.267.487,82,.464L81.907-.57q.432.078.839.114t.665.036a.511.511,0,0,0,.38-.121.54.54,0,0,0,.122-.376q0-.178,0-.625t0-1.042V-9.1a4.607,4.607,0,0,0-.031-.5q-.031-.282-.062-.424ZM79.2-7.83q.275.031.535.052t.566.021h8.1q.228,0,.525-.018t.538-.049v1.079q-.253-.018-.532-.023t-.517-.005H80.307q-.294,0-.57.009T79.2-6.73Zm2.989,3.061q-.21.418-.517.912t-.664.991q-.358.5-.7.929t-.619.733l-.894-.61a7.6,7.6,0,0,0,.679-.715q.354-.419.695-.889t.628-.933a9.389,9.389,0,0,0,.479-.86Zm5.43-.434q.263.312.57.743t.623.915q.316.484.589.937t.468.8l-.958.53q-.189-.387-.456-.854t-.566-.949q-.3-.481-.6-.913t-.553-.739Zm4.707-.427.483.031q.287.018.628.027t.7.009h7.125q.49,0,.838-.027t.563-.04v1.27l-.579-.034q-.379-.021-.814-.021H94.137q-.535,0-1.02.014t-.793.04Zm16.057,4.48V-8.707q0-.279-.023-.668a5.918,5.918,0,0,0-.077-.689h1.275q-.031.293-.061.678t-.03.679v2.721q0,.8,0,1.585t0,1.469v1.782q0,.209.008.487t.031.557l.041.5H108.3q.041-.313.063-.746T108.381-1.149Zm.855-5.5q.642.185,1.418.451t1.576.569q.8.3,1.526.609t1.263.575l-.453,1.1q-.554-.3-1.253-.613t-1.435-.605q-.736-.294-1.422-.534T109.235-5.5Zm15.093-2.224Q124.2-7.864,124-6.758a19.375,19.375,0,0,1-.513,2.146,12.17,12.17,0,0,1-.869,2.232A4.508,4.508,0,0,1,121.6-1.026a1.748,1.748,0,0,1-1.141.455,1.77,1.77,0,0,1-1.109-.419,3.017,3.017,0,0,1-.871-1.2,4.634,4.634,0,0,1-.339-1.854,4.765,4.765,0,0,1,.436-2.012,5.444,5.444,0,0,1,1.213-1.688A5.78,5.78,0,0,1,121.6-8.905a5.815,5.815,0,0,1,2.224-.423,5.419,5.419,0,0,1,2.06.373,4.669,4.669,0,0,1,1.568,1.028,4.535,4.535,0,0,1,1,1.524,4.921,4.921,0,0,1,.349,1.854,4.866,4.866,0,0,1-.578,2.4,4.505,4.505,0,0,1-1.667,1.69A6.859,6.859,0,0,1,123.925.4l-.6-.968q.313-.028.6-.071t.517-.092a5.027,5.027,0,0,0,1.214-.446,4.214,4.214,0,0,0,1.061-.781,3.56,3.56,0,0,0,.749-1.134,3.828,3.828,0,0,0,.278-1.5,4.092,4.092,0,0,0-.262-1.472,3.516,3.516,0,0,0-.768-1.208,3.578,3.578,0,0,0-1.236-.819,4.384,4.384,0,0,0-1.666-.3A4.626,4.626,0,0,0,121.881-8a4.719,4.719,0,0,0-1.47,1.022,4.6,4.6,0,0,0-.931,1.381,3.69,3.69,0,0,0-.321,1.461,3.614,3.614,0,0,0,.212,1.339,1.891,1.891,0,0,0,.52.777.965.965,0,0,0,.605.25.949.949,0,0,0,.634-.308,3.523,3.523,0,0,0,.664-.988,11.61,11.61,0,0,0,.667-1.775,18.2,18.2,0,0,0,.491-1.992q.2-1.053.291-2.064Zm11.886.848v1.04h4.345v-1.04Zm0-1.726v1.032h4.345V-9.753Zm-.891-.742h6.171v4.257h-6.171Zm-.592,5.2h7.478v.818h-7.478Zm3.19.4h.917V.42l-.917-.376Zm-1.74,2.392A3.678,3.678,0,0,0,137.088-.9a2.833,2.833,0,0,0,1.328.7,7.5,7.5,0,0,0,1.669.174H141.3l.783,0q.365,0,.536-.008a2.593,2.593,0,0,0-.121.259,2.43,2.43,0,0,0-.107.322q-.042.165-.066.293h-2.278a8.851,8.851,0,0,1-1.509-.12,3.714,3.714,0,0,1-1.248-.446,3.108,3.108,0,0,1-.985-.944,5.735,5.735,0,0,1-.722-1.608Zm2.371-.449h3.011v.806h-3.011Zm-2.975-.909.894.105a10.087,10.087,0,0,1-.711,2.805,5.6,5.6,0,0,1-1.4,1.991,1.577,1.577,0,0,0-.21-.2q-.139-.111-.278-.22a2.742,2.742,0,0,0-.239-.17,4.429,4.429,0,0,0,1.331-1.783A8.922,8.922,0,0,0,135.578-3.863Zm-5.2-.148q.755-.2,1.819-.532t2.16-.67l.136.889q-1,.334-2.02.666t-1.848.6ZM130.52-8.3h3.963v.912H130.52Zm1.612-2.612h.907V-.178a1.517,1.517,0,0,1-.1.613.688.688,0,0,1-.341.334,1.729,1.729,0,0,1-.623.154q-.393.036-1.014.028a2.39,2.39,0,0,0-.1-.44,3.085,3.085,0,0,0-.179-.461q.423.013.765.013t.458-.008A.244.244,0,0,0,132.082,0a.267.267,0,0,0,.049-.187Zm14.364.024.924.282a19.9,19.9,0,0,1-1,2.173,19.549,19.549,0,0,1-1.234,2.022,13.623,13.623,0,0,1-1.369,1.677q-.046-.115-.142-.3t-.207-.372a2.027,2.027,0,0,0-.2-.3,11.788,11.788,0,0,0,1.236-1.465,15.883,15.883,0,0,0,1.11-1.784A15.786,15.786,0,0,0,146.5-10.888ZM145.11-7.522l.947-.947.016.013V1.016h-.963Zm2.243-.617h7.983V-7.2h-7.983ZM147.025-4h8.457v.958h-8.457Zm2-6.787h.958v7.3h-.958Zm3.5-.01h.95V-3.47h-.95ZM149.3-2.31l.927.289A10.142,10.142,0,0,1,149.49-.9a13.335,13.335,0,0,1-.871,1.046,9.289,9.289,0,0,1-.9.858q-.09-.082-.229-.2T147.2.573a2.586,2.586,0,0,0-.261-.182,9.068,9.068,0,0,0,1.306-1.227A8.128,8.128,0,0,0,149.3-2.31Zm2.953.473.771-.443q.448.427.894.93t.821.99a8.436,8.436,0,0,1,.6.88l-.817.525a7.918,7.918,0,0,0-.588-.909q-.37-.5-.808-1.022T152.25-1.837Z" transform="translate(219 2803)" fill="#164b99"/><path d="M6.5-6.324a1.328,1.328,0,0,1,.7.187,1.452,1.452,0,0,1,.5.5,1.323,1.323,0,0,1,.188.7,1.337,1.337,0,0,1-.187.692,1.428,1.428,0,0,1-.5.5,1.326,1.326,0,0,1-.7.187,1.338,1.338,0,0,1-.692-.187,1.405,1.405,0,0,1-.5-.5,1.335,1.335,0,0,1-.187-.691,1.33,1.33,0,0,1,.187-.7,1.429,1.429,0,0,1,.5-.5A1.331,1.331,0,0,1,6.5-6.324Zm8.411-2.334h.965v2.606q0,.735-.057,1.609a15.409,15.409,0,0,1-.226,1.79A10.758,10.758,0,0,1,15.1-.87a6.836,6.836,0,0,1-.84,1.6,1.659,1.659,0,0,0-.235-.2q-.154-.114-.311-.216A1.432,1.432,0,0,0,13.44.163a6.356,6.356,0,0,0,.794-1.492,9.078,9.078,0,0,0,.438-1.629,14.8,14.8,0,0,0,.19-1.627q.047-.793.047-1.48Zm.529,0h9.018v2.689H15.438v-.76h8.055V-7.9H15.438ZM14-10.276H25.072v.844H14Zm3.554,6.938h6.924v.666H17.549Zm0,1.559h6.924v.666H17.549ZM17.468-.154h7.721V.578H17.468Zm.354-4.8h6.992v.717H17.823V1.04h-.938V-4.028l.925-.927Zm2.655.34h.927v4.8h-.927ZM17.842-6.232l.922.287a10.335,10.335,0,0,1-.779,1.354,12.064,12.064,0,0,1-.962,1.239,9.125,9.125,0,0,1-1.045,1.012,1.792,1.792,0,0,0-.186-.239q-.124-.139-.258-.281A2.994,2.994,0,0,0,15.3-3.09a8.432,8.432,0,0,0,1.444-1.4A7.9,7.9,0,0,0,17.842-6.232Zm3.191.024.985.26q-.269.436-.537.86t-.493.725l-.715-.247q.2-.334.417-.793A8.136,8.136,0,0,0,21.033-6.209Zm7.513-3.8h8.409v.938H28.546Zm0,3.033h8.389v.922H28.546ZM28.474-3.87h8.486v.925H28.474Zm-.481-6.138h.96v4.718q0,.737-.064,1.586a13.27,13.27,0,0,1-.243,1.711,8.146,8.146,0,0,1-.532,1.656,5.437,5.437,0,0,1-.94,1.445,1.366,1.366,0,0,0-.212-.228q-.141-.125-.287-.239a1.958,1.958,0,0,0-.259-.175,5.109,5.109,0,0,0,.858-1.323,7.053,7.053,0,0,0,.471-1.474,11.152,11.152,0,0,0,.2-1.517q.047-.757.047-1.446Zm8.571,0h.965V-.289A1.565,1.565,0,0,1,37.4.433a.833.833,0,0,1-.459.376,3.2,3.2,0,0,1-.911.145Q35.436.98,34.51.967A2.484,2.484,0,0,0,34.379.5a4.146,4.146,0,0,0-.205-.477q.46.018.882.021t.732,0l.435,0a.422.422,0,0,0,.265-.077.337.337,0,0,0,.075-.254Zm-4.487.355h.983V.918h-.983ZM43.532-4.276h7.894v.8H43.532Zm1.031,2.054.516-.592q.347.19.722.437t.707.491a6.091,6.091,0,0,1,.546.445l-.544.674a5.592,5.592,0,0,0-.538-.472q-.33-.259-.7-.517T44.563-2.222ZM48.77-5.037l.479-.465q.365.2.762.459a3.88,3.88,0,0,1,.613.485l-.5.506a4.871,4.871,0,0,0-.607-.5Q49.13-4.829,48.77-5.037ZM44.489-3.9h.89A14.727,14.727,0,0,1,45.12-1.98a6.2,6.2,0,0,1-.6,1.686,3.853,3.853,0,0,1-1.139,1.3,2.437,2.437,0,0,0-.269-.34,2.021,2.021,0,0,0-.327-.3,3.125,3.125,0,0,0,1-1.133,5.357,5.357,0,0,0,.5-1.484A12.876,12.876,0,0,0,44.489-3.9Zm2.338-7.011H47.7q-.02,1.936.083,3.633T48.1-4.2a14.919,14.919,0,0,0,.539,2.366A4.868,4.868,0,0,0,49.4-.318a1.226,1.226,0,0,0,.958.532.411.411,0,0,0,.4-.3,4.594,4.594,0,0,0,.169-1.182,2.024,2.024,0,0,0,.339.25,3.1,3.1,0,0,0,.349.183A5.038,5.038,0,0,1,51.391.306a1.118,1.118,0,0,1-.408.583,1.25,1.25,0,0,1-.7.172,1.83,1.83,0,0,1-1.36-.6,4.764,4.764,0,0,1-.979-1.7,14.467,14.467,0,0,1-.641-2.591q-.243-1.5-.354-3.294T46.826-10.912Zm2.913,7.637.841.315A7.11,7.11,0,0,1,48.79-.6a9.638,9.638,0,0,1-2.666,1.633,3.211,3.211,0,0,0-.248-.319,3.419,3.419,0,0,0-.291-.3,8.457,8.457,0,0,0,2.543-1.522A6.225,6.225,0,0,0,49.739-3.274Zm-1.975-5.38.406-.535a7.822,7.822,0,0,1,.865.693,4.534,4.534,0,0,1,.659.722l-.425.607a4.854,4.854,0,0,0-.649-.747A8.626,8.626,0,0,0,47.764-8.654ZM50.2-7.074l.6-.242a8.041,8.041,0,0,1,.509.978,4.588,4.588,0,0,1,.308.9l-.637.3a6.536,6.536,0,0,0-.3-.938A7.573,7.573,0,0,0,50.2-7.074Zm-2.261.9q.612-.031,1.391-.08l1.636-.106.007.67q-.779.072-1.508.146t-1.38.128Zm1.34-4.622.762.3q-.282.535-.6,1.117t-.581.979l-.552-.26q.164-.291.344-.666T49-10.086Q49.167-10.476,49.274-10.793Zm1.073,1.3.719.341q-.324.562-.716,1.18t-.784,1.195q-.393.577-.749,1.019l-.55-.311q.351-.445.737-1.046t.743-1.228Q50.105-8.97,50.347-9.493Zm-6.981.839.406-.535a7.822,7.822,0,0,1,.865.693,4.2,4.2,0,0,1,.651.722l-.417.607a5.29,5.29,0,0,0-.657-.747A9.221,9.221,0,0,0,43.366-8.654ZM45.619-7l.6-.222a7.186,7.186,0,0,1,.465.981,4.943,4.943,0,0,1,.272.905l-.645.276a5.209,5.209,0,0,0-.256-.935A8.105,8.105,0,0,0,45.619-7Zm-2.207.973q.612-.031,1.395-.09t1.645-.116l.007.7q-.776.083-1.516.152t-1.387.126Zm1.464-4.768.756.306q-.282.535-.6,1.122t-.575.989l-.56-.255q.172-.3.352-.676t.348-.775Q44.769-10.476,44.876-10.793Zm1.073,1.3.711.341q-.337.572-.736,1.216t-.809,1.241q-.411.6-.78,1.05l-.553-.3q.364-.463.766-1.087T45.322-8.3Q45.694-8.955,45.949-9.493ZM39.671-8.1h3.943v.907H39.671Zm1.65-2.824H42.2V1.021H41.32Zm-.034,3.369.579.182q-.136.762-.34,1.6t-.465,1.64q-.261.8-.559,1.5a7.948,7.948,0,0,1-.618,1.182,3.134,3.134,0,0,0-.224-.417q-.147-.236-.257-.394a7.573,7.573,0,0,0,.581-1.055q.284-.615.537-1.331t.453-1.462Q41.172-6.864,41.286-7.555Zm.856.855q.1.13.309.452l.45.707q.244.385.445.715t.278.473l-.5.716q-.091-.24-.277-.617t-.4-.782q-.214-.405-.407-.753t-.3-.539ZM53.265-.383Q54.4-.414,55.916-.464t3.222-.114q1.706-.065,3.4-.138L62.5.18q-1.639.083-3.3.157T56.047.475q-1.494.064-2.653.108ZM53.155-4.4H63.928v.922H53.155Zm2.223-2.493h6.206v.912H55.378ZM56.714-3.81l1.093.308q-.3.622-.64,1.3T56.48-.885q-.345.636-.666,1.132l-.866-.292q.31-.516.643-1.175t.631-1.344Q56.52-3.25,56.714-3.81Zm3.093,1.376.829-.451q.6.51,1.2,1.116t1.09,1.207A9.443,9.443,0,0,1,63.719.534l-.88.543a9.857,9.857,0,0,0-.785-1.111q-.493-.618-1.077-1.252A15.176,15.176,0,0,0,59.806-2.434ZM58.45-9.964a10.277,10.277,0,0,1-1.375,1.611A16.3,16.3,0,0,1,55.19-6.787a16.224,16.224,0,0,1-2.143,1.3,1.832,1.832,0,0,0-.156-.269q-.1-.146-.207-.287a2.221,2.221,0,0,0-.215-.246,13.577,13.577,0,0,0,2.177-1.294,14.917,14.917,0,0,0,1.9-1.628,9.335,9.335,0,0,0,1.348-1.7h1a11.594,11.594,0,0,0,1.185,1.393A14.429,14.429,0,0,0,61.5-8.259a14.793,14.793,0,0,0,1.544,1.048,11.868,11.868,0,0,0,1.569.78,3.11,3.11,0,0,0-.335.42q-.167.246-.3.453a16.606,16.606,0,0,1-2.056-1.2A16.981,16.981,0,0,1,59.969-8.3,11.475,11.475,0,0,1,58.45-9.964ZM72.328-8.876Q72.2-7.864,72-6.758a19.375,19.375,0,0,1-.513,2.146,12.17,12.17,0,0,1-.869,2.232A4.508,4.508,0,0,1,69.6-1.026a1.748,1.748,0,0,1-1.141.455,1.77,1.77,0,0,1-1.109-.419,3.017,3.017,0,0,1-.871-1.2,4.634,4.634,0,0,1-.339-1.854,4.765,4.765,0,0,1,.436-2.012,5.444,5.444,0,0,1,1.213-1.688A5.78,5.78,0,0,1,69.6-8.905a5.815,5.815,0,0,1,2.224-.423,5.419,5.419,0,0,1,2.06.373,4.669,4.669,0,0,1,1.568,1.028,4.535,4.535,0,0,1,1,1.524,4.921,4.921,0,0,1,.349,1.854,4.866,4.866,0,0,1-.578,2.4,4.505,4.505,0,0,1-1.667,1.69A6.859,6.859,0,0,1,71.925.4l-.6-.968q.313-.028.6-.071t.517-.092a5.027,5.027,0,0,0,1.214-.446,4.214,4.214,0,0,0,1.061-.781,3.56,3.56,0,0,0,.749-1.134,3.828,3.828,0,0,0,.278-1.5,4.092,4.092,0,0,0-.262-1.472,3.516,3.516,0,0,0-.768-1.208,3.578,3.578,0,0,0-1.236-.819,4.384,4.384,0,0,0-1.666-.3A4.626,4.626,0,0,0,69.881-8a4.719,4.719,0,0,0-1.47,1.022,4.6,4.6,0,0,0-.931,1.381,3.69,3.69,0,0,0-.321,1.461,3.614,3.614,0,0,0,.212,1.339,1.891,1.891,0,0,0,.52.777.965.965,0,0,0,.605.25.949.949,0,0,0,.634-.308,3.523,3.523,0,0,0,.664-.988,11.61,11.61,0,0,0,.667-1.775,18.2,18.2,0,0,0,.491-1.992q.2-1.053.291-2.064Zm8.618.451h3.176v.712H80.946Zm-.13,8.157h4.058V.48H80.816Zm-.588-5.254h4.344v.651H80.228ZM79.815-7h.854v2.138q0,.615-.061,1.338a11.464,11.464,0,0,1-.226,1.479,7.892,7.892,0,0,1-.476,1.47A5.574,5.574,0,0,1,79.1.742a1.727,1.727,0,0,0-.192-.209q-.123-.116-.251-.228a1.24,1.24,0,0,0-.226-.163,5.062,5.062,0,0,0,.9-1.626,8.418,8.418,0,0,0,.386-1.763,15.522,15.522,0,0,0,.094-1.633Zm.474,0h4.694v3.626H80.269v-.735H84.1V-6.267h-3.81Zm.169,4.429H85.18v3.5h-.869V-1.823h-3V1.016h-.851Zm5.6-6.787h.933v7.206h-.933Zm2.919-1.318h.953V-.248a1.606,1.606,0,0,1-.132.738.8.8,0,0,1-.434.363,2.909,2.909,0,0,1-.853.159q-.543.036-1.42.028A1.805,1.805,0,0,0,87.01.733q-.058-.177-.126-.357a2.33,2.33,0,0,0-.142-.314q.668.018,1.2.021t.707-.005A.4.4,0,0,0,88.9,0a.324.324,0,0,0,.075-.246Zm-7.1-.126h.53v.213h.308v.279a15.132,15.132,0,0,1-1.454,1.745,12.029,12.029,0,0,1-2.2,1.791,1.456,1.456,0,0,0-.167-.237q-.11-.132-.228-.249a1.7,1.7,0,0,0-.22-.189A10.317,10.317,0,0,0,79.9-8.505,10.458,10.458,0,0,0,81.06-9.672,8.444,8.444,0,0,0,81.872-10.8Zm.178,0h.706q.492.365,1.034.811t1.028.879q.487.432.815.778l-.641.733q-.308-.341-.773-.794t-.983-.913a12.235,12.235,0,0,0-1-.8h-.19ZM92.947-.736h9.175V.222H92.947Zm3.987-10.115h1V-.182h-1ZM92.468-4.357h.98v5.4h-.98Zm9.137,0h1v5.37h-1ZM92.964-9.679h.97V-6.14h7.14V-9.684h1.011V-5.2H92.964Z" transform="translate(219 2827)" fill="#164b99"/></g></g></svg>