<svg xmlns="http://www.w3.org/2000/svg" xmlns:xlink="http://www.w3.org/1999/xlink" width="365.253" height="40" viewBox="0 0 365.253 40"><defs><clipPath id="a"><rect width="365.253" height="40" fill="none"/></clipPath></defs><g transform="translate(0 0)"><g transform="translate(0 0)" clip-path="url(#a)"><path d="M106.756,6.137V9.955h-1.063V6.564c-.556.221-1.093.434-1.5.576L103.871,6.1c.454-.142,1.133-.364,1.821-.608V3.5h-.618a12.659,12.659,0,0,1-.343,1.4l-.881-.254a11.92,11.92,0,0,0,.558-3.433l.89.132c-.01.4-.039.78-.081,1.164h.476V.559h1.063V2.5h.78V3.5h-.78v1.62c.233-.081.455-.172.659-.244l.132.933q-.366.151-.79.332M111.4,9.924a11.119,11.119,0,0,1-1.459.021l-.213-1.054c.385.021.922.021,1.084.011.182-.011.242-.1.242-.254V6.381h-3.493V5.389h3.493V4.527h-3.534V3.556h2.308V2.584h-1.68V1.632h1.68V.559h1.094V1.632h1.863v.951h-1.863v.972h2.441v.971h-1.226v.862h1.164v.992h-1.164V8.872c0,.616-.181.961-.738,1.052M109.348,8.75a7.7,7.7,0,0,0-1.317-1.711l.79-.577a8.387,8.387,0,0,1,1.438,1.67Z" transform="translate(41.654 0.224)" fill="#006eb8"/><path d="M116.653,8.386V4.405h-2.2v-1h5.578v1h-2.226V5.773h2.743v1h-2.743V8.689a4.744,4.744,0,0,0,.546.031c.476.01,2.976,0,3.534-.02l-.223,1.062c-.527.011-2.935.011-3.483,0a3.529,3.529,0,0,1-3.3-1.67,4.243,4.243,0,0,1-1.428,1.863l-.942-.618c1.418-.881,1.792-2.6,1.934-3.989l1.1.049a14.163,14.163,0,0,1-.283,1.54,3.171,3.171,0,0,0,1.387,1.449m0-6.765V.558h1.155V1.621h3.776V3.86H120.44V2.625h-6.389V3.86h-1.1V1.621Z" transform="translate(45.128 0.224)" fill="#006eb8"/><path d="M124.122,6.38a4.845,4.845,0,0,0,.042-.687V5.236h-2.472V4.275h2.472V3.059H121.44V2.088h2.724V.558h1.114V5.7c0,.163-.011.315-.021.476.182-.041.345-.07.5-.1l.071.85c-.213.05-.446.1-.689.163a4.238,4.238,0,0,1-2.511,2.916l-.85-.821a3.687,3.687,0,0,0,2.086-1.812c-.9.2-1.823.4-2.47.527l-.275-1.013c.729-.111,1.9-.3,3.007-.507m6.441.112v.992h-3.047V9.955H126.38V.558h1.135v1.53h2.8V3.07h-2.8v1.2h2.511v.961h-2.511V6.492Z" transform="translate(48.579 0.224)" fill="#006eb8"/><path d="M131.335,2.293a5.886,5.886,0,0,0-.668-1.143l.9-.455a5.8,5.8,0,0,1,.912,1.417l-.416.182h1.712a5.787,5.787,0,0,0-.649-1.306l.911-.436a5.058,5.058,0,0,1,.831,1.439l-.759.3h1.712a11.793,11.793,0,0,0,1.254-1.7l1.1.517c-.263.354-.607.769-.982,1.184h1.59V4.359h-1.145V3.195h-6.591V4.359h-1.094V2.293Zm.659,7.382v.283h-1.1V6.738h2.623c.07-.2.141-.4.192-.577h-2.046V3.7h5.386v2.46H134.91c-.07.182-.161.374-.254.577h3.221v3.22h-1.145V9.675Zm4.739-2.016h-4.739V8.753h4.739Zm-4-2.277h3.21v-.9h-3.21Z" transform="translate(52.126 0.221)" fill="#006eb8"/><path d="M139.045,8.438l-.779-.86a11.231,11.231,0,0,0,2.086-3.22h-1.9V3.366h1.974V2.242c-.546.1-1.093.182-1.58.221l-.353-.961a12.291,12.291,0,0,0,4.08-.951l.558.891a10.289,10.289,0,0,1-1.6.546V3.366h1.68v.992h-1.68v.223c.6.668,1.286,1.428,1.67,1.914l-.688.951c-.233-.425-.6-1.012-.982-1.579v4.09h-1.1V6.221a14.1,14.1,0,0,1-1.377,2.217m4.779-6.732h1.083V7.568h-1.083Zm2.633,8.212a9.888,9.888,0,0,1-1.356.02l-.233-1.1a8.273,8.273,0,0,0,1.073.02c.223-.02.293-.142.293-.354V.561h1.1V8.7c0,.708-.213,1.112-.881,1.215" transform="translate(55.458 0.221)" fill="#006eb8"/><path d="M148.76,5.366a7.073,7.073,0,0,0-1.8-1.267l.607-.759a7.7,7.7,0,0,1,1.924,1.236Zm-.709,4.555-.942-.678a21.282,21.282,0,0,0,1.883-3.3l.8.659a26.48,26.48,0,0,1-1.742,3.321M149.114,2.6a7.868,7.868,0,0,0-1.721-1.2L148,.636a8.708,8.708,0,0,1,1.854,1.155Zm2.359,6.986v.366h-1.084V5.9h2.076V4.565h-2.724v-1h2.724V2.246c-.769.1-1.54.172-2.218.193l-.364-.972a18.7,18.7,0,0,0,5.539-.9l.556.9a15.768,15.768,0,0,1-2.379.6v1.5h2.764v1H153.6V5.9h2.177V9.952h-1.125V9.586Zm3.178-2.693h-3.179V8.6h3.179Z" transform="translate(58.945 0.227)" fill="#006eb8"/><path d="M157.774,8.557V7.931h-1.945V7.16h1.945V6.684H155.9V3.444h1.873V2.989h-2.2V2.22h2.2V1.774c-.618.05-1.236.08-1.772.07l-.324-.779a16.2,16.2,0,0,0,4.566-.507l.507.71a14.193,14.193,0,0,1-1.914.384V2.22H160.9v.769h-2.065v.455h1.924V6.684h-1.924V7.16h1.852v.771h-1.852v.556c.657-.041,1.306-.091,1.823-.132l.01.516a10.443,10.443,0,0,0,1.2-5.072h-.829V2.817h.86c.021-.729.021-1.478.021-2.259h1.033c0,.78-.011,1.53-.031,2.259h1.863c-.112,4.132-.213,6.531-.608,6.9a1.043,1.043,0,0,1-.729.234c-.213.01-.668,0-.942-.011l-.142-1.012c.233.02.6.02.769.02a.288.288,0,0,0,.213-.081c.182-.192.283-1.882.353-5.072H162.9c-.133,2.623-.517,4.8-1.722,6.176l-.992-.476c.1-.111.2-.231.3-.363-1.447.161-3.584.353-4.809.454l-.153-.911c.567-.02,1.387-.07,2.249-.122m-.88-3.807h.88V4.174h-.88Zm0,1.2h.88v-.6h-.88Zm2.833-1.781h-.89V4.75h.89Zm0,1.184h-.89v.6h.89Z" transform="translate(62.381 0.224)" fill="#006eb8"/><path d="M165.847,5.4a6.846,6.846,0,0,0-1.681-1.335l.628-.73a7.707,7.707,0,0,1,1.823,1.3Zm-.558,4.477-.951-.628a22.2,22.2,0,0,0,1.65-3.3l.81.608a24.141,24.141,0,0,1-1.509,3.321m.943-7.19a7.383,7.383,0,0,0-1.61-1.275l.628-.729a8.221,8.221,0,0,1,1.742,1.226Zm.86,6.977-.244-1.114c.283-.01.608-.041.982-.06.4-.9.79-1.884,1.054-2.663h-2.156V4.8h2.794V3.266h-2.167v-1h2.167V.552h1.124V2.263h2.319v1h-2.319V4.8h2.927V5.827H170.1c-.284.759-.668,1.681-1.093,2.572.87-.062,1.8-.143,2.612-.213-.284-.465-.608-.932-.972-1.418l.922-.446a12.992,12.992,0,0,1,1.974,3.129l-1.063.506a7.049,7.049,0,0,0-.374-.87c-1.569.2-3.737.446-5.012.577" transform="translate(65.847 0.221)" fill="#006eb8"/><path d="M177.9,2.446c.546,3.321,1.985,5.417,4.334,6.48l-.942,1.012a8.372,8.372,0,0,1-3.908-4.779,7.815,7.815,0,0,1-3.726,4.779l-.891-.86c3.836-1.924,4.028-5.922,4.08-8.5l1.164.02c-.021.566-.05,1.2-.112,1.854" transform="translate(69.295 0.23)" fill="#006eb8"/><path d="M104.744,23.055V12.712h-.7V10.976h6.264v1.36h1.861V10.528h1.718v1.809h1.862v1.449h-1.575l1.323.357c-.178.608-.411,1.36-.678,2.111h1.359c-.071-1.788-.125-3.7-.143-5.672h1.683c-.018,1.987.018,3.919.07,5.672h2.864v1.485h-2.809c.053,1.183.143,2.256.233,3.223a16.09,16.09,0,0,0,.769-2.954l1.45.375a16.166,16.166,0,0,1-1.861,5.263c.214,1.055.482,1.681.786,1.716.216.036.3-.268.377-1.5l1.359.429c-.249,2.434-.947,3.025-2.093,2.809-.626-.125-1.11-.786-1.485-1.861a13.575,13.575,0,0,1-1.736,1.9l-1.271-.806c.322-.286.626-.573.914-.877h-3.151V26.2H110.56V18.439h4.957v6.746a12.406,12.406,0,0,0,1.377-1.807,43.471,43.471,0,0,1-.626-5.638H109.63V16.254H111.2a13.56,13.56,0,0,0-.465-2.128l1.289-.322a12.766,12.766,0,0,1,.555,2.451h.841a24.232,24.232,0,0,0,.608-2.469h-3.846V12.712h-.609V27.153h-1.681v-2.97c-1.218.3-2.7.626-3.651.841l-.394-1.826c.251-.036.555-.09.9-.143m3.15-10.343h-1.487v2.093h1.487Zm0,3.7h-1.487V18.58h1.487Zm0,6.12V20.21h-1.487V22.8c.5-.088,1.021-.179,1.487-.269m6.03-2.63h-1.791v1.269h1.791Zm-1.791,4.08h1.791v-1.36h-1.791Zm6.98-12.509a12.65,12.65,0,0,1,1.45,3.06l-1.415.5a11.244,11.244,0,0,0-1.269-3.06Z" transform="translate(41.654 4.223)" fill="#006eb8"/><path d="M133.933,25.306l-1.163,1.628a17.791,17.791,0,0,1-6.354-3.06V27.13h-2.022V23.98a17.578,17.578,0,0,1-6.245,2.989l-1.11-1.593a15.759,15.759,0,0,0,6.371-2.558h-6.228v-1.5h7.211v-.949h-5.3v-1.4h5.3v-.912h-6.1V16.59h3.6a10.641,10.641,0,0,0-.734-1.7h-3.972v-1.5h3.025a10.568,10.568,0,0,0-1.307-1.95l1.5-.734a12.488,12.488,0,0,1,1.522,2.256l-.877.429h1.681V10.541h1.861v2.846h1.684V10.541h1.9v2.846h1.772l-.877-.429a17.311,17.311,0,0,0,1.485-2.274l1.718.734a22.033,22.033,0,0,1-1.628,1.969h3.15v1.5h-3.812c-.269.518-.608,1.11-.984,1.7h3.685v1.468h-6.263v.912h5.494v1.4h-5.494v.949h7.374v1.5H127.6a16.374,16.374,0,0,0,6.334,2.488m-6.854-8.716c.3-.572.591-1.163.824-1.7h-4.779a10.928,10.928,0,0,1,.663,1.7Z" transform="translate(46.945 4.228)" fill="#006eb8"/><path d="M132.788,18.934V15.552h-2.345V13.744h2.345v-3.2h1.932v3.2H136.4v1.807H134.72v2.862c.608-.178,1.2-.339,1.7-.5l.161,1.718c-.555.179-1.181.412-1.861.625v4.8c0,1.181-.322,1.861-1.414,2.04a13.793,13.793,0,0,1-2.166.035c-.376-1.824-.376-1.861-.376-1.9.573.035,1.306.035,1.575.017.357-.017.448-.2.448-.537V20.9c-.806.268-1.575.5-2.166.68l-.429-1.969c.661-.161,1.592-.411,2.595-.68m14.37,6.441-1.289,1.754a13.746,13.746,0,0,1-4.331-2.2,15.808,15.808,0,0,1-4.617,2.218l-1.271-1.628a14.157,14.157,0,0,0,4.474-1.861,12.647,12.647,0,0,1-2.56-4.063l1.522-.518h-2.058V17.288h3.615V15.068h-3.864V13.244h3.864v-2.7h1.987v2.7h4.313v1.824h-4.313v2.219h2.2l1.414.357a12.135,12.135,0,0,1-3.185,6,12.384,12.384,0,0,0,4.1,1.735m-5.548-2.9a8.991,8.991,0,0,0,2.184-3.4h-4.42a9.793,9.793,0,0,0,2.236,3.4" transform="translate(52.22 4.227)" fill="#006eb8"/><path d="M144.8,14.2a31.609,31.609,0,0,0,1.377-3.668l1.844.412c-.359.912-.859,2.057-1.415,3.168,1.056-.055,2.149-.126,3.115-.2a17.97,17.97,0,0,0-1.056-1.683l1.432-.7a14.444,14.444,0,0,1,2.256,3.937c-.036.018-.071.036-1.683.716a8.283,8.283,0,0,0-.286-.876c-2.058.213-4.992.482-6.711.643l-.3-1.681c.394-.018.877-.036,1.432-.073m1.377,9.361v3.6H144.3V16.505h7.032v8.929c0,.949-.284,1.5-1.108,1.646a11.282,11.282,0,0,1-1.987.053l-.34-1.789a9.733,9.733,0,0,0,1.234.018.285.285,0,0,0,.3-.322V23.557Zm3.256-5.387H146.18v1.2h3.256Zm0,2.648H146.18v1.234h3.256Zm10.005-8.5a20.219,20.219,0,0,1-5.065,2.04v.859c0,.86.161,1,.841,1.021.608.017,1.665,0,2.308,0,.7-.02.771-.126.789-1.54l1.806.286c-.2,2.613-.553,2.918-2.432,2.97-.787.018-1.95.018-2.648,0-2.058-.052-2.523-.518-2.523-2.72V10.528h1.861v2.165a16.764,16.764,0,0,0,4.027-1.735Zm.035,8.125a20.427,20.427,0,0,1-5.1,2.326v1.181c0,.93.179,1.075.841,1.091.626.018,1.665.018,2.308,0,.7-.017.771-.125.789-1.575l1.806.287c-.2,2.7-.553,3.024-2.432,3.077-.806.018-1.934.018-2.648,0-2.041-.07-2.523-.555-2.523-2.881V18.49h1.861v2.578A16.426,16.426,0,0,0,158.42,19.1Z" transform="translate(57.506 4.223)" fill="#006eb8"/><path d="M161.074,22.763H156.6v-1.5h10.845V20.239h-8.7V14.3h5.045v-.965h-7.069V11.847h7.069V10.541h1.987v1.306h7.283v1.487H165.78V14.3h5.3v5.941h-1.628v1.021h3.758v1.5h-3.758v2.595c0,1-.322,1.575-1.234,1.719a18.324,18.324,0,0,1-2.846.035l-.376-1.754c.716.055,1.753.055,2.057.036s.394-.161.394-.412V22.763h-6.172a16.3,16.3,0,0,1,2.987,2.38L162.72,26.2a14.283,14.283,0,0,0-2.881-2.469c.8-.626,1.108-.877,1.234-.967m-.412-6.065h3.131V15.659h-3.131Zm0,2.182h3.131V17.806h-3.131Zm8.429-3.22H165.78V16.7h3.311Zm0,2.146H165.78v1.073h3.311Z" transform="translate(62.812 4.228)" fill="#006eb8"/><path d="M172.259,10.95h4.867V17.7h-4.867v9.288h-1.932V10.95h1.932Zm3.007,1.467h-3.007V13.6h3.007Zm-3.007,3.812h3.007V14.975h-3.007ZM184.5,10.95h.822V24.728c0,1.289-.377,2.023-1.611,2.2a17.476,17.476,0,0,1-2.773.018l-.394-1.879a16.41,16.41,0,0,0,2.219.053c.465-.053.59-.268.59-.716V17.7h-4.975V10.95H184.5Zm-1.146,1.467h-3.1V13.6h3.1Zm-3.1,3.812h3.1V14.975h-3.1Z" transform="translate(68.318 4.392)" fill="#006eb8"/><path d="M186.446,21.939V20.633H187a9.9,9.9,0,0,0,1.075-1.055h-1.737a19.112,19.112,0,0,1-2.505,1.7l-1.145-1.306a16.116,16.116,0,0,0,1.862-1.128v-.7h.984c.394-.322.769-.645,1.126-.984h-3.632V15.641H185.8V13.958H183.94V12.4H185.8V10.541h1.826V12.4h1.7v1.412a12.88,12.88,0,0,0,.914-1.95l1.646.447a18.527,18.527,0,0,1-1.791,3.329h1.344v1.324a17.749,17.749,0,0,0,1.985-6.424l1.861.3c-.142.9-.321,1.754-.537,2.595h4.832v1.736h-1.145a17.183,17.183,0,0,1-2,7.248,8.843,8.843,0,0,0,3.417,3.185l-1.359,1.52a10.341,10.341,0,0,1-3.185-3.06,15.49,15.49,0,0,1-3.419,3.1l-1.377-1.342a13.423,13.423,0,0,0,3.829-3.471,19.755,19.755,0,0,1-1.45-4.3,13.811,13.811,0,0,1-.967,1.557l-1.306-1.306c.251-.375.5-.752.716-1.145H188.9c-.286.339-.59.661-.912.984h1.877l1.021.572a17.062,17.062,0,0,1-2.577,2.685v.324c1.2-.144,2.361-.287,3.309-.413l.055,1.432c-.967.144-2.148.322-3.364.5v2.326c0,.878-.269,1.379-1.02,1.522a13.979,13.979,0,0,1-2.184.035l-.321-1.681c.482.036,1.163.018,1.377.018.214-.018.287-.108.287-.3V23.515c-1.218.178-2.382.321-3.241.447l-.268-1.665c.894-.09,2.148-.214,3.508-.359m1.628-6.3a13.468,13.468,0,0,0,1.163-1.683h-1.611v1.683Zm7.336,4.8a15.646,15.646,0,0,0,1.145-5.261h-2.362l-.035.126a19.971,19.971,0,0,0,1.253,5.135" transform="translate(73.276 4.228)" fill="#006eb8"/><path d="M199.85,15.408a21.458,21.458,0,0,0,1.2-2.057h-4.994V11.9h7.23v-1.36h2V11.9h7.373v1.45h-4.349a18.316,18.316,0,0,1,3.884,3.166l-1.558,1.056a10.79,10.79,0,0,0-1-1.075c-3.7.2-9.537.43-12.793.537l-.3-1.592c.894-.018,2.039-.018,3.309-.036m.93,8.751v2.989h-1.95v-9.5H209.8v7.766c0,.985-.286,1.522-1.163,1.665a19.106,19.106,0,0,1-2.577.053l-.322-1.592c.591.035,1.432.017,1.7.017.286-.017.374-.143.374-.412V24.16Zm7.032-5.01h-7.032v1.091h7.032Zm0,2.469h-7.032v1.145h7.032Zm.324-6.388a19.787,19.787,0,0,0-1.791-1.236l.824-.643h-3.9c-.359.608-.824,1.323-1.324,2.02,2.093-.035,4.313-.088,6.191-.142" transform="translate(78.638 4.228)" fill="#006eb8"/><path d="M215.877,16.577v8.678h-3.437v1.021H210.7V20.763c-.249.412-.5.806-.769,1.218l-.93-1.665a19.106,19.106,0,0,0,2.523-7.658h-2.166V10.975H216v1.683h-2.648a26,26,0,0,1-.877,3.919Zm-1.772,1.663h-1.663v5.316h1.663Zm3.937-.8V12.746h-1.557V10.975h9.251v1.771h-1.558v4.689H225.9v1.789h-1.719v7.749h-1.932V19.225h-2.308v.5c0,2.844-.555,5.351-2.631,7.283l-1.683-1.11c1.952-1.681,2.417-3.668,2.417-6.173v-.5h-1.736V17.435Zm4.2-4.689h-2.308v4.689h2.308Z" transform="translate(83.832 4.402)" fill="#006eb8"/><path d="M234.66,19.436h.7l-.2,4.67c-.035.8.02.912.413.93h1c.376-.018.411-.106.5-1.593l1.842.3c-.286,2.864-.645,3.1-2.273,3.131h-1.377c-1.844-.053-2.166-.553-2.076-2.773l.125-2.989h-3.364c-.733,2.862-2.415,4.8-6.316,6.03l-1.2-1.592c3.382-.9,4.867-2.327,5.529-4.439h-4.849V19.436h5.225q.109-.942.161-2.041l1.969.055c-.035.7-.107,1.359-.2,1.987h4.384Zm-1.575-3.688c0,.645.108.769.573.769h1.557c.465,0,.52-.07.555-.859l1.772.269c-.179,1.969-.52,2.254-2.166,2.273-.572.018-1.431.018-1.915,0-1.877-.035-2.254-.465-2.254-2.452V13.761h-1.681c-.4,2.686-1.648,4.188-5.333,5.1l-1.075-1.432c3.276-.609,4.294-1.718,4.6-3.669h-2.739v1.772h-1.932V12.116h6.514V10.54h2.04v1.576h6.657v3.417h-2V13.761h-3.168Z" transform="translate(89.22 4.227)" fill="#006eb8"/><path d="M236.193,23.927l-.947-1.862a22.6,22.6,0,0,0,2.343-6.191H235.62V14.209h1.969V10.541H239.4v3.668h1.54v1.665H239.4v.339c.555.967,1.146,2.058,1.468,2.738l-.771,1.719c-.178-.573-.411-1.324-.7-2.095v8.573h-1.807V20.329a27.493,27.493,0,0,1-1.4,3.6m1.4-8.072v0Zm6.156,5.851a18.289,18.289,0,0,1,2.13,2.113l-1.253,1.055a12.563,12.563,0,0,0-1.236-1.467,7.162,7.162,0,0,1-2.093,3.741l-1.414-1.038c1.522-1.181,2.058-3.311,2.273-5.369H240.81V19.274h5.01c-.053-.43-.125-.877-.178-1.342l-.967.572a4.252,4.252,0,0,0-.161-.607c-1.038.2-2.505.465-3.381.607l-.359-1.341.537-.055c.375-.572.752-1.163,1.108-1.754a8.045,8.045,0,0,0-1.573-1.9l.643-1.108c.055.055.126.106.2.178a16.841,16.841,0,0,0,.824-1.877l1.341.5a22.187,22.187,0,0,1-1.251,2.344,7.214,7.214,0,0,1,.5.681,16.438,16.438,0,0,0,.984-1.934l1.164.447c-.018-.68-.053-1.4-.071-2.11h1.806c.018,2.4.109,4.544.287,6.406l.3-.036c.394-.537.787-1.108,1.163-1.681a7.882,7.882,0,0,0-1.593-1.844l.646-1.145c.088.071.16.143.233.2a13.015,13.015,0,0,0,.841-1.791l1.36.465a24.478,24.478,0,0,1-1.289,2.273c.2.251.375.483.52.7.429-.7.786-1.36,1.054-1.914l1.36.5a42.964,42.964,0,0,1-2.666,4.079c.448-.053.9-.106,1.289-.161a5.842,5.842,0,0,0-.429-.822l1.108-.645a9.578,9.578,0,0,1,1.075,2.558l-1.146.626c-.053-.178-.106-.394-.161-.59-.411.071-.859.144-1.324.233a7.088,7.088,0,0,1,1.379.894l-.448.4h1.683v1.467H247.79a15.141,15.141,0,0,0,.518,2.076,8.608,8.608,0,0,0,1.218-1.952l1.557.591a9.846,9.846,0,0,1-2.023,2.952,1.672,1.672,0,0,0,1.271.859c.34.018.5-.2.591-1.288l1.484.5c-.375,2.273-1.09,2.738-2.4,2.612a3.075,3.075,0,0,1-2.273-1.557,14.012,14.012,0,0,1-2.721,1.557l-1.323-1.128A11.635,11.635,0,0,0,247,24.123a18.724,18.724,0,0,1-.93-3.382h-2.2c-.035.322-.09.645-.125.965m.359-4.921a6.715,6.715,0,0,0-.467-.859l1.056-.645a12.657,12.657,0,0,1,.877,1.88c-.143-1.289-.233-2.649-.3-4.116a42.608,42.608,0,0,1-2.417,3.884c.43-.036.859-.09,1.254-.144m5.529,2.488a8.373,8.373,0,0,0-1.056-.663l.5-.537c-.573.106-1.128.2-1.538.251l-.214-.7c.071.572.143,1.126.214,1.646Z" transform="translate(94.357 4.228)" fill="#006eb8"/><path d="M254.462,19.4l-.949,1.791c-.2-.609-.483-1.4-.806-2.219v8.178h-1.861V20.311a27.4,27.4,0,0,1-1.414,3.6l-.985-1.985a23.22,23.22,0,0,0,2.362-6.155h-2.058V14.084h2.095V10.541h1.861v3.543h1.432v1.683h-1.432v.661c.663,1.055,1.36,2.218,1.754,2.97m.359,3.293V18.164h3.758v-.806h-4.653V16.071h2.523v-.86h-1.593V13.941h1.593v-.824h-2.2V11.775h2.2V10.541h1.824v1.234h2.47V10.541H262.6v1.234h2.309v1.342H262.6v.824h1.754v1.269H262.6v.86H265.2v1.288h-4.8v.806h3.866v4.527h1.091V24.16h-1.091V25.59c0,.877-.233,1.36-1,1.5a12.281,12.281,0,0,1-2.058.055l-.3-1.593c.412.035.984.035,1.181.035.214-.018.286-.125.286-.322V24.16H256.7v2.989H254.82V24.16H253.6V22.691Zm3.758-3.131H256.7v.912h1.879Zm0,2.166H256.7v.965h1.879Zm2.165-8.608h-2.469v.824h2.469Zm0,2.093h-2.469v.86h2.469Zm1.628,4.349H260.4v.912h1.969Zm0,2.166H260.4v.965h1.969Z" transform="translate(99.652 4.228)" fill="#006eb8"/><path d="M105.464,28.193h-.817v1.38h-.8V25.731h1.673a1.363,1.363,0,0,1,.923.3,1.153,1.153,0,0,1,.345.921,1.179,1.179,0,0,1-.345.963,1.511,1.511,0,0,1-.982.283m.376-.8a.559.559,0,0,0,.156-.439.515.515,0,0,0-.158-.427.679.679,0,0,0-.441-.127h-.748v1.131h.748a.663.663,0,0,0,.444-.137" transform="translate(41.654 10.32)" fill="#006eb8"/><path d="M108,28.067h-.831v1.506h-.785V25.73h1.886a1.741,1.741,0,0,1,.621.1.986.986,0,0,1,.37.269,1.282,1.282,0,0,1,.2.324,1.069,1.069,0,0,1,.071.4,1.147,1.147,0,0,1-.137.539.781.781,0,0,1-.455.374.728.728,0,0,1,.375.3,1.283,1.283,0,0,1,.111.6V28.9a1.968,1.968,0,0,0,.021.357.322.322,0,0,0,.146.219v.1h-.883c-.025-.085-.042-.154-.053-.206a1.854,1.854,0,0,1-.034-.332l-.006-.357a.7.7,0,0,0-.133-.49.726.726,0,0,0-.483-.12m.486-.7a.427.427,0,0,0,.24-.433.48.48,0,0,0-.231-.469.889.889,0,0,0-.391-.066h-.935V27.43h.911a1.007,1.007,0,0,0,.406-.063" transform="translate(42.671 10.32)" fill="#006eb8"/><path d="M110.857,29.713a1.68,1.68,0,0,1-1.26-.448,2.072,2.072,0,0,1-.584-1.586,2.032,2.032,0,0,1,.584-1.585,1.994,1.994,0,0,1,2.519,0,2.036,2.036,0,0,1,.581,1.585,2.076,2.076,0,0,1-.581,1.586,1.678,1.678,0,0,1-1.26.448m.759-1.033a1.93,1.93,0,0,0,0-2,.919.919,0,0,0-.758-.353.93.93,0,0,0-.761.352,1.9,1.9,0,0,0,0,2,1,1,0,0,0,1.52,0" transform="translate(43.725 10.286)" fill="#006eb8"/><path d="M114.8,26.409H112.87v.884h1.687v.668H112.87v1.61h-.8V25.734H114.8Z" transform="translate(44.952 10.322)" fill="#006eb8"/><path d="M117.062,27.894h-1.868v.989h2.127v.691H114.41V25.731h2.819v.68h-2.034v.817h1.868Z" transform="translate(45.89 10.32)" fill="#006eb8"/><path d="M118.375,29.05a1.4,1.4,0,0,0,.461-.063.446.446,0,0,0,.336-.446.329.329,0,0,0-.167-.294,1.791,1.791,0,0,0-.524-.181l-.406-.091a2.569,2.569,0,0,1-.829-.294.939.939,0,0,1-.39-.832,1.113,1.113,0,0,1,.376-.857,1.586,1.586,0,0,1,1.1-.342,1.664,1.664,0,0,1,1.035.322,1.152,1.152,0,0,1,.451.935h-.772a.556.556,0,0,0-.3-.493,1.037,1.037,0,0,0-.467-.1.867.867,0,0,0-.5.125.4.4,0,0,0-.185.349.332.332,0,0,0,.182.308,2.289,2.289,0,0,0,.5.158l.663.16a1.692,1.692,0,0,1,.656.279.939.939,0,0,1,.345.785,1.109,1.109,0,0,1-.4.874,1.688,1.688,0,0,1-1.139.349,1.857,1.857,0,0,1-1.181-.342,1.142,1.142,0,0,1-.43-.944h.766a.806.806,0,0,0,.143.394.824.824,0,0,0,.671.238" transform="translate(46.846 10.288)" fill="#006eb8"/><path d="M120.91,29.05a1.4,1.4,0,0,0,.461-.063.446.446,0,0,0,.336-.446.329.329,0,0,0-.167-.294,1.791,1.791,0,0,0-.524-.181l-.406-.091a2.569,2.569,0,0,1-.829-.294.939.939,0,0,1-.39-.832,1.113,1.113,0,0,1,.376-.857,1.586,1.586,0,0,1,1.1-.342,1.664,1.664,0,0,1,1.035.322,1.152,1.152,0,0,1,.451.935h-.772a.556.556,0,0,0-.3-.493,1.036,1.036,0,0,0-.467-.1.867.867,0,0,0-.5.125.4.4,0,0,0-.185.349.332.332,0,0,0,.182.308,2.289,2.289,0,0,0,.5.158l.663.16a1.692,1.692,0,0,1,.656.279.939.939,0,0,1,.345.785,1.109,1.109,0,0,1-.4.874,1.688,1.688,0,0,1-1.139.349,1.857,1.857,0,0,1-1.181-.342,1.142,1.142,0,0,1-.43-.944h.766a.806.806,0,0,0,.143.394.824.824,0,0,0,.671.238" transform="translate(47.863 10.288)" fill="#006eb8"/><rect width="0.799" height="3.843" transform="translate(170.867 36.05)" fill="#006eb8"/><path d="M124.789,29.713a1.68,1.68,0,0,1-1.26-.448,2.072,2.072,0,0,1-.584-1.586,2.032,2.032,0,0,1,.584-1.585,1.994,1.994,0,0,1,2.519,0,2.036,2.036,0,0,1,.581,1.585,2.076,2.076,0,0,1-.581,1.586,1.678,1.678,0,0,1-1.26.448m.759-1.033a1.93,1.93,0,0,0,0-2,.919.919,0,0,0-.758-.353.93.93,0,0,0-.761.352,1.9,1.9,0,0,0,0,2,1,1,0,0,0,1.52,0" transform="translate(49.313 10.286)" fill="#006eb8"/><path d="M129.117,29.573h-.8l-1.569-2.731v2.731H126V25.73h.841l1.531,2.683V25.73h.748Z" transform="translate(50.537 10.32)" fill="#006eb8"/><path d="M131.078,28.783h-1.415l-.266.79h-.839l1.37-3.842h.909l1.36,3.842h-.871Zm-.224-.661-.479-1.512-.5,1.512Z" transform="translate(51.564 10.32)" fill="#006eb8"/><path d="M131.5,25.73h.8v3.152h1.9v.691H131.5Z" transform="translate(52.743 10.32)" fill="#006eb8"/><path d="M137.752,25.73v.681H136.6v3.162h-.808V26.411h-1.154V25.73Z" transform="translate(54.003 10.32)" fill="#006eb8"/><path d="M138.816,28.067h-.831v1.506H137.2V25.73h1.886a1.741,1.741,0,0,1,.621.1.986.986,0,0,1,.37.269,1.282,1.282,0,0,1,.2.324,1.069,1.069,0,0,1,.071.4,1.147,1.147,0,0,1-.137.539.781.781,0,0,1-.455.374.728.728,0,0,1,.376.3,1.265,1.265,0,0,1,.111.6V28.9a1.968,1.968,0,0,0,.021.357.322.322,0,0,0,.146.219v.1h-.883c-.025-.085-.042-.154-.053-.206a1.852,1.852,0,0,1-.034-.332l-.006-.357a.7.7,0,0,0-.133-.49.726.726,0,0,0-.483-.12m.486-.7a.427.427,0,0,0,.24-.433.48.48,0,0,0-.231-.469.889.889,0,0,0-.391-.066h-.935V27.43h.911a1.008,1.008,0,0,0,.406-.063" transform="translate(55.031 10.32)" fill="#006eb8"/><path d="M142.261,28.783h-1.415l-.266.79h-.839l1.37-3.842h.909l1.36,3.842h-.871Zm-.224-.661-.479-1.512-.5,1.512Z" transform="translate(56.05 10.32)" fill="#006eb8"/><rect width="0.799" height="3.843" transform="translate(199.844 36.05)" fill="#006eb8"/><path d="M146.84,29.573h-.8l-1.569-2.731v2.731h-.748V25.73h.841l1.531,2.683V25.73h.748Z" transform="translate(57.646 10.32)" fill="#006eb8"/><rect width="0.799" height="3.843" transform="translate(205.162 36.05)" fill="#006eb8"/><path d="M150.637,29.573h-.8l-1.569-2.731v2.731h-.748V25.73h.841l1.531,2.683V25.73h.748Z" transform="translate(59.169 10.32)" fill="#006eb8"/><path d="M152.681,29.508a1.465,1.465,0,0,1-.782.2,1.626,1.626,0,0,1-1.253-.53,2.025,2.025,0,0,1-.509-1.454,2.141,2.141,0,0,1,.514-1.5,1.753,1.753,0,0,1,1.359-.563,1.774,1.774,0,0,1,1.177.373,1.374,1.374,0,0,1,.509.926h-.789a.759.759,0,0,0-.446-.551,1.1,1.1,0,0,0-.441-.085.957.957,0,0,0-.762.35,1.6,1.6,0,0,0-.3,1.055,1.314,1.314,0,0,0,.322,1,1.06,1.06,0,0,0,.737.3.943.943,0,0,0,.661-.234,1,1,0,0,0,.318-.611h-.89v-.642h1.6V29.6h-.531l-.081-.479a1.854,1.854,0,0,1-.418.385" transform="translate(60.22 10.292)" fill="#006eb8"/><path d="M155.906,28.067h-.831v1.506h-.785V25.73h1.886a1.756,1.756,0,0,1,.622.1.992.992,0,0,1,.368.269,1.282,1.282,0,0,1,.2.324,1.068,1.068,0,0,1,.071.4,1.147,1.147,0,0,1-.137.539.781.781,0,0,1-.455.374.728.728,0,0,1,.375.3,1.265,1.265,0,0,1,.111.6V28.9a1.968,1.968,0,0,0,.021.357.322.322,0,0,0,.146.219v.1h-.883c-.025-.085-.042-.154-.053-.206a1.852,1.852,0,0,1-.034-.332l-.006-.357a.7.7,0,0,0-.133-.49.727.727,0,0,0-.483-.12m.486-.7a.427.427,0,0,0,.24-.433.48.48,0,0,0-.231-.469.889.889,0,0,0-.391-.066h-.935V27.43h.911a1.007,1.007,0,0,0,.406-.063" transform="translate(61.886 10.32)" fill="#006eb8"/><path d="M159.692,27.894h-1.868v.989h2.127v.691H157.04V25.731h2.819v.68h-2.034v.817h1.868Z" transform="translate(62.989 10.32)" fill="#006eb8"/><path d="M161.006,29.05a1.4,1.4,0,0,0,.461-.063.446.446,0,0,0,.336-.446.329.329,0,0,0-.167-.294,1.79,1.79,0,0,0-.524-.181l-.406-.091a2.569,2.569,0,0,1-.829-.294.939.939,0,0,1-.389-.832,1.113,1.113,0,0,1,.375-.857,1.586,1.586,0,0,1,1.1-.342,1.664,1.664,0,0,1,1.035.322,1.152,1.152,0,0,1,.451.935h-.772a.558.558,0,0,0-.3-.493,1.036,1.036,0,0,0-.467-.1.867.867,0,0,0-.5.125.4.4,0,0,0-.185.349.332.332,0,0,0,.182.308,2.289,2.289,0,0,0,.5.158l.663.16a1.691,1.691,0,0,1,.656.279.939.939,0,0,1,.345.785,1.109,1.109,0,0,1-.4.874,1.688,1.688,0,0,1-1.139.349,1.857,1.857,0,0,1-1.181-.342,1.142,1.142,0,0,1-.43-.944h.766a.805.805,0,0,0,.143.394.824.824,0,0,0,.671.238" transform="translate(63.946 10.288)" fill="#006eb8"/><path d="M164.763,27.894h-1.868v.989h2.127v.691H162.11V25.731h2.819v.68h-2.034v.817h1.868Z" transform="translate(65.022 10.32)" fill="#006eb8"/><path d="M166.955,28.783h-1.415l-.266.79h-.839l1.37-3.842h.909l1.362,3.842H167.2Zm-.223-.661-.481-1.512-.5,1.512Z" transform="translate(65.954 10.32)" fill="#006eb8"/><path d="M169,28.067h-.831v1.506h-.785V25.73h1.886a1.741,1.741,0,0,1,.621.1.986.986,0,0,1,.37.269,1.282,1.282,0,0,1,.2.324,1.068,1.068,0,0,1,.071.4,1.147,1.147,0,0,1-.137.539.781.781,0,0,1-.455.374.728.728,0,0,1,.376.3,1.283,1.283,0,0,1,.111.6V28.9a1.97,1.97,0,0,0,.021.357.322.322,0,0,0,.146.219v.1h-.883c-.025-.085-.042-.154-.053-.206a1.852,1.852,0,0,1-.034-.332l-.006-.357a.7.7,0,0,0-.133-.49.726.726,0,0,0-.483-.12m.486-.7a.427.427,0,0,0,.24-.433.48.48,0,0,0-.231-.469.889.889,0,0,0-.391-.066h-.935V27.43h.911a1.007,1.007,0,0,0,.406-.063" transform="translate(67.138 10.32)" fill="#006eb8"/><path d="M172.878,29.307a1.559,1.559,0,0,1-1.1.394,1.659,1.659,0,0,1-1.3-.531,2.5,2.5,0,0,1,.066-3.017,1.82,1.82,0,0,1,2.612.161,1.378,1.378,0,0,1,.266.717h-.8a1.064,1.064,0,0,0-.2-.418.815.815,0,0,0-.649-.251.8.8,0,0,0-.691.353,1.692,1.692,0,0,0-.252,1,1.5,1.5,0,0,0,.266.97.846.846,0,0,0,.68.322.778.778,0,0,0,.644-.277,1.2,1.2,0,0,0,.2-.447h.8a1.732,1.732,0,0,1-.532,1.023" transform="translate(68.187 10.299)" fill="#006eb8"/><path d="M175.157,29.573V27.858h-1.5v1.715h-.8V25.73h.8V27.2h1.5V25.73h.8v3.843Z" transform="translate(69.334 10.32)" fill="#006eb8"/><path d="M178.4,29.713a1.68,1.68,0,0,1-1.26-.448,2.072,2.072,0,0,1-.584-1.586,2.032,2.032,0,0,1,.584-1.585,1.993,1.993,0,0,1,2.519,0,2.036,2.036,0,0,1,.581,1.585,2.076,2.076,0,0,1-.581,1.586,1.678,1.678,0,0,1-1.26.448m.759-1.033a1.93,1.93,0,0,0,0-2,.918.918,0,0,0-.758-.353.93.93,0,0,0-.761.352,1.9,1.9,0,0,0,0,2,1,1,0,0,0,1.52,0" transform="translate(70.817 10.286)" fill="#006eb8"/><path d="M181.244,28.067h-.831v1.506h-.785V25.73h1.886a1.741,1.741,0,0,1,.621.1.986.986,0,0,1,.37.269,1.283,1.283,0,0,1,.2.324,1.068,1.068,0,0,1,.071.4,1.147,1.147,0,0,1-.137.539.781.781,0,0,1-.455.374.728.728,0,0,1,.376.3,1.265,1.265,0,0,1,.111.6V28.9a1.968,1.968,0,0,0,.021.357.322.322,0,0,0,.146.219v.1h-.883c-.025-.085-.042-.154-.053-.206a1.858,1.858,0,0,1-.034-.332l-.006-.357a.7.7,0,0,0-.133-.49.726.726,0,0,0-.483-.12m.486-.7a.427.427,0,0,0,.24-.433.48.48,0,0,0-.231-.469.889.889,0,0,0-.391-.066h-.935V27.43h.911a1.007,1.007,0,0,0,.406-.063" transform="translate(72.049 10.32)" fill="#006eb8"/><path d="M184.772,29.508a1.465,1.465,0,0,1-.782.2,1.626,1.626,0,0,1-1.253-.53,2.025,2.025,0,0,1-.509-1.454,2.141,2.141,0,0,1,.514-1.5,1.753,1.753,0,0,1,1.359-.563,1.774,1.774,0,0,1,1.177.373,1.374,1.374,0,0,1,.509.926H185a.759.759,0,0,0-.446-.551,1.1,1.1,0,0,0-.441-.085.957.957,0,0,0-.762.35,1.6,1.6,0,0,0-.3,1.055,1.314,1.314,0,0,0,.322,1,1.06,1.06,0,0,0,.737.3.943.943,0,0,0,.661-.234,1,1,0,0,0,.318-.611h-.89v-.642h1.6V29.6h-.531l-.081-.479a1.854,1.854,0,0,1-.418.385" transform="translate(73.092 10.292)" fill="#006eb8"/><path d="M187.646,28.783H186.23l-.266.79h-.839l1.37-3.842h.909l1.36,3.842h-.871Zm-.224-.661-.479-1.512-.5,1.512Z" transform="translate(74.254 10.32)" fill="#006eb8"/><path d="M191.174,29.573h-.8L188.8,26.843v2.731h-.748V25.73h.841l1.531,2.683V25.73h.748Z" transform="translate(75.428 10.32)" fill="#006eb8"/><rect width="0.799" height="3.843" transform="translate(267.278 36.05)" fill="#006eb8"/><path d="M194.657,29.573h-2.991V28.9l1.984-2.484h-1.934V25.73h2.935v.643L192.641,28.9h2.016Z" transform="translate(76.877 10.32)" fill="#006eb8"/><path d="M196.508,28.783h-1.415l-.266.79h-.839l1.37-3.842h.909l1.36,3.842h-.871Zm-.224-.661-.479-1.512-.5,1.512Z" transform="translate(77.808 10.32)" fill="#006eb8"/><path d="M199.81,25.73v.681h-1.15v3.162h-.808V26.411H196.7V25.73Z" transform="translate(78.895 10.32)" fill="#006eb8"/><rect width="0.799" height="3.843" transform="translate(279.1 36.05)" fill="#006eb8"/><path d="M202.038,29.713a1.68,1.68,0,0,1-1.26-.448,2.072,2.072,0,0,1-.584-1.586,2.032,2.032,0,0,1,.584-1.585,1.993,1.993,0,0,1,2.519,0,2.036,2.036,0,0,1,.581,1.585,2.076,2.076,0,0,1-.581,1.586,1.678,1.678,0,0,1-1.26.448m.759-1.033a1.93,1.93,0,0,0,0-2,.918.918,0,0,0-.758-.353.93.93,0,0,0-.761.352,1.9,1.9,0,0,0,0,2,1,1,0,0,0,1.52,0" transform="translate(80.298 10.286)" fill="#006eb8"/><path d="M206.365,29.573h-.8l-1.569-2.731v2.731h-.748V25.73h.841l1.531,2.683V25.73h.748Z" transform="translate(81.522 10.32)" fill="#006eb8"/><path d="M208.327,28.783h-1.415l-.266.79h-.839l1.37-3.842h.909l1.36,3.842h-.871Zm-.224-.661-.479-1.512-.5,1.512Z" transform="translate(82.549 10.32)" fill="#006eb8"/><path d="M208.743,25.73h.8v3.152h1.9v.691h-2.706Z" transform="translate(83.727 10.32)" fill="#006eb8"/><path d="M213.857,29.713a1.68,1.68,0,0,1-1.26-.448,2.072,2.072,0,0,1-.584-1.586,2.032,2.032,0,0,1,.584-1.585,1.993,1.993,0,0,1,2.519,0,2.036,2.036,0,0,1,.581,1.585,2.076,2.076,0,0,1-.581,1.586,1.678,1.678,0,0,1-1.26.448m.759-1.033a1.93,1.93,0,0,0,0-2,.919.919,0,0,0-.758-.353.93.93,0,0,0-.761.352,1.9,1.9,0,0,0,0,2,1,1,0,0,0,1.52,0" transform="translate(85.038 10.286)" fill="#006eb8"/><path d="M217.8,26.409h-1.927v.884h1.687v.668h-1.687v1.61h-.8V25.734H217.8Z" transform="translate(86.265 10.322)" fill="#006eb8"/><path d="M220.185,29.713a1.68,1.68,0,0,1-1.26-.448,2.072,2.072,0,0,1-.584-1.586,2.032,2.032,0,0,1,.584-1.585,1.994,1.994,0,0,1,2.519,0,2.036,2.036,0,0,1,.581,1.585,2.076,2.076,0,0,1-.581,1.586,1.678,1.678,0,0,1-1.26.448m.759-1.033a1.93,1.93,0,0,0,0-2,.919.919,0,0,0-.758-.353.93.93,0,0,0-.761.352,1.9,1.9,0,0,0,0,2,1,1,0,0,0,1.52,0" transform="translate(87.577 10.286)" fill="#006eb8"/><path d="M224.16,29.307a1.559,1.559,0,0,1-1.1.394,1.659,1.659,0,0,1-1.3-.531,2.5,2.5,0,0,1,.066-3.017,1.82,1.82,0,0,1,2.612.161,1.378,1.378,0,0,1,.266.717h-.8a1.064,1.064,0,0,0-.2-.418.815.815,0,0,0-.649-.251.8.8,0,0,0-.691.353,1.692,1.692,0,0,0-.252,1,1.5,1.5,0,0,0,.266.97.846.846,0,0,0,.68.322.778.778,0,0,0,.645-.277,1.2,1.2,0,0,0,.2-.447h.8a1.732,1.732,0,0,1-.532,1.023" transform="translate(88.756 10.299)" fill="#006eb8"/><path d="M226.905,29.307a1.561,1.561,0,0,1-1.1.394,1.659,1.659,0,0,1-1.3-.531,2.5,2.5,0,0,1,.066-3.017,1.82,1.82,0,0,1,2.612.161,1.378,1.378,0,0,1,.266.717h-.8a1.063,1.063,0,0,0-.2-.418.815.815,0,0,0-.649-.251.8.8,0,0,0-.691.353,1.692,1.692,0,0,0-.252,1,1.5,1.5,0,0,0,.266.97.846.846,0,0,0,.68.322.778.778,0,0,0,.645-.277,1.2,1.2,0,0,0,.2-.447h.8a1.732,1.732,0,0,1-.532,1.023" transform="translate(89.857 10.299)" fill="#006eb8"/><path d="M229.165,28.092V25.73h.815v2.362a2,2,0,0,1-.189.956,1.781,1.781,0,0,1-2.71,0,1.993,1.993,0,0,1-.191-.956V25.73h.815v2.362a1.353,1.353,0,0,0,.094.58.788.788,0,0,0,1.271,0,1.332,1.332,0,0,0,.094-.58" transform="translate(91.006 10.32)" fill="#006eb8"/><path d="M231.264,28.193h-.817v1.38h-.8V25.731h1.673a1.364,1.364,0,0,1,.923.3,1.153,1.153,0,0,1,.345.921,1.179,1.179,0,0,1-.345.963,1.511,1.511,0,0,1-.982.283m.375-.8a.559.559,0,0,0,.156-.439.516.516,0,0,0-.158-.427.679.679,0,0,0-.441-.127h-.748v1.131h.748a.663.663,0,0,0,.444-.137" transform="translate(92.113 10.32)" fill="#006eb8"/><path d="M234.5,28.783h-1.415l-.266.79h-.839l1.37-3.842h.909l1.36,3.842h-.871Zm-.224-.661-.479-1.512-.5,1.512Z" transform="translate(93.046 10.32)" fill="#006eb8"/><path d="M237.8,25.73v.681h-1.15v3.162h-.808V26.411h-1.154V25.73Z" transform="translate(94.133 10.32)" fill="#006eb8"/><rect width="0.799" height="3.843" transform="translate(332.33 36.05)" fill="#006eb8"/><path d="M240.029,29.713a1.68,1.68,0,0,1-1.26-.448,2.072,2.072,0,0,1-.584-1.586,2.032,2.032,0,0,1,.584-1.585,1.993,1.993,0,0,1,2.519,0,2.036,2.036,0,0,1,.581,1.585,2.076,2.076,0,0,1-.581,1.586,1.678,1.678,0,0,1-1.26.448m.759-1.033a1.93,1.93,0,0,0,0-2,.919.919,0,0,0-.758-.353.93.93,0,0,0-.761.352,1.9,1.9,0,0,0,0,2,1,1,0,0,0,1.52,0" transform="translate(95.536 10.286)" fill="#006eb8"/><path d="M244.356,29.573h-.8l-1.569-2.731v2.731h-.748V25.73h.841l1.531,2.683V25.73h.748Z" transform="translate(96.76 10.32)" fill="#006eb8"/><path d="M246.317,28.783H244.9l-.266.79H243.8l1.37-3.842h.909l1.36,3.842h-.871Zm-.224-.661-.479-1.512-.5,1.512Z" transform="translate(97.787 10.32)" fill="#006eb8"/><path d="M246.735,25.73h.8v3.152h1.9v.691h-2.706Z" transform="translate(98.965 10.32)" fill="#006eb8"/><path d="M251.555,29.05a1.4,1.4,0,0,0,.461-.063.446.446,0,0,0,.336-.446.329.329,0,0,0-.167-.294,1.79,1.79,0,0,0-.524-.181l-.406-.091a2.569,2.569,0,0,1-.829-.294.939.939,0,0,1-.389-.832,1.113,1.113,0,0,1,.375-.857,1.586,1.586,0,0,1,1.1-.342,1.664,1.664,0,0,1,1.035.322,1.152,1.152,0,0,1,.451.935h-.772a.556.556,0,0,0-.3-.493,1.036,1.036,0,0,0-.467-.1.867.867,0,0,0-.5.125.4.4,0,0,0-.185.349.332.332,0,0,0,.182.308,2.289,2.289,0,0,0,.5.158l.663.16a1.692,1.692,0,0,1,.656.279.939.939,0,0,1,.345.785,1.109,1.109,0,0,1-.4.874,1.688,1.688,0,0,1-1.139.349,1.857,1.857,0,0,1-1.181-.342,1.142,1.142,0,0,1-.43-.944h.766a.806.806,0,0,0,.143.394.824.824,0,0,0,.671.238" transform="translate(100.265 10.288)" fill="#006eb8"/><path d="M256.044,29.573H255.01l-1.185-1.68-.384.4v1.285h-.79V25.73h.79v1.582l1.484-1.582h1.038l-1.575,1.582Z" transform="translate(101.338 10.32)" fill="#006eb8"/><rect width="0.799" height="3.843" transform="translate(357.76 36.05)" fill="#006eb8"/><path d="M256.438,25.73h.8v3.152h1.9v.691h-2.706Z" transform="translate(102.857 10.32)" fill="#006eb8"/><path d="M258.759,25.73h.8v3.152h1.9v.691h-2.706Z" transform="translate(103.788 10.32)" fill="#006eb8"/><path d="M84.794.177a19.712,19.712,0,1,0,19.712,19.712A19.712,19.712,0,0,0,84.794.177m8.828,25.671a10.657,10.657,0,1,1,1.823-5.959,10.661,10.661,0,0,1-1.823,5.959" transform="translate(26.104 0.071)" fill="#006eb8"/><path d="M80.5,10.891a4.7,4.7,0,1,1-4.7,4.7,4.7,4.7,0,0,1,4.7-4.7" transform="translate(30.401 4.368)" fill="#00a0e9" fill-rule="evenodd"/><path d="M37.219,21.638a4.7,4.7,0,1,1-4.7,4.7,4.7,4.7,0,0,1,4.7-4.7" transform="translate(13.043 8.679)" fill="#00a0e9" fill-rule="evenodd"/><path d="M59.207,25.514a13.581,13.581,0,0,0,6.126-4.432c3.609-4.654,3.073-12.852-1.044-16.969Q60.281.106,52.769.1H32.7V28.511h8.868V7.954H52.036a7.972,7.972,0,0,1,5.024,1.411c2.484,1.942,2.373,6.388.085,8.414a7.223,7.223,0,0,1-4.94,1.524H45.329L58.7,39.63H68.862Z" transform="translate(13.115 0.042)" fill="#006eb8" fill-rule="evenodd"/><path d="M31.592,4.009Q27.584,0,20.072,0H0V39.672H8.868V7.849H19.339A7.972,7.972,0,0,1,24.364,9.26a5.136,5.136,0,0,1,1.819,3.889c0,.063,0,.126,0,.189s0,.125,0,.188a5.139,5.139,0,0,1-1.819,3.891A6.235,6.235,0,0,1,22.09,18.5a7.205,7.205,0,0,1-.255,8.115q6.231-.425,9.757-3.95a13.229,13.229,0,0,0,3.437-9.329,13.234,13.234,0,0,0-3.437-9.33" transform="translate(0 0)" fill="#006eb8" fill-rule="evenodd"/><path d="M12.747,12.611a4.7,4.7,0,1,1-4.7,4.7,4.7,4.7,0,0,1,4.7-4.7" transform="translate(3.227 5.058)" fill="#00a0e9" fill-rule="evenodd"/></g></g></svg>