<svg xmlns="http://www.w3.org/2000/svg" xmlns:xlink="http://www.w3.org/1999/xlink" width="480" height="52.566" viewBox="0 0 480 52.566"><defs><clipPath id="a"><rect width="480" height="52.566" fill="#fff"/></clipPath></defs><g transform="translate(0 0)"><g transform="translate(0 0)" clip-path="url(#a)"><path d="M107.669,7.889v5.017h-1.4V8.451c-.731.291-1.436.571-1.968.757l-.425-1.37c.6-.186,1.49-.479,2.394-.8V4.418h-.812a16.636,16.636,0,0,1-.451,1.836l-1.158-.333a15.664,15.664,0,0,0,.733-4.511l1.169.173c-.013.519-.052,1.026-.107,1.53h.626V.559h1.4V3.113h1.026V4.418h-1.026V6.547c.306-.107.6-.226.865-.32l.173,1.226q-.481.2-1.038.436m6.107,4.977a14.612,14.612,0,0,1-1.917.028l-.28-1.385c.506.028,1.212.028,1.425.015.239-.015.319-.133.319-.333V8.209h-4.59v-1.3h4.59V5.773H108.68V4.5h3.033V3.22H109.5V1.969h2.208V.559h1.438v1.41H115.6V3.22H113.15V4.5h3.207V5.773h-1.611V6.906h1.53v1.3h-1.53v3.274c0,.81-.238,1.263-.97,1.383m-2.7-1.543a10.122,10.122,0,0,0-1.731-2.248l1.038-.759a11.023,11.023,0,0,1,1.889,2.195Z" transform="translate(87.366 0.47)" fill="#fff"/><path d="M117.954,10.845V5.614h-2.887V4.3h7.33V5.614h-2.926v1.8h3.605V8.73h-3.605v2.513a6.235,6.235,0,0,0,.718.041c.626.013,3.911,0,4.644-.026l-.293,1.4c-.692.015-3.857.015-4.577,0a4.638,4.638,0,0,1-4.338-2.195,5.576,5.576,0,0,1-1.876,2.449l-1.237-.812c1.863-1.158,2.355-3.419,2.541-5.242l1.451.064a18.614,18.614,0,0,1-.372,2.024,4.167,4.167,0,0,0,1.823,1.9m0-8.89V.558h1.517v1.4h4.962V4.9h-1.5V3.274h-8.4V4.9h-1.451V1.956Z" transform="translate(94.652 0.469)" fill="#fff"/><path d="M125.066,8.208a6.366,6.366,0,0,0,.055-.9v-.6h-3.248V5.443h3.248v-1.6h-3.579V2.569h3.579V.558h1.464V7.317c0,.214-.015.414-.028.626.239-.053.453-.092.652-.133l.094,1.118c-.28.066-.586.133-.906.214a5.57,5.57,0,0,1-3.3,3.832l-1.118-1.079a4.845,4.845,0,0,0,2.742-2.381c-1.184.265-2.4.532-3.246.692l-.361-1.331c.957-.145,2.5-.4,3.951-.667m8.464.147v1.3h-4v3.248h-1.491V.558h1.491V2.569h3.684V3.859h-3.684V5.443h3.3V6.706h-3.3v1.65Z" transform="translate(101.89 0.469)" fill="#fff"/><path d="M131.768,2.84a7.734,7.734,0,0,0-.878-1.5l1.184-.6a7.624,7.624,0,0,1,1.2,1.862l-.547.239h2.25a7.607,7.607,0,0,0-.852-1.716l1.2-.573a6.646,6.646,0,0,1,1.092,1.891l-1,.4h2.25A15.5,15.5,0,0,0,139.312.6l1.451.679c-.346.466-.8,1.011-1.291,1.556h2.09V5.556h-1.5V4.025H131.4v1.53h-1.438V2.84Zm.865,9.7v.372h-1.451V8.682h3.447c.092-.267.186-.519.252-.759h-2.688V4.69h7.078V7.923h-2.806c-.092.239-.212.492-.333.759h4.233v4.231h-1.5v-.372Zm6.227-2.65h-6.227V11.33h6.227ZM133.6,6.9h4.218V5.716H133.6Z" transform="translate(109.329 0.463)" fill="#fff"/><path d="M139.29,10.915l-1.024-1.131a14.76,14.76,0,0,0,2.742-4.231h-2.5V4.25H141.1V2.773c-.718.133-1.436.239-2.077.291L138.559,1.8a16.152,16.152,0,0,0,5.362-1.25l.733,1.171a13.521,13.521,0,0,1-2.1.718V4.25h2.208v1.3h-2.208v.293c.784.878,1.69,1.876,2.195,2.515l-.9,1.25c-.306-.558-.786-1.329-1.291-2.075v5.375H141.1V8a18.535,18.535,0,0,1-1.81,2.913m6.281-8.847h1.423v7.7H145.57Zm3.46,10.792a12.994,12.994,0,0,1-1.782.026l-.306-1.449a10.872,10.872,0,0,0,1.41.026c.293-.026.385-.186.385-.466V.564h1.451v10.7c0,.93-.28,1.462-1.158,1.6" transform="translate(116.319 0.463)" fill="#fff"/><path d="M149.326,6.874a9.3,9.3,0,0,0-2.368-1.665l.8-1a10.118,10.118,0,0,1,2.528,1.624Zm-.932,5.986-1.237-.891a27.967,27.967,0,0,0,2.475-4.338l1.051.865a34.8,34.8,0,0,1-2.289,4.364m1.4-9.621a10.34,10.34,0,0,0-2.261-1.571l.8-1.011a11.446,11.446,0,0,1,2.436,1.517Zm3.1,9.181V12.9h-1.425V7.578H154.2V5.821h-3.579V4.5H154.2V2.774c-1.011.134-2.024.226-2.915.254L150.8,1.75A24.572,24.572,0,0,0,158.081.566l.731,1.184a20.721,20.721,0,0,1-3.126.784V4.5h3.633V5.821h-3.633V7.578h2.861V12.9h-1.479V12.42Zm4.176-3.539h-4.178v2.237h4.178Z" transform="translate(123.631 0.476)" fill="#fff"/><path d="M158.48,11.07v-.823h-2.556V9.234h2.556V8.608h-2.462V4.351h2.462v-.6h-2.887V2.742h2.887V2.156c-.812.066-1.624.1-2.329.092l-.425-1.024a21.294,21.294,0,0,0,6-.667l.667.934a18.651,18.651,0,0,1-2.515.5v.746h2.714V3.753h-2.714v.6h2.528V8.608h-2.528v.626h2.434v1.013h-2.434v.731c.864-.053,1.716-.12,2.4-.173l.013.678c1.064-1.663,1.449-3.951,1.582-6.665h-1.09V3.526h1.131c.028-.957.028-1.943.028-2.968h1.357c0,1.026-.015,2.011-.041,2.968H167.7c-.147,5.43-.28,8.582-.8,9.074a1.37,1.37,0,0,1-.957.307c-.28.013-.878,0-1.237-.015l-.186-1.329c.306.026.784.026,1.011.026a.379.379,0,0,0,.28-.107c.239-.252.372-2.473.464-6.665h-1.062c-.175,3.447-.679,6.308-2.263,8.116l-1.3-.626c.133-.145.265-.3.4-.477-1.9.212-4.71.464-6.319.6l-.2-1.2c.746-.026,1.823-.092,2.955-.16m-1.156-5h1.156V5.31h-1.156Zm0,1.583h1.156V6.866h-1.156Zm3.723-2.34h-1.169v.757h1.169Zm0,1.556h-1.169v.784h1.169Z" transform="translate(130.838 0.469)" fill="#fff"/><path d="M166.376,6.925a9,9,0,0,0-2.21-1.755l.825-.959a10.129,10.129,0,0,1,2.4,1.7Zm-.733,5.883-1.25-.825a29.174,29.174,0,0,0,2.169-4.338l1.064.8a31.723,31.723,0,0,1-1.983,4.364m1.239-9.449a9.7,9.7,0,0,0-2.116-1.676l.825-.957a10.8,10.8,0,0,1,2.289,1.611Zm1.131,9.17-.32-1.464c.372-.013.8-.053,1.291-.079.532-1.186,1.038-2.477,1.385-3.5h-2.834V6.14h3.672V4.119h-2.848V2.8h2.848V.552h1.477V2.8h3.047V4.119h-3.047V6.14h3.846V7.484h-4.565c-.374,1-.878,2.21-1.436,3.381,1.143-.081,2.368-.188,3.432-.28-.374-.611-.8-1.224-1.278-1.863l1.212-.586a17.074,17.074,0,0,1,2.594,4.112l-1.4.665a9.256,9.256,0,0,0-.492-1.143c-2.062.265-4.911.586-6.586.759" transform="translate(138.108 0.464)" fill="#fff"/><path d="M179.508,3.035c.718,4.364,2.609,7.118,5.7,8.516l-1.237,1.329A11,11,0,0,1,178.83,6.6a10.27,10.27,0,0,1-4.9,6.281l-1.171-1.131c5.041-2.528,5.294-7.783,5.362-11.176l1.53.026c-.028.744-.066,1.571-.147,2.436" transform="translate(145.34 0.482)" fill="#fff"/><path d="M105.026,26.991V13.4h-.919V11.117h8.232v1.788h2.445V10.528h2.257v2.377h2.447v1.9h-2.07l1.738.47c-.234.8-.539,1.788-.891,2.775h1.786c-.094-2.349-.164-4.868-.188-7.453h2.211c-.024,2.611.024,5.15.092,7.453h3.764V20H122.24c.07,1.554.188,2.964.306,4.235a21.147,21.147,0,0,0,1.011-3.881l1.906.493a21.244,21.244,0,0,1-2.445,6.916c.282,1.386.633,2.21,1.033,2.256.284.048.4-.352.5-1.974l1.786.563c-.328,3.2-1.245,3.975-2.751,3.692-.823-.164-1.458-1.033-1.952-2.445a17.84,17.84,0,0,1-2.281,2.493l-1.67-1.059c.424-.376.823-.753,1.2-1.153h-4.141v.989h-2.068V20.924h6.514v8.866a16.3,16.3,0,0,0,1.81-2.375A57.131,57.131,0,0,1,120.17,20h-8.724V18.053h2.068a17.822,17.822,0,0,0-.611-2.8l1.694-.423a16.774,16.774,0,0,1,.729,3.22h1.1a31.852,31.852,0,0,0,.8-3.244h-5.054V13.4h-.8V32.376h-2.21v-3.9c-1.6.4-3.552.823-4.8,1.1l-.517-2.4c.33-.048.729-.118,1.177-.188M109.165,13.4h-1.954v2.751h1.954Zm0,4.866h-1.954V21.11h1.954Zm0,8.043V23.251h-1.954v3.41c.659-.116,1.342-.236,1.954-.354m7.925-3.456h-2.353V24.52h2.353Zm-2.353,5.362h2.353V26.425h-2.353Zm9.173-16.439a16.625,16.625,0,0,1,1.906,4.021l-1.86.659a14.778,14.778,0,0,0-1.668-4.021Z" transform="translate(87.365 8.857)" fill="#fff"/><path d="M139.24,29.944l-1.528,2.14a23.38,23.38,0,0,1-8.35-4.021v4.279H126.7V28.2A23.1,23.1,0,0,1,118.5,32.13l-1.458-2.094a20.71,20.71,0,0,0,8.372-3.362h-8.184V24.7H126.7V23.452h-6.96V21.618h6.96v-1.2h-8.019V18.49h4.727a13.983,13.983,0,0,0-.965-2.233h-5.22V14.281H121.2a13.89,13.89,0,0,0-1.718-2.563l1.976-.965a16.409,16.409,0,0,1,2,2.964l-1.153.563h2.21v-3.74h2.445v3.74h2.213v-3.74h2.491v3.74H134l-1.153-.563a22.753,22.753,0,0,0,1.952-2.988l2.257.965a28.958,28.958,0,0,1-2.14,2.587h4.139v1.976h-5.01c-.354.681-.8,1.458-1.293,2.233h4.843v1.93h-8.23v1.2h7.22v1.834h-7.22V24.7h9.691v1.976h-8.137a21.518,21.518,0,0,0,8.324,3.27M130.233,18.49c.4-.751.777-1.528,1.083-2.233h-6.281a14.36,14.36,0,0,1,.871,2.233Z" transform="translate(98.462 8.867)" fill="#fff"/><path d="M133.6,21.571V17.126h-3.082V14.751H133.6V10.54h2.539v4.211h2.21v2.375h-2.21v3.762c.8-.234,1.576-.446,2.233-.657l.212,2.257c-.729.236-1.552.541-2.445.821v6.3c0,1.552-.423,2.445-1.858,2.681a18.126,18.126,0,0,1-2.847.046c-.493-2.4-.493-2.445-.493-2.491.753.046,1.716.046,2.07.022.47-.022.589-.258.589-.705V24.158c-1.059.352-2.07.657-2.847.893l-.563-2.587c.869-.212,2.092-.539,3.41-.893m18.884,8.464-1.694,2.305A18.064,18.064,0,0,1,145.1,29.45a20.774,20.774,0,0,1-6.067,2.915l-1.67-2.14a18.6,18.6,0,0,0,5.879-2.445,16.62,16.62,0,0,1-3.364-5.34l2-.681h-2.7V19.408h4.751V16.491h-5.078v-2.4h5.078V10.54h2.611v3.554H152.2v2.4h-5.667v2.917h2.893l1.858.47a15.947,15.947,0,0,1-4.185,7.879,16.273,16.273,0,0,0,5.386,2.279M145.2,26.228a11.815,11.815,0,0,0,2.871-4.469h-5.809a12.87,12.87,0,0,0,2.939,4.469" transform="translate(109.527 8.867)" fill="#fff"/><path d="M145.253,15.348a41.535,41.535,0,0,0,1.81-4.82l2.423.541c-.471,1.2-1.129,2.7-1.86,4.163,1.388-.072,2.825-.166,4.093-.26a23.625,23.625,0,0,0-1.388-2.211l1.882-.917a18.98,18.98,0,0,1,2.964,5.174c-.048.024-.094.048-2.211.941a10.893,10.893,0,0,0-.376-1.151c-2.7.28-6.56.633-8.82.845l-.4-2.21c.517-.024,1.153-.048,1.882-.1m1.81,12.3v4.727h-2.469V18.383h9.241V30.117c0,1.247-.374,1.976-1.456,2.163a14.827,14.827,0,0,1-2.611.07L149.32,30a12.79,12.79,0,0,0,1.622.024.374.374,0,0,0,.4-.423V27.65Zm4.279-7.08h-4.279v1.576h4.279Zm0,3.48h-4.279v1.622h4.279ZM164.49,12.879a26.571,26.571,0,0,1-6.656,2.681v1.129c0,1.131.212,1.317,1.1,1.342.8.022,2.187,0,3.033,0,.919-.026,1.013-.166,1.037-2.024l2.373.376c-.258,3.434-.727,3.835-3.2,3.9-1.035.024-2.563.024-3.48,0-2.7-.068-3.316-.681-3.316-3.574V10.528h2.445v2.845a22.03,22.03,0,0,0,5.292-2.279Zm.046,10.678a26.844,26.844,0,0,1-6.7,3.057v1.552c0,1.223.236,1.412,1.1,1.434.823.024,2.187.024,3.033,0,.919-.022,1.013-.164,1.037-2.07l2.373.377c-.258,3.552-.727,3.973-3.2,4.043-1.059.024-2.541.024-3.48,0-2.683-.092-3.316-.729-3.316-3.786V20.992h2.445V24.38a21.585,21.585,0,0,0,5.314-2.587Z" transform="translate(120.613 8.857)" fill="#fff"/><path d="M162.48,26.6H156.6V24.629H170.85V23.286H159.423V15.479h6.63V14.211h-9.289V12.257h9.289V10.541h2.611v1.716h9.571v1.954h-9.571v1.269h6.96v7.807h-2.14v1.342h4.938V26.6h-4.938v3.41c0,1.317-.424,2.07-1.622,2.259a24.08,24.08,0,0,1-3.74.046l-.493-2.305c.941.072,2.3.072,2.7.048s.517-.212.517-.541V26.6H162.74a21.423,21.423,0,0,1,3.926,3.128l-2.022,1.386a18.77,18.77,0,0,0-3.786-3.244c1.057-.823,1.456-1.153,1.622-1.27m-.541-7.971h4.115V17.267h-4.115Zm0,2.867h4.115v-1.41h-4.115Zm11.077-4.231h-4.351v1.364h4.351Zm0,2.821h-4.351V21.5h4.351Z" transform="translate(131.742 8.867)" fill="#fff"/><path d="M172.866,10.95h6.4v8.866h-6.4V32.021h-2.539V10.95h2.539Zm3.951,1.928h-3.951V14.43h3.951Zm-3.951,5.01h3.951V16.24h-3.951Zm16.087-6.938h1.081V29.057c0,1.694-.5,2.659-2.117,2.893a22.966,22.966,0,0,1-3.644.024l-.517-2.469a21.565,21.565,0,0,0,2.917.07c.611-.07.775-.352.775-.941V19.816h-6.538V10.95h8.044Zm-1.506,1.928h-4.069V14.43h4.069Zm-4.069,5.01h4.069V16.24h-4.069Z" transform="translate(143.291 9.212)" fill="#fff"/><path d="M187.627,25.52V23.8h.727a13,13,0,0,0,1.412-1.386h-2.283a25.12,25.12,0,0,1-3.292,2.233l-1.5-1.716a21.175,21.175,0,0,0,2.447-1.482v-.917h1.293c.517-.423,1.011-.847,1.48-1.293h-4.773v-2h3.644V15.032h-2.445V12.988h2.445V10.541h2.4v2.447h2.233v1.856a16.921,16.921,0,0,0,1.2-2.563l2.163.587a24.35,24.35,0,0,1-2.353,4.375h1.766v1.74a23.325,23.325,0,0,0,2.609-8.442l2.445.4c-.186,1.177-.422,2.305-.705,3.41h6.351v2.281h-1.5a22.581,22.581,0,0,1-2.635,9.525,11.622,11.622,0,0,0,4.491,4.185l-1.786,2a13.589,13.589,0,0,1-4.185-4.021,20.358,20.358,0,0,1-4.493,4.069l-1.81-1.764A17.64,17.64,0,0,0,198,26.063a25.963,25.963,0,0,1-1.906-5.645,18.146,18.146,0,0,1-1.27,2.046L193.1,20.747c.33-.493.659-.989.941-1.5h-3.2c-.376.446-.775.869-1.2,1.293h2.467l1.342.751a22.422,22.422,0,0,1-3.386,3.528v.425c1.574-.19,3.1-.377,4.349-.543l.072,1.882c-1.27.19-2.823.423-4.421.659v3.057c0,1.154-.354,1.812-1.34,2a18.373,18.373,0,0,1-2.871.046l-.422-2.21c.633.048,1.528.024,1.81.024.282-.024.377-.142.377-.4V27.591c-1.6.234-3.13.422-4.259.587l-.352-2.187c1.175-.118,2.823-.282,4.611-.471m2.14-8.276a17.7,17.7,0,0,0,1.528-2.211h-2.117v2.211Zm9.641,6.3a20.562,20.562,0,0,0,1.5-6.914h-3.1l-.046.166a26.246,26.246,0,0,0,1.646,6.748" transform="translate(153.689 8.867)" fill="#fff"/><path d="M201.042,16.938a28.206,28.206,0,0,0,1.576-2.7h-6.562V12.329h9.5V10.541h2.635v1.788h9.689v1.906h-5.715a24.071,24.071,0,0,1,5.1,4.161l-2.048,1.388a14.181,14.181,0,0,0-1.316-1.412c-4.866.26-12.534.565-16.813.705l-.4-2.092c1.175-.024,2.679-.024,4.349-.048m1.223,11.5v3.927H199.7V19.878h14.415V30.084c0,1.294-.376,2-1.528,2.187a25.108,25.108,0,0,1-3.386.07l-.423-2.092c.777.046,1.882.022,2.235.022.376-.022.492-.188.492-.541V28.438Zm9.241-6.584h-9.241v1.434h9.241Zm0,3.244h-9.241v1.5h9.241Zm.425-8.394a26.009,26.009,0,0,0-2.353-1.624l1.083-.845h-5.126c-.471.8-1.083,1.738-1.74,2.655,2.751-.046,5.667-.116,8.137-.186" transform="translate(164.936 8.867)" fill="#fff"/><path d="M218.036,18.336v11.4H213.52v1.342h-2.281V23.838c-.328.541-.659,1.059-1.011,1.6l-1.223-2.187a25.109,25.109,0,0,0,3.316-10.064h-2.847V10.975H218.2v2.211h-3.48a34.169,34.169,0,0,1-1.153,5.15Zm-2.329,2.186h-2.186v6.986h2.186Zm5.174-1.057V13.3h-2.046V10.975h12.158V13.3h-2.048v6.163h2.259v2.351h-2.259V32h-2.539V21.816h-3.033v.659c0,3.738-.729,7.032-3.458,9.571L217.7,30.588c2.565-2.21,3.176-4.82,3.176-8.113v-.659H218.6V19.465Zm5.526-6.163h-3.033v6.163h3.033Z" transform="translate(175.829 9.233)" fill="#fff"/><path d="M238.5,22.23h.917l-.26,6.137c-.046,1.057.026,1.2.543,1.223h1.317c.493-.024.539-.14.659-2.094l2.421.4c-.376,3.764-.847,4.069-2.987,4.115H239.3c-2.423-.07-2.847-.727-2.729-3.644l.164-3.927h-4.421c-.963,3.762-3.174,6.3-8.3,7.925l-1.576-2.092c4.445-1.177,6.4-3.058,7.266-5.833h-6.373V22.23H230.2q.144-1.237.212-2.683l2.587.072c-.046.917-.14,1.786-.258,2.611H238.5Zm-2.07-4.846c0,.847.142,1.011.753,1.011h2.046c.611,0,.683-.092.729-1.129l2.329.354c-.236,2.587-.683,2.963-2.847,2.987-.751.024-1.88.024-2.517,0-2.467-.046-2.963-.611-2.963-3.222V14.773h-2.21c-.519,3.53-2.165,5.5-7.008,6.7L223.331,19.6c4.3-.8,5.643-2.257,6.045-4.822h-3.6V17.1h-2.539V12.611h8.56V10.54h2.681v2.071h8.748V17.1h-2.633V14.773H236.43Z" transform="translate(187.13 8.867)" fill="#fff"/><path d="M236.491,28.132l-1.245-2.447a29.694,29.694,0,0,0,3.079-8.137h-2.587V15.361h2.587v-4.82H240.7v4.82h2.024v2.187H240.7v.446c.729,1.27,1.506,2.7,1.93,3.6l-1.013,2.259c-.234-.753-.539-1.74-.917-2.753V32.366h-2.375V23.4a36.135,36.135,0,0,1-1.834,4.728m1.834-10.608v0Zm8.09,7.689a24.025,24.025,0,0,1,2.8,2.777l-1.646,1.386a16.512,16.512,0,0,0-1.624-1.928,9.412,9.412,0,0,1-2.751,4.916L241.335,31c2-1.552,2.7-4.351,2.987-7.056h-1.764V22.018h6.584c-.07-.565-.164-1.153-.234-1.764l-1.27.751a5.592,5.592,0,0,0-.212-.8c-1.364.258-3.292.611-4.443.8l-.471-1.762.705-.072c.493-.751.989-1.528,1.456-2.305a10.573,10.573,0,0,0-2.068-2.493l.845-1.456c.072.072.166.14.26.234a22.129,22.129,0,0,0,1.083-2.467l1.762.657a29.145,29.145,0,0,1-1.644,3.08,9.492,9.492,0,0,1,.657.895,21.607,21.607,0,0,0,1.293-2.541l1.53.587c-.024-.893-.07-1.834-.094-2.773h2.373c.024,3.15.144,5.971.377,8.418l.4-.048c.517-.705,1.035-1.456,1.528-2.21a10.359,10.359,0,0,0-2.093-2.423l.849-1.5c.116.094.21.188.306.26a17.1,17.1,0,0,0,1.1-2.353l1.788.611a32.153,32.153,0,0,1-1.694,2.987c.258.33.493.635.683.917.563-.917,1.033-1.788,1.385-2.515l1.788.659a56.469,56.469,0,0,1-3.5,5.36c.589-.07,1.177-.14,1.694-.212a7.682,7.682,0,0,0-.563-1.081l1.456-.847a12.586,12.586,0,0,1,1.412,3.362l-1.506.823c-.07-.234-.14-.517-.212-.775-.539.094-1.129.19-1.74.306A9.312,9.312,0,0,1,255.94,21.5l-.589.519h2.211v1.928h-5.831a19.9,19.9,0,0,0,.681,2.729,11.308,11.308,0,0,0,1.6-2.565l2.046.777a12.939,12.939,0,0,1-2.659,3.88,2.2,2.2,0,0,0,1.67,1.129c.447.024.659-.26.777-1.692l1.95.659c-.493,2.987-1.433,3.6-3.15,3.432a4.041,4.041,0,0,1-2.987-2.046,18.414,18.414,0,0,1-3.576,2.046l-1.738-1.482a15.291,15.291,0,0,0,4.349-2.421,24.605,24.605,0,0,1-1.223-4.445h-2.893c-.046.423-.118.847-.164,1.269m.471-6.467a8.824,8.824,0,0,0-.613-1.129l1.388-.847a16.629,16.629,0,0,1,1.153,2.471c-.188-1.694-.306-3.482-.4-5.41a56,56,0,0,1-3.176,5.1c.565-.048,1.129-.118,1.648-.19m7.266,3.27a11,11,0,0,0-1.388-.871l.659-.705c-.753.14-1.482.258-2.022.33l-.282-.917c.094.751.188,1.48.282,2.163Z" transform="translate(197.905 8.867)" fill="#fff"/><path d="M256.351,22.181,255.1,24.535c-.26-.8-.635-1.836-1.059-2.917V32.366H251.6V23.38a35.994,35.994,0,0,1-1.858,4.727L248.448,25.5a30.515,30.515,0,0,0,3.1-8.089h-2.7V15.2H251.6V10.541h2.445V15.2h1.882v2.211h-1.882v.869c.871,1.386,1.788,2.915,2.305,3.9m.471,4.327V20.559h4.938V19.5h-6.115V17.808h3.316V16.678h-2.094V15.01h2.094V13.927h-2.895V12.163h2.895V10.541h2.4v1.622h3.246V10.541h2.445v1.622h3.034v1.764H267.05V15.01h2.305v1.668H267.05v1.131h3.41V19.5h-6.3v1.059h5.08v5.949h1.434v1.93h-1.434v1.88c0,1.153-.306,1.788-1.317,1.976a16.139,16.139,0,0,1-2.7.072l-.4-2.094c.541.046,1.293.046,1.552.046.282-.024.376-.164.376-.423V28.438h-7.454v3.927h-2.469V28.438h-1.6v-1.93Zm4.938-4.115h-2.469v1.2h2.469Zm0,2.847h-2.469v1.269h2.469Zm2.845-11.313h-3.244V15.01h3.244Zm0,2.751h-3.244v1.131h3.244Zm2.14,5.715h-2.587v1.2h2.587Zm0,2.847h-2.587v1.269h2.587Z" transform="translate(209.011 8.867)" fill="#fff"/><path d="M105.971,28.966H104.9V30.78H103.85V25.731h2.2a1.792,1.792,0,0,1,1.213.388,1.516,1.516,0,0,1,.453,1.21,1.55,1.55,0,0,1-.453,1.265,1.986,1.986,0,0,1-1.291.372m.493-1.053a.734.734,0,0,0,.2-.576.677.677,0,0,0-.208-.562.892.892,0,0,0-.58-.168H104.9v1.486h.983a.871.871,0,0,0,.584-.18" transform="translate(87.366 21.646)" fill="#fff"/><path d="M108.507,28.8h-1.092v1.979h-1.031V25.73h2.478a2.288,2.288,0,0,1,.816.129,1.3,1.3,0,0,1,.486.354,1.685,1.685,0,0,1,.261.425,1.4,1.4,0,0,1,.094.53,1.508,1.508,0,0,1-.18.709,1.026,1.026,0,0,1-.6.492.957.957,0,0,1,.493.4,1.686,1.686,0,0,1,.145.792V29.9a2.587,2.587,0,0,0,.028.47.423.423,0,0,0,.191.287v.127h-1.16c-.033-.112-.055-.2-.07-.271a2.435,2.435,0,0,1-.044-.436l-.007-.47a.923.923,0,0,0-.175-.644.955.955,0,0,0-.635-.158m.639-.921a.561.561,0,0,0,.315-.569.631.631,0,0,0-.3-.617,1.169,1.169,0,0,0-.514-.087h-1.228v1.355h1.2a1.324,1.324,0,0,0,.534-.083" transform="translate(89.497 21.645)" fill="#fff"/><path d="M111.436,30.991a2.208,2.208,0,0,1-1.655-.589,2.723,2.723,0,0,1-.768-2.084,2.67,2.67,0,0,1,.768-2.082,2.62,2.62,0,0,1,3.311,0,2.675,2.675,0,0,1,.764,2.082,2.728,2.728,0,0,1-.764,2.084,2.205,2.205,0,0,1-1.655.589m1-1.357a2.536,2.536,0,0,0,0-2.629,1.207,1.207,0,0,0-1-.464,1.223,1.223,0,0,0-1,.462,2.5,2.5,0,0,0,0,2.631,1.311,1.311,0,0,0,2,0" transform="translate(91.709 21.575)" fill="#fff"/><path d="M115.653,26.621h-2.532v1.162h2.217v.878h-2.217v2.116h-1.05V25.734h3.581Z" transform="translate(94.282 21.649)" fill="#fff"/><path d="M117.9,28.574h-2.454v1.3h2.8v.908H114.41V25.731h3.7v.893h-2.674V27.7H117.9Z" transform="translate(96.249 21.646)" fill="#fff"/><path d="M118.872,30.119a1.84,1.84,0,0,0,.606-.083.586.586,0,0,0,.442-.586.433.433,0,0,0-.219-.387,2.353,2.353,0,0,0-.689-.238l-.534-.12a3.376,3.376,0,0,1-1.09-.387,1.234,1.234,0,0,1-.512-1.094,1.463,1.463,0,0,1,.493-1.127,2.085,2.085,0,0,1,1.451-.449,2.187,2.187,0,0,1,1.361.423,1.514,1.514,0,0,1,.593,1.228h-1.015a.73.73,0,0,0-.4-.648,1.362,1.362,0,0,0-.613-.125,1.14,1.14,0,0,0-.652.164.523.523,0,0,0-.243.458.436.436,0,0,0,.239.405,3.007,3.007,0,0,0,.659.208l.871.21a2.223,2.223,0,0,1,.862.366,1.235,1.235,0,0,1,.453,1.031,1.457,1.457,0,0,1-.528,1.149,2.219,2.219,0,0,1-1.5.458,2.441,2.441,0,0,1-1.552-.449,1.5,1.5,0,0,1-.565-1.241H117.8a1.058,1.058,0,0,0,.188.517,1.083,1.083,0,0,0,.882.313" transform="translate(98.256 21.578)" fill="#fff"/><path d="M121.407,30.119a1.84,1.84,0,0,0,.606-.083.586.586,0,0,0,.442-.586.433.433,0,0,0-.219-.387,2.353,2.353,0,0,0-.689-.238l-.534-.12a3.376,3.376,0,0,1-1.09-.387,1.234,1.234,0,0,1-.512-1.094A1.463,1.463,0,0,1,119.9,26.1a2.084,2.084,0,0,1,1.451-.449,2.187,2.187,0,0,1,1.361.423,1.513,1.513,0,0,1,.593,1.228h-1.015a.73.73,0,0,0-.4-.648,1.362,1.362,0,0,0-.613-.125,1.139,1.139,0,0,0-.652.164.523.523,0,0,0-.243.458.436.436,0,0,0,.239.405,3.008,3.008,0,0,0,.659.208l.871.21a2.223,2.223,0,0,1,.862.366,1.234,1.234,0,0,1,.453,1.031,1.457,1.457,0,0,1-.528,1.149,2.219,2.219,0,0,1-1.5.458,2.441,2.441,0,0,1-1.552-.449,1.5,1.5,0,0,1-.565-1.241h1.007a1.059,1.059,0,0,0,.188.517,1.083,1.083,0,0,0,.882.313" transform="translate(100.388 21.578)" fill="#fff"/><rect width="1.05" height="5.051" transform="translate(224.546 47.376)" fill="#fff"/><path d="M125.368,30.991a2.208,2.208,0,0,1-1.655-.589,2.723,2.723,0,0,1-.768-2.084,2.67,2.67,0,0,1,.768-2.082,2.62,2.62,0,0,1,3.311,0,2.675,2.675,0,0,1,.764,2.082,2.728,2.728,0,0,1-.764,2.084,2.205,2.205,0,0,1-1.655.589m1-1.357a2.536,2.536,0,0,0,0-2.629,1.207,1.207,0,0,0-1-.464,1.223,1.223,0,0,0-1,.462,2.5,2.5,0,0,0,0,2.631,1.311,1.311,0,0,0,2,0" transform="translate(103.43 21.575)" fill="#fff"/><path d="M130.1,30.781h-1.055l-2.062-3.589v3.589H126V25.73h1.1l2.013,3.526V25.73h.983Z" transform="translate(105.997 21.646)" fill="#fff"/><path d="M131.869,29.741h-1.86l-.35,1.038h-1.1l1.8-5.049h1.2l1.788,5.049H132.2Zm-.295-.869-.63-1.987-.652,1.987Z" transform="translate(108.151 21.646)" fill="#fff"/><path d="M131.5,25.73h1.055v4.143h2.5v.908H131.5Z" transform="translate(110.623 21.646)" fill="#fff"/><path d="M138.73,25.73v.895h-1.512v4.156h-1.062V26.625h-1.517V25.73Z" transform="translate(113.267 21.646)" fill="#fff"/><path d="M139.324,28.8h-1.092v1.979H137.2V25.73h2.478a2.288,2.288,0,0,1,.816.129,1.3,1.3,0,0,1,.486.354,1.684,1.684,0,0,1,.261.425,1.4,1.4,0,0,1,.094.53,1.507,1.507,0,0,1-.18.709,1.026,1.026,0,0,1-.6.492.957.957,0,0,1,.493.4,1.663,1.663,0,0,1,.145.792V29.9a2.587,2.587,0,0,0,.028.47.423.423,0,0,0,.192.287v.127h-1.16c-.033-.112-.055-.2-.07-.271a2.435,2.435,0,0,1-.044-.436l-.007-.47a.923.923,0,0,0-.175-.644.955.955,0,0,0-.635-.158m.639-.921a.561.561,0,0,0,.315-.569.63.63,0,0,0-.3-.617,1.169,1.169,0,0,0-.514-.087h-1.228v1.355h1.2a1.324,1.324,0,0,0,.534-.083" transform="translate(115.423 21.645)" fill="#fff"/><path d="M143.052,29.741h-1.86l-.35,1.038h-1.1l1.8-5.049h1.195l1.788,5.049h-1.145Zm-.295-.869-.63-1.987-.652,1.987Z" transform="translate(117.559 21.646)" fill="#fff"/><rect width="1.05" height="5.051" transform="translate(262.627 47.376)" fill="#fff"/><path d="M147.821,30.781h-1.055L144.7,27.192v3.589h-.983V25.73h1.1l2.013,3.526V25.73h.983Z" transform="translate(120.907 21.646)" fill="#fff"/><rect width="1.05" height="5.051" transform="translate(269.615 47.376)" fill="#fff"/><path d="M151.617,30.781h-1.055L148.5,27.192v3.589h-.983V25.73h1.1l2.013,3.526V25.73h.983Z" transform="translate(124.101 21.646)" fill="#fff"/><path d="M153.48,30.717a1.925,1.925,0,0,1-1.027.258,2.137,2.137,0,0,1-1.646-.7,2.662,2.662,0,0,1-.668-1.911,2.814,2.814,0,0,1,.676-1.968,2.3,2.3,0,0,1,1.786-.74,2.331,2.331,0,0,1,1.547.49,1.806,1.806,0,0,1,.668,1.217h-1.037a1,1,0,0,0-.586-.724,1.448,1.448,0,0,0-.58-.112,1.257,1.257,0,0,0-1,.46,2.1,2.1,0,0,0-.392,1.386,1.726,1.726,0,0,0,.423,1.318,1.393,1.393,0,0,0,.969.389,1.239,1.239,0,0,0,.869-.307,1.322,1.322,0,0,0,.418-.8h-1.169V28.13h2.1v2.71h-.7l-.107-.63a2.438,2.438,0,0,1-.549.506" transform="translate(126.306 21.586)" fill="#fff"/><path d="M156.414,28.8h-1.092v1.979h-1.031V25.73h2.478a2.308,2.308,0,0,1,.818.129,1.3,1.3,0,0,1,.484.354,1.685,1.685,0,0,1,.261.425,1.4,1.4,0,0,1,.094.53,1.507,1.507,0,0,1-.18.709,1.026,1.026,0,0,1-.6.492.957.957,0,0,1,.493.4,1.663,1.663,0,0,1,.145.792V29.9a2.587,2.587,0,0,0,.028.47.423.423,0,0,0,.191.287v.127h-1.16c-.033-.112-.055-.2-.07-.271a2.438,2.438,0,0,1-.044-.436l-.007-.47a.923.923,0,0,0-.175-.644.955.955,0,0,0-.635-.158m.639-.921a.561.561,0,0,0,.315-.569.631.631,0,0,0-.3-.617,1.169,1.169,0,0,0-.514-.087h-1.228v1.355h1.2a1.324,1.324,0,0,0,.534-.083" transform="translate(129.8 21.645)" fill="#fff"/><path d="M160.525,28.574h-2.454v1.3h2.8v.908H157.04V25.731h3.7v.893h-2.674V27.7h2.454Z" transform="translate(132.113 21.646)" fill="#fff"/><path d="M161.5,30.119a1.84,1.84,0,0,0,.606-.083.586.586,0,0,0,.442-.586.433.433,0,0,0-.219-.387,2.353,2.353,0,0,0-.689-.238l-.534-.12a3.376,3.376,0,0,1-1.09-.387,1.234,1.234,0,0,1-.512-1.094A1.463,1.463,0,0,1,160,26.1a2.084,2.084,0,0,1,1.451-.449,2.187,2.187,0,0,1,1.361.423A1.513,1.513,0,0,1,163.4,27.3H162.39a.734.734,0,0,0-.4-.648,1.362,1.362,0,0,0-.613-.125,1.14,1.14,0,0,0-.652.164.523.523,0,0,0-.243.458.436.436,0,0,0,.239.405,3.008,3.008,0,0,0,.659.208l.871.21a2.223,2.223,0,0,1,.862.366,1.234,1.234,0,0,1,.453,1.031,1.457,1.457,0,0,1-.528,1.149,2.219,2.219,0,0,1-1.5.458,2.44,2.44,0,0,1-1.552-.449,1.5,1.5,0,0,1-.565-1.241h1.007a1.059,1.059,0,0,0,.188.517,1.083,1.083,0,0,0,.882.313" transform="translate(134.12 21.578)" fill="#fff"/><path d="M165.6,28.574h-2.454v1.3h2.8v.908H162.11V25.731h3.7v.893h-2.673V27.7H165.6Z" transform="translate(136.378 21.646)" fill="#fff"/><path d="M167.746,29.741h-1.86l-.35,1.038h-1.1l1.8-5.049h1.195l1.79,5.049h-1.147Zm-.293-.869-.632-1.987-.652,1.987Z" transform="translate(138.333 21.646)" fill="#fff"/><path d="M169.509,28.8h-1.092v1.979h-1.031V25.73h2.478a2.288,2.288,0,0,1,.816.129,1.3,1.3,0,0,1,.486.354,1.683,1.683,0,0,1,.261.425,1.4,1.4,0,0,1,.094.53,1.507,1.507,0,0,1-.18.709,1.026,1.026,0,0,1-.6.492.957.957,0,0,1,.493.4,1.685,1.685,0,0,1,.145.792V29.9a2.588,2.588,0,0,0,.028.47.423.423,0,0,0,.192.287v.127h-1.16c-.033-.112-.055-.2-.07-.271a2.43,2.43,0,0,1-.044-.436l-.007-.47a.923.923,0,0,0-.175-.644.955.955,0,0,0-.635-.158m.639-.921a.561.561,0,0,0,.315-.569.631.631,0,0,0-.3-.617,1.168,1.168,0,0,0-.514-.087h-1.228v1.355h1.2a1.324,1.324,0,0,0,.534-.083" transform="translate(140.816 21.645)" fill="#fff"/><path d="M173.783,30.448a2.049,2.049,0,0,1-1.445.517,2.18,2.18,0,0,1-1.714-.7A2.8,2.8,0,0,1,170,28.341a2.771,2.771,0,0,1,.711-2.038,2.392,2.392,0,0,1,3.432.212,1.81,1.81,0,0,1,.35.943h-1.055a1.4,1.4,0,0,0-.265-.549,1.071,1.071,0,0,0-.853-.33,1.058,1.058,0,0,0-.908.464,2.224,2.224,0,0,0-.331,1.315,1.974,1.974,0,0,0,.35,1.274,1.112,1.112,0,0,0,.893.423,1.022,1.022,0,0,0,.847-.365,1.578,1.578,0,0,0,.267-.587h1.046a2.276,2.276,0,0,1-.7,1.344" transform="translate(143.015 21.601)" fill="#fff"/><path d="M175.879,30.781V28.527h-1.974v2.254h-1.046V25.73h1.046v1.926h1.974V25.73h1.048v5.051Z" transform="translate(145.421 21.646)" fill="#fff"/><path d="M178.979,30.991a2.208,2.208,0,0,1-1.655-.589,2.723,2.723,0,0,1-.768-2.084,2.67,2.67,0,0,1,.768-2.082,2.62,2.62,0,0,1,3.311,0,2.675,2.675,0,0,1,.764,2.082,2.728,2.728,0,0,1-.764,2.084,2.205,2.205,0,0,1-1.655.589m1-1.357a2.536,2.536,0,0,0,0-2.629,1.207,1.207,0,0,0-1-.464,1.223,1.223,0,0,0-1,.462,2.5,2.5,0,0,0,0,2.631,1.311,1.311,0,0,0,2,0" transform="translate(148.531 21.575)" fill="#fff"/><path d="M181.752,28.8H180.66v1.979h-1.031V25.73h2.478a2.288,2.288,0,0,1,.816.129,1.3,1.3,0,0,1,.486.354,1.686,1.686,0,0,1,.261.425,1.4,1.4,0,0,1,.094.53,1.508,1.508,0,0,1-.18.709,1.026,1.026,0,0,1-.6.492.957.957,0,0,1,.493.4,1.663,1.663,0,0,1,.145.792V29.9a2.59,2.59,0,0,0,.028.47.423.423,0,0,0,.191.287v.127h-1.16c-.033-.112-.055-.2-.07-.271a2.44,2.44,0,0,1-.044-.436l-.007-.47a.924.924,0,0,0-.175-.644.955.955,0,0,0-.635-.158m.639-.921a.561.561,0,0,0,.315-.569.63.63,0,0,0-.3-.617,1.168,1.168,0,0,0-.514-.087H180.66v1.355h1.2a1.324,1.324,0,0,0,.534-.083" transform="translate(151.116 21.645)" fill="#fff"/><path d="M185.571,30.717a1.925,1.925,0,0,1-1.027.258,2.137,2.137,0,0,1-1.646-.7,2.662,2.662,0,0,1-.668-1.911A2.814,2.814,0,0,1,182.9,26.4a2.3,2.3,0,0,1,1.786-.74,2.331,2.331,0,0,1,1.547.49,1.806,1.806,0,0,1,.668,1.217h-1.037a1,1,0,0,0-.585-.724,1.448,1.448,0,0,0-.58-.112,1.257,1.257,0,0,0-1,.46,2.1,2.1,0,0,0-.392,1.386,1.726,1.726,0,0,0,.424,1.318,1.392,1.392,0,0,0,.969.389,1.239,1.239,0,0,0,.869-.307,1.322,1.322,0,0,0,.418-.8H184.82V28.13h2.1v2.71h-.7l-.107-.63a2.436,2.436,0,0,1-.549.506" transform="translate(153.303 21.586)" fill="#fff"/><path d="M188.437,29.741h-1.86l-.35,1.038h-1.1l1.8-5.049h1.195l1.788,5.049h-1.145Zm-.295-.869-.63-1.987-.652,1.987Z" transform="translate(155.74 21.646)" fill="#fff"/><path d="M192.154,30.781H191.1l-2.062-3.589v3.589h-.983V25.73h1.1l2.012,3.526V25.73h.983Z" transform="translate(158.204 21.646)" fill="#fff"/><rect width="1.05" height="5.051" transform="translate(351.246 47.376)" fill="#fff"/><path d="M195.6,30.781h-3.931V29.89l2.607-3.265h-2.541V25.73h3.857v.845l-2.642,3.314h2.65Z" transform="translate(161.242 21.646)" fill="#fff"/><path d="M197.3,29.741h-1.86l-.35,1.038h-1.1l1.8-5.049h1.195l1.788,5.049h-1.145ZM197,28.872l-.63-1.987-.652,1.987Z" transform="translate(163.195 21.646)" fill="#fff"/><path d="M200.788,25.73v.895h-1.512v4.156h-1.062V26.625H196.7V25.73Z" transform="translate(165.475 21.646)" fill="#fff"/><rect width="1.05" height="5.051" transform="translate(366.782 47.376)" fill="#fff"/><path d="M202.617,30.991a2.208,2.208,0,0,1-1.655-.589,2.723,2.723,0,0,1-.768-2.084,2.67,2.67,0,0,1,.768-2.082,2.62,2.62,0,0,1,3.311,0,2.675,2.675,0,0,1,.764,2.082,2.728,2.728,0,0,1-.764,2.084,2.205,2.205,0,0,1-1.655.589m1-1.357a2.536,2.536,0,0,0,0-2.629,1.207,1.207,0,0,0-1-.464,1.223,1.223,0,0,0-1,.462,2.5,2.5,0,0,0,0,2.631,1.311,1.311,0,0,0,2,0" transform="translate(168.417 21.575)" fill="#fff"/><path d="M207.345,30.781H206.29l-2.062-3.589v3.589h-.983V25.73h1.1l2.013,3.526V25.73h.983Z" transform="translate(170.983 21.646)" fill="#fff"/><path d="M209.118,29.741h-1.86l-.35,1.038h-1.1l1.8-5.049H208.8l1.788,5.049h-1.145Zm-.295-.869-.63-1.987-.652,1.987Z" transform="translate(173.138 21.646)" fill="#fff"/><path d="M208.743,25.73H209.8v4.143h2.5v.908h-3.555Z" transform="translate(175.609 21.646)" fill="#fff"/><path d="M214.436,30.991a2.208,2.208,0,0,1-1.655-.589,2.723,2.723,0,0,1-.768-2.084,2.67,2.67,0,0,1,.768-2.082,2.62,2.62,0,0,1,3.311,0,2.675,2.675,0,0,1,.764,2.082,2.728,2.728,0,0,1-.764,2.084,2.205,2.205,0,0,1-1.655.589m1-1.357a2.536,2.536,0,0,0,0-2.629,1.207,1.207,0,0,0-1-.464,1.223,1.223,0,0,0-1,.462,2.5,2.5,0,0,0,0,2.631,1.311,1.311,0,0,0,2,0" transform="translate(178.36 21.575)" fill="#fff"/><path d="M218.653,26.621h-2.532v1.162h2.217v.878h-2.217v2.116h-1.05V25.734h3.581Z" transform="translate(180.933 21.649)" fill="#fff"/><path d="M220.764,30.991a2.208,2.208,0,0,1-1.655-.589,2.723,2.723,0,0,1-.768-2.084,2.67,2.67,0,0,1,.768-2.082,2.62,2.62,0,0,1,3.311,0,2.675,2.675,0,0,1,.764,2.082,2.728,2.728,0,0,1-.764,2.084,2.205,2.205,0,0,1-1.655.589m1-1.357a2.536,2.536,0,0,0,0-2.629,1.207,1.207,0,0,0-1-.464,1.223,1.223,0,0,0-1,.462,2.5,2.5,0,0,0,0,2.631,1.311,1.311,0,0,0,2,0" transform="translate(183.683 21.575)" fill="#fff"/><path d="M225.065,30.448a2.049,2.049,0,0,1-1.445.517,2.18,2.18,0,0,1-1.714-.7,2.8,2.8,0,0,1-.624-1.926,2.771,2.771,0,0,1,.711-2.038,2.392,2.392,0,0,1,3.432.212,1.81,1.81,0,0,1,.35.943h-1.055a1.4,1.4,0,0,0-.265-.549,1.071,1.071,0,0,0-.852-.33,1.057,1.057,0,0,0-.908.464,2.224,2.224,0,0,0-.331,1.315,1.974,1.974,0,0,0,.35,1.274,1.112,1.112,0,0,0,.893.423,1.022,1.022,0,0,0,.847-.365,1.579,1.579,0,0,0,.267-.587h1.046a2.276,2.276,0,0,1-.7,1.344" transform="translate(186.157 21.601)" fill="#fff"/><path d="M227.81,30.448a2.052,2.052,0,0,1-1.445.517,2.18,2.18,0,0,1-1.714-.7,2.8,2.8,0,0,1-.624-1.926,2.771,2.771,0,0,1,.711-2.038,2.392,2.392,0,0,1,3.432.212,1.811,1.811,0,0,1,.35.943h-1.055a1.4,1.4,0,0,0-.265-.549,1.071,1.071,0,0,0-.853-.33,1.058,1.058,0,0,0-.908.464,2.224,2.224,0,0,0-.331,1.315,1.974,1.974,0,0,0,.35,1.274,1.112,1.112,0,0,0,.893.423,1.022,1.022,0,0,0,.847-.365,1.579,1.579,0,0,0,.267-.587h1.046a2.276,2.276,0,0,1-.7,1.344" transform="translate(188.466 21.601)" fill="#fff"/><path d="M229.879,28.834v-3.1h1.072v3.1a2.622,2.622,0,0,1-.249,1.256,2.341,2.341,0,0,1-3.561,0,2.62,2.62,0,0,1-.25-1.256v-3.1h1.072v3.1a1.778,1.778,0,0,0,.123.762,1.035,1.035,0,0,0,1.67,0,1.75,1.75,0,0,0,.123-.762" transform="translate(190.876 21.645)" fill="#fff"/><path d="M231.771,28.966H230.7V30.78H229.65V25.731h2.2a1.792,1.792,0,0,1,1.213.388,1.515,1.515,0,0,1,.453,1.21,1.55,1.55,0,0,1-.453,1.265,1.986,1.986,0,0,1-1.291.372m.493-1.053a.734.734,0,0,0,.2-.576.677.677,0,0,0-.208-.562.892.892,0,0,0-.58-.168H230.7v1.486h.983a.871.871,0,0,0,.584-.18" transform="translate(193.197 21.646)" fill="#fff"/><path d="M235.29,29.741h-1.86l-.35,1.038h-1.1l1.8-5.049h1.195l1.788,5.049h-1.145ZM235,28.872l-.63-1.987-.652,1.987Z" transform="translate(195.156 21.646)" fill="#fff"/><path d="M238.779,25.73v.895h-1.512v4.156H236.2V26.625h-1.517V25.73Z" transform="translate(197.435 21.646)" fill="#fff"/><rect width="1.05" height="5.051" transform="translate(436.734 47.376)" fill="#fff"/><path d="M240.608,30.991a2.208,2.208,0,0,1-1.655-.589,2.723,2.723,0,0,1-.768-2.084,2.67,2.67,0,0,1,.768-2.082,2.62,2.62,0,0,1,3.311,0,2.675,2.675,0,0,1,.764,2.082,2.728,2.728,0,0,1-.764,2.084,2.205,2.205,0,0,1-1.655.589m1-1.357a2.536,2.536,0,0,0,0-2.629,1.207,1.207,0,0,0-1-.464,1.223,1.223,0,0,0-1,.462,2.5,2.5,0,0,0,0,2.631,1.311,1.311,0,0,0,2,0" transform="translate(200.377 21.575)" fill="#fff"/><path d="M245.336,30.781h-1.055l-2.062-3.589v3.589h-.983V25.73h1.1l2.013,3.526V25.73h.983Z" transform="translate(202.944 21.646)" fill="#fff"/><path d="M247.108,29.741h-1.86l-.35,1.038h-1.1l1.8-5.049h1.2l1.788,5.049h-1.145Zm-.295-.869-.63-1.987-.652,1.987Z" transform="translate(205.098 21.646)" fill="#fff"/><path d="M246.735,25.73h1.055v4.143h2.5v.908h-3.555Z" transform="translate(207.57 21.646)" fill="#fff"/><path d="M252.052,30.119a1.84,1.84,0,0,0,.606-.083.586.586,0,0,0,.442-.586.433.433,0,0,0-.219-.387,2.352,2.352,0,0,0-.689-.238l-.534-.12a3.377,3.377,0,0,1-1.09-.387,1.234,1.234,0,0,1-.512-1.094,1.463,1.463,0,0,1,.493-1.127A2.085,2.085,0,0,1,252,25.65a2.187,2.187,0,0,1,1.361.423,1.514,1.514,0,0,1,.593,1.228h-1.014a.73.73,0,0,0-.4-.648,1.362,1.362,0,0,0-.613-.125,1.139,1.139,0,0,0-.652.164.523.523,0,0,0-.243.458.436.436,0,0,0,.239.405,3.009,3.009,0,0,0,.659.208l.871.21a2.223,2.223,0,0,1,.862.366,1.235,1.235,0,0,1,.453,1.031,1.457,1.457,0,0,1-.528,1.149,2.219,2.219,0,0,1-1.5.458,2.44,2.44,0,0,1-1.552-.449,1.5,1.5,0,0,1-.565-1.241h1.007a1.059,1.059,0,0,0,.188.517,1.083,1.083,0,0,0,.882.313" transform="translate(210.296 21.578)" fill="#fff"/><path d="M257.11,30.781h-1.359l-1.558-2.208-.5.519v1.688H252.65V25.73h1.038v2.079l1.95-2.079H257l-2.07,2.079Z" transform="translate(212.546 21.646)" fill="#fff"/><rect width="1.05" height="5.051" transform="translate(470.153 47.376)" fill="#fff"/><path d="M256.438,25.73h1.055v4.143h2.5v.908h-3.556Z" transform="translate(215.733 21.646)" fill="#fff"/><path d="M258.759,25.73h1.055v4.143h2.5v.908h-3.555Z" transform="translate(217.685 21.646)" fill="#fff"/><path d="M90.987.177a25.9,25.9,0,1,0,25.9,25.9,25.905,25.905,0,0,0-25.9-25.9m11.6,33.736a14.006,14.006,0,1,1,2.4-7.831,14.009,14.009,0,0,1-2.4,7.831" transform="translate(54.751 0.149)" fill="#fff"/><path d="M81.974,10.891a6.179,6.179,0,1,1-6.179,6.179,6.18,6.18,0,0,1,6.179-6.179" transform="translate(63.764 9.162)" fill="#fff" fill-rule="evenodd"/><path d="M38.7,21.638a6.179,6.179,0,1,1-6.179,6.179A6.18,6.18,0,0,1,38.7,21.638" transform="translate(27.356 18.203)" fill="#fff" fill-rule="evenodd"/><path d="M67.536,33.5a17.848,17.848,0,0,0,8.05-5.824c4.743-6.117,4.038-16.89-1.372-22.3Q68.947.106,59.075.1H32.7v37.33H44.35V10.42H58.112a10.476,10.476,0,0,1,6.6,1.854c3.265,2.552,3.119,8.394.112,11.057q-2.262,2-6.492,2H49.3L66.867,52.047H80.224Z" transform="translate(27.507 0.088)" fill="#fff" fill-rule="evenodd"/><path d="M41.517,5.268Q36.25,0,26.378,0H0V52.135H11.653V10.315H25.415a10.476,10.476,0,0,1,6.6,1.854,6.75,6.75,0,0,1,2.39,5.111c0,.083.006.166.006.249s0,.164-.006.247a6.754,6.754,0,0,1-2.39,5.113,8.194,8.194,0,0,1-2.988,1.425,9.469,9.469,0,0,1-.335,10.665q8.189-.558,12.823-5.191c3-3,4.542-7.662,4.517-12.259.026-4.6-1.512-9.256-4.517-12.261" transform="translate(0 0)" fill="#fff" fill-rule="evenodd"/><path d="M14.224,12.611A6.179,6.179,0,1,1,8.045,18.79a6.18,6.18,0,0,1,6.179-6.179" transform="translate(6.768 10.609)" fill="#fff" fill-rule="evenodd"/></g></g></svg>