<svg xmlns="http://www.w3.org/2000/svg" xmlns:xlink="http://www.w3.org/1999/xlink" width="90" height="90" viewBox="0 0 90 90">
  <defs>
    <clipPath id="clip-path">
      <rect id="長方形_501" data-name="長方形 501" width="64.397" height="89.058" fill="none"/>
    </clipPath>
  </defs>
  <g id="グループ_900" data-name="グループ 900" transform="translate(-241.17 -2425)">
    <rect id="長方形_502" data-name="長方形 502" width="90" height="90" transform="translate(241.17 2425)" fill="none"/>
    <g id="グループ_641" data-name="グループ 641" transform="translate(257.427 2425)">
      <line id="線_84" data-name="線 84" x2="15.375" transform="translate(18.919 12.955)" fill="none" stroke="#164b99" stroke-linecap="round" stroke-linejoin="round" stroke-width="2"/>
      <line id="線_85" data-name="線 85" x2="32.89" transform="translate(10.161 21.398)" fill="none" stroke="#164b99" stroke-linecap="round" stroke-linejoin="round" stroke-width="2"/>
      <line id="線_86" data-name="線 86" x2="32.89" transform="translate(10.161 29.839)" fill="none" stroke="#164b99" stroke-linecap="round" stroke-linejoin="round" stroke-width="2"/>
      <g id="グループ_640" data-name="グループ 640">
        <g id="グループ_639" data-name="グループ 639" clip-path="url(#clip-path)">
          <path id="パス_928" data-name="パス 928" d="M27.291,69.245H1V1H52.479V40.021" transform="translate(-0.426 -0.426)" fill="none" stroke="#164b99" stroke-linecap="round" stroke-linejoin="round" stroke-width="2"/>
          <path id="パス_929" data-name="パス 929" d="M54.326,117.074,46.9,133.162l7.584-1.9,3.571,7.055,7.43-16.088" transform="translate(-19.966 -49.832)" fill="none" stroke="#164b99" stroke-linecap="round" stroke-linejoin="round" stroke-width="2"/>
          <path id="パス_930" data-name="パス 930" d="M89.933,117.074l7.43,16.088-7.584-1.9-3.571,7.055-7.43-16.088" transform="translate(-33.54 -49.832)" fill="none" stroke="#164b99" stroke-linecap="round" stroke-linejoin="round" stroke-width="2"/>
          <ellipse id="楕円形_71" data-name="楕円形 71" cx="14.458" cy="14.461" rx="14.458" ry="14.461" transform="translate(30.919 43.261)" fill="none" stroke="#164b99" stroke-linecap="round" stroke-linejoin="round" stroke-width="2"/>
          <ellipse id="楕円形_72" data-name="楕円形 72" cx="7.478" cy="7.48" rx="7.478" ry="7.48" transform="translate(37.898 50.243)" fill="none" stroke="#164b99" stroke-linecap="round" stroke-linejoin="round" stroke-width="2"/>
        </g>
      </g>
    </g>
  </g>
</svg>
