<svg xmlns="http://www.w3.org/2000/svg" width="1077.749" height="352.023" viewBox="0 0 1077.749 352.023"><g transform="translate(-253.5 -265.003)" opacity="0.25"><path d="M132.153,13A41.672,41.672,0,1,1,90.486,54.669,41.666,41.666,0,0,1,132.153,13" transform="translate(1024.4 387.236)" fill="#00a0e9" fill-rule="evenodd"/><path d="M252.392.212a174.7,174.7,0,1,0,174.7,174.7A174.7,174.7,0,0,0,252.392.212m78.237,227.5a94.458,94.458,0,1,1,16.153-52.806,94.462,94.462,0,0,1-16.153,52.806" transform="translate(904.161 266.996)" fill="#006eb8"/><g transform="translate(617.387 266.314)"><path d="M80.487,25.832A41.672,41.672,0,1,1,38.82,67.5,41.673,41.673,0,0,1,80.487,25.832" transform="translate(-38.82 241.537)" fill="#00a0e9" fill-rule="evenodd"/><path d="M273.983,225.309q33.528-12.512,54.293-39.285C360.26,144.784,355.5,72.132,319.02,35.656Q283.495.131,216.933.126H39.034V251.862h78.59V69.688h92.808q28.52,0,44.527,12.5C276.979,99.4,276,138.8,255.719,156.755q-15.258,13.511-43.788,13.511h-60.94L269.479,350.412h90.073Z" transform="translate(-36.808 -0.126)" fill="#006eb8" fill-rule="evenodd"/></g><g transform="translate(253.5 265)"><path d="M279.986,35.53Q244.461.005,177.9,0H0V351.6H78.59V69.562H171.4q28.5,0,44.527,12.5c10.359,8.1,15.56,21.1,16.111,34.479,0,.551.042,1.113.042,1.664s-.042,1.113-.042,1.675c-.551,13.376-5.752,26.377-16.111,34.469a55.29,55.29,0,0,1-20.147,9.621A63.825,63.825,0,0,1,193.5,235.9q55.245-3.776,86.485-35c20.261-20.272,30.631-51.683,30.454-82.688.177-31-10.193-62.417-30.454-82.678" transform="translate(0 0.003)" fill="#006eb8" fill-rule="evenodd"/><path d="M51.271,15.055A41.672,41.672,0,1,1,9.6,56.722,41.673,41.673,0,0,1,51.271,15.055" transform="translate(90.287 141.536)" fill="#00a0e9" fill-rule="evenodd"/></g></g></svg>